<?xml version="1.0" encoding="UTF-8" standalone="no"?>
<!-- Created with Inkscape (http://www.inkscape.org/) -->

<svg
   width="203.26147mm"
   height="155.64146mm"
   viewBox="0 0 203.26147 155.64146"
   version="1.1"
   id="svg1658"
   xmlns="http://www.w3.org/2000/svg"
   xmlns:svg="http://www.w3.org/2000/svg"
   xmlns:rdf="http://www.w3.org/1999/02/22-rdf-syntax-ns#"
   xmlns:cc="http://creativecommons.org/ns#"
   xmlns:dc="http://purl.org/dc/elements/1.1/">
  <title
     id="title30">aguascalientes1</title>
  <defs
     id="defs1655">
    <clipPath
       id="clip">
      <rect
         width="768.2323"
         height="588.25116"
         x="0"
         y="0"
         transform="matrix(7.5101635,0,0,7.5101635,-538815.2,-117613.6)"
         id="rect39" />
    </clipPath>
    <clipPath
       id="clip2">
      <rect
         width="768.2323"
         height="588.25116"
         x="0"
         y="0"
         transform="translate(-71744.803,-15660.591)"
         id="rect42" />
    </clipPath>
    <pattern
       patternUnits="userSpaceOnUse"
       id="VBAPattern"
       y="0"
       x="0"
       height="8"
       width="8">
      <path
         id="path45"
         fill="#d2d2d2"
         d="M4,0L8,0L8,4L4,4L4,0M0,4L4,4L4,8L0,8L0,4" />
    </pattern>
  </defs>
  <g
     id="layer1"
     transform="translate(-5.1750345,-53.54466)">
    <g
       id="g1708"
       transform="matrix(0.26458333,0,0,0.26458333,2.0316375,50.400595)">
      <g
         transform="matrix(0.1331529,0,0,0.1331529,71756.687,15672.475)"
         clip-path="url(#clip)"
         id="Areas"
         style="visibility:visible">
        <path
           d="m -942472.56,-471233.66 v 0 h 1041.96 1047.2 1047.2 1047.19 1047.2 1047.2 1047.2 1047.19 1047.2 1047.2 1047.2 1047.19 1047.2 1047.2 1047.2 1047.19 1047.2 1047.2 1047.2 1047.19 1047.2 1047.2 1047.2 1047.2 1047.19 1047.2 1047.2 1047.2 1047.19 1047.2 1047.2 1047.2 1047.19 1047.2 1047.2 1047.2 1047.19 1047.2 1047.2 1047.2 1047.19 1047.2 1047.2 1047.2 1047.19 1047.2 1047.2 1047.2 1047.19 1047.2 1047.2 1047.2 1047.19 1047.2 1047.2 1047.2 1047.19 1047.2 1047.2 1047.2 1047.19 1047.2 1047.2 1047.2 1047.19 1047.2 1047.2 1047.2 1047.19 1047.2 1047.2 1047.2 1047.2 1047.19 1047.2 1047.2 1047.2 1047.19 1047.2 1047.2 1047.2 1047.19 1047.2 1047.2 1047.2 1047.19 1047.2 1047.2 1047.2 1047.19 1047.2 1047.2 1047.2 1047.19 1047.2 1047.2 1047.2 1047.19 1047.2 1047.2 1047.2 1047.19 1047.2 1047.2 1047.2 1047.19 1047.2 1047.2 1047.2 1047.19 1047.2 1047.2 1047.2 1047.19 1047.2 1047.2 1047.2 1047.19 1047.2 1047.2 1047.2 1047.2 1047.19 1047.2 1047.2 1047.2 1047.19 1047.2 1047.2 1047.2 1047.19 1047.2 1047.2 1047.2 1047.19 1047.2 1047.2 1047.2 1047.19 1047.2 1047.2 1047.2 1047.19 1047.2 1047.2 1047.2 1047.19 1047.2 1047.2 1047.2 1047.19 1047.2 1047.2 1047.2 1047.19 1047.2 1047.2 1047.2 1047.19 1047.2 1047.2 1047.2 1047.19 1047.2 1047.2 1047.2 1047.19 1047.2 1047.2 1047.2 1047.2 1047.19 1047.2 1047.2 1047.2 1047.19 1047.2 1047.2 1047.2 1047.19 1047.2 1047.2 1047.2 1047.19 1047.2 1047.2 1047.2 1047.19 1047.2 1047.2 1047.2 1047.19 1047.2 1047.2 1047.2 1047.19 1047.2 1047.2 1047.2 1047.19 1047.2 1047.2 1047.2 1047.19 1047.2 1047.2 1047.2 1047.19 1047.2 1047.2 1047.2 1047.19 1047.2 1047.2 1047.2 1047.19 1047.2 1047.2 1047.2 1047.2 1047.19 1047.2 1047.2 1047.2 1047.19 1047.2 1047.2 1047.2 1047.19 1047.2 1047.2 1047.2 1047.19 1047.2 1047.2 1047.2 1047.19 1047.2 1047.2 1047.2 1047.19 1047.2 1047.2 1047.2 1047.19 1047.2 1047.2 1047.2 1047.19 1047.2 1047.2 1047.2 1047.19 1047.2 1047.2 1047.2 1047.19 1047.2 1047.2 1047.2 1047.19 1047.2 1047.2 1047.2 1047.19 1047.2 1047.2 1047.2 1047.2 1047.19 1047.2 1047.2 1047.2 1047.19 1047.2 1047.2 1047.2 1047.19 1047.2 1047.2 1047.2 1047.19 1047.2 1047.2 1047.2 1047.19 1047.2 1047.2 1047.2 1047.19 1047.2 1047.2 1047.2 1047.19 1047.2 1047.2 1047.2 1047.19 1047.2 1047.2 1047.2 1047.19 1047.2 1047.2 1047.2 1047.19 1047.2 1047.2 1047.2 1047.19 1047.2 1047.2 1047.2 1047.19 1047.2 1047.2 1047.2 1047.2 1047.19 1047.2 1047.2 1047.2 1047.19 1047.2 1047.2 1047.2 1047.19 1047.2 1047.2 1047.2 1047.19 1047.2 1047.2 1047.2 1047.19 1047.2 1047.2 1047.2 1047.19 1047.2 1047.2 1047.2 1047.19 1047.2 1047.2 1047.2 1047.19 1047.2 1047.2 1047.2 1047.19 1047.2 1047.2 1047.2 1047.19 1047.2 1047.2 1047.2 1047.19 1047.2 1047.2 1047.2 1047.2 1047.19 1047.2 1047.2 1047.2 1047.19 1047.2 1047.2 1047.2 1047.19 1047.2 1047.2 1047.2 1047.19 1047.2 1047.2 1047.2 1047.19 1047.2 1047.2 1047.2 1047.19 1047.2 1047.2 1047.2 1047.19 1047.2 1047.2 1047.2 1047.19 1047.2 1047.2 1047.2 1047.19 1047.2 1047.2 1047.2 1047.19 1047.2 1047.2 1047.2 1047.19 1047.2 1047.2 1047.2 1047.19 1047.2 1047.2 1047.2 1047.2 1047.19 1047.2 1047.2 1047.2 1047.19 1047.2 1047.2 1047.2 1047.19 1047.2 1047.2 1047.2 1047.19 1047.2 1047.2 1047.2 1047.19 1047.2 1047.2 1047.2 1047.19 1047.2 1047.2 1047.2 1047.19 1047.2 1047.2 1047.2 1047.19 1047.2 1047.2 1047.2 1047.19 1047.2 1047.2 1047.2 1047.19 1047.2 1047.2 1047.2 1047.19 1047.2 1047.2 1047.2 1047.19 1047.2 1047.2 1047.2 1047.2 1047.19 1047.2 1047.2 1047.2 1047.19 1047.2 1047.2 1047.2 1047.19 1047.2 1047.2 1047.2 1047.19 1047.2 1047.2 1047.2 1047.19 1047.2 1047.2 1047.2 1047.19 1047.2 1047.2 1047.2 1047.19 1047.2 1047.2 1047.2 1047.19 1047.2 1047.2 1047.2 1047.19 1047.2 1047.2 1047.2 1047.19 1047.2 1047.2 1047.2 1047.19 1047.2 1047.2 1047.2 1047.19 1047.2 1047.2 1047.2 1047.2 1047.19 1047.2 1047.2 1047.2 1047.19 1047.2 1047.2 1047.2 1047.19 1047.2 1047.2 1047.2 1047.19 1047.2 1047.2 1047.2 1047.19 1047.2 1047.2 1047.2 1047.19 1047.2 1047.2 1047.2 1047.19 1047.2 1047.2 1047.2 1047.19 1047.2 1047.2 1047.2 1047.19 1047.2 1047.2 1047.2 1047.19 1047.2 1047.2 1047.2 1047.19 1047.2 1047.2 1047.2 1047.19 1047.2 1047.2 1047.2 1047.2 1047.19 1047.2 1047.2 1047.2 1047.19 1047.2 1047.2 1047.2 1047.19 1047.2 1047.2 1047.2 1047.19 1047.2 1047.2 1047.2 1047.19 1047.2 1047.2 1047.2 1047.19 1047.2 1047.2 1047.2 1047.19 1047.2 1047.2 1047.2 1047.19 1047.2 1047.2 1047.2 1047.19 1047.2 1047.2 1047.2 1047.19 1047.2 1047.2 1047.2 1047.19 1047.2 1047.2 1047.2 1047.19 1047.2 1047.2 1047.2 1047.2 1047.19 1047.2 1047.2 1047.2 1047.19 1047.2 1047.2 1047.2 1047.19 1047.2 1047.2 1047.2 1047.19 1047.2 1047.2 1047.2 1047.19 1047.2 1047.2 1047.2 1047.19 1047.2 1047.2 1047.2 1047.19 1047.2 1047.2 1047.2 1047.19 1047.2 1047.2 1047.2 1047.19 1047.2 1047.2 1047.2 1047.19 1047.2 1047.2 1047.2 1047.19 1047.2 1047.2 1047.2 1047.19 1047.2 1047.2 1047.2 1047.2 1047.19 1047.2 1047.2 1047.2 1047.19 1047.2 1047.2 1047.2 1047.19 1047.2 1047.2 1047.2 1047.19 1047.2 1047.2 1047.2 1047.19 1047.2 1047.2 1047.2 1047.19 1047.2 1047.2 1047.2 1047.19 1047.2 1047.2 1047.2 1047.19 1047.2 1047.2 1047.2 1047.19 1047.2 1047.2 1047.2 1047.19 1047.2 1047.2 1047.2 1047.19 1047.2 1047.2 1047.2 1047.19 1047.2 1047.2 1047.2 1047.2 1047.19 1047.2 1047.2 1047.2 1047.19 1047.2 1047.2 1047.2 1047.19 1047.2 1047.2 1047.2 1047.19 1047.2 1047.2 1047.2 1047.19 1047.2 1047.2 1047.2 1047.19 1047.2 1047.2 1047.2 1047.19 1047.2 1047.2 1047.2 1047.19 1047.2 1047.2 1047.2 1047.19 1047.2 1047.2 1047.2 1047.19 1047.2 1047.2 1047.2 1047.19 1047.2 1047.2 1047.2 1047.19 1047.2 1047.2 1047.2 1047.2 1047.19 1047.2 1047.2 1047.2 1047.19 1047.2 1047.2 1047.2 1047.19 1047.2 1047.2 1047.2 1047.19 1047.2 1047.2 1047.2 1047.19 1047.2 1047.2 1047.2 1047.19 1047.2 1047.2 1047.2 1047.19 1047.2 1047.2 1047.2 1047.19 1047.2 1047.2 1047.2 1047.19 1047.2 1047.2 1047.2 1047.19 1047.2 1047.2 1047.2 1047.19 1047.2 1047.2 1047.2 1047.19 1047.2 1047.2 1047.2 1047.2 1047.193 1047.197 1047.198 1047.197 1047.198 1047.197 1047.198 1047.197 1047.198 1047.198 1047.197 1047.198 1047.197 1047.198 1047.197 1047.198 1047.197 1047.198 1047.198 1047.197 1047.198 1047.197 1047.198 1047.197 1047.198 1047.197 1047.198 1047.198 1047.197 1047.198 1047.197 1047.198 1047.197 1047.198 1047.197 1047.198 1047.197 1047.198 1047.198 1047.197 1047.198 1047.197 1047.198 1047.197 1047.198 1047.197 1047.198 1047.198 1047.197 1047.198 1047.197 1047.198 1047.197 1047.198 1047.197 1047.198 1047.198 1047.197 1047.198 1047.197 1047.198 1047.197 1047.198 1047.197 1047.198 1047.197 1047.198 1047.198 1047.197 1047.198 1047.197 1047.198 1047.197 1047.198 1047.197 1047.198 1047.198 1047.197 1047.198 1047.197 1047.198 1047.197 1047.198 1047.197 1047.198 1047.197 1047.198 1047.1976 1047.1975 1047.1976 1047.1975 1047.1976 1047.1975 1047.1976 1047.1975 H 0 1047.1976 2094.3951 3141.5927 4188.7902 5235.9878 6283.1853 7330.3829 8377.5804 9424.778 h 1047.198 1047.197 1047.198 1047.197 1047.198 1047.197 1047.198 1047.197 1047.198 1047.197 1047.198 1047.198 1047.197 1047.198 1047.197 1047.198 1047.197 1047.198 1047.197 1047.198 1047.198 1047.197 1047.198 1047.197 1047.198 1047.197 1047.198 1047.197 1047.198 1047.197 1047.198 1047.198 1047.197 1047.198 1047.197 1047.198 1047.197 1047.198 1047.197 1047.198 1047.198 1047.197 1047.198 1047.197 1047.198 1047.197 1047.198 1047.197 1047.198 1047.198 1047.197 1047.198 1047.197 1047.198 1047.197 1047.198 1047.197 1047.198 1047.197 1047.198 1047.198 1047.197 1047.198 1047.197 1047.198 1047.197 1047.198 1047.197 1047.198 1047.198 1047.197 1047.198 1047.197 1047.198 1047.197 1047.198 1047.197 1047.198 1047.198 1047.197 1047.198 1047.197 1047.198 1047.197 1047.198 1047.197 1047.193 1047.2 1047.2 1047.2 1047.2 1047.19 1047.2 1047.2 1047.2 1047.19 1047.2 1047.2 1047.2 1047.19 1047.2 1047.2 1047.2 1047.19 1047.2 1047.2 1047.2 1047.19 1047.2 1047.2 1047.2 1047.19 1047.2 1047.2 1047.2 1047.19 1047.2 1047.2 1047.2 1047.19 1047.2 1047.2 1047.2 1047.19 1047.2 1047.2 1047.2 1047.19 1047.2 1047.2 1047.2 1047.19 1047.2 1047.2 1047.2 1047.19 1047.2 1047.2 1047.2 1047.2 1047.19 1047.2 1047.2 1047.2 1047.19 1047.2 1047.2 1047.2 1047.19 1047.2 1047.2 1047.2 1047.19 1047.2 1047.2 1047.2 1047.19 1047.2 1047.2 1047.2 1047.19 1047.2 1047.2 1047.2 1047.19 1047.2 1047.2 1047.2 1047.19 1047.2 1047.2 1047.2 1047.19 1047.2 1047.2 1047.2 1047.19 1047.2 1047.2 1047.2 1047.19 1047.2 1047.2 1047.2 1047.19 1047.2 1047.2 1047.2 1047.2 1047.19 1047.2 1047.2 1047.2 1047.19 1047.2 1047.2 1047.2 1047.19 1047.2 1047.2 1047.2 1047.19 1047.2 1047.2 1047.2 1047.19 1047.2 1047.2 1047.2 1047.19 1047.2 1047.2 1047.2 1047.19 1047.2 1047.2 1047.2 1047.19 1047.2 1047.2 1047.2 1047.19 1047.2 1047.2 1047.2 1047.19 1047.2 1047.2 1047.2 1047.19 1047.2 1047.2 1047.2 1047.19 1047.2 1047.2 1047.2 1047.2 1047.19 1047.2 1047.2 1047.2 1047.19 1047.2 1047.2 1047.2 1047.19 1047.2 1047.2 1047.2 1047.19 1047.2 1047.2 1047.2 1047.19 1047.2 1047.2 1047.2 1047.19 1047.2 1047.2 1047.2 1047.19 1047.2 1047.2 1047.2 1047.19 1047.2 1047.2 1047.2 1047.19 1047.2 1047.2 1047.2 1047.19 1047.2 1047.2 1047.2 1047.19 1047.2 1047.2 1047.2 1047.19 1047.2 1047.2 1047.2 1047.2 1047.19 1047.2 1047.2 1047.2 1047.19 1047.2 1047.2 1047.2 1047.19 1047.2 1047.2 1047.2 1047.19 1047.2 1047.2 1047.2 1047.19 1047.2 1047.2 1047.2 1047.19 1047.2 1047.2 1047.2 1047.19 1047.2 1047.2 1047.2 1047.19 1047.2 1047.2 1047.2 1047.19 1047.2 1047.2 1047.2 1047.19 1047.2 1047.2 1047.2 1047.19 1047.2 1047.2 1047.2 1047.19 1047.2 1047.2 1047.2 1047.2 1047.19 1047.2 1047.2 1047.2 1047.19 1047.2 1047.2 1047.2 1047.19 1047.2 1047.2 1047.2 1047.19 1047.2 1047.2 1047.2 1047.19 1047.2 1047.2 1047.2 1047.19 1047.2 1047.2 1047.2 1047.19 1047.2 1047.2 1047.2 1047.19 1047.2 1047.2 1047.2 1047.19 1047.2 1047.2 1047.2 1047.19 1047.2 1047.2 1047.2 1047.19 1047.2 1047.2 1047.2 1047.19 1047.2 1047.2 1047.2 1047.2 1047.19 1047.2 1047.2 1047.2 1047.19 1047.2 1047.2 1047.2 1047.19 1047.2 1047.2 1047.2 1047.19 1047.2 1047.2 1047.2 1047.19 1047.2 1047.2 1047.2 1047.19 1047.2 1047.2 1047.2 1047.19 1047.2 1047.2 1047.2 1047.19 1047.2 1047.2 1047.2 1047.19 1047.2 1047.2 1047.2 1047.19 1047.2 1047.2 1047.2 1047.19 1047.2 1047.2 1047.2 1047.19 1047.2 1047.2 1047.2 1047.2 1047.19 1047.2 1047.2 1047.2 1047.19 1047.2 1047.2 1047.2 1047.19 1047.2 1047.2 1047.2 1047.19 1047.2 1047.2 1047.2 1047.19 1047.2 1047.2 1047.2 1047.19 1047.2 1047.2 1047.2 1047.19 1047.2 1047.2 1047.2 1047.19 1047.2 1047.2 1047.2 1047.19 1047.2 1047.2 1047.2 1047.19 1047.2 1047.2 1047.2 1047.19 1047.2 1047.2 1047.2 1047.19 1047.2 1047.2 1047.2 1047.2 1047.19 1047.2 1047.2 1047.2 1047.19 1047.2 1047.2 1047.2 1047.19 1047.2 1047.2 1047.2 1047.19 1047.2 1047.2 1047.2 1047.19 1047.2 1047.2 1047.2 1047.19 1047.2 1047.2 1047.2 1047.19 1047.2 1047.2 1047.2 1047.19 1047.2 1047.2 1047.2 1047.19 1047.2 1047.2 1047.2 1047.19 1047.2 1047.2 1047.2 1047.19 1047.2 1047.2 1047.2 1047.19 1047.2 1047.2 1047.2 1047.2 1047.19 1047.2 1047.2 1047.2 1047.19 1047.2 1047.2 1047.2 1047.19 1047.2 1047.2 1047.2 1047.19 1047.2 1047.2 1047.2 1047.19 1047.2 1047.2 1047.2 1047.19 1047.2 1047.2 1047.2 1047.19 1047.2 1047.2 1047.2 1047.19 1047.2 1047.2 1047.2 1047.19 1047.2 1047.2 1047.2 1047.19 1047.2 1047.2 1047.2 1047.19 1047.2 1047.2 1047.2 1047.2 1047.19 1047.2 1047.2 1047.2 1047.19 1047.2 1047.2 1047.2 1047.19 1047.2 1047.2 1047.2 1047.19 1047.2 1047.2 1047.2 1047.19 1047.2 1047.2 1047.2 1047.19 1047.2 1047.2 1047.2 1047.19 1047.2 1047.2 1047.2 1047.19 1047.2 1047.2 1047.2 1047.19 1047.2 1047.2 1047.2 1047.19 1047.2 1047.2 1047.2 1047.19 1047.2 1047.2 1047.2 1047.19 1047.2 1047.2 1047.2 1047.2 1047.19 1047.2 1047.2 1047.2 1047.19 1047.2 1047.2 1047.2 1047.19 1047.2 1047.2 1047.2 1047.19 1047.2 1047.2 1047.2 1047.19 1047.2 1047.2 1047.2 1047.19 1047.2 1047.2 1047.2 1047.19 1047.2 1047.2 1047.2 1047.19 1047.2 1047.2 1047.2 1047.19 1047.2 1047.2 1047.2 1047.19 1047.2 1047.2 1047.2 1047.19 1047.2 1047.2 1047.2 1047.19 1047.2 1047.2 1047.2 1047.2 1047.19 1047.2 1047.2 1047.2 1047.19 1047.2 1047.2 1047.2 1047.19 1047.2 1047.2 1047.2 1047.19 1047.2 1047.2 1047.2 1047.19 1047.2 1047.2 1047.2 1047.19 1047.2 1047.2 1047.2 1047.19 1047.2 1047.2 1047.2 1047.19 1047.2 1047.2 1047.2 1047.19 1047.2 1047.2 1047.2 1047.19 1047.2 1047.2 1047.2 1047.19 1047.2 1047.2 1047.2 1047.19 1047.2 1047.2 1047.2 1047.2 1047.19 1047.2 1047.2 1047.2 1047.19 1047.2 1047.2 1047.2 1047.19 1047.2 1047.2 1047.2 1047.19 1047.2 1047.2 1047.2 1047.19 1047.2 1047.2 1047.2 1047.19 1047.2 1047.2 1047.2 1047.19 1047.2 1047.2 1047.2 1047.19 1047.2 1047.2 1047.2 1047.19 1047.2 1047.2 1047.2 1047.19 1047.2 1047.2 1047.2 1047.19 1047.2 1047.2 1047.2 1047.19 1047.2 1047.2 1047.2 1047.2 1047.19 1047.2 1047.2 1047.2 1047.19 1047.2 1047.2 1047.2 1047.19 1047.2 1047.2 1047.2 1047.19 1047.2 1047.2 1047.2 1047.19 1047.2 1047.2 1047.2 1047.19 1047.2 1047.2 1047.2 1047.19 1047.2 1047.2 1047.2 1047.19 1047.2 1047.2 1047.2 1047.19 1047.2 1047.2 1047.2 1047.19 1047.2 1047.2 1047.2 1047.19 1047.2 1047.2 1047.2 1047.19 1047.2 1047.2 1047.2 1047.2 1047.19 1047.2 1047.2 1047.2 1047.19 1047.2 1047.2 1047.2 1047.19 1047.2 1047.2 1047.2 1047.19 1047.2 1047.2 1047.2 1047.19 1047.2 1047.2 1047.2 1047.19 1047.2 1047.2 1047.2 1047.19 1047.2 1047.2 1047.2 1047.19 1047.2 1047.2 1047.2 1047.19 1047.2 1047.2 1047.2 1047.19 1047.2 1047.2 1047.2 1047.19 1047.2 1047.2 1047.2 1047.19 1047.2 1047.2 1047.2 1047.2 1047.19 1047.2 1047.2 1047.2 1047.19 1047.2 1047.2 1047.2 1047.19 1047.2 1047.2 1047.2 1047.19 1047.2 1047.2 1047.2 1047.19 1047.2 1047.2 1047.2 -5.24 v 1041.96 1047.2 1047.19 1047.2 1047.2 1047.2 1047.19 1047.2 1047.2 1047.2 1047.2 1047.19 1047.2 1047.2 1047.2 1047.19 1047.2 1047.2 1047.2 1047.19 1047.2 1047.2 1047.2 1047.19 1047.2 1047.2 1047.2 1047.19 1047.2 1047.2 1047.2 1047.19 1047.2 1047.2 1047.2 1047.19 1047.2 1047.2 1047.2 1047.19 1047.2 1047.2 1047.2 1047.19 1047.2 1047.2 1047.2 1047.19 1047.2 1047.2 1047.2 1047.19 1047.2 1047.2 1047.2 1047.19 1047.2 1047.2 1047.2 1047.2 1047.19 1047.2 1047.2 1047.2 1047.19 1047.2 1047.2 1047.2 1047.19 1047.2 1047.2 1047.2 1047.19 1047.2 1047.2 1047.2 1047.19 1047.2 1047.2 1047.2 1047.19 1047.2 1047.2 1047.2 1047.19 1047.2 1047.2 1047.2 1047.19 1047.2 1047.2 1047.2 1047.19 1047.2 1047.2 1047.2 1047.19 1047.2 1047.2 1047.2 1047.19 1047.2 1047.2 1047.2 1047.19 1047.2 1047.2 1047.2 1047.2 1047.19 1047.2 1047.2 1047.2 1047.19 1047.2 1047.2 1047.2 1047.19 1047.2 1047.2 1047.2 1047.19 1047.2 1047.2 1047.2 1047.19 1047.2 1047.2 1047.2 1047.19 1047.2 1047.2 1047.2 1047.19 1047.2 1047.2 1047.2 1047.19 1047.2 1047.2 1047.2 1047.19 1047.2 1047.2 1047.2 1047.19 1047.2 1047.2 1047.2 1047.19 1047.2 1047.2 1047.2 1047.19 1047.2 1047.2 1047.2 1047.2 1047.19 1047.2 1047.2 1047.2 1047.19 1047.2 1047.2 1047.2 1047.19 1047.2 1047.2 1047.2 1047.19 1047.2 1047.2 1047.2 1047.19 1047.2 1047.2 1047.2 1047.19 1047.2 1047.2 1047.2 1047.19 1047.2 1047.2 1047.2 1047.19 1047.2 1047.2 1047.2 1047.19 1047.2 1047.2 1047.2 1047.19 1047.2 1047.2 1047.2 1047.19 1047.2 1047.2 1047.2 1047.19 1047.2 1047.2 1047.2 1047.2 1047.19 1047.2 1047.2 1047.2 1047.19 1047.2 1047.2 1047.2 1047.19 1047.2 1047.2 1047.2 1047.19 1047.2 1047.2 1047.2 1047.19 1047.2 1047.2 1047.2 1047.19 1047.2 1047.2 1047.2 1047.19 1047.2 1047.2 1047.2 1047.19 1047.2 1047.2 1047.2 1047.19 1047.2 1047.2 1047.2 1047.19 1047.2 1047.2 1047.2 1047.19 1047.2 1047.2 1047.2 1047.19 1047.2 1047.2 1047.2 1047.2 1047.19 1047.2 1047.2 1047.2 1047.19 1047.2 1047.2 1047.2 1047.19 1047.2 1047.2 1047.2 1047.19 1047.2 1047.2 1047.2 1047.19 1047.2 1047.2 1047.2 1047.19 1047.2 1047.2 1047.2 1047.19 1047.2 1047.2 1047.2 1047.19 1047.2 1047.2 1047.2 1047.19 1047.2 1047.2 1047.2 1047.19 1047.2 1047.2 1047.2 1047.19 1047.2 1047.2 1047.2 1047.19 1047.2 1047.2 1047.2 1047.2 1047.19 1047.2 1047.2 1047.2 1047.19 1047.2 1047.2 1047.2 1047.19 1047.2 1047.2 1047.2 1047.19 1047.2 1047.2 1047.2 1047.19 1047.2 1047.2 1047.2 1047.19 1047.2 1047.2 1047.2 1047.19 1047.2 1047.2 1047.2 1047.19 1047.2 1047.2 1047.2 1047.19 1047.2 1047.2 1047.2 1047.19 1047.2 1047.2 1047.2 1047.19 1047.2 1047.2 1047.2 1047.19 1047.2 1047.2 1047.2 1047.2 1047.193 1047.197 1047.198 1047.197 1047.198 1047.197 1047.198 1047.197 1047.198 1047.198 1047.197 1047.198 1047.197 1047.198 1047.197 1047.198 1047.197 1047.198 1047.198 1047.197 1047.198 1047.197 1047.198 1047.197 1047.198 1047.197 1047.198 1047.198 1047.197 1047.198 1047.197 1047.198 1047.197 1047.198 1047.197 1047.198 1047.197 1047.198 1047.198 1047.197 1047.198 1047.197 1047.198 1047.197 1047.198 1047.197 1047.198 1047.198 1047.197 1047.198 1047.197 1047.198 1047.197 1047.198 1047.197 1047.198 1047.198 1047.197 1047.198 1047.197 1047.198 1047.197 1047.198 1047.197 1047.198 1047.197 1047.198 1047.198 1047.197 1047.198 1047.197 1047.198 1047.197 1047.198 1047.197 1047.198 1047.198 1047.197 1047.198 1047.197 1047.198 1047.197 1047.198 1047.197 1047.198 1047.197 1047.198 1047.1976 1047.1975 1047.1976 1047.1975 1047.1976 1047.1975 1047.1976 1047.1975 V 0 1047.1976 2094.3951 3141.5927 4188.7902 5235.9878 6283.1853 7330.3829 8377.5804 9424.778 v 1047.198 1047.197 1047.198 1047.197 1047.198 1047.197 1047.198 1047.197 1047.198 1047.197 1047.198 1047.198 1047.197 1047.198 1047.197 1047.198 1047.197 1047.198 1047.197 1047.198 1047.198 1047.197 1047.198 1047.197 1047.198 1047.197 1047.198 1047.197 1047.198 1047.197 1047.198 1047.198 1047.197 1047.198 1047.197 1047.198 1047.197 1047.198 1047.197 1047.198 1047.198 1047.197 1047.198 1047.197 1047.198 1047.197 1047.198 1047.197 1047.198 1047.198 1047.197 1047.198 1047.197 1047.198 1047.197 1047.198 1047.197 1047.198 1047.197 1047.198 1047.198 1047.197 1047.198 1047.197 1047.198 1047.197 1047.198 1047.197 1047.198 1047.198 1047.197 1047.198 1047.197 1047.198 1047.197 1047.198 1047.197 1047.198 1047.198 1047.197 1047.198 1047.197 1047.198 1047.197 1047.198 1047.197 1047.193 1047.2 1047.2 1047.2 1047.2 1047.19 1047.2 1047.2 1047.2 1047.19 1047.2 1047.2 1047.2 1047.19 1047.2 1047.2 1047.2 1047.19 1047.2 1047.2 1047.2 1047.19 1047.2 1047.2 1047.2 1047.19 1047.2 1047.2 1047.2 1047.19 1047.2 1047.2 1047.2 1047.19 1047.2 1047.2 1047.2 1047.19 1047.2 1047.2 1047.2 1047.19 1047.2 1047.2 1047.2 1047.19 1047.2 1047.2 1047.2 1047.19 1047.2 1047.2 1047.2 1047.2 1047.19 1047.2 1047.2 1047.2 1047.19 1047.2 1047.2 1047.2 1047.19 1047.2 1047.2 1047.2 1047.19 1047.2 1047.2 1047.2 1047.19 1047.2 1047.2 1047.2 1047.19 1047.2 1047.2 1047.2 1047.19 1047.2 1047.2 1047.2 1047.19 1047.2 1047.2 1047.2 1047.19 1047.2 1047.2 1047.2 1047.19 1047.2 1047.2 1047.2 1047.19 1047.2 1047.2 1047.2 1047.19 1047.2 1047.2 1047.2 1047.2 1047.19 1047.2 1047.2 1047.2 1047.19 1047.2 1047.2 1047.2 1047.19 1047.2 1047.2 1047.2 1047.19 1047.2 1047.2 1047.2 1047.19 1047.2 1047.2 1047.2 1047.19 1047.2 1047.2 1047.2 1047.19 1047.2 1047.2 1047.2 1047.19 1047.2 1047.2 1047.2 1047.19 1047.2 1047.2 1047.2 1047.19 1047.2 1047.2 1047.2 1047.19 1047.2 1047.2 1047.2 1047.19 1047.2 1047.2 1047.2 1047.2 1047.19 1047.2 1047.2 1047.2 1047.19 1047.2 1047.2 1047.2 1047.19 1047.2 1047.2 1047.2 1047.19 1047.2 1047.2 1047.2 1047.19 1047.2 1047.2 1047.2 1047.19 1047.2 1047.2 1047.2 1047.19 1047.2 1047.2 1047.2 1047.19 1047.2 1047.2 1047.2 1047.19 1047.2 1047.2 1047.2 1047.19 1047.2 1047.2 1047.2 1047.19 1047.2 1047.2 1047.2 1047.19 1047.2 1047.2 1047.2 1047.2 1047.19 1047.2 1047.2 1047.2 1047.19 1047.2 1047.2 1047.2 1047.19 1047.2 1047.2 1047.2 1047.19 1047.2 1047.2 1047.2 1047.19 1047.2 1047.2 1047.2 1047.19 1047.2 1047.2 1047.2 1047.19 1047.2 1047.2 1047.2 1047.19 1047.2 1047.2 1047.2 1047.19 1047.2 1047.2 1047.2 1047.19 1047.2 1047.2 1047.2 1047.19 1047.2 1047.2 1047.2 1047.19 1047.2 1047.2 1047.2 1047.2 1047.19 1047.2 1047.2 1047.2 1047.19 1047.2 1047.2 1047.2 1047.19 1047.2 1047.2 1047.2 1047.19 1047.2 1047.2 1047.2 1047.19 1047.2 1047.2 1047.2 1047.19 1047.2 1047.2 1047.2 1047.19 1047.2 1047.2 1047.2 1047.19 1047.2 1047.2 1047.2 1047.19 1047.2 1047.2 1047.2 1047.19 1047.2 1047.2 1047.2 1047.19 1047.2 1047.2 1047.2 1047.19 1047.2 1047.2 1047.2 1047.2 1047.19 1047.2 1047.2 1047.2 1047.19 1047.2 1047.2 1047.2 1047.19 1047.2 1047.2 1047.2 1047.19 1047.2 1047.2 1047.2 1047.19 1047.2 1047.2 1047.2 1047.19 1047.2 1047.2 1047.2 1047.19 1047.2 1047.2 1047.2 1047.19 1047.2 1047.2 1047.2 1047.19 1047.2 1047.2 1047.2 1047.19 1047.2 1047.2 1047.2 1047.19 1047.2 1047.2 1047.2 1047.19 1047.2 1047.2 1047.2 1047.2 1047.19 1047.2 1047.2 1047.2 1047.19 1047.2 1041.96 h -1041.96 -1047.2 -1047.2 -1047.19 -1047.2 -1047.2 -1047.2 -1047.19 -1047.2 -1047.2 -1047.2 -1047.19 -1047.2 -1047.2 -1047.2 -1047.19 -1047.2 -1047.2 -1047.2 -1047.19 -1047.2 -1047.2 -1047.2 -1047.2 -1047.19 -1047.2 -1047.2 -1047.2 -1047.19 -1047.2 -1047.2 -1047.2 -1047.19 -1047.2 -1047.2 -1047.2 -1047.19 -1047.2 -1047.2 -1047.2 -1047.19 -1047.2 -1047.2 -1047.2 -1047.19 -1047.2 -1047.2 -1047.2 -1047.19 -1047.2 -1047.2 -1047.2 -1047.19 -1047.2 -1047.2 -1047.2 -1047.19 -1047.2 -1047.2 -1047.2 -1047.19 -1047.2 -1047.2 -1047.2 -1047.19 -1047.2 -1047.2 -1047.2 -1047.19 -1047.2 -1047.2 -1047.2 -1047.2 -1047.19 -1047.2 -1047.2 -1047.2 -1047.19 -1047.2 -1047.2 -1047.2 -1047.19 -1047.2 -1047.2 -1047.2 -1047.19 -1047.2 -1047.2 -1047.2 -1047.19 -1047.2 -1047.2 -1047.2 -1047.19 -1047.2 -1047.2 -1047.2 -1047.19 -1047.2 -1047.2 -1047.2 -1047.19 -1047.2 -1047.2 -1047.2 -1047.19 -1047.2 -1047.2 -1047.2 -1047.19 -1047.2 -1047.2 -1047.2 -1047.19 -1047.2 -1047.2 -1047.2 -1047.19 -1047.2 -1047.2 -1047.2 -1047.2 -1047.19 -1047.2 -1047.2 -1047.2 -1047.19 -1047.2 -1047.2 -1047.2 -1047.19 -1047.2 -1047.2 -1047.2 -1047.19 -1047.2 -1047.2 -1047.2 -1047.19 -1047.2 -1047.2 -1047.2 -1047.19 -1047.2 -1047.2 -1047.2 -1047.19 -1047.2 -1047.2 -1047.2 -1047.19 -1047.2 -1047.2 -1047.2 -1047.19 -1047.2 -1047.2 -1047.2 -1047.19 -1047.2 -1047.2 -1047.2 -1047.19 -1047.2 -1047.2 -1047.2 -1047.19 -1047.2 -1047.2 -1047.2 -1047.2 -1047.19 -1047.2 -1047.2 -1047.2 -1047.19 -1047.2 -1047.2 -1047.2 -1047.19 -1047.2 -1047.2 -1047.2 -1047.19 -1047.2 -1047.2 -1047.2 -1047.19 -1047.2 -1047.2 -1047.2 -1047.19 -1047.2 -1047.2 -1047.2 -1047.19 -1047.2 -1047.2 -1047.2 -1047.19 -1047.2 -1047.2 -1047.2 -1047.19 -1047.2 -1047.2 -1047.2 -1047.19 -1047.2 -1047.2 -1047.2 -1047.19 -1047.2 -1047.2 -1047.2 -1047.19 -1047.2 -1047.2 -1047.2 -1047.2 -1047.19 -1047.2 -1047.2 -1047.2 -1047.19 -1047.2 -1047.2 -1047.2 -1047.19 -1047.2 -1047.2 -1047.2 -1047.19 -1047.2 -1047.2 -1047.2 -1047.19 -1047.2 -1047.2 -1047.2 -1047.19 -1047.2 -1047.2 -1047.2 -1047.19 -1047.2 -1047.2 -1047.2 -1047.19 -1047.2 -1047.2 -1047.2 -1047.19 -1047.2 -1047.2 -1047.2 -1047.19 -1047.2 -1047.2 -1047.2 -1047.19 -1047.2 -1047.2 -1047.2 -1047.19 -1047.2 -1047.2 -1047.2 -1047.2 -1047.19 -1047.2 -1047.2 -1047.2 -1047.19 -1047.2 -1047.2 -1047.2 -1047.19 -1047.2 -1047.2 -1047.2 -1047.19 -1047.2 -1047.2 -1047.2 -1047.19 -1047.2 -1047.2 -1047.2 -1047.19 -1047.2 -1047.2 -1047.2 -1047.19 -1047.2 -1047.2 -1047.2 -1047.19 -1047.2 -1047.2 -1047.2 -1047.19 -1047.2 -1047.2 -1047.2 -1047.19 -1047.2 -1047.2 -1047.2 -1047.19 -1047.2 -1047.2 -1047.2 -1047.19 -1047.2 -1047.2 -1047.2 -1047.2 -1047.19 -1047.2 -1047.2 -1047.2 -1047.19 -1047.2 -1047.2 -1047.2 -1047.19 -1047.2 -1047.2 -1047.2 -1047.19 -1047.2 -1047.2 -1047.2 -1047.19 -1047.2 -1047.2 -1047.2 -1047.19 -1047.2 -1047.2 -1047.2 -1047.19 -1047.2 -1047.2 -1047.2 -1047.19 -1047.2 -1047.2 -1047.2 -1047.19 -1047.2 -1047.2 -1047.2 -1047.19 -1047.2 -1047.2 -1047.2 -1047.19 -1047.2 -1047.2 -1047.2 -1047.2 -1047.19 -1047.2 -1047.2 -1047.2 -1047.19 -1047.2 -1047.2 -1047.2 -1047.19 -1047.2 -1047.2 -1047.2 -1047.19 -1047.2 -1047.2 -1047.2 -1047.19 -1047.2 -1047.2 -1047.2 -1047.19 -1047.2 -1047.2 -1047.2 -1047.19 -1047.2 -1047.2 -1047.2 -1047.19 -1047.2 -1047.2 -1047.2 -1047.19 -1047.2 -1047.2 -1047.2 -1047.19 -1047.2 -1047.2 -1047.2 -1047.19 -1047.2 -1047.2 -1047.2 -1047.19 -1047.2 -1047.2 -1047.2 -1047.2 -1047.19 -1047.2 -1047.2 -1047.2 -1047.19 -1047.2 -1047.2 -1047.2 -1047.19 -1047.2 -1047.2 -1047.2 -1047.19 -1047.2 -1047.2 -1047.2 -1047.19 -1047.2 -1047.2 -1047.2 -1047.19 -1047.2 -1047.2 -1047.2 -1047.19 -1047.2 -1047.2 -1047.2 -1047.19 -1047.2 -1047.2 -1047.2 -1047.19 -1047.2 -1047.2 -1047.2 -1047.19 -1047.2 -1047.2 -1047.2 -1047.19 -1047.2 -1047.2 -1047.2 -1047.19 -1047.2 -1047.2 -1047.2 -1047.2 -1047.19 -1047.2 -1047.2 -1047.2 -1047.19 -1047.2 -1047.2 -1047.2 -1047.19 -1047.2 -1047.2 -1047.2 -1047.19 -1047.2 -1047.2 -1047.2 -1047.19 -1047.2 -1047.2 -1047.2 -1047.19 -1047.2 -1047.2 -1047.2 -1047.19 -1047.2 -1047.2 -1047.2 -1047.19 -1047.2 -1047.2 -1047.2 -1047.19 -1047.2 -1047.2 -1047.2 -1047.19 -1047.2 -1047.2 -1047.2 -1047.19 -1047.2 -1047.2 -1047.2 -1047.19 -1047.2 -1047.2 -1047.2 -1047.2 -1047.19 -1047.2 -1047.2 -1047.2 -1047.19 -1047.2 -1047.2 -1047.2 -1047.19 -1047.2 -1047.2 -1047.2 -1047.19 -1047.2 -1047.2 -1047.2 -1047.19 -1047.2 -1047.2 -1047.2 -1047.19 -1047.2 -1047.2 -1047.2 -1047.19 -1047.2 -1047.2 -1047.2 -1047.19 -1047.2 -1047.2 -1047.2 -1047.19 -1047.2 -1047.2 -1047.2 -1047.19 -1047.2 -1047.2 -1047.2 -1047.19 -1047.2 -1047.2 -1047.2 -1047.19 -1047.2 -1047.2 -1047.2 -1047.2 -1047.19 -1047.2 -1047.2 -1047.2 -1047.19 -1047.2 -1047.2 -1047.2 -1047.19 -1047.2 -1047.2 -1047.2 -1047.19 -1047.2 -1047.2 -1047.2 -1047.19 -1047.2 -1047.2 -1047.2 -1047.19 -1047.2 -1047.2 -1047.2 -1047.19 -1047.2 -1047.2 -1047.2 -1047.19 -1047.2 -1047.2 -1047.2 -1047.19 -1047.2 -1047.2 -1047.2 -1047.19 -1047.2 -1047.2 -1047.2 -1047.19 -1047.2 -1047.2 -1047.2 -1047.19 -1047.2 -1047.2 -1047.2 -1047.2 -1047.19 -1047.2 -1047.2 -1047.2 -1047.19 -1047.2 -1047.2 -1047.2 -1047.19 -1047.2 -1047.2 -1047.2 -1047.19 -1047.2 -1047.2 -1047.2 -1047.19 -1047.2 -1047.2 -1047.2 -1047.19 -1047.2 -1047.2 -1047.2 -1047.19 -1047.2 -1047.2 -1047.2 -1047.19 -1047.2 -1047.2 -1047.2 -1047.19 -1047.2 -1047.2 -1047.2 -1047.19 -1047.2 -1047.2 -1047.2 -1047.19 -1047.2 -1047.2 -1047.2 -1047.19 -1047.2 -1047.2 -1047.2 -1047.2 -1047.19 -1047.2 -1047.2 -1047.2 -1047.19 -1047.2 -1047.2 -1047.2 -1047.19 -1047.2 -1047.2 -1047.2 -1047.19 -1047.2 -1047.2 -1047.2 -1047.19 -1047.2 -1047.2 -1047.2 -1047.19 -1047.2 -1047.2 -1047.2 -1047.19 -1047.2 -1047.2 -1047.2 -1047.19 -1047.2 -1047.2 -1047.2 -1047.19 -1047.2 -1047.2 -1047.2 -1047.19 -1047.2 -1047.2 -1047.2 -1047.19 -1047.2 -1047.2 -1047.2 -1047.19 -1047.2 -1047.2 -1047.2 -1047.2 -1047.19 -1047.2 -1047.2 -1047.2 -1047.19 -1047.2 -1047.2 -1047.2 -1047.19 -1047.2 -1047.2 -1047.2 -1047.19 -1047.2 -1047.2 -1047.2 -1047.19 -1047.2 -1047.2 -1047.2 -1047.19 -1047.2 -1047.2 -1047.2 -1047.19 -1047.2 -1047.2 -1047.2 -1047.19 -1047.2 -1047.2 -1047.2 -1047.19 -1047.2 -1047.2 -1047.2 -1047.19 -1047.2 -1047.2 -1047.2 -1047.19 -1047.2 -1047.2 -1047.2 -1047.19 -1047.2 -1047.2 -1047.2 -1047.2 -1047.19 -1047.2 -1047.2 -1047.2 -1047.19 -1047.2 -1047.2 -1047.2 -1047.19 -1047.2 -1047.2 -1047.2 -1047.19 -1047.2 -1047.2 -1047.2 -1047.19 -1047.2 -1047.2 -1047.2 -1047.19 -1047.2 -1047.2 -1047.2 -1047.19 -1047.2 -1047.2 -1047.2 -1047.19 -1047.2 -1047.2 -1047.2 -1047.19 -1047.2 -1047.2 -1047.2 -1047.19 -1047.2 -1047.2 -1047.2 -1047.19 -1047.2 -1047.2 -1047.2 -1047.19 -1047.2 -1047.2 -1047.2 -1047.2 H 99483.767 98436.57 97389.372 96342.175 95294.977 94247.78 93200.582 92153.385 91106.187 90058.989 89011.792 87964.594 86917.397 85870.199 84823.002 83775.804 82728.607 81681.409 80634.211 79587.014 78539.816 77492.619 76445.421 75398.224 74351.026 73303.829 72256.631 71209.433 70162.236 69115.038 68067.841 67020.643 65973.446 64926.248 63879.051 62831.853 61784.656 60737.458 59690.26 58643.063 57595.865 56548.668 55501.47 54454.273 53407.075 52359.878 51312.68 50265.482 49218.285 48171.087 47123.89 46076.692 45029.495 43982.297 42935.1 41887.902 40840.704 39793.507 38746.309 37699.112 36651.914 35604.717 34557.519 33510.322 32463.124 31415.927 30368.729 29321.531 28274.334 27227.136 26179.939 25132.741 24085.544 23038.346 21991.149 20943.951 19896.753 18849.556 17802.358 16755.161 15707.963 14660.766 13613.568 12566.371 11519.173 10471.976 9424.778 8377.5804 7330.3829 6283.1853 5235.9878 4188.7902 3141.5927 2094.3951 1047.1976 5.357366e-8 -1047.1976 -2094.3951 -3141.5927 -4188.7902 -5235.9878 -6283.1853 -7330.3829 -8377.5804 -9424.778 h -1047.198 -1047.197 -1047.198 -1047.197 -1047.198 -1047.197 -1047.198 -1047.197 -1047.198 -1047.197 -1047.198 -1047.198 -1047.197 -1047.198 -1047.197 -1047.198 -1047.197 -1047.198 -1047.197 -1047.198 -1047.198 -1047.197 -1047.198 -1047.197 -1047.198 -1047.197 -1047.198 -1047.197 -1047.198 -1047.197 -1047.198 -1047.198 -1047.197 -1047.198 -1047.197 -1047.198 -1047.197 -1047.198 -1047.197 -1047.198 -1047.198 -1047.197 -1047.198 -1047.197 -1047.198 -1047.197 -1047.198 -1047.197 -1047.198 -1047.198 -1047.197 -1047.198 -1047.197 -1047.198 -1047.197 -1047.198 -1047.197 -1047.198 -1047.197 -1047.198 -1047.198 -1047.197 -1047.198 -1047.197 -1047.198 -1047.197 -1047.198 -1047.197 -1047.198 -1047.198 -1047.197 -1047.198 -1047.197 -1047.198 -1047.197 -1047.198 -1047.197 -1047.198 -1047.198 -1047.197 -1047.198 -1047.197 -1047.198 -1047.197 -1047.198 -1047.197 -1047.193 -1047.2 -1047.2 -1047.2 -1047.2 -1047.19 -1047.2 -1047.2 -1047.2 -1047.19 -1047.2 -1047.2 -1047.2 -1047.19 -1047.2 -1047.2 -1047.2 -1047.19 -1047.2 -1047.2 -1047.2 -1047.19 -1047.2 -1047.2 -1047.2 -1047.19 -1047.2 -1047.2 -1047.2 -1047.19 -1047.2 -1047.2 -1047.2 -1047.19 -1047.2 -1047.2 -1047.2 -1047.19 -1047.2 -1047.2 -1047.2 -1047.19 -1047.2 -1047.2 -1047.2 -1047.19 -1047.2 -1047.2 -1047.2 -1047.19 -1047.2 -1047.2 -1047.2 -1047.2 -1047.19 -1047.2 -1047.2 -1047.2 -1047.19 -1047.2 -1047.2 -1047.2 -1047.19 -1047.2 -1047.2 -1047.2 -1047.19 -1047.2 -1047.2 -1047.2 -1047.19 -1047.2 -1047.2 -1047.2 -1047.19 -1047.2 -1047.2 -1047.2 -1047.19 -1047.2 -1047.2 -1047.2 -1047.19 -1047.2 -1047.2 -1047.2 -1047.19 -1047.2 -1047.2 -1047.2 -1047.19 -1047.2 -1047.2 -1047.2 -1047.19 -1047.2 -1047.2 -1047.2 -1047.19 -1047.2 -1047.2 -1047.2 -1047.2 -1047.19 -1047.2 -1047.2 -1047.2 -1047.19 -1047.2 -1047.2 -1047.2 -1047.19 -1047.2 -1047.2 -1047.2 -1047.19 -1047.2 -1047.2 -1047.2 -1047.19 -1047.2 -1047.2 -1047.2 -1047.19 -1047.2 -1047.2 -1047.2 -1047.19 -1047.2 -1047.2 -1047.2 -1047.19 -1047.2 -1047.2 -1047.2 -1047.19 -1047.2 -1047.2 -1047.2 -1047.19 -1047.2 -1047.2 -1047.2 -1047.19 -1047.2 -1047.2 -1047.2 -1047.19 -1047.2 -1047.2 -1047.2 -1047.2 -1047.19 -1047.2 -1047.2 -1047.2 -1047.19 -1047.2 -1047.2 -1047.2 -1047.19 -1047.2 -1047.2 -1047.2 -1047.19 -1047.2 -1047.2 -1047.2 -1047.19 -1047.2 -1047.2 -1047.2 -1047.19 -1047.2 -1047.2 -1047.2 -1047.19 -1047.2 -1047.2 -1047.2 -1047.19 -1047.2 -1047.2 -1047.2 -1047.19 -1047.2 -1047.2 -1047.2 -1047.19 -1047.2 -1047.2 -1047.2 -1047.19 -1047.2 -1047.2 -1047.2 -1047.19 -1047.2 -1047.2 -1047.2 -1047.2 -1047.19 -1047.2 -1047.2 -1047.2 -1047.19 -1047.2 -1047.2 -1047.2 -1047.19 -1047.2 -1047.2 -1047.2 -1047.19 -1047.2 -1047.2 -1047.2 -1047.19 -1047.2 -1047.2 -1047.2 -1047.19 -1047.2 -1047.2 -1047.2 -1047.19 -1047.2 -1047.2 -1047.2 -1047.19 -1047.2 -1047.2 -1047.2 -1047.19 -1047.2 -1047.2 -1047.2 -1047.19 -1047.2 -1047.2 -1047.2 -1047.19 -1047.2 -1047.2 -1047.2 -1047.19 -1047.2 -1047.2 -1047.2 -1047.2 -1047.19 -1047.2 -1047.2 -1047.2 -1047.19 -1047.2 -1047.2 -1047.2 -1047.19 -1047.2 -1047.2 -1047.2 -1047.19 -1047.2 -1047.2 -1047.2 -1047.19 -1047.2 -1047.2 -1047.2 -1047.19 -1047.2 -1047.2 -1047.2 -1047.19 -1047.2 -1047.2 -1047.2 -1047.19 -1047.2 -1047.2 -1047.2 -1047.19 -1047.2 -1047.2 -1047.2 -1047.19 -1047.2 -1047.2 -1047.2 -1047.19 -1047.2 -1047.2 -1047.2 -1047.19 -1047.2 -1047.2 -1047.2 -1047.2 -1047.19 -1047.2 -1047.2 -1047.2 -1047.19 -1047.2 -1047.2 -1047.2 -1047.19 -1047.2 -1047.2 -1047.2 -1047.19 -1047.2 -1047.2 -1047.2 -1047.19 -1047.2 -1047.2 -1047.2 -1047.19 -1047.2 -1047.2 -1047.2 -1047.19 -1047.2 -1047.2 -1047.2 -1047.19 -1047.2 -1047.2 -1047.2 -1047.19 -1047.2 -1047.2 -1047.2 -1047.19 -1047.2 -1047.2 -1047.2 -1047.19 -1047.2 -1047.2 -1047.2 -1047.19 -1047.2 -1047.2 -1047.2 -1047.2 -1047.19 -1047.2 -1047.2 -1047.2 -1047.19 -1047.2 -1047.2 -1047.2 -1047.19 -1047.2 -1047.2 -1047.2 -1047.19 -1047.2 -1047.2 -1047.2 -1047.19 -1047.2 -1047.2 -1047.2 -1047.19 -1047.2 -1047.2 -1047.2 -1047.19 -1047.2 -1047.2 -1047.2 -1047.19 -1047.2 -1047.2 -1047.2 -1047.19 -1047.2 -1047.2 -1047.2 -1047.19 -1047.2 -1047.2 -1047.2 -1047.19 -1047.2 -1047.2 -1047.2 -1047.19 -1047.2 -1047.2 -1047.2 -1047.2 -1047.19 -1047.2 -1047.2 -1047.2 -1047.19 -1047.2 -1047.2 -1047.2 -1047.19 -1047.2 -1047.2 -1047.2 -1047.19 -1047.2 -1047.2 -1047.2 -1047.19 -1047.2 -1047.2 -1047.2 -1047.19 -1047.2 -1047.2 -1047.2 -1047.19 -1047.2 -1047.2 -1047.2 -1047.19 -1047.2 -1047.2 -1047.2 -1047.19 -1047.2 -1047.2 -1047.2 -1047.19 -1047.2 -1047.2 -1047.2 -1047.19 -1047.2 -1047.2 -1047.2 -1047.19 -1047.2 -1047.2 -1047.2 -1047.2 -1047.19 -1047.2 -1047.2 -1047.2 -1047.19 -1047.2 -1047.2 -1047.2 -1047.19 -1047.2 -1047.2 -1047.2 -1047.19 -1047.2 -1047.2 -1047.2 -1047.19 -1047.2 -1047.2 -1047.2 -1047.19 -1047.2 -1047.2 -1047.2 -1047.19 -1047.2 -1047.2 -1047.2 -1047.19 -1047.2 -1047.2 -1047.2 -1047.19 -1047.2 -1047.2 -1047.2 -1047.19 -1047.2 -1047.2 -1047.2 -1047.19 -1047.2 -1047.2 -1047.2 -1047.2 -1047.19 -1047.2 -1047.2 -1047.2 -1047.19 -1047.2 -1047.2 -1047.2 -1047.19 -1047.2 -1047.2 -1047.2 -1047.19 -1047.2 -1047.2 -1047.2 -1047.19 -1047.2 -1047.2 -1047.2 -1047.19 -1047.2 -1047.2 -1047.2 -1047.19 -1047.2 -1047.2 -1047.2 -1047.19 -1047.2 -1047.2 -1047.2 -1047.19 -1047.2 -1047.2 -1047.2 -1047.19 -1047.2 -1047.2 -1047.2 -1047.19 -1047.2 -1047.2 -1047.2 -1047.19 -1047.2 -1047.2 -1047.2 -1047.2 -1047.19 -1047.2 -1047.2 -1047.2 -1047.19 -1047.2 -1047.2 -1047.2 -1047.19 -1047.2 -1047.2 -1047.2 -1047.19 -1047.2 -1047.2 -1047.2 -1047.19 -1047.2 -1047.2 -1047.2 -1047.19 -1047.2 -1047.2 -1047.2 -1047.19 -1047.2 -1047.2 -1047.2 -1047.19 -1047.2 -1047.2 -1047.2 -1047.19 -1047.2 -1047.2 -1047.2 -1047.19 -1047.2 -1047.2 -1047.2 -1047.19 -1047.2 -1047.2 -1047.2 -1047.19 -1047.2 -1047.2 -1047.2 -1047.2 -1047.19 -1047.2 -1047.2 -1047.2 -1047.19 -1047.2 -1047.2 -1047.2 -1047.19 -1047.2 -1047.2 -1047.2 -1047.19 -1047.2 -1047.2 -1047.2 -1047.19 -1047.2 -1047.2 -1047.2 -1047.19 -1047.2 -1047.2 -1047.2 -1047.19 -1047.2 -1047.2 -1047.2 -1047.19 -1047.2 -1047.2 -1047.2 -1047.19 -1047.2 -1047.2 -1047.2 -1047.19 -1047.2 -1047.2 -1047.2 -1047.19 -1047.2 -1047.2 -1047.2 -1047.19 -1047.2 -1047.2 -1047.2 -1047.2 -1047.19 -1047.2 -1047.2 -1047.2 -1047.19 -1047.2 -1047.2 -1047.2 -1047.19 -1047.2 -1047.2 -1047.2 -1047.19 -1047.2 -1047.2 -1047.2 -1047.19 -1047.2 -1047.2 -1047.2 -1047.19 -1047.2 -1047.2 -1047.2 -1047.19 -1047.2 -1047.2 -1047.2 -1047.19 -1047.2 -1047.2 -1047.2 -1047.19 -1047.2 -1047.2 -1047.2 -1047.19 -1047.2 -1047.2 -1047.2 -1047.19 -1047.2 -1047.2 -1047.2 -1047.19 -1047.2 -1047.2 -1047.2 -1047.2 -1047.19 -1047.2 -1047.2 -1047.2 -1047.19 -1047.2 -1047.2 -1047.2 -1047.19 -1047.2 -1047.2 -1047.2 -1047.19 -1047.2 -1047.2 -1047.2 -1047.19 -1047.2 -1047.2 -1047.2 -1047.19 -1047.2 -1047.2 -1047.2 -1047.19 -1047.2 -1047.2 -1047.2 -1047.19 -1047.2 -1047.2 -1047.2 -1047.19 -1047.2 -1047.2 -1047.2 -1047.19 -1047.2 -1047.2 -1047.2 -1047.19 -1047.2 -1047.2 -1047.2 -1047.19 -1047.2 -1047.2 -1047.2 -1047.2 -1047.19 -1047.2 -1047.2 -1047.2 -1047.19 -1047.2 -1047.2 -1047.2 -1047.19 -1047.2 -1047.2 -1047.2 -1047.19 -1047.2 -1047.2 -1047.2 -1047.19 -1047.2 -1047.2 -1047.2 -1047.19 -1047.2 -1047.2 -1047.2 -1047.19 -1047.2 -1047.2 -1047.2 -1047.19 -1047.2 -1047.2 -1047.2 -1047.19 -1047.2 -1047.2 -1047.2 -1047.19 -1047.2 -1047.2 -1047.2 -1047.19 -1047.2 -1047.2 -1047.2 -1047.19 -1047.2 -1047.2 -1047.2 -1047.2 -1047.19 -1047.2 -1047.2 -1047.2 -1047.19 -1047.2 -1047.2 -1047.2 -1047.19 -1047.2 -1047.2 -1047.2 -1047.19 -1047.2 -1047.2 -1047.2 -1047.19 -1047.2 -1047.2 -1047.2 5.24 v -1041.96 -1047.2 -1047.19 -1047.2 -1047.2 -1047.2 -1047.19 -1047.2 -1047.2 -1047.2 -1047.2 -1047.19 -1047.2 -1047.2 -1047.2 -1047.19 -1047.2 -1047.2 -1047.2 -1047.19 -1047.2 -1047.2 -1047.2 -1047.19 -1047.2 -1047.2 -1047.2 -1047.19 -1047.2 -1047.2 -1047.2 -1047.19 -1047.2 -1047.2 -1047.2 -1047.19 -1047.2 -1047.2 -1047.2 -1047.19 -1047.2 -1047.2 -1047.2 -1047.19 -1047.2 -1047.2 -1047.2 -1047.19 -1047.2 -1047.2 -1047.2 -1047.19 -1047.2 -1047.2 -1047.2 -1047.19 -1047.2 -1047.2 -1047.2 -1047.2 -1047.19 -1047.2 -1047.2 -1047.2 -1047.19 -1047.2 -1047.2 -1047.2 -1047.19 -1047.2 -1047.2 -1047.2 -1047.19 -1047.2 -1047.2 -1047.2 -1047.19 -1047.2 -1047.2 -1047.2 -1047.19 -1047.2 -1047.2 -1047.2 -1047.19 -1047.2 -1047.2 -1047.2 -1047.19 -1047.2 -1047.2 -1047.2 -1047.19 -1047.2 -1047.2 -1047.2 -1047.19 -1047.2 -1047.2 -1047.2 -1047.19 -1047.2 -1047.2 -1047.2 -1047.19 -1047.2 -1047.2 -1047.2 -1047.2 -1047.19 -1047.2 -1047.2 -1047.2 -1047.19 -1047.2 -1047.2 -1047.2 -1047.19 -1047.2 -1047.2 -1047.2 -1047.19 -1047.2 -1047.2 -1047.2 -1047.19 -1047.2 -1047.2 -1047.2 -1047.19 -1047.2 -1047.2 -1047.2 -1047.19 -1047.2 -1047.2 -1047.2 -1047.19 -1047.2 -1047.2 -1047.2 -1047.19 -1047.2 -1047.2 -1047.2 -1047.19 -1047.2 -1047.2 -1047.2 -1047.19 -1047.2 -1047.2 -1047.2 -1047.19 -1047.2 -1047.2 -1047.2 -1047.2 -1047.19 -1047.2 -1047.2 -1047.2 -1047.19 -1047.2 -1047.2 -1047.2 -1047.19 -1047.2 -1047.2 -1047.2 -1047.19 -1047.2 -1047.2 -1047.2 -1047.19 -1047.2 -1047.2 -1047.2 -1047.19 -1047.2 -1047.2 -1047.2 -1047.19 -1047.2 -1047.2 -1047.2 -1047.19 -1047.2 -1047.2 -1047.2 -1047.19 -1047.2 -1047.2 -1047.2 -1047.19 -1047.2 -1047.2 -1047.2 -1047.19 -1047.2 -1047.2 -1047.2 -1047.19 -1047.2 -1047.2 -1047.2 -1047.2 -1047.19 -1047.2 -1047.2 -1047.2 -1047.19 -1047.2 -1047.2 -1047.2 -1047.19 -1047.2 -1047.2 -1047.2 -1047.19 -1047.2 -1047.2 -1047.2 -1047.19 -1047.2 -1047.2 -1047.2 -1047.19 -1047.2 -1047.2 -1047.2 -1047.19 -1047.2 -1047.2 -1047.2 -1047.19 -1047.2 -1047.2 -1047.2 -1047.19 -1047.2 -1047.2 -1047.2 -1047.19 -1047.2 -1047.2 -1047.2 -1047.19 -1047.2 -1047.2 -1047.2 -1047.19 -1047.2 -1047.2 -1047.2 -1047.2 -1047.19 -1047.2 -1047.2 -1047.2 -1047.19 -1047.2 -1047.2 -1047.2 -1047.19 -1047.2 -1047.2 -1047.2 -1047.19 -1047.2 -1047.2 -1047.2 -1047.19 -1047.2 -1047.2 -1047.2 -1047.19 -1047.2 -1047.2 -1047.2 -1047.19 -1047.2 -1047.2 -1047.2 -1047.19 -1047.2 -1047.2 -1047.2 -1047.19 -1047.2 -1047.2 -1047.2 -1047.19 -1047.2 -1047.2 -1047.2 -1047.19 -1047.2 -1047.2 -1047.2 -1047.19 -1047.2 -1047.2 -1047.2 -1047.2 -1047.19 -1047.2 -1047.2 -1047.2 -1047.19 -1047.2 -1047.2 -1047.2 -1047.19 -1047.2 -1047.2 -1047.2 -1047.19 -1047.2 -1047.2 -1047.2 -1047.19 -1047.2 -1047.2 -1047.2 -1047.19 -1047.2 -1047.2 -1047.2 -1047.19 -1047.2 -1047.2 -1047.2 -1047.19 -1047.2 -1047.2 -1047.2 -1047.19 -1047.2 -1047.2 -1047.2 -1047.19 -1047.2 -1047.2 -1047.2 -1047.19 -1047.2 -1047.2 -1047.2 -1047.19 -1047.2 -1047.2 -1047.2 -1047.2 V 99483.767 98436.57 97389.372 96342.175 95294.977 94247.78 93200.582 92153.385 91106.187 90058.989 89011.792 87964.594 86917.397 85870.199 84823.002 83775.804 82728.607 81681.409 80634.211 79587.014 78539.816 77492.619 76445.421 75398.224 74351.026 73303.829 72256.631 71209.433 70162.236 69115.038 68067.841 67020.643 65973.446 64926.248 63879.051 62831.853 61784.656 60737.458 59690.26 58643.063 57595.865 56548.668 55501.47 54454.273 53407.075 52359.878 51312.68 50265.482 49218.285 48171.087 47123.89 46076.692 45029.495 43982.297 42935.1 41887.902 40840.704 39793.507 38746.309 37699.112 36651.914 35604.717 34557.519 33510.322 32463.124 31415.927 30368.729 29321.531 28274.334 27227.136 26179.939 25132.741 24085.544 23038.346 21991.149 20943.951 19896.753 18849.556 17802.358 16755.161 15707.963 14660.766 13613.568 12566.371 11519.173 10471.976 9424.778 8377.5804 7330.3829 6283.1853 5235.9878 4188.7902 3141.5927 2094.3951 1047.1976 0 -1047.1976 -2094.3951 -3141.5927 -4188.7902 -5235.9878 -6283.1853 -7330.3829 -8377.5804 -9424.778 v -1047.198 -1047.197 -1047.198 -1047.197 -1047.198 -1047.197 -1047.198 -1047.197 -1047.198 -1047.197 -1047.198 -1047.198 -1047.197 -1047.198 -1047.197 -1047.198 -1047.197 -1047.198 -1047.197 -1047.198 -1047.198 -1047.197 -1047.198 -1047.197 -1047.198 -1047.197 -1047.198 -1047.197 -1047.198 -1047.197 -1047.198 -1047.198 -1047.197 -1047.198 -1047.197 -1047.198 -1047.197 -1047.198 -1047.197 -1047.198 -1047.198 -1047.197 -1047.198 -1047.197 -1047.198 -1047.197 -1047.198 -1047.197 -1047.198 -1047.198 -1047.197 -1047.198 -1047.197 -1047.198 -1047.197 -1047.198 -1047.197 -1047.198 -1047.197 -1047.198 -1047.198 -1047.197 -1047.198 -1047.197 -1047.198 -1047.197 -1047.198 -1047.197 -1047.198 -1047.198 -1047.197 -1047.198 -1047.197 -1047.198 -1047.197 -1047.198 -1047.197 -1047.198 -1047.198 -1047.197 -1047.198 -1047.197 -1047.198 -1047.197 -1047.198 -1047.197 -1047.193 -1047.2 -1047.2 -1047.2 -1047.2 -1047.19 -1047.2 -1047.2 -1047.2 -1047.19 -1047.2 -1047.2 -1047.2 -1047.19 -1047.2 -1047.2 -1047.2 -1047.19 -1047.2 -1047.2 -1047.2 -1047.19 -1047.2 -1047.2 -1047.2 -1047.19 -1047.2 -1047.2 -1047.2 -1047.19 -1047.2 -1047.2 -1047.2 -1047.19 -1047.2 -1047.2 -1047.2 -1047.19 -1047.2 -1047.2 -1047.2 -1047.19 -1047.2 -1047.2 -1047.2 -1047.19 -1047.2 -1047.2 -1047.2 -1047.19 -1047.2 -1047.2 -1047.2 -1047.2 -1047.19 -1047.2 -1047.2 -1047.2 -1047.19 -1047.2 -1047.2 -1047.2 -1047.19 -1047.2 -1047.2 -1047.2 -1047.19 -1047.2 -1047.2 -1047.2 -1047.19 -1047.2 -1047.2 -1047.2 -1047.19 -1047.2 -1047.2 -1047.2 -1047.19 -1047.2 -1047.2 -1047.2 -1047.19 -1047.2 -1047.2 -1047.2 -1047.19 -1047.2 -1047.2 -1047.2 -1047.19 -1047.2 -1047.2 -1047.2 -1047.19 -1047.2 -1047.2 -1047.2 -1047.19 -1047.2 -1047.2 -1047.2 -1047.2 -1047.19 -1047.2 -1047.2 -1047.2 -1047.19 -1047.2 -1047.2 -1047.2 -1047.19 -1047.2 -1047.2 -1047.2 -1047.19 -1047.2 -1047.2 -1047.2 -1047.19 -1047.2 -1047.2 -1047.2 -1047.19 -1047.2 -1047.2 -1047.2 -1047.19 -1047.2 -1047.2 -1047.2 -1047.19 -1047.2 -1047.2 -1047.2 -1047.19 -1047.2 -1047.2 -1047.2 -1047.19 -1047.2 -1047.2 -1047.2 -1047.19 -1047.2 -1047.2 -1047.2 -1047.19 -1047.2 -1047.2 -1047.2 -1047.2 -1047.19 -1047.2 -1047.2 -1047.2 -1047.19 -1047.2 -1047.2 -1047.2 -1047.19 -1047.2 -1047.2 -1047.2 -1047.19 -1047.2 -1047.2 -1047.2 -1047.19 -1047.2 -1047.2 -1047.2 -1047.19 -1047.2 -1047.2 -1047.2 -1047.19 -1047.2 -1047.2 -1047.2 -1047.19 -1047.2 -1047.2 -1047.2 -1047.19 -1047.2 -1047.2 -1047.2 -1047.19 -1047.2 -1047.2 -1047.2 -1047.19 -1047.2 -1047.2 -1047.2 -1047.19 -1047.2 -1047.2 -1047.2 -1047.2 -1047.19 -1047.2 -1047.2 -1047.2 -1047.19 -1047.2 -1047.2 -1047.2 -1047.19 -1047.2 -1047.2 -1047.2 -1047.19 -1047.2 -1047.2 -1047.2 -1047.19 -1047.2 -1047.2 -1047.2 -1047.19 -1047.2 -1047.2 -1047.2 -1047.19 -1047.2 -1047.2 -1047.2 -1047.19 -1047.2 -1047.2 -1047.2 -1047.19 -1047.2 -1047.2 -1047.2 -1047.19 -1047.2 -1047.2 -1047.2 -1047.19 -1047.2 -1047.2 -1047.2 -1047.19 -1047.2 -1047.2 -1047.2 -1047.2 -1047.19 -1047.2 -1047.2 -1047.2 -1047.19 -1047.2 -1047.2 -1047.2 -1047.19 -1047.2 -1047.2 -1047.2 -1047.19 -1047.2 -1047.2 -1047.2 -1047.19 -1047.2 -1047.2 -1047.2 -1047.19 -1047.2 -1047.2 -1047.2 -1047.19 -1047.2 -1047.2 -1047.2 -1047.19 -1047.2 -1047.2 -1047.2 -1047.19 -1047.2 -1047.2 -1047.2 -1047.19 -1047.2 -1047.2 -1047.2 -1047.19 -1047.2 -1047.2 -1047.2 -1047.19 -1047.2 -1047.2 -1047.2 -1047.2 -1047.19 -1047.2 -1047.2 -1047.2 -1047.19 -1047.2 -1047.2 -1047.2 -1047.19 -1047.2 -1047.2 -1047.2 -1047.19 -1047.2 -1047.2 -1047.2 -1047.19 -1047.2 -1047.2 -1047.2 -1047.19 -1047.2 -1047.2 -1047.2 -1047.19 -1047.2 -1047.2 -1047.2 -1047.19 -1047.2 -1047.2 -1047.2 -1047.19 -1047.2 -1047.2 -1047.2 -1047.19 -1047.2 -1047.2 -1047.2 -1047.19 -1047.2 -1047.2 -1047.2 -1047.19 -1047.2 -1047.2 -1047.2 -1047.2 -1047.19 -1047.2 -1047.2 -1047.2 -1047.19 -1047.2"
           id="path4"
           style="fill:none;fill-opacity:1;fill-rule:evenodd;stroke:#a1c3cc;stroke-width:1.18839;stroke-opacity:1" />
      </g>
      <g
         transform="matrix(0.1331529,0,0,0.1331529,71756.687,15672.475)"
         clip-path="url(#clip)"
         id="g10"
         style="visibility:visible">
        <path
           d="m -535510.18,-114961.55 v 0 l -0.94,2.38 -11.45,26.82 -9.88,19.91 -52.59,-8.52 -2.66,22.15 -93.3,-18.48 2.1,23.82 1.82,40.33 -48.77,-12.23 -37.87,-9.04 -19.62,3.24 -78.08,-7.6 22.37,61.55 -31,-1.25 -4.67,62.14 -82.43,4.86 -14.53,-8.05 -2.3,32.84 -52.21,-7.51 1.81,8.38 -27.62,-5.26 -7.29,10.72 -12.04,-11.63 -23.22,0.84 -11.71,40.72 -21.94,1.46 -0.52,28.27 23.88,-1.43 -4.28,22.79 -24.44,-3.39 -33.51,-0.53 -34.78,-1.76 -26.14,20.05 -27.04,33.87 9.99,17.6 -37.41,37.32 -23.14,32.12 4.2,17.52 -14.5,17.82 -12.12,29.29 5.39,22.95 -18.95,14.14 6.38,39.81 -19.71,21.35 -37.19,25.9 -29.42,23.61 -19.38,39.41 -19.23,30.38 -30.12,-8.89 3.43,24.73 -44.39,-3.7 -36.02,-3.56 12.46,-12.44 -77.44,7.24 -40.65,3.59 -21.2,-3.93 -20.2,12.93 -16.68,-3.86 -11.45,-8.6 -9.82,8.88 -13.24,-16.45 -11.24,16.68 -5.51,20.38 -21.01,-14.76 -36.07,-0.54 -44.42,35.43 -23.53,19.51 54.37,60.38 39.14,46.91 -38.66,0.63 -34.81,1.28 -29.68,3.17 -33.61,6.12 -19.22,-5.7 -3.62,23.41 0.28,21.06 21,15.36 -8.66,16.72 -28.47,8 0.58,41.52 -34.95,-1.1 -15.8,5.55 -26.35,10.48 -34.24,16.64 -48.74,1.27 -0.41,29.52 25.24,1.56 11.34,2.51 27.66,8.97 39.37,-14.03 3.44,-1.1 40.35,4.09 5.67,0.39 17.01,-0.1 4.09,-0.48 4.99,5.81 14.97,15.59 9.74,6.2 8.81,7.3 15.38,11.65 7.75,8.16 3.54,3.59 26.99,12.05 44.22,21.13 35.93,18.01 39.22,18.88 36.72,17.9 40.27,17.9 38.16,17.78 43.69,21.13 8.16,2.5 5.8,0.76 2.9,0.63 3.55,2.6 3.15,1.87 2.9,1.24 2.89,1.98 1.08,0.53 1.1,0.5 1.11,0.47 9.59,34.3 1.97,3.21 1.31,0.5 3.69,0.26 2.91,-0.36 1.99,-2.7 3.83,-0.85 2.11,-0.36 2.12,-1.96 2.21,-1.94 2.16,-1.99 2.64,-1.34 3.69,-0.35 5.16,-2.82 7.26,-0.58 4.48,0.26 2.11,-0.98 1.85,-0.48 2.9,-0.36 20.83,1.57 16.22,0.81 10.8,1.77 0.5,5.79 0.38,2.72 1.71,1.24 0.91,3.33 2.2,7.16 4.17,9.87 3.64,11.85 1.82,4.07 2.63,1.99 0.79,0.44 0.8,0.42 0.82,0.4 0.83,0.38 0.84,0.35 1.01,2.95 0.94,2.97 0.13,0.99 -1.2,1.84 -3.7,1.22 -11.5,6.6 -10.21,10.93 -2.78,2.57 -4.37,4.55 -7.02,6 -2.91,2.09 -3.57,2.08 33.73,4.45 1.48,-6.15 1.07,-2.59 2.12,-3.19 2.03,-1.99 1.95,-2.06 1.72,-0.73 1.98,-0.24 28.38,19.72 26.14,18.72 7.23,4.22 9.09,1.15 7.65,0.65 4.75,-0.6 4.34,0.64 18.57,4.27 25.04,1.84 4.35,0.39 1.58,0.37 38.83,14.68 4.07,1.54 53.16,19.34 11.97,4.86 -2.66,4.42 -1.73,3.57 -0.28,2.46 -1.33,1.97 -2.14,6.15 -0.32,2.64 -0.24,2.66 61.74,17.29 42.91,12.4 -2.01,6.03 -0.41,1.84 2.76,1.25 3.43,-0.6 10.45,1.24 10.1,1.19 8.17,1.52 3.98,-5.4 25.16,4.43 30.55,5.57 14.67,41.11 37.06,19.52 50.07,25.75 38.37,20.28 12.35,6.34 14.46,6.48 20.77,10.09 4.17,2.64 13.51,8.95 6.69,4.1 3.55,1.13 5.88,-1.01 5.86,-1.14 7,-2.42 13.19,-22.58 3.6,-7.13 2.13,-2.69 11.03,5.23 6.18,1.4 4.21,0.76 12.63,2.91 11.96,3.15 5.14,0.4 5.51,1.88 1.45,0.38 9.33,-15.22 5.72,-9.08 2.95,-7.5 4.82,-11.05 7.86,-13.14 2.02,-5.77 8.02,-17.07 6.25,-8.96 9.33,-16.2 6.67,-10.8 6.94,-13.51 3.07,-5.03 3.87,-7.24 -4.09,-0.15 -5.78,-1.39 -8.3,-1.28 -5.13,-0.89 -5.91,-1.64 -1.44,-0.5 -1.44,-0.46 -1.46,-0.42 -1.17,-6.03 -0.99,-6.05 0.23,-14.41 0.43,-4.93 0.69,-4.55 1.74,-3.32 1.33,-2.08 8.69,-18.67 9.63,-1.42 8.69,1.16 15,3.17 11.18,1.67 11.45,1.67 8.83,0.42 11.18,2.41 6.71,1.28 5.52,1.63 5.01,0.16 3.83,-0.84 h 3.29 l -1.76,6.88 -0.19,8.62 0.74,6.78 3.64,6.68 2.86,5.56 7.71,8.91 4.97,4.59 2.89,1.74 4.34,1.63 3.15,0.88 4.35,-0.1 5.28,-1.08 5.67,-0.7 3.81,0.88 5.4,0.53 5.27,-0.71 15.42,-0.64 6.19,0.9 8.16,0.3 12.91,0.1 14.62,0.46 8.04,-0.32 9.63,-1.05 5.41,-1.07 5.01,-0.71 4.49,-1.2 10.41,-1.17 10.8,0.44 17.37,2.33 14.22,1.07 8.95,1.79 5.65,1.88 5.79,1.39 1.57,0.75 4.46,2.37 5.57,-4.89 4.48,0.15 3.97,-2.44 3.32,-2.69 7,-2.41 1.97,-0.36 10.66,2.29 13.44,-0.78 7.52,-1.55 -0.1,-3.57 -1.54,-6.05 -0.35,-5.54 4.43,-11.68 8.12,-10.54 3.72,-4.16 5.94,-19.79 2.3,-8.24 3.29,-17.59 3.65,-12.04 2.81,-5.65 1.35,-4.79 2.81,-5.53 1.75,-4.17 0.7,-6.4 -0.35,-6.04 0.1,-5.91 0.44,-6.4 10.5,-11.76 8.73,-5.24 5.43,-2.79 -1.13,-8.39 -0.3,-12.31 -2.46,-22.44 5.79,0.66 21.97,4.7 24.88,3.61 20.25,4.82 12.11,1.68 10.54,0.81 16.58,3.07 32.51,4.9 9.34,1.17 6.03,1.89 6.07,1.76 8.42,1.66 6.72,0.41 9.07,2.53 2.89,0.63 2.83,-7.86 6.76,-21.63 4.48,-16.59 4.56,-10.81 5.92,-15.48 5.65,-14.99 2.98,-9.7 1.47,-3.44 13.29,2.31 10.53,2.65 0.17,11.58 -0.57,3.27 -0.67,3.25 0.5,3.08 1.31,1.24 15,3.06 13.04,0.83 h 5.8 l 4.33,1.51 10.13,3.15 7.23,1.28 2.51,-0.23 9.04,-9.79 5.27,-0.45 2.12,-1.1 3.61,-6.25 4.93,-7.36 2.91,-1.21 6.07,-0.7 4.09,-0.95 3.82,0.27 2.36,1.22 2.32,1.29 2.27,1.36 2.76,1.13 6.19,0.16 6.75,-3.4 6.2,-0.2 12.38,-31.69 2.81,-6.26 1.61,-3.07 -0.25,-1.48 6.6,-18.18 1.63,-5.53 1.21,-3.31 5.63,-11.42 8.62,-6.46 11.12,-6.45 7.43,-6.48 6.1,-3.65 4.49,-1.81 4.49,-1.08 13.07,-2.12 3.58,-3.3 2.14,-3.07 1.87,-3.31 0.55,-3.2 -1.3,-1.48 9.01,-22.35 4.17,-9.58 4.25,-5.02 24.81,-2.77 2.38,-0.97 2.03,-6.51 1.34,-2.7 -1.56,-2.72 -4.14,-9.15 -1.68,-4.81 -0.1,-3.08 2.6,-12.3 1.06,-0.61 3.57,-0.61 3.56,-0.69 3.03,-0.35 6.75,-3.03 1.58,-2.18 1.49,-2.23 0.12,-1.36 0.15,-1.35 0.2,-1.36 0.23,-1.34 0.81,-1.84 1.34,-2.58 2.4,-3.43 0.95,-2.58 1.19,-1.1 2.77,-0.1 2.51,-1.09 1.2,-0.98 2.44,-2.19 9.2,-2.82 4.6,-1.29 5.52,-1.91 h 1.31 l 1.46,0.48 2.37,-0.65 2.03,-0.85 2.06,-0.8 2.08,-0.76 1.42,-1.86 2.75,-1.39 9.48,-1.95 -6.33,-10.16 -5.76,-7.08 -1.36,-2.57 -0.95,-2.58 v -1.93 l -0.1,-1.93 -0.12,-1.93 0.64,-1.73 0.54,1.1 0.68,1.84 0.56,2.09 0.82,2.09 1.21,1.83 2.27,2.56 2.9,1.92 2.95,1.84 1.74,1.7 4.53,3.4 2.94,2.81 1.21,-8.15 1.74,-8.4 -1.07,-11.69 -0.69,-12.81 -0.71,-3.94 2.89,-0.56 2.9,-0.49 8.94,-2.56 3.4,-1.89 5.76,-3.76 13.52,-5.08 8.53,-3.79 3.68,-0.9 1.87,2.07 5.62,-3.88 4.69,-4.86 -4.44,-7.1 -6.29,-7.2 -4.41,-4.26 -8.69,-8.9 -5.48,-6.22 -1.09,-2.7 -3.24,-5.64 -8.56,-8.77 13.06,-10.75 16.03,-15.45 14.37,-11 10.31,-9.11 7.34,-3.78 0.53,0.12 2.92,1.44 3.86,2.67 5.96,1.78 6.51,3.51 7.82,3.24 15.42,9.32 8.47,1.88 6.34,0.17 2.07,-2.98 4.52,-7.93 11.49,-19.72 4.88,-10.9 8.01,-13.76 0.62,-2.84 1.41,-5.08 -15.86,-6.52 -17.03,23.33 -29.46,-8.34 -57.38,-28.69 -44.11,-16.42 -24.93,-9.46 -15.12,15.38 -20.56,-2.77 -25.08,-1.64 -13.7,40.66 -35.22,-10.24 -44.39,-2.58 1.67,13.27 -20.66,2.64 -17.96,-3.92 -4.78,-18.73 -12.53,14.82 2.28,15.08 -18.67,-0.32 -2.38,22.21 -41.61,-12.75 3.37,-40.24 7.65,-60.63 -38.48,-8.48 0.28,-46.92 3.61,-52.27 -30.07,-10.75 -30.89,-1.73 -4.28,-43.99 16.42,-15.96 -37.27,-4.85 6.8,-83.5 4.43,-61.28 44.91,9.8 48.11,11.05 -0.17,-55.94 2.22,-79.37 3.91,-99.19 -38.35,15.58 -0.22,-53.54 -20.63,0.24 2.17,-44.47 8.78,-52.79 40.47,7.32 36.06,2.43 54.35,-9.88 43.66,9.19 0.29,-14.44 -26.85,-11.29 0.9,-45.1 11.03,-35.3 5.7,-58.85 3.56,-48.66 28.18,9.52 50.25,2.68 44.49,0.19 11.92,16.45 30.4,-4.88 3.32,27.13 0.27,18.65 12.55,17.07 29.65,0.52 -1.3,-31.3 -10.36,-29.66 12.76,6.85 80.42,9.25 39.3,1.31 0.25,-12.03 -11.5,-5.02 8.87,-23.9 -22.14,-20.85 -32.56,-16.22 -41.97,-29.02 -23.76,-36.51 -26.54,4.94 -3.67,-8.86 -17.07,-58.79 -4.03,-44.45 9.06,-34.44 -36.19,-13.99 -22.33,-11.97 -22.11,-29.25 -14.3,-18.67 -12.93,-22.35 15.38,-12.78 15.15,5.11 17.35,-11.51 -5.8,-11.17 -0.48,-14.19 14.04,-10.94 16.68,-10.29 2.28,-22.18 -27.42,-27.46 -21.47,-27.38 -28.02,-32.4 -49.74,8.68 -71.49,1.64 28.16,73.11 -19.83,48.5 -14.56,51.02 -11.15,43.05 36.74,21.85 -42.59,1.78 2.32,22.81 -24.56,8.94 -1.76,31.38 -17.83,0.4 -12,-54.62 -34.63,-3.38 8.86,-19.64 11.62,-29.48 -26.44,-1.53 -23.12,-2.11 3.65,24.1 -37.56,-10.91 -34.92,-10.87 -31.05,-3.43 -27.84,4.01 -27.09,-2.77 -39.55,-10.92 -9.55,22.71 -8.92,25.81 -29.12,0.3 -35,-4.7 4.69,48.16 -4.72,59.78 -21.12,-3.31 -4.3,26.47 -5.11,38.81 -3.92,19.44 56.31,-9.87 33.42,5.98 27.51,11.9 15.85,-18.98 -0.58,62.55 3.69,41.57 1.99,30.11 -47.07,-0.2 -67.34,-19.19 -9.02,66.02 -30.07,20.55 -27.54,23.59 -24.96,-9.44 -32,20.52 -48.72,19.03 -15.14,15.99 -26.11,16.41 -0.65,-6.74 4.59,-14.55 0.88,-6.76 8.45,-15.8 -17.82,-1.13 -13.13,-2.84 -9.63,-8.91 -13.98,2.69 3.14,-15.34 -15.4,-8.39"
           id="path12"
           style="fill:#cccccc;fill-opacity:1;fill-rule:evenodd;stroke:#ffffff;stroke-width:1.18839;stroke-opacity:1" />
        <path
           d="m -535129.04,-116036.91 v 0 l -2.22,19.73 -4.98,26.47 2.35,23.46 -2.38,30.82 -19.82,-3.31 -14.11,16.5 -5.42,9.81 -4.86,17.83 11.12,10.61 17.77,7.6 11.82,8.15 5.09,16.09 18.99,15.63 -1.59,20.96 -48.89,-7.33 -43.59,-7.88 -4.16,67.8 -0.52,41.32 15.22,0.17 0.17,-13.57 31.01,7.75 27.08,4.61 39.68,1.67 29.04,7.11 -22.98,36.76 -5.67,29.54 -3.64,26.48 -1.01,27.13 -2.54,43.15 12.16,11.62 20.5,-1.6 -1.23,5.48 15.39,-2.65 36.42,-2.06 10.44,-40.59 4.45,-36.96 35.7,2.87 21.82,0.86 11.84,-44.89 13.79,-43.02 26.38,7.08 1.5,37.64 33.02,5.31 15.06,11.89 6.25,27.83 9.7,17.38 20.24,20.58 71.49,-1.64 49.74,-8.68 28.02,32.4 21.47,27.38 27.42,27.46 -2.28,22.18 -16.68,10.29 -14.04,10.94 0.48,14.19 5.8,11.17 -17.35,11.51 -15.15,-5.11 -15.38,12.78 12.93,22.35 14.3,18.67 22.11,29.25 22.33,11.97 36.19,13.99 46.85,8.57 44.21,7.3 32.21,15.18 57.43,8.08 20.01,-157.65 19.36,4.56 6.55,10.76 2.63,1.26 12.46,5.7 28.02,-19.34 7.88,3.18 21.53,17.52 19.85,-2.83 -15.46,-70.38 -17.29,7.78 -15.04,-10.05 7.34,-31.77 20.07,-11.43 35.34,-19.92 25.97,35.46 28.63,34.27 26.59,38.56 30.34,53.41 22.7,-15.14 10.07,-10.36 17.16,2.68 5.6,25.35 11.49,0.83 59.87,2.1 -2.92,155.66 189.38,-5.26 -26.31,-53.86 37.65,27.92 2.78,20.41 33.57,6.32 29.41,41.81 214.1,213.17 6.5,-14.07 1.63,-9.3 0.62,-11.24 -1.14,-12.53 -1.99,-13.98 -1.91,-4.99 -1.99,-7.08 -0.68,-4.17 0.84,-5.45 -0.1,-6.03 -3.55,-9.99 -6.78,-11.36 -0.42,-4.05 0.91,-3.85 0.18,-5.68 1.38,-1.89 0.65,-2.74 0.72,-2.73 -1.03,-2.92 -1.72,-3.4 -2.37,-3.25 -2.27,-4.11 -0.8,-0.22 -4.29,1.99 -5.62,1.55 -8.4,1.39 -3.65,-2.22 -8.13,-5.15 -18.2,-9.38 -2.1,-3.01 -5.32,-14.61 -3.59,-11.09 -5.49,-15.59 5.4,10.04 7.02,7.16 6.83,5.81 10.92,5.68 17.52,5.33 24.38,5.34 21.47,1.63 -0.67,3.22 -2.15,5.87 0.82,17.96 2.19,5.48 7.09,5.8 2.92,10.5 8.01,19.57 12.73,-5.72 79.37,-42.45 24.02,-11.15 26.86,-12.97 7.18,-8.99 0.67,-3.47 0.44,-9.13 6.26,-31.91 0.48,-21.61 0.1,-38.28 -1.83,-52.78 1.36,-15.29 1.11,-5.43 0.34,-3.82 -0.18,-3.19 -1.36,-2.82 -1.25,-4.17 -0.61,-5.16 1.99,-8.39 2.39,-8.28 1.37,-5.44 1.53,-12.82 9.22,-10.08 15.26,-12.88 -70.79,-64.08 -48.03,-42.47 -6.02,3.16 -14.61,3.14 -10.15,1.24 -5.14,0.93 -10.66,2.23 -5.79,0.93 -5.4,1.43 -7.25,0.46 -8.08,-1.74 -6.52,-3.12 -6.8,-4.59 -5.1,-5.71 -2.95,-2.55 -3.72,-1.55 -5.57,-1.78 -7.28,-1.13 -4.63,-0.56 -2.78,-0.7 -4.53,-2.65 -4.71,-5.48 -4.28,-4.25 -3.48,-2.66 -5.32,-2.64 -6.64,-2.5 -13.31,-7.09 -5.2,-3.13 -10.82,-8.47 -6.26,-3.37 -5.56,-1.03 -4.95,-4.24 -2.3,-3.42 -3.64,-5.12 -4.06,-6.72 -4.45,-5.73 -4.47,-7.94 -3.28,-6.97 -4.61,-8.19 -5.69,-9.28 -3.69,-7.95 -1.15,-6.14 -0.64,-7.12 -0.5,-7.14 -0.43,-2.46 -2.86,-5.87 -1,-5.03 -2.02,-11.05 -77.5,-32.95 -27.51,-11.08 0.38,-1.48 -0.2,-4.18 -0.59,-3.93 -1.13,-4.66 0.75,-2.72 2.45,-4.34 1.38,-4.21 -93.75,10.12 -33.35,3.9 -2.53,-44.03 -11.3,-4.77 -9.73,-5.41 -8.8,-5.54 -14.65,-7.81 -22.88,-10.27 -8.93,-4.68 -9.84,-4.42 -7.73,-4.57 -6.12,-2.87 -5.98,-2.38 -6.09,-0.66 -4.51,-1.17 -8.09,-1.86 h -8.71 l -5.52,2.17 -3.83,-0.1 -11.43,-4.89 -11.68,-3.04 -4.08,-1.24 -30.62,0.92 -98.38,-33.91 13.12,-62.44 15.35,-70.49 -50.15,-0.88 -48.7,-0.15 -37.81,-0.28 15.44,-31.56 27.63,12.68 3.04,-5.33 2.9,-8.04 5.41,-10.27 5.83,-5.82 4.49,-7.05 12.84,-13.01 9.95,0.47 15.4,0.34 62.62,-1.11 63.43,2.71 -1.5,-20.14 -0.39,-56.85 -0.13,-115.32 10.23,-10.59 5.28,-5.24 3.51,-3.74 2.01,-6.06 0.17,-5.04 0.43,-7.52 -0.25,-7.14 0.66,-8.62 0.25,-17.61 0.36,-10.34 -0.17,-10.71 -0.67,-9.34 -1.76,-10.81 -1.23,-10.69 -4.01,-11.51 -2.37,-7.11 -2.21,-3.3 -7.82,-27.3 -6.42,-20.51 -6.24,1.01 -27.35,-1.68 -31.33,0.18 -18.98,0.66 -18.06,-1.94 0.52,-3.22 1.31,-11 0.12,-3.83 -0.27,-2.72 -0.8,-2.6 -1.61,-3.33 -3.34,-10.87 -0.49,-7.28 -6.83,-19.19 -2.18,-5.39 -1.15,-2.3 -1.08,-2.33 -1.03,-2.36 -2.86,-7.36 -3.7,-11.91 -3.62,-14.98 -1.18,-10.7 -1.62,-4.15 -1.51,-4.19 -1.09,-2.33 -2.29,-3.8 -0.32,-4.3 0.1,-15.27 -0.68,-25.36 1.79,-28.22 -0.82,-2.7 -8.56,-31.07 -2.04,-4.9 -1.99,-0.23 -1.71,0.51 -13.26,-25.36 -15.24,-25.58 -6.58,3.14 -5.02,1.28 -8.82,3.79 -5.25,3.37 2.47,8.11 -4.09,1.02 -3.81,1.76 -1.81,3.84 -9.76,2.93 -17.26,6.7 -8.94,4.77 -2.66,-1.21 -4.64,-1.06 -2.92,-0.46 -3.46,-1.69 -1.46,-0.85 -1.33,-0.36 -3.58,-0.58 -3.45,-0.82 -3.73,-2.06 -4.52,-1.8 -5.85,-2.53 3.43,-12.59 1.93,-15.66 0.35,-4.56 -2.93,-1.32 -5.05,-1.8 -9.69,-2.86 -18.98,-5.1 -7.17,-2.27 -9.03,-2.37 -6.25,-2.4 -15.54,-5.51 -7.7,-2.38 -10.77,-4.33 h -8.21 l -33.25,41.59 -9.25,12.66 -6.52,7.95 -1.42,3.09 -2.22,1.87 -0.65,1.24 -0.37,2.59 v 3.82 l -0.1,3.81 -4.74,1.65 -29.38,11.14 -24.79,6.78 -25.57,8.52 -27.69,-3.17 -65.3,-6.46 -18.28,-1.42 -16.95,97.57 -28.67,14.47 5.16,60.5 1.14,63.54 -47.38,23.5 -44.73,27.86 39.95,35.01 23.49,25.56 30.76,27.48 -4.92,22.13 -0.3,22.21 -2.29,22.79 16.43,10.68 -19.42,16.44 -14.11,15.25 -2.29,22.79 2.29,24.71 8.95,24.17 8.36,20.42 -0.26,17.91 2.44,17.3 11.04,16.17 6.38,17.93 3.13,13 9,19.21 -22.11,19.51 -22.66,13.92 -26.51,-0.94 -20.37,-11.32 -27.7,-7.72 -26.12,24.97 -20.85,22.61 -28.09,21.86 2.97,26.57 -9.66,28.85 -9.52,22.1 -27.8,-2.75 -21.66,-12.57 -16.6,-47.7 -12.73,-40.87 -10.18,-31.56 -9.47,-34 -5.51,-36.49 -28.98,4.69 -34.91,21.15 -21.84,-1.51"
           id="path14"
           style="fill:#cccccc;fill-opacity:1;fill-rule:evenodd;stroke:#ffffff;stroke-width:1.18839;stroke-opacity:1" />
        <path
           d="m -537085.15,-115018.31 v 0 l -25.65,-8.8 29.33,-55.53 -23.78,-5.16 9.91,-13.69 -25.51,-17.23 3.93,-67.42 7.52,-24.61 -1.71,-27.78 6.93,-30.78 -51.58,-2.92 -33.74,0.33 4.88,-25.26 0.87,-21.58 4.37,-40.07 1.71,-38.85 8.33,-39.41 -26.39,-8.25 -30.33,-11.37 -0.28,29 -6.17,21.54 -10.58,-0.71 -8.03,8.57 -4.08,11.69 -12.55,-2.58 -8.01,7.34 -14.6,4.19 6.17,-22.16 6.16,-20.92 -1.72,-26.55 7.04,-43.74 2.95,-30.21 17.88,-1.69 -7.73,-21.05 -13.71,-19.86 -15.66,-22.34 -23.62,-21.18 -20.43,-9.43 -30.2,-25.55 -38.74,-33.02 -30.34,-11.98 -25.91,9.66 -27.17,3.47 -29.15,2.23 -4.82,19.7 -19.91,4.77 -21.12,-5.72 -3.19,-13.6 -13.72,-19.24 -16.38,-17.41 -23.79,-4.51 -15.34,11.59 -2.13,15.41 3.83,14.84 -14.03,14.08 -2.82,18.48 -16.52,-3.22 -23.15,-2.03 -3.83,-15.46 11.44,-19.65 13.43,-20.25 14.77,-22.71 4.8,-17.24 -13.13,-11.83 -13.21,-3.81 -15.15,-0.98 -0.81,2.53 -0.67,3.45 -1.46,2.71 -2.79,1.22 -2.25,1.85 -2.39,2.58 -2.25,2.09 -1.33,2.59 -0.39,2.11 -0.45,2.09 -0.5,2.09 -1.46,1.96 -1.46,1.6 -2.78,0.86 -2.78,0.61 -1.59,2.22 -1.33,3.08 -1.2,1.97 -2.12,1.47 -2.12,0.61 -4.1,-0.87 -2.77,-1.11 -1.45,-1.36 -1.85,-1.12 -1.33,-0.99 -1.19,-0.24 -2.25,0.61 -4.1,2.45 -3.85,3.33 -4.37,2.7 -2.38,0.61 -0.55,-0.22 -0.54,-0.23 -0.53,-0.25 -0.52,-0.26 -0.51,-0.28 h -1.58 l -1.91,1.13 -1.94,1.08 -3.83,0.11 -2.78,-0.12 -3.18,1.22 -5.83,3.44 -5.17,4.06 -2.78,1.97 -2.91,1.22 h -3.05 l -1.85,-0.13 -1.88,2.74 -1.97,2.68 -44.5,22.84 -43.05,22.35 -56.95,30.35 -44.08,14.84 -10.24,23.16 -95.76,133.98 -39.78,54.56 -40.45,58.26 -41.09,54.8 -36.44,49.39 -23.33,32.73 -7.61,9.38 -9.41,12.21 -6.81,13.2 -0.93,1.81 -4.81,11.48 -8.17,18.22 -13.47,26.51 -3.79,10.09 -16.74,36.22 -14.57,29.38 -13.91,29.36 -8.41,35.99 -34.68,41.88 -26.45,38.33 -5.78,-3.05 -5.62,-2.32 -0.97,-0.78 -0.99,-0.76 -1.02,-0.72 -1.37,-1.57 -5.15,4.46 -5.84,8.05 -9.06,23.43 -2.34,9.69 -1.78,10.9 -6.79,37.07 -4.7,27.51 -3.74,16.01 -4.49,8.63 -2.29,2.65 11.7,6.72 -7.96,11.69 -11.2,9.92 -4.43,6.41 -3.31,8.35 -2.51,8.46 -2.68,11.67 -3.9,10.46 -3.14,9.83 -3.18,8.23 -2.75,4.88 -4.38,3.82 -3.61,2.81 -2.06,1.79 -0.49,5.56 0.28,4.93 -1.68,5.35 -1.87,3.63 -2.97,2.17 -2.01,3.51 -1.23,2.87 -0.64,4.95 -2.08,9.8 -2.33,9.93 -2.64,12.91 -6.7,1.29 -2.89,0.69 -3.77,2.08 -2.66,3.52 -1.22,3.49 -0.65,4.58 0.51,3.44 3.1,6.33 2.33,2.78 2.04,1.91 0.84,1.32 0.88,1.29 0.92,1.27 -0.61,1.62 -2.93,3.53 -2.82,2.92 -2.84,2.17 -1.43,0.9 -0.6,1.99 -0.86,1.88 -2.16,2.77 -1.22,3.24 -0.43,3.34 -2.38,8.33 -1.18,4.72 -0.49,5.44 0.51,3.69 -0.46,2.11 -0.21,1.93 -0.16,1.94 -0.11,1.94 -0.33,2.23 -0.87,1.87 -2.2,1.42 -2.74,1.18 -3,1.07 -1.96,0.92 -2.84,1.92 -2.07,1.66 -2.81,2.92 -2.06,1.9 -1.94,1.16 -2.1,0.68 -2.05,2.03 -2.23,0.3 -1.33,-0.1 -13.42,10.23 -2.78,1.89 -4.21,2.86 -5.97,11.88 -2.61,5.5 -1.1,2.62 -0.96,3.36 0.69,5.04 1.37,5.76 2.84,6.58 3.99,5.08 3.2,4.97 2.87,3 10.53,7.49 9.22,7.52 5.24,2.57 4.41,1.73 6.53,1.8 4.53,1.11 2.94,1.15 3.03,4.12 6.14,10.44 4.98,7.14 1.51,1.94 -0.1,1.97 0.72,1.95 0.7,1.22 2.07,2.78 0.5,3.44 1.06,4.41 1.92,2.05 2.06,2.53 3,3.25 2.97,2.02 0.7,1.09 3.32,0.65 2.29,1.3 2.63,-0.32 2.88,-0.94 1.93,-1.41 1.96,-0.92 2.77,-0.2 2.12,0.32 2.09,-0.68 2.21,-1.29 2.74,-0.94 2.25,-0.1 2.92,0.42 2.93,0.9 2.79,0.42 h 6.07 l 4.52,0.74 2.79,0.67 2.11,-0.1 2.13,0.31 h 4.89 l -2.07,1.42 -2.06,1.9 -1.89,2.77 -1.06,4.34 v 5.8 l 0.41,4.61 0.27,4.62 -0.16,3.21 -1.19,1.41 -1.14,1.43 -1.11,1.45 -4.14,2.7 -3.06,2.48 -3.13,2.38 -0.62,1.37 0.46,1.96 1.9,1.68 2.15,1.3 2.17,1.79 3.78,2.73 2.09,3.4 2.15,1.05 1.38,2.06 0.7,1.22 1.14,2.8 -0.31,2.73 -1.37,7.07 -8.5,24.03 -3.58,7.87 -3.99,3.56 -2.03,2.77 0.1,1.97 2.31,1.91 2.15,1.3 2.14,0.68 1.46,0.34 -4,7.38 -1.41,5.47 -2.66,3.65 -1.78,6.58 -4.53,7.28 -4.4,15.78 -1.45,12.75 -1.55,5.35 2.82,1.52 3.53,-1.2 3.5,-1.95 1.45,-0.28 h 1.67 1.67 l 1.67,-0.1 2.09,-0.92 2.1,-0.42 2.68,1.16 3.7,0.15 3.71,0.39 3.16,-0.33 4.28,-2.46 5.15,-4.34 2.93,-3.53 2.01,-3.38 0.98,-2.5 2.16,-2.77 1.12,-2 2.72,-1.93 1,-1.63 0.2,2.22 -0.97,2.61 -2.05,2.16 -1.21,3.36 0.38,3.81 1.07,3.54 1,3.56 0.72,2.2 1.46,1.36 1.41,1.4 1.36,1.45 3.79,2.98 4.99,3.19 4.15,1.87 4.25,0.99 2.92,0.29 4.19,-1.22 2.6,-1.18 2.88,-0.94 h 3.04 l 6.88,0.55 2.78,0.1 3.69,-0.22 3.54,-0.71 2.22,-0.8 1.97,-0.42 1.46,0.1 1.52,2.18 0.18,1.72 -1.29,1.02 -1.14,1.39 -0.73,1.99 1.09,1.33 1.17,0.22 1.15,0.26 1.14,0.29 1.27,2.68 0.19,1.85 -0.1,1.11 1.1,1.2 1.38,1.94 0.86,2.32 -0.63,1 -0.23,1 1.64,1.93 1.47,0.45 1.88,1.06 0.21,2.34 0.56,1.22 1.36,1.07 1.47,0.58 0.94,0.71 0.44,1.35 0.32,1.84 -0.34,1.61 1.36,1.32 0.66,0.23 2,0.44 1.21,0.58 0.56,1.1 -0.1,1.36 -0.62,1.25 0.1,2.09 1.16,1.9 1.2,1.87 0.85,1.82 -0.33,1.99 -0.62,1.49 -0.62,1.13 0.56,1.22 0.94,0.59 1.37,1.32 1.02,3.3 0.97,1.33 1.21,0.71 1.23,1.32 0.84,1.71 2.91,4.24 2.87,3.25 1.5,2.72 1.44,2.75 0.83,1.34 1.5,1.31 2.12,0.19 1.62,1.19 0.31,1.48 1.66,2.42 2.73,3.13 1.43,3.54 2.04,1.8 3.65,2.61 1,2.69 -0.6,1.99 -0.7,0.35 -0.68,0.37 -0.68,0.39 -0.66,0.4 -0.65,0.43 -1.28,1.39 -0.86,1.87 0.48,2.71 -0.21,1.97 -0.37,1.92 -0.42,1.9 -0.48,1.89 -0.18,2.97 0.88,2.69 1.67,2.67 1.06,0.19 1.07,0.22 1.05,0.24 h 1.46 l 1.87,0.69 1.24,1.94 -0.62,1.25 -1.17,0.53 -0.18,2.59 0.56,1.1 1.89,1.3 0.45,1.97 0.85,1.82 1.49,1.07 1.24,1.7 1.49,1.31 1.53,2.43 1.4,2.55 1.28,2.11 1.22,2.14 0.49,1.97 0.56,1.95 0.77,3.68 0.97,1.46 1.77,1.55 7.91,3.86 2.91,0.17 5.05,1.22 3.19,0.65 2.91,0.3 h 3.83 l 3.56,-0.34 2.9,-0.1 1.48,0.7 3.72,0.76 6.1,1.07 2.39,0.18 2.92,0.67 2.27,0.92 0.83,1.21 0.2,1.97 0.85,1.95 2.04,2.17 2.13,0.56 2.07,2.66 2.27,0.8 1.32,0.1 1.35,1.07 1.25,2.06 1.76,1.31 4.25,0.88 1.76,0.82 1.79,0.77 1.81,0.73 4.83,2.59 3.88,1.74 2.7,2.03 0.7,1.21 2.01,1.06 2.25,0.18 1.51,1.81 1.52,2.18 2.05,2.05 2.15,1.54 2.13,0.44 2.12,0.1 0.62,0.71 0.6,0.74 0.58,0.75 0.55,0.76 0.53,0.78 5.48,6.39 3.6,1.14 1.99,0.44 2.9,-0.2 1.31,-0.4 3.66,2.98 2.19,3.12 2.09,3.18 2.44,2.03 2.06,2.54 1.49,1.19 1.38,2.06 3.56,4.22 2.36,3.47 14.73,9.84 2.93,2.56 2.03,5.4 0.55,1.97 0.3,3.2 0.83,3.2 12.12,10.85 1.86,1.21 3.5,-5.21 2.26,0.97 4.23,0.82 5.29,1.8 1.99,0.96 2.79,2.2 -10.13,14.39 3.75,4.77 4.56,6.73 6.97,10.66 3.34,4.03 1.34,1.47 10.3,-10.45 8.11,-6.49 13.68,8.5 4,4.52 20.71,12.49 24.18,16.41 58.71,38.51 20.71,13.36 18.87,13.63 20.31,12.38 14.24,-0.63 11.05,-1.83 27.21,-8.14 12.76,-3.32 14.06,-4.69 4.32,-2.38 3.66,-3.6 5.47,-6.71 1.15,-3.21 1.29,-2.6 v -2.71 l -0.29,-3.08 0.51,-1.24 0.4,-2.09 0.33,-2.1 0.26,-2.1 0.89,-2.6 1.96,-1.99 1.97,-1.25 1.43,-1.98 0.23,-2.84 -0.81,-1.84 -1.6,-1.83 -0.29,-2.1 v -1.84 l 1.68,-3.72 1.67,-4.2 0.48,-3.83 0.11,-2.09 0.64,-2.72 1.42,-1.98 1.97,-1.38 2.09,-1.86 2.08,-2.61 2.89,-1.38 2.36,-1.38 11.66,18.38 6.98,-1.3 h 3.82 l 4.75,0.33 10.17,1.39 4.37,1.56 3.56,0.21 3.3,-0.16 3.29,-0.27 3.57,0.46 6.08,1.06 6.62,2.4 9.12,2.63 2.51,0.47 22.81,-0.21 4.81,-19.51 -10.64,-8.78 -0.34,-7.88 -1.09,-28.21 8.18,-12.15 13.67,-17.13 2.95,-8.4 8.15,-13.67 3.03,-9.2 13.37,-2.94 5.4,-0.51 2.9,-0.1 3.58,0.27 3.39,-1.32 3.03,-0.2 3.57,0.27 2.83,1.78 3.62,1.76 2.12,0.56 4.36,-0.11 10.35,-2.49 3.16,-0.33 8.98,-4.43 3.49,-2.56 4.87,-4.81 2.83,-2.67 1.37,-2.74 4.01,-7.02 1.44,-4.84 0.54,-4.09 2.66,-3.77 4.59,-5.54 1.5,-2.76 2.8,-3.4 4.39,-3.57 4.94,-2.47 2.84,-2.04 2.6,-0.62 2.58,-0.69 2.55,-0.74 4.63,-0.37 2.01,0.97 3.33,1.42 6.64,2.1 3.73,1.66 3.97,0.3 2.91,0.57 3.05,0.69 3.06,0.93 2.13,0.83 5.67,0.14 3.29,-0.79 14.93,-5.69 11.92,-4.89 8.62,-4.35 2.09,-0.9 h 2.78 l 2.92,1.18 2.96,2.66 2.44,3.29 9.92,7.84 4.93,1.89 9.16,2.67 6.08,0.76 3.55,-1.05 4.57,-2.05 10.14,-8.07 7.96,-4.45 6.78,-4.19 10.09,-4 3.53,-1.54 5.25,-1.57 2.1,-0.77 3.45,1.05 2.66,1.31 15.17,12.68 20.24,15.68 9.34,5.02 7.23,5.18 5.91,5.07 7.53,7.27 9.65,7.23 5.19,2.38 3.7,0.43 2.77,-0.17 2.77,-0.42 h 2.24 l 10.49,3.4 11.46,5.6 4.27,2.51 4.55,3.13 2.95,2.42 3.6,1.41 3.87,2.16 3.73,1.78 2.64,0.33 3.04,0.1 2.1,-0.53 1.81,-1.76 4.25,-5.74 3.74,-4.26 3.23,-3.26 4.22,-7.22 2.06,-2.63 1.84,-0.28 4.48,-0.2 9.15,2.07 7.84,2.7 1.48,8.11 v 13.63 l 1.51,15.61 1.38,18.13 40.1,0.75 2.19,0.14 0.41,-29.52 48.74,-1.27 34.24,-16.64 26.35,-10.48 15.8,-5.55 34.95,1.1 -0.58,-41.52 28.47,-8 8.66,-16.72 -21,-15.36 -0.28,-21.06 3.62,-23.41 19.22,5.7 33.61,-6.12 29.68,-3.17 34.81,-1.28 38.66,-0.63 -39.14,-46.91 -54.37,-60.38 23.53,-19.51 -83.3,-64.42 -33.46,-2.9 -14.33,9.42 -24.37,-6.98 -20.82,11.72 -38.18,10.27 -43.45,16.21 10.47,-47.38 9.23,-51.01 -34.77,-1.71 10.67,-21.51 -0.13,-30.68 0.35,-20.46 -16.71,-2.65 -2.3,-16.88 -18.61,-4.48 -6.5,-35 -9.36,-57.3 33.04,-9.74 32.28,-3.14 0.21,-12.63 6.02,-12.55 -3.56,-18.7 3.53,-18 -27.7,-1.01 16.53,-24.43 3.61,-23.41 4.93,-24.6 22.38,-27.35 -47.72,1.11 14.4,-13.03 9.98,-18.51 23.86,-0.25 6.72,-16.14 -14.11,-4.42 -0.77,-30.7 -12.35,5.83 -9.61,-3.75 4.78,-15.57 -45.8,1.13 4.14,-54.09 5.03,-30.61 -13.36,-11.03 9.9,-13.69 1.7,-24.05 53.4,7.41 -3.32,-32.54 -13.46,-5.01 0.83,-10.82 21.39,-6.31 8.06,-18.53 3.56,-19.8 2.2,-15.61 10.45,-7.67 2.94,-21.62"
           id="path16"
           style="fill:#cccccc;fill-opacity:1;fill-rule:evenodd;stroke:#ffffff;stroke-width:1.18839;stroke-opacity:1" />
        <path
           d="m -536051.6,-117064.37 v 0 l 36.22,-16.99 37.86,-8.27 39.88,-7.62 32.49,1.57 31.88,-3.35 23.6,20.01 -25.53,28.08 -18.82,22.61 -19.56,29.42 -19.88,-2.03 -25.82,-5.2 -0.9,20.93 -2.38,32.06 -10.5,50.5 49.69,-0.14 48.36,5.43 51.77,-8.09 39.84,-3.26 46.54,-10.62 63.76,-7.97 3.59,29.65 1.56,35.19 -21.36,12.08 4.3,27.2 5.6,30.91 21.05,15 17.06,10.69 21.18,2.67 -2.92,25.28 -4.33,27.06 15.3,-5.98 9.46,-11 11.08,14.93 30.42,2.78 28.42,6.48 0.92,33.91 25.35,-13.29 25.24,-2.79 23.25,-4.71 25.16,-0.94 28.58,-4.62 2.95,-26.52 -0.24,-31.44 21.87,0.85 30.46,3.4 -1.64,-27.77 8.21,-22.13 -13.11,-13.08 6.33,-27.07 4.9,-19.67 -24.51,-3.96 -40.36,-6.03 6.85,-17.8 37.11,3.52 5.78,-38.19 -0.3,-28.36 2.98,-25.29 28.5,-2.16 -2.93,-29.64 1.54,-15.99 3.53,-16.63 -5.7,-20.42 -9.14,-13.06 -14.42,-10.64 -12.49,-11.23 -13.12,-12.46 -9.77,-11.85 2.29,-29.38 -0.28,-1.23 v -1.23 l -0.83,-2.7 -1.34,-0.85 -2.79,-0.95 -2.92,-1.54 -2.95,-1.48 -1.48,-1.83 -0.83,-2.7 v -3.57 l 0.75,-3.33 0.84,-0.9 0.87,-0.87 0.9,-0.85 1.58,-0.75 2.65,-0.28 h 3.57 l 2.92,0.58 3.03,-0.89 4.21,-2.64 2.59,-3.97 1.27,-4.32 -0.2,-5.29 0.35,-4.07 0.8,-3.39 0.7,-3.4 1.28,-3.34 1.54,-3.47 -0.84,-3.44 -1.35,-1.95 -1.47,-1.22 -7.99,-3.97 -2.81,-1.94 -2.14,-1.82 -2.94,-1.94 -2.66,-0.96 -1.05,0.51 -1.43,2.11 -1.04,1.86 -1.28,3.46 -1.98,0.64 -1.99,-0.35 -1.47,-1.21 -0.69,-1.97 -0.33,-5.41 0.31,-3.21 0.4,-3.2 -0.17,-2.59 -0.96,-2.82 -0.95,-1.96 -2.16,-3.18 -3.47,-2.05 -5.73,-2.4 -3.6,-1.81 -2.79,-1.2 -1.5,-2.69 -2.15,-2.69 -2.55,-2.55 0.1,-2.59 0.49,-3.33 -0.37,-7.51 -1.75,-2.69 -1.62,-2.08 -0.8,-0.43 -0.81,-0.41 -0.83,-0.38 -0.84,-0.36 -0.85,-0.34 -7.54,0.58 -1.89,-0.67 -1.86,-0.72 -1.84,-0.77 -1.48,-1.95 -2.03,-3.43 -1.12,-4.17 -1.17,-8.36 -0.96,-2.7 -1.48,-2.08 -2.16,-2.68 -2.13,-1.33 -2.02,-2.69 -0.45,-3.32 -0.85,-1.9 -0.9,-1.88 -0.97,-1.86 -1.99,-1.15 -1.96,-1.21 -1.92,-1.26 -2.79,-0.22 -3.84,-0.57 -3.07,-1.32 -3.87,-2.05 -5.05,-1.67 -6.54,-3.87 5.48,-6.34 7.3,-8.95 -0.82,-1.84 -3.62,-3.03 -4.26,-2.3 -8.16,-5.69 -18.64,2.3 -2.78,0.16 -1.99,-0.1 -2.12,0.14 -2.17,0.59 -2.16,0.64 -2.13,0.69 -2.91,0.78 -2.91,0.4 -2.39,-0.71 -1.11,-3.81 -0.42,-1.96 -0.95,-1.96 -1.22,-1.96 -2.14,-1.08 -3.05,-0.59 -3.87,-1.92 -2.01,-1.83 -1.99,-0.34 -1.59,-0.48 -2.78,0.28 -1.32,0.63 -0.64,1.86 -1.96,1.99 h -2.78 l -1.46,-0.23 -1.21,-1.46 -1.23,-2.58 -0.55,-1.84 -0.7,-2.94 -0.17,-2.84 -0.56,-2.58 -1.35,-1.95 -2.02,-1.83 -2.8,-1.69 -2.92,-0.58 -1.59,-9.83 -8.87,-40.05 -8.64,-42.39 -7.07,-33.3 -7.84,-41.91 -8.61,-40.17 -71.78,12.15 -0.61,4.44 1.39,14.64 0.44,3.2 0.5,7.63 -1.19,9.87 -0.2,4.8 -1.57,11.84 -1.65,5.57 -0.58,6.16 0.49,3.56 0.4,3.57 -0.1,4.19 1.02,7.38 -2.58,5.08 -2.04,5.56 -4.75,11.39 -12.72,29.7 -8.21,20.3 -6.52,17.56 -8.58,22.02 -0.58,6.29 0.51,17.61 -0.88,14.05 v 23.15 l -1.08,38.2 -0.13,29.8 -1.19,29.57 -38.78,1.32 -25.11,1.44 h -27.02 l -11.67,-0.39 -22.02,-0.44 -16.3,1 -49.72,0.9 -24.15,-0.91 -0.3,9.75 14.97,11.71 -15.19,20.6 -23.94,33.87 -26.41,37.72 -16.88,22.96 -16.89,21.84"
           id="path18"
           style="fill:#cccccc;fill-opacity:1;fill-rule:evenodd;stroke:#ffffff;stroke-width:1.18839;stroke-opacity:1" />
        <path
           d="m -536246.11,-115389.11 v 0 l 4.14,43.84 -16.56,1.69 -6.81,17.82 -15.89,1.08 -2.11,10.47 9.14,11.8 -14.72,14.67 -22.63,12.12 -8.84,22.12 -2.91,23.42 -1.54,19.72 1.11,19.75 -0.15,12.96 3.29,38.63 -46.02,-23.58 -31.86,13.94 4.2,17.51 -9.24,11.29 -15.21,20.82 0.89,22.88 -27.74,0.17 -17.24,-9.9 -14.57,-15.26 -18.93,12.94 -24.52,0.22 -17.08,-18.91 -10.55,-23.63 1.18,-30.07 -47.09,-0.12 -32.93,1.9 0.58,-32.81 -2.2,-26.89 -24.56,-10.11 -23.83,6.72 -14.78,9.09 -15.08,46.76 6.39,3.71 1.1,10.85 19.33,1.5 -1.1,25.85 3.35,29.53 22.18,-14.1 10.26,39.87 21.48,25.6 3.81,3.67 -4.89,20.98 -14.64,-11.06 -20.61,-1.51 -12.69,-12.23 -22.65,4.47 -26.53,-32.3 -14.01,26.87 -47.19,5.9 -35.53,3.07 -44.58,4.14 -21.49,12.31 -6.16,-16.94 -11.44,-9.8 -10.45,7.67 -34.81,-1.73 -7.51,24.56 -13.28,22.07 -37.97,-4.78 -31.53,-4.68 -24.13,-22.02 -22.69,6.28 -2.94,21.62 -10.45,7.67 -2.2,15.61 -3.56,19.8 -8.06,18.53 -21.39,6.31 -0.83,10.82 13.46,5.01 3.32,32.54 -53.4,-7.41 -1.7,24.05 -9.9,13.69 13.36,11.03 -5.03,30.61 -4.14,54.09 45.8,-1.13 -4.78,15.57 9.61,3.75 12.35,-5.83 0.77,30.7 14.11,4.42 -6.72,16.14 -23.86,0.25 -9.98,18.51 -14.4,13.03 47.72,-1.11 -22.38,27.35 -4.93,24.6 -3.61,23.41 -16.53,24.43 27.7,1.01 -3.53,18 3.56,18.7 -6.02,12.55 -0.21,12.63 -32.28,3.14 -33.04,9.74 9.36,57.3 6.5,35 18.61,4.48 2.3,16.88 16.71,2.65 -0.35,20.46 0.13,30.68 -10.67,21.51 34.77,1.71 -9.23,51.01 -10.47,47.38 43.45,-16.21 38.18,-10.27 20.82,-11.72 24.37,6.98 14.33,-9.42 33.46,2.9 83.3,64.42 44.42,-35.43 36.07,0.54 21.01,14.76 5.51,-20.38 11.24,-16.68 13.24,16.45 9.82,-8.88 11.45,8.6 16.68,3.86 20.2,-12.93 21.2,3.93 40.65,-3.59 77.44,-7.24 -12.46,12.44 36.02,3.56 44.39,3.7 -3.43,-24.73 30.12,8.89 19.23,-30.38 19.38,-39.41 29.42,-23.61 37.19,-25.9 19.71,-21.35 -6.38,-39.81 18.95,-14.14 -5.39,-22.95 12.12,-29.29 14.5,-17.82 -4.2,-17.52 23.14,-32.12 37.41,-37.32 -9.99,-17.6 27.04,-33.87 26.14,-20.05 34.78,1.76 33.51,0.53 24.44,3.39 4.28,-22.79 -23.88,1.43 0.52,-28.27 21.94,-1.46 11.71,-40.72 23.22,-0.84 12.04,11.63 7.29,-10.72 27.62,5.26 -1.81,-8.38 52.21,7.51 2.3,-32.84 14.53,8.05 82.43,-4.86 4.67,-62.14 31,1.25 -22.37,-61.55 78.08,7.6 19.62,-3.24 37.87,9.04 48.77,12.23 -1.82,-40.33 -2.1,-23.82 93.3,18.48 2.66,-22.15 52.59,8.52 9.88,-19.91 11.45,-26.82 0.94,-2.38 18.53,-47.05 14.15,-36.48 -12.05,-5.29 -43,-10.94 -32.17,-4.14 -2.27,17.41 -18.7,0.29 4.2,-51.67 24.49,1.01 -9.3,-19.41 23.11,5.8 3.5,19.31 20.4,12.37 13.56,-0.98 12.75,8.04 47.33,-0.1 13.93,-54.74 -48.7,5.11 -24.43,-4.01 -27.14,2.55 6.25,-23.35 14.79,-31.04 -32.97,-9.45 -2.5,-12.37 -3.83,-11.14 3.54,-19.08 9.91,0.72 5.18,9.3 11.88,1.98 11.14,8.75 13.94,-4.17 11.16,6.91 8.22,-23.36 10,-6.06 12.71,-11.58 -4.83,-38.3 -38.99,-2.88 -35.71,-0.99 -1.66,-26.55 2.3,-25.88 -93.9,-3.45 -42.93,-6.62 -3.52,18.47 -2.15,13.55 -12.39,3.01 1.74,-59.65 -9.17,-1.55 -44.25,-6.01 -12.78,17.76 -12.04,10.98 -17.88,1.66 -21.92,7.18 -8.07,11.02 -21.91,7.18 -8.89,-32.17 -2.43,-17.91 19.89,-3.5 15.86,1.4 -3.08,-19.77 -9.69,-19.84 26.45,1.5 35.68,4.07 -7.74,-16.73 -12.51,-5.68 -21.04,-11.32 -24.42,-5.19 -4.19,-37.05 -28.24,-18.18 -31.04,-5.87 -43,-1.05 9.07,17.36 -14.76,17.13 -10.01,7.3 11.79,9.99 0.49,14.81 -15.92,3.54 -12.19,23.93 -17.82,-3.26 -13.16,-6.3 -13.08,-13.7 -16.38,-14.35 -15.7,-14.97 -25.08,-5.8 -8.03,7.94 13.77,10.62 -9.38,9.78 12.46,10.61 -0.18,15.42 -33.79,3.99 -34.47,5.82 -43.13,10.07 -79.59,17.73"
           id="path20"
           style="fill:#cccccc;fill-opacity:1;fill-rule:evenodd;stroke:#ffffff;stroke-width:1.18839;stroke-opacity:1" />
        <path
           d="m -534583.25,-115313.98 v 0 l -9.06,34.44 4.03,44.45 17.07,58.79 3.67,8.86 26.54,-4.94 23.76,36.51 41.97,29.02 32.56,16.22 22.14,20.85 -8.87,23.9 11.5,5.02 -0.25,12.03 -39.3,-1.31 -80.42,-9.25 -12.76,-6.85 10.36,29.66 1.3,31.3 -29.65,-0.52 -12.55,-17.07 -0.27,-18.65 -3.32,-27.13 -30.4,4.88 -11.92,-16.45 -44.49,-0.19 -50.25,-2.68 -28.18,-9.52 -3.56,48.66 -5.7,58.85 -11.03,35.3 -0.9,45.1 26.85,11.29 -0.29,14.44 -43.66,-9.19 -54.35,9.88 -36.06,-2.43 -40.47,-7.32 -8.78,52.79 -2.17,44.47 20.63,-0.24 0.22,53.54 38.35,-15.58 -3.91,99.19 -2.22,79.37 0.17,55.94 -48.11,-11.05 -44.91,-9.8 -4.43,61.28 -6.8,83.5 37.27,4.85 -16.42,15.96 4.28,43.99 30.89,1.73 30.07,10.75 -3.61,52.27 -0.28,46.92 38.48,8.48 -7.65,60.63 -3.37,40.24 41.61,12.75 2.38,-22.21 18.67,0.32 -2.28,-15.08 12.53,-14.82 4.78,18.73 17.96,3.92 20.66,-2.64 -1.67,-13.27 44.39,2.58 35.22,10.24 13.7,-40.66 25.08,1.64 20.56,2.77 15.12,-15.38 24.93,9.46 44.11,16.42 57.38,28.69 29.46,8.34 17.03,-23.33 15.86,6.52 0.86,-3.33 2.73,-3.48 2.88,-1.75 5.76,-3.27 3.01,-2.13 5.87,-5.24 3.8,-2.63 4.56,-4.36 2.88,-1.88 2.34,-2.49 2.86,-3.48 2.07,-3.47 1.21,-3.75 1.07,-3.79 0.36,-2.84 2.06,-4.34 0.76,-2.71 1.27,-3.47 1.02,-3.34 0.68,-1.13 0.65,-1.16 0.6,-1.18 1.29,-2.85 2.09,-1.25 2.76,-1.14 2.22,-1.87 1.19,-3.94 1.09,-3.97 2.81,-18.15 1.21,-8.76 -1.6,-0.97 -2.13,-1.58 -1.84,-1.85 -1.9,-1.8 9.97,-4.92 10.5,-4.79 9.32,-3.43 6.93,-5.37 11.6,-11.46 1.06,0.22 1.05,0.2 1.07,0.16 1.99,0.96 0.49,0.44 0.48,0.45 0.46,0.46 0.44,0.48 h 1.19 l 1.96,-1.01 1.17,-1.86 0.76,-2.72 0.9,-1.98 2.47,-2.37 3.66,-3.24 v -1.48 l -0.15,-1.36 -0.19,-1.35 -0.24,-1.35 -0.16,-2.83 0.47,-4.81 2.26,-9.02 3.34,-7.55 0.31,-6.78 0.19,-17.13 0.11,-1.85 -0.43,-3.51 -0.32,-3.51 -0.7,-3.56 6.08,0.67 7.92,0.66 0.44,-7.65 0.89,-12.82 0.15,-9.49 0.64,-12.58 0.18,-7.02 0.13,-10.73 -0.36,-18.97 -0.39,-9.85 3.04,0.21 5.95,1.17 8.86,1.39 11.24,1.11 6.86,-0.1 10.05,1.74 15.07,2.18 26.96,3.04 4.9,0.69 -0.57,-13.67 1.38,-17.14 1.85,-10.62 -0.71,-4.18 1.78,-5.81 0.84,-7.16 23.78,-9 34.7,-12.07 19.2,-5.99 23.99,-9.12 8.58,-1.34 46.55,-14.88 113.3,-39.95 137.24,-47.14 83.11,-28.54 236.97,-80.87 4.86,-0.53 44.62,2.95 165.46,10.05 2.99,-1.08 0.56,-2.61 18.3,-168.95 -1.27,-5.63 -2.67,-0.77 -7.47,-1.73 -26.05,-7.76 -7.9,-2.82 -5.57,-0.68 -5.64,1.17 -9.87,1.06 -4.92,-0.94 -3.56,0.24 -2.34,0.66 -2.36,0.6 -9.92,3.17 h -8.06 l -6.66,-1.51 -4.68,-1.32 -5.04,-0.57 -6,-1.53 -3.24,-1.87 -4.04,-2.08 -3.12,-1.99 -6.05,-2.76 -6.56,-2.37 -5.51,-2.4 -3.37,-1.86 -3.75,-1.36 -6.3,1.07 -18.08,3.81 -21.53,0.1 -7.03,-0.63 -8.25,-1.58 -4.86,0.53 -6.1,3.04 -9.65,6.73 -3.86,3.25 -3.95,3.17 -4.21,3.84 -2.79,2.93 -3.29,3.8 -5.1,4.98 -2.1,3.77 0.43,4.3 1.13,3.83 1.02,3.86 -0.73,1.87 -0.46,5.19 -0.62,4.34 -1.36,5.96 -0.65,0.39 -2.82,-8.29 -4.82,-22.39 -8.37,-28.8 -5.08,-18.69 -1.31,-6.74 -1.06,-3.41 -3.94,-3.07 -10.98,-10.61 -9.2,-9.18 -7.46,-8.62 -7.13,-6.54 -0.21,-2.09 1.12,-1.76 0.21,-0.45 -214.1,-213.17 -29.41,-41.81 -33.57,-6.32 -2.78,-20.41 -37.65,-27.92 26.31,53.86 -189.38,5.26 2.92,-155.66 -59.87,-2.1 -11.49,-0.83 -5.6,-25.35 -17.16,-2.68 -10.07,10.36 -22.7,15.14 -30.34,-53.41 -26.59,-38.56 -28.63,-34.27 -25.97,-35.46 -35.34,19.92 -20.07,11.43 -7.34,31.77 15.04,10.05 17.29,-7.78 15.46,70.38 -19.85,2.83 -21.53,-17.52 -7.88,-3.18 -28.02,19.34 -12.46,-5.7 -2.63,-1.26 -6.55,-10.76 -19.36,-4.56 -20.01,157.65 -57.43,-8.08 -32.21,-15.18 -44.21,-7.3 -46.85,-8.57"
           id="path22"
           style="fill:#cccccc;fill-opacity:1;fill-rule:evenodd;stroke:#ffffff;stroke-width:1.18839;stroke-opacity:1" />
        <path
           d="m -535076.65,-115536.35 v 0 l 1.23,-5.48 -20.5,1.6 -12.16,-11.62 2.54,-43.15 1.01,-27.13 3.64,-26.48 5.67,-29.54 22.98,-36.76 -29.04,-7.11 -39.68,-1.67 -27.08,-4.61 -31.01,-7.75 -0.17,13.57 -15.22,-0.17 0.52,-41.32 4.16,-67.8 43.59,7.88 48.89,7.33 1.59,-20.96 -18.99,-15.63 -5.09,-16.09 -11.82,-8.15 -17.77,-7.6 -11.12,-10.61 4.86,-17.83 5.42,-9.81 14.11,-16.5 19.82,3.31 2.38,-30.82 -2.35,-23.46 4.98,-26.47 2.22,-19.73 -35.5,-18.9 -30.92,-14.52 -48.81,-15.35 -7.5,14.76 -30.98,-8.98 -25.13,-2.13 -40.98,-5.99 -1.36,-28.45 -18.09,2.23 -14.27,-19.01 -13.4,-0.33 -51.04,1.93 13.59,26.65 -8.85,19.66 -24.21,-23.71 -10.11,14.1 -22.5,1 7.71,18.56 -25.24,5.91 -42.39,-1.7 -66.21,-0.35 0.8,37.56 -2.4,29.51 0.49,12.32 19.25,41.47 -20.5,0.98 -8.61,1.75 -5.36,5.47 -6.74,9.15 -7.36,6.68 -9.34,6.66 -10.59,1.72 -30.35,-2.82 -36.97,-2.29 -27.69,-4.03 -63.39,-2.6 -40.18,-8.47 -36.43,104.82 -12.82,6.67 -6.28,26.46 -33.67,-7.74 -32.94,-13.9 -25.67,-12.6 -17.06,-13.12 -32.9,-18.22 -8.46,44.95 -10.49,49.24 -4,60.42 5.5,39.53 -73.05,22.1 -49.23,21.73 -32.6,15.1 -2.87,79.55 3.87,67.9 -2.84,76.47 79.59,-17.73 43.13,-10.07 34.47,-5.82 33.79,-3.99 0.18,-15.42 -12.46,-10.61 9.38,-9.78 -13.77,-10.62 8.03,-7.94 25.08,5.8 15.7,14.97 16.38,14.35 13.08,13.7 13.16,6.3 17.82,3.26 12.19,-23.93 15.92,-3.54 -0.49,-14.81 -11.79,-9.99 10.01,-7.3 14.76,-17.13 -9.07,-17.36 43,1.05 31.04,5.87 28.24,18.18 4.19,37.05 24.42,5.19 21.04,11.32 12.51,5.68 7.74,16.73 -35.68,-4.07 -26.45,-1.5 9.69,19.84 3.08,19.77 -15.86,-1.4 -19.89,3.5 2.43,17.91 8.89,32.17 21.91,-7.18 8.07,-11.02 21.92,-7.18 17.88,-1.66 12.04,-10.98 12.78,-17.76 44.25,6.01 23.42,-21.35 10.79,-17.77 16.18,-24.51 22.61,-9.63 20.63,-10.27 22.12,-23.21 6.1,-12.27 13.49,-20.83 -9.66,-22.31 -1.49,-40.73 -18.47,-4.51 -31.77,0.28 0.41,-33.92 29.86,-6.47 16.56,-1.68 17.78,7.59 9.45,-15.32 10.77,-14.69 13.25,-1.71 13.87,2.62 12.57,0.13 3.83,11.76 4.52,9.3 2.51,11.13 3.15,12.99 9.18,6.88 27.76,2.76 39.69,1.66 13.24,-0.47 0.31,-25.29 5.53,-19.06 49.64,-0.1 50.91,3.63 23.82,0.26 36.43,-2.68 -0.25,20.35 -1.53,16.02 5.14,12.39 9.18,6.27 20.53,-1.01 9.74,14.91 11.14,8.14 13.28,-3.55 14.58,-1.69 7.83,8.72 8.47,10.58 11.38,22.06 -35.21,14.36 8.97,21.04 51.35,12.31 13.54,-60.23"
           id="path24"
           style="fill:#cccccc;fill-opacity:1;fill-rule:evenodd;stroke:#ffffff;stroke-width:1.18839;stroke-opacity:1" />
        <path
           d="m -535923.42,-115826.98 v 0 l 12.82,-6.67 36.43,-104.82 40.18,8.47 63.39,2.6 27.69,4.03 36.97,2.29 30.35,2.82 10.59,-1.72 9.34,-6.66 7.36,-6.68 6.74,-9.15 5.36,-5.47 8.61,-1.75 20.5,-0.98 -19.25,-41.47 -0.49,-12.32 2.4,-29.51 -0.8,-37.56 66.21,0.35 42.39,1.7 25.24,-5.91 -7.71,-18.56 22.5,-1 10.11,-14.1 24.21,23.71 8.85,-19.66 -13.59,-26.65 4.31,-25.88 -72.22,-4.37 -1.61,-25.42 2.2,-176.98 48.34,-0.7 30.55,-4.63 35.79,-2.71 -6.33,-21.66 -3.89,-8.67 -3.11,-14.84 8.74,-11.01 9.49,-17.75 -9.75,-13.07 -6.48,-11.17 0.92,-21.59 9.49,-17.8 -3.8,-13.58 -6.45,-15.52 15.46,-16.47 -9.14,-10.6 -4.51,-11.14 10.73,-8.51 6.78,-11.66 -7.91,-3.16 -3.16,-12.39 3.48,-14.12 6.15,-15.96 12.11,-11.62 17.86,0.83 0.77,-11.1 -2.47,-11.15 2.86,-16.59 9.57,-23.99 13.26,-0.43 13.29,-1.71 9.43,-12.23 2.82,-14.18 -1.12,-17.88 31.69,10.23 11.46,-14.08 21.89,-2.84 2.39,22.82 22.49,3.37 22.51,2.08 2.42,-32.66 16.57,-0.43 1.86,-42.55 1.63,-25.87 31.16,1.57 23.24,-4.04 25.25,-2.82 34.54,-7.63 -15.7,-14.97 9.7,-32.58 9.45,-12.84 12.2,-20.82 4.27,-20.34 -8.33,-22.88 -11.73,-15.57 -15.08,-15.57 12.37,-31.36 -0.38,-21.56 -0.79,-23.28 -10.37,0.24 -32.97,-0.14 -33.62,0.62 h -30.18 l -2.12,-0.1 -1.74,-0.97 -0.42,-2.33 0.54,-9.49 0.61,-14.54 -5.33,-2.53 -56.46,-24.99 -20.77,-9.75 -2.11,0.76 -6.47,1.68 -5.29,0.79 -15.59,2.52 -13.24,0.14 -3.7,0.17 -6.09,0.1 -5.85,-1.53 -9.94,-0.75 -21.19,-0.26 -18.54,-0.53 -18.29,-1.15 -2.29,29.38 9.77,11.85 13.12,12.46 12.49,11.23 14.42,10.64 9.14,13.06 5.7,20.42 -3.53,16.63 -1.54,15.99 2.93,29.64 -28.5,2.16 -2.98,25.29 0.3,28.36 -5.78,38.19 -37.11,-3.52 -6.85,17.8 40.36,6.03 24.51,3.96 -4.9,19.67 -6.33,27.07 13.11,13.08 -8.21,22.13 1.64,27.77 -30.46,-3.4 -21.87,-0.85 0.24,31.44 -2.95,26.52 -28.58,4.62 -25.16,0.94 -23.25,4.71 -25.24,2.79 -25.35,13.29 -0.92,-33.91 -28.42,-6.48 -30.42,-2.78 -11.08,-14.93 -9.46,11 -15.3,5.98 4.33,-27.06 2.92,-25.28 -21.18,-2.67 -17.06,-10.69 -21.05,-15 -5.6,-30.91 -4.3,-27.2 21.36,-12.08 -1.56,-35.19 -3.59,-29.65 -63.76,7.97 -46.54,10.62 -39.84,3.26 -51.77,8.09 -48.36,-5.43 -49.69,0.14 10.5,-50.5 2.38,-32.06 0.9,-20.93 25.82,5.2 19.88,2.03 19.56,-29.42 18.82,-22.61 25.53,-28.08 -23.6,-20.01 -31.88,3.35 -32.49,-1.57 -39.88,7.62 -37.86,8.27 -36.22,16.99 -10.54,-5.83 -28.01,-17.76 -18.27,-10.83 -3.18,0.77 -4.63,0.78 -6.49,1.41 -7.14,1.79 -5.56,0.91 -11.53,0.59 -8.33,2.54 -9.25,2.42 -9.68,0.33 -10.2,0.71 -3.57,1.26 -3.56,1.88 -4.88,2.14 -5.83,0.55 -7.03,0.1 -8.06,2.29 -35.22,5.73 -10.46,1.08 -17.86,3.73 -25.68,3.8 -11.4,0.96 -13.1,2.46 -14.68,3.22 -3.03,2 -2.9,1.62 -2.91,0.65 -2.91,0.89 -4.77,0.65 -2.11,1.26 -1.19,0.38 -3.57,0.28 -3.7,1.26 -12.69,3.69 -5.95,1.53 -11.14,2.72 -11.22,2.42 -8.99,2.79 -4.76,1.27 -5.28,1.9 -7.68,0.56 -4.9,0.79 -4.5,0.41 -12.98,1.59 -4.38,-0.2 -3.84,0.28 -3.84,1.02 -6.61,1.54 -21.85,2.78 -3.18,0.16 -4.38,-0.95 -2.13,-0.72 -2.01,-1.71 -6.53,-3.52 -5.58,37.05 -3.45,25.79 -1.84,13.73 -0.89,3.09 -0.37,2.72 2.02,3.19 3.89,4.77 3.1,4.05 1.35,2.57 2.01,2.21 2.92,0.46 2.25,-0.51 1.45,-0.75 2.11,-0.89 3.83,-1.26 4.38,-0.17 2.92,0.47 2.13,1.34 2.28,2.69 4.53,1.56 2.38,-0.17 2.39,-0.24 2.78,0.34 1.21,1.1 0.28,1.23 -0.11,2.84 -1.97,1.87 -0.38,1.11 -0.24,2.6 0.3,1.75 0.24,1.77 0.18,1.77 -2.2,5.33 -0.24,2.59 0.15,1.85 0.56,2.71 1.23,3.31 2.29,3.93 1.77,3.93 0.96,3.69 -0.89,3.34 21.28,1.06 15.27,57.98 6.59,62.36 9.2,69.82 -19.25,-0.2 1.19,16.04 -11.43,14.1 -6.07,9.83 19.09,11.27 -6.15,14.74 24.41,8.89 24.47,6.39 19.28,-7.21 1.02,27.76 0.38,26.53 -3.02,34.51 -5.57,21.56 -3.56,22.78 -13.42,14.68 15.8,10.64 7.77,14.26 -1.49,14.77 -2.07,10.47 23.14,3.34 21.21,-1.65 22.33,16.85 22.73,-15.81 20.61,-5.34 25.06,9.52 25.68,11.94 29.59,19.43 45.96,-19.92 18.48,5.73 21.06,11.35 31.17,-2.81 42.42,-1.39 37.09,0.97 39.09,2.86 -19.6,33.1 -6.9,21.54 -4.3,28.95 0.95,30.84 -76.2,2.93 -48.45,6.92 46.65,32.57 31.52,24.99 -24.31,40.45 -1.1,37.61 1.54,40.11 44.9,11.6 -16.33,92.34 -15.98,68.33 32.21,16.97 18.23,-28.21 7.52,-22.76 51.46,18.42 -6.97,28.34 -2.91,22.78 -4.29,28.96 9.88,3.18 9.1,12.39 12.56,3.85"
           id="path26"
           style="fill:#cccccc;fill-opacity:1;fill-rule:evenodd;stroke:#ffffff;stroke-width:1.18839;stroke-opacity:1" />
        <path
           d="m -535693.78,-115379.25 v 0 l 9.17,1.55 -1.74,59.65 12.39,-3.01 2.15,-13.55 3.52,-18.47 42.93,6.62 93.9,3.45 -2.3,25.88 1.66,26.55 35.71,0.99 38.99,2.88 4.83,38.3 -12.71,11.58 -10,6.06 -8.22,23.36 -11.16,-6.91 -13.94,4.17 -11.14,-8.75 -11.88,-1.98 -5.18,-9.3 -9.91,-0.72 -3.54,19.08 3.83,11.14 2.5,12.37 32.97,9.45 -14.79,31.04 -6.25,23.35 27.14,-2.55 24.43,4.01 48.7,-5.11 -13.93,54.74 -47.33,0.1 -12.75,-8.04 -13.56,0.98 -20.4,-12.37 -3.5,-19.31 -23.11,-5.8 9.3,19.41 -24.49,-1.01 -4.2,51.67 18.7,-0.29 2.27,-17.41 32.17,4.14 43,10.94 12.05,5.29 -14.15,36.48 -18.53,47.05 15.4,8.39 -3.14,15.34 13.98,-2.69 9.63,8.91 13.13,2.84 17.82,1.13 -8.45,15.8 -0.88,6.76 -4.59,14.55 0.65,6.74 26.11,-16.41 15.14,-15.99 48.72,-19.03 32,-20.52 24.96,9.44 27.54,-23.59 30.07,-20.55 9.02,-66.02 67.34,19.19 47.07,0.2 -1.99,-30.11 -3.69,-41.57 0.58,-62.55 -15.85,18.98 -27.51,-11.9 -33.42,-5.98 -56.31,9.87 3.92,-19.44 5.11,-38.81 4.3,-26.47 21.12,3.31 4.72,-59.78 -4.69,-48.16 35,4.7 29.12,-0.3 8.92,-25.81 9.55,-22.71 39.55,10.92 27.09,2.77 27.84,-4.01 31.05,3.43 34.92,10.87 37.56,10.91 -3.65,-24.1 23.12,2.11 26.44,1.53 -11.62,29.48 -8.86,19.64 34.63,3.38 12,54.62 17.83,-0.4 1.76,-31.38 24.56,-8.94 -2.32,-22.81 42.59,-1.78 -36.74,-21.85 11.15,-43.05 14.56,-51.02 19.83,-48.5 -28.16,-73.11 -20.24,-20.58 -9.7,-17.38 -6.25,-27.83 -15.06,-11.89 -33.02,-5.31 -1.5,-37.64 -26.38,-7.08 -13.79,43.02 -11.84,44.89 -21.82,-0.86 -35.7,-2.87 -4.45,36.96 -10.44,40.59 -36.42,2.06 -15.39,2.65 -13.54,60.23 -51.35,-12.31 -8.97,-21.04 35.21,-14.36 -11.38,-22.06 -8.47,-10.58 -7.83,-8.72 -14.58,1.69 -13.28,3.55 -11.14,-8.14 -9.74,-14.91 -20.53,1.01 -9.18,-6.27 -5.14,-12.39 1.53,-16.02 0.25,-20.35 -36.43,2.68 -23.82,-0.26 -50.91,-3.63 -49.64,0.1 -5.53,19.06 -0.31,25.29 -13.24,0.47 -39.69,-1.66 -27.76,-2.76 -9.18,-6.88 -3.15,-12.99 -2.51,-11.13 -4.52,-9.3 -3.83,-11.76 -12.57,-0.13 -13.87,-2.62 -13.25,1.71 -10.77,14.69 -9.45,15.32 -17.78,-7.59 -16.56,1.68 -29.86,6.47 -0.41,33.92 31.77,-0.28 18.47,4.51 1.49,40.73 9.66,22.31 -13.49,20.83 -6.1,12.27 -22.12,23.21 -20.63,10.27 -22.61,9.63 -16.18,24.51 -10.79,17.77 -23.42,21.35"
           id="path28"
           style="fill:#cccccc;fill-opacity:1;fill-rule:evenodd;stroke:#ffffff;stroke-width:1.18839;stroke-opacity:1" />
        <path
           d="m -535923.42,-115826.98 v 0 l -12.56,-3.85 -9.1,-12.39 -9.88,-3.18 4.29,-28.96 2.91,-22.78 6.97,-28.34 -51.46,-18.42 -7.52,22.76 -18.23,28.21 -32.21,-16.97 15.98,-68.33 16.33,-92.34 -44.9,-11.6 -1.54,-40.11 1.1,-37.61 24.31,-40.45 -31.52,-24.99 -46.65,-32.57 48.45,-6.92 76.2,-2.93 -0.95,-30.84 4.3,-28.95 6.9,-21.54 19.6,-33.1 -39.09,-2.86 -37.09,-0.97 -42.42,1.39 -31.17,2.81 -21.06,-11.35 -18.48,-5.73 -45.96,19.92 -29.59,-19.43 -25.68,-11.94 -25.06,-9.52 -20.61,5.34 -22.73,15.81 -22.33,-16.85 -21.21,1.65 -23.14,-3.34 2.07,-10.47 1.49,-14.77 -7.77,-14.26 -15.8,-10.64 13.42,-14.68 3.56,-22.78 5.57,-21.56 3.02,-34.51 -0.38,-26.53 -1.02,-27.76 -19.28,7.21 -24.47,-6.39 -24.41,-8.89 6.15,-14.74 -19.09,-11.27 6.07,-9.83 11.43,-14.1 -1.19,-16.04 19.25,0.2 -9.2,-69.82 -6.59,-62.36 -15.27,-57.98 -21.28,-1.06 -0.55,0.54 -0.57,0.53 -0.58,0.5 -0.6,0.49 -0.62,0.48 -0.63,0.45 -1.1,0.44 -1.12,0.4 -1.13,0.36 -1.14,0.32 -2.9,1.26 -2.1,1.75 -1.8,0.36 -1.78,0.41 -1.45,0.26 -2.67,-1.33 -1.2,-1.1 -1.35,-2.58 -1.47,-0.85 -1.99,0.27 -0.52,0.99 -0.87,4.19 -0.76,4.21 -0.38,1.48 -1.84,2.24 -1.43,2.36 -1.05,0.62 -0.52,1.24 -0.5,2.6 0.55,2.7 0.16,1.98 -0.38,1.85 -0.78,1.36 -0.65,1.74 0.15,1.23 0.67,1.23 0.69,2.09 0.67,1.22 0.43,2.59 v 2.96 l -0.94,4.35 -1.06,4.33 -1.18,4.3 -2.85,2.83 -2.79,2.89 -2.1,1.38 -2.76,2.86 -3.14,3.61 -2.9,2 -4.75,1.64 -3.05,0.28 -2.91,0.52 -1.31,1 -1.31,1.24 -0.78,1.98 -0.5,2.6 -0.1,5.3 0.85,4.56 -5.43,0.91 -46.06,5.72 -24.23,2.82 -6.08,1.16 -0.23,3.83 -5.61,-3.65 -8.9,-2.14 -10.75,-1.5 -21.1,-2.52 -34.28,4.63 -22.12,38.69 -15.25,23.33 -29.68,0.65 -48.2,4.52 -105.48,1.62 -101.67,-1.37 -104.19,-0.96 -122.9,-2.61 -37.47,-0.56 -86.34,-1.28 -176.86,-0.57 h -16.67 l -0.51,33.93 0.18,51.55 -1.1,54.41 0.38,31.44 -0.3,47.11 -2.17,13.5 -1.22,10.1 12.3,7.06 9.11,4.34 24.14,14.73 90.7,57.53 34.31,19.82 -31.76,38.65 -43.09,49.59 -27.62,60.81 -23.91,47.17 -22.77,47.79 -14.61,21.55 -0.73,23.79 -2.8,56.34 7.26,5.44 4.1,3.95 -16.36,30.42 -23.94,41.86 -24.18,-12.5 -11.45,24.51 -12.65,30.42 -22.53,66.41 -10.81,33.88 1.51,31.57 0.89,12.57 -0.33,3.88 -0.22,3.89 -0.25,0.8 15.15,0.98 13.21,3.81 13.13,11.83 -4.8,17.24 -14.77,22.71 -13.43,20.25 -11.44,19.65 3.83,15.46 23.15,2.03 16.52,3.22 2.82,-18.48 14.03,-14.08 -3.83,-14.84 2.13,-15.41 15.34,-11.59 23.79,4.51 16.38,17.41 13.72,19.24 3.19,13.6 21.12,5.72 19.91,-4.77 4.82,-19.7 29.15,-2.23 27.17,-3.47 25.91,-9.66 30.34,11.98 38.74,33.02 30.2,25.55 20.43,9.43 23.62,21.18 15.66,22.34 13.71,19.86 7.73,21.05 -17.88,1.69 -2.95,30.21 -7.04,43.74 1.72,26.55 -6.16,20.92 -6.17,22.16 14.6,-4.19 8.01,-7.34 12.55,2.58 4.08,-11.69 8.03,-8.57 10.58,0.71 6.17,-21.54 0.28,-29 30.33,11.37 26.39,8.25 -8.33,39.41 -1.71,38.85 -4.37,40.07 -0.87,21.58 -4.88,25.26 33.74,-0.33 51.58,2.92 -6.93,30.78 1.71,27.78 -7.52,24.61 -3.93,67.42 25.51,17.23 -9.91,13.69 23.78,5.16 -29.33,55.53 25.65,8.8 22.69,-6.28 24.13,22.02 31.53,4.68 37.97,4.78 13.28,-22.07 7.51,-24.56 34.81,1.73 10.45,-7.67 11.44,9.8 6.16,16.94 21.49,-12.31 44.58,-4.14 35.53,-3.07 47.19,-5.9 14.01,-26.87 26.53,32.3 22.65,-4.47 12.69,12.23 20.61,1.51 14.64,11.06 4.89,-20.98 -3.81,-3.67 -21.48,-25.6 -10.26,-39.87 -22.18,14.1 -3.35,-29.53 1.1,-25.85 -19.33,-1.5 -1.1,-10.85 -6.39,-3.71 15.08,-46.76 14.78,-9.09 23.83,-6.72 24.56,10.11 2.2,26.89 -0.58,32.81 32.93,-1.9 47.09,0.12 -1.18,30.07 10.55,23.63 17.08,18.91 24.52,-0.22 18.93,-12.94 14.57,15.26 17.24,9.9 27.74,-0.17 -0.89,-22.88 15.21,-20.82 9.24,-11.29 -4.2,-17.51 31.86,-13.94 46.02,23.58 -3.29,-38.63 0.15,-12.96 -1.11,-19.75 1.54,-19.72 2.91,-23.42 8.84,-22.12 22.63,-12.12 14.72,-14.67 -9.14,-11.8 2.11,-10.47 15.89,-1.08 6.81,-17.82 16.56,-1.69 -4.14,-43.84 2.84,-76.47 -3.87,-67.9 2.87,-79.55 32.6,-15.1 49.23,-21.73 73.05,-22.1 -5.5,-39.53 4,-60.42 10.49,-49.24 8.46,-44.95 32.9,18.22 17.06,13.12 25.67,12.6 32.94,13.9 33.67,7.74 6.28,-26.46"
           id="path30"
           style="fill:#cccccc;fill-opacity:1;fill-rule:evenodd;stroke:#ffffff;stroke-width:1.18839;stroke-opacity:1" />
        <path
           d="m -535129.04,-116036.91 v 0 l 21.84,1.51 34.91,-21.15 28.98,-4.69 5.51,36.49 9.47,34 10.18,31.56 12.73,40.87 16.6,47.7 21.66,12.57 27.8,2.75 9.52,-22.1 9.66,-28.85 -2.97,-26.57 28.09,-21.86 20.85,-22.61 26.12,-24.97 27.7,7.72 20.37,11.32 26.51,0.94 22.66,-13.92 22.11,-19.51 -9,-19.21 -3.13,-13 -6.38,-17.93 -11.04,-16.17 -2.44,-17.3 0.26,-17.91 -8.36,-20.42 -8.95,-24.17 -2.29,-24.71 2.29,-22.79 14.11,-15.25 19.42,-16.44 -16.43,-10.68 2.29,-22.79 0.3,-22.21 4.92,-22.13 -30.76,-27.48 -23.49,-25.56 -39.95,-35.01 44.73,-27.86 47.38,-23.5 -1.14,-63.54 -5.16,-60.5 28.67,-14.47 16.95,-97.57 -97.87,-7.7 -57.52,-7.15 4.01,-50.65 12.33,-127.47 7.89,-80 2.83,-38.7 -7.29,-0.91 -12.72,-1.09 -25.99,-3.3 -5.97,-1.54 -15.9,-1.06 -3.32,-0.58 -5.46,-0.35 -7.52,-0.49 -15.25,-2.43 -8.48,-0.52 -9.28,-1.26 -7.17,-1.28 -12.07,-2.33 -8.08,-0.28 -12.99,-0.97 -10.88,-2.1 1.66,-4.84 1.8,-4.8 2.02,-7.17 0.73,-5.67 2.63,-12.22 3.18,-9.89 5.75,-16.81 -9.01,-0.64 -14.95,1.03 -14.7,-0.71 -17.33,0.93 -9.28,-0.64 -9.35,0.22 0.79,23.28 0.38,21.56 -12.37,31.36 15.08,15.57 11.73,15.57 8.33,22.88 -4.27,20.34 -12.2,20.82 -9.45,12.84 -9.7,32.58 15.7,14.97 -34.54,7.63 -25.25,2.82 -23.24,4.04 -31.16,-1.57 -1.63,25.87 -1.86,42.55 -16.57,0.43 -2.42,32.66 -22.51,-2.08 -22.49,-3.37 -2.39,-22.82 -21.89,2.84 -11.46,14.08 -31.69,-10.23 1.12,17.88 -2.82,14.18 -9.43,12.23 -13.29,1.71 -13.26,0.43 -9.57,23.99 -2.86,16.59 2.47,11.15 -0.77,11.1 -17.86,-0.83 -12.11,11.62 -6.15,15.96 -3.48,14.12 3.16,12.39 7.91,3.16 -6.78,11.66 -10.73,8.51 4.51,11.14 9.14,10.6 -15.46,16.47 6.45,15.52 3.8,13.58 -9.49,17.8 -0.92,21.59 6.48,11.17 9.75,13.07 -9.49,17.75 -8.74,11.01 3.11,14.84 3.89,8.67 6.33,21.66 -35.79,2.71 -30.55,4.63 -48.34,0.7 -2.2,176.98 1.61,25.42 72.22,4.37 -4.31,25.88 51.04,-1.93 13.4,0.33 14.27,19.01 18.09,-2.23 1.36,28.45 40.98,5.99 25.13,2.13 30.98,8.98 7.5,-14.76 48.81,15.35 30.92,14.52 35.5,18.9"
           id="path32"
           style="fill:#cccccc;fill-opacity:1;fill-rule:evenodd;stroke:#ffffff;stroke-width:1.18839;stroke-opacity:1" />
      </g>
      <g
         transform="translate(71756.687,15672.475)"
         clip-path="url(#clip2)"
         id="description_kml"
         style="visibility:visible" />
    </g>
  </g>
  <metadata
     id="metadata28">
    <rdf:RDF>
      <cc:Work
         rdf:about="">
        <dc:title>aguascalientes1</dc:title>
      </cc:Work>
    </rdf:RDF>
  </metadata>
</svg>
