<?xml version="1.0" encoding="UTF-8" standalone="no"?>
<!-- Created with Inkscape (http://www.inkscape.org/) -->

<svg
   width="314.51456mm"
   height="280.89529mm"
   viewBox="0 0 314.51456 280.89529"
   version="1.1"
   id="svg5"
   inkscape:version="1.1.1 (3bf5ae0d25, 2021-09-20)"
   sodipodi:docname="bajaCaliforniaSur.svg"
   xmlns:inkscape="http://www.inkscape.org/namespaces/inkscape"
   xmlns:sodipodi="http://sodipodi.sourceforge.net/DTD/sodipodi-0.dtd"
   xmlns="http://www.w3.org/2000/svg"
   xmlns:svg="http://www.w3.org/2000/svg">
  <sodipodi:namedview
     id="namedview7"
     pagecolor="#ffffff"
     bordercolor="#666666"
     borderopacity="1.0"
     inkscape:pageshadow="2"
     inkscape:pageopacity="0.0"
     inkscape:pagecheckerboard="0"
     inkscape:document-units="mm"
     showgrid="false"
     fit-margin-top="0"
     fit-margin-left="0"
     fit-margin-right="0"
     fit-margin-bottom="0"
     inkscape:zoom="0.46324355"
     inkscape:cx="689.702"
     inkscape:cy="454.4046"
     inkscape:window-width="1366"
     inkscape:window-height="705"
     inkscape:window-x="-8"
     inkscape:window-y="-8"
     inkscape:window-maximized="1"
     inkscape:current-layer="layer1-8" />
  <defs
     id="defs2" />
  <g
     inkscape:label="Capa 1"
     inkscape:groupmode="layer"
     id="layer1"
     transform="translate(14.468813,-97.723513)">
    <g
       inkscape:label="Capa 1"
       id="layer1-8"
       transform="matrix(0.26458333,0,0,0.26458333,45.029702,99.509407)">
      <path
         style="fill:#f9f9f9;fill-rule:evenodd;stroke:#000000;stroke-width:0.2;stroke-linecap:butt;stroke-linejoin:miter;stroke-miterlimit:4;stroke-dasharray:none;stroke-opacity:1"
         d="m 816.10284,882.91747 -0.23032,0.11516 c -1.17131,-2e-5 -1.80198,0.34359 -2.18809,0.86366 -0.38612,0.52009 -0.53679,1.22579 -0.74857,2.07281 -0.341,1.36387 -0.61647,1.78462 -1.15161,2.01522 -0.53516,0.23058 -1.3088,0.28009 -2.59116,0.92124 -1.06073,0.53036 -1.29793,1.36899 -1.5547,2.07279 -0.12837,0.35189 -0.25236,0.69048 -0.51823,0.92125 -0.26586,0.23078 -0.6378,0.34546 -1.26678,0.34546 -0.50997,0 -1.96206,-0.15093 -3.33971,-0.17273 -1.37767,-0.0218 -2.68393,0.0704 -2.93666,0.57578 -0.24662,0.4932 -0.62601,1.34441 -1.15161,2.01522 -0.52563,0.6708 -1.19146,1.17038 -2.1881,0.92125 -0.69822,-0.17455 -1.11004,-0.56136 -1.32437,-1.03641 -0.21433,-0.47505 -0.23358,-1.05105 -0.23032,-1.61218 0.003,-0.56112 0.0454,-1.06419 0,-1.49701 -0.0454,-0.43282 -0.21543,-0.77358 -0.57583,-0.86367 -0.77545,-0.19385 -1.615,-0.1383 -2.53356,0.0576 -0.91858,0.19587 -1.89197,0.50176 -2.87907,0.74851 -0.59995,0.14996 -0.95638,0.49539 -1.2092,0.92124 -0.25283,0.42586 -0.40959,0.98632 -0.51824,1.49702 -0.10864,0.5107 -0.17803,0.97735 -0.34549,1.38187 -0.16745,0.40452 -0.4345,0.6988 -0.86372,0.80608 -1.35436,0.33864 -3.8642,2.44864 -4.20342,2.53342 -1.29836,0.32453 -2.10429,0.41223 -2.82148,0.23031 -0.71722,-0.18192 -1.3367,-0.64565 -2.1881,-1.49701 -0.42088,-0.42099 -3.96528,-4.10046 -4.14585,-4.1456 -0.83218,-0.20806 -1.80063,-0.36771 -2.53358,-0.0576 -0.36648,0.15506 -0.69846,0.45747 -0.9213,0.86365 -0.22284,0.4062 -0.34549,0.9314 -0.34549,1.66977 2e-5,2.61818 0.68754,3.15303 1.26679,5.46987 0.26718,1.06863 0.87899,2.02791 1.43953,3.05163 0.56054,1.0237 1.09405,2.05729 1.09405,3.16676 3e-5,2.09102 0,4.18503 0,6.27597 10e-6,0.92626 -0.14253,2.08579 -0.0576,3.05163 0.0425,0.48291 0.14211,0.91953 0.34549,1.2667 0.20339,0.34718 0.46385,0.63416 0.9213,0.7485 1.70626,0.42662 2.94467,0.8061 5.47022,0.8061 1.46329,0 1.94727,0.47564 2.36084,1.0364 0.41357,0.56077 0.7204,1.23089 1.78501,1.49702 0.61431,0.15357 1.6992,0.16772 2.59116,0.40305 0.446,0.11765 0.85554,0.25278 1.15163,0.51819 0.29609,0.26541 0.46065,0.65351 0.46065,1.15156 -1e-5,1.04545 0.54475,2.60841 0.80614,3.91528 0.13069,0.65342 0.1556,1.24503 0.0576,1.66975 -0.098,0.42473 -0.34093,0.69093 -0.86372,0.69093 -1.26419,3e-5 -2.29769,0.0246 -3.22456,-0.17273 -0.92685,-0.19737 -1.76533,-0.61369 -2.64872,-1.49702 -1.30459,-1.30443 -2.33429,-3.24762 -4.14586,-4.60621 -0.94012,-0.70508 -1.71717,-1.20813 -2.59116,-1.55461 -0.87397,-0.34648 -1.86312,-0.51819 -3.28213,-0.51819 -0.97172,0 -1.90197,0.009 -2.76391,0.17274 -0.86193,0.16384 -1.64648,0.43726 -2.24566,1.03639 -0.60164,0.60161 -1.57487,0.94919 -2.41842,1.32429 -0.84354,0.37509 -1.57866,0.78678 -1.78502,1.61218 -0.0689,0.27556 -0.14939,1.48796 -0.34549,2.64857 -0.19609,1.1606 -0.51985,2.26033 -0.9213,2.36069 -0.45192,0.11295 -1.66463,0.67221 -2.64874,1.32428 -0.49205,0.32605 -0.92789,0.68189 -1.15162,1.0364 -0.22373,0.35451 -0.25456,0.72428 0.0576,1.03639 0.7133,0.71329 1.24123,1.21019 1.90018,1.55461 0.65895,0.34441 1.45503,0.51819 2.70632,0.51819 0.64952,-10e-6 2.24271,-0.0996 3.51246,0.17274 0.63486,0.13619 1.19465,0.38017 1.49711,0.7485 0.30247,0.36835 0.35494,0.84476 0,1.55461 -0.25523,0.51049 -0.85592,1.77202 -1.2092,3.1092 -0.17665,0.66858 -0.32737,1.3897 -0.28791,2.01521 0.0395,0.62551 0.27501,1.19623 0.69097,1.61217 0.11966,0.1197 3.36931,3.22114 3.33971,3.33951 -0.28217,1.12875 -0.2921,1.89915 -0.17273,2.64857 0.11935,0.74944 0.35286,1.46888 0.57581,2.36069 0.37014,1.4804 0.40307,4.16123 0.40307,6.27598 0,0.97491 0.009,2.15525 -0.34548,2.93645 -0.1774,0.39059 -0.44785,0.71548 -0.86373,0.8061 -0.41587,0.0906 -0.97325,-0.026 -1.72743,-0.40306 -0.90774,-0.45384 -2.44443,-1.34919 -3.74279,-1.90006 -0.64918,-0.27542 -1.22828,-0.46701 -1.61228,-0.46062 -0.38399,0.006 -0.58372,0.19868 -0.46064,0.69093 0.54118,2.16453 1.41543,3.29132 2.476,5.41231 0.81293,1.62568 1.82736,3.09398 3.33971,4.60621 1.60014,1.60004 1.7648,1.54955 1.32437,1.43945 -0.22024,-0.0551 -0.58719,-0.11175 -0.97889,0 -0.3917,0.11174 -0.81423,0.41922 -1.15162,1.09397 -0.37967,0.75921 -0.63277,1.4452 -0.46065,2.13038 0.17211,0.68518 0.76641,1.33323 2.1305,2.01522 1.24199,0.62093 3.77675,1.30069 4.6065,2.13038 0.55714,0.55711 1.28253,1.26246 1.55471,2.01521 0.13607,0.37638 0.16293,0.78902 0,1.15155 -0.16295,0.36256 -0.53783,0.67194 -1.15164,0.97883 -0.71002,0.35496 -1.62821,0.73445 -2.64873,0.92124 -1.02054,0.1868 -2.16161,0.20815 -3.22455,-0.0576 -0.69322,-0.1733 -1.57213,-0.4537 -2.41842,-0.86367 -0.84629,-0.40998 -1.60852,-0.97379 -2.13052,-1.66976 -0.22512,-0.30017 -1.01104,-1.48412 -1.95775,-2.47583 -0.47335,-0.49586 -0.96743,-0.95037 -1.49711,-1.20914 -0.5297,-0.25876 -1.10894,-0.30922 -1.61228,-0.0576 -0.7533,0.37665 -0.855,1.53515 -0.97888,2.591 -0.062,0.52793 -0.13063,1.00946 -0.2879,1.38186 -0.15729,0.37241 -0.38504,0.63336 -0.80615,0.63336 -0.49685,0 -1.91614,-0.15219 -3.28212,-0.23031 -1.366,-0.0781 -2.68175,-0.0822 -2.99424,0.23031 -0.42938,0.42933 -0.78365,1.28617 -1.20921,2.01522 -0.42554,0.72905 -0.93151,1.3243 -1.72744,1.3243 -2.20808,-2e-5 -5.74101,0 -6.67943,0 l -0.11516,0.17272 c 0.2021,2.44936 -0.0683,4.75753 0.9213,6.73663 1.03418,2.0681 0.66707,5.70996 1.55469,7.48506 1.70786,3.4155 3.68313,6.5555 4.83683,11.17 0.53685,2.1473 2.96287,5.6113 4.26102,6.9094 1.88881,1.8886 2.48755,4.0995 4.77925,6.3911 1.62906,1.629 2.36966,2.9453 3.74278,4.3183 1.78205,1.782 3.51881,2.1304 6.39152,2.1304 2.31776,0 5.22753,1.0364 8.0038,1.0364 2.62055,-10e-5 5.64262,-0.058 7.48557,-0.5183 2.08546,-0.5213 4.20364,-2.6487 5.29749,-3.7425 1.99071,-1.9906 4.01056,-2.3981 5.87328,-4.2607 1.52349,-1.5234 2.77605,-4.4578 3.74279,-6.3911 1.31836,-2.6366 3.05738,-3.9757 4.77923,-4.8366 2.16788,-1.0838 5.61188,-1.0862 7.48558,-1.5546 4.24114,-1.0602 3.43909,-1.2452 4.26101,-5.3547 0.76194,-3.8097 0.52681,-4.4975 3.74279,-6.9093 2.36883,-1.77636 4.60469,-2.33096 6.39153,-3.22436 3.588,-1.7939 2.84295,-1.7488 5.35505,-4.2607 0.95917,-0.95913 6.47874,0.5182 7.94621,0.5182 3.13873,-10e-5 2.69969,-2.62055 4.3186,-4.77897 1.85495,-2.47318 3.63085,-3.57622 4.77925,-5.87291 0.9186,-1.83708 3.75502,-3.2366 4.77925,-4.26076 1.74075,-1.74061 2.92567,-2.34971 4.83682,-4.26075 2.4959,-2.49568 1.52737,-4.20611 3.16697,-7.4851 1.10611,-2.21214 0.51824,-5.53137 0.51824,-8.0033 -10e-6,-2.88839 -0.0137,-5.06955 0.57582,-7.42753 0.5164,-2.06557 1.55469,-3.77664 1.55469,-6.96689 3e-5,-3.08895 0.5758,-5.46703 0.5758,-8.5215 4e-5,-3.02132 0,-6.0184 0,-9.0397 4e-5,-3.10545 -0.19862,-5.17619 -1.09403,-6.96691 -0.78628,-1.57248 -2.96811,-3.48613 -4.26102,-4.77894 -1.90526,-1.90513 -2.94039,-2.94021 -4.77925,-4.77896 -1.94682,-1.9467 2.68012,-4.8679 3.16697,-5.35473 2.38001,-2.3799 -1.63516,-3.76545 -2.64873,-4.77894 -1.7316,-1.73155 -4.46789,-0.65968 -6.39153,-3.22436 -1.63723,-2.18278 -3.39655,-2.30328 -6.39152,-1.55458 -3.15474,0.78861 -4.68305,-1.33377 -6.39152,-2.18796 -2.45513,-1.22745 -4.06781,-3.5359 -6.96734,-4.26075 -3.54046,-0.88504 -4.74127,-0.79382 -6.90976,-3.68497 -0.71296,-0.95062 -1.81289,-1.60339 -2.82148,-2.30312 z"
         id="path6832" />
      <g
         id="g6882"
         transform="matrix(1.8426012,0,0,1.8424864,-180.89529,-281.08554)"
         style="fill:#f9f9f9;stroke-width:0.11839;stroke-miterlimit:4;stroke-dasharray:none">
        <path
           transform="translate(-220.76186,-6.6183848)"
           id="path6861"
           d="m 574.59375,339.4375 0.1875,0.0312 c 0.16168,-0.32336 0.43029,-0.43617 0.75,-0.40625 0.31971,0.0299 0.7057,0.19332 1.09375,0.4375 0.7761,0.48836 1.58247,1.26998 2.09375,1.78125 0.75283,0.75285 2.32871,1.63687 3.03125,1.8125 0.57345,0.14336 1.11413,-0.16116 1.65625,-0.5 0.54212,-0.33884 1.09641,-0.6875 1.6875,-0.6875 0.42852,6e-5 0.60325,-0.6032 0.90625,-0.9062 l 0.125,-0.0625 c -0.14521,-0.1413 -0.28917,-0.23459 -0.4375,-0.53125 -0.51145,-1.02286 -0.0818,-3.82716 -0.28125,-4.625 -0.1843,-0.73711 -0.59375,-2.50102 -0.59375,-4.0625 3e-5,-1.02087 1.72043,-2.22544 2.03125,-3.46875 0.31476,-1.25897 -1.74354,-2.33729 -2.3125,-2.90625 -0.84784,-0.84788 -1.66297,-1.56586 -2.59375,-2.03125 -1.03194,-0.51598 -2.02293,-1.42918 -2.90625,-2.3125 -0.86731,-0.86731 -1.41693,-1.92208 -2.3125,-2.59375 -1.20244,-0.90184 -1.70542,-2.01792 -2.59375,-2.90625 -0.7827,-0.78272 -2.09196,-1.03035 -2.90625,-1.4375 -1.30028,-0.65012 -1.41394,-1.07789 -2.03125,-2.3125 -0.50947,-1.01894 -1.36141,-1.95516 -2,-2.59375 -0.73275,-0.73274 -1.11823,-1.99323 -2.03125,-2.90625 -0.90961,-0.90963 -2.35468,-0.83829 -3.46875,-0.28125 -1.8779,0.93893 -2.56849,0.619 -1.46875,1.71875 1.06845,1.06843 1.57297,1.57297 2.90625,2.90625 0.61275,0.61279 -0.28125,3.57502 -0.28125,4.34375 2e-5,1.69495 0.0275,2.65247 0.84375,3.46875 0.447,0.44701 0,3.97054 0,4.625 -10e-6,2.07334 -0.0395,2.43338 1.46875,3.1875 1.45403,0.72701 1.4375,0.7256 1.4375,2.90625 0,1.19752 0.9461,2.33242 2.03125,2.875 1.45004,0.72503 2.77285,0.46036 3.75,1.4375 0.67464,0.67462 1.92266,1.3289 2.625,2.03125 0.42482,0.4248 -0.3125,2.25979 -0.3125,3.46875 0,0.23211 -0.0617,0.33229 -0.0937,0.5 z"
           style="fill:#f9f9f9;fill-rule:evenodd;stroke:#000000;stroke-width:0.108546;stroke-linecap:butt;stroke-linejoin:miter;stroke-miterlimit:4;stroke-dasharray:none;stroke-opacity:1" />
        <path
           transform="translate(-220.76186,-6.6183848)"
           id="path6813"
           d="m 349.84375,180.09375 c -0.19378,-0.0484 -1.48241,2.35741 -1.71875,2.59375 -0.76457,0.76459 -1.35888,1.81152 -1.75,2.59375 -0.45101,0.902 -1.72298,1.44173 -2.3125,2.03125 -0.87374,0.87374 -1.62102,1.93352 -2.3125,2.625 -1.00602,1.00602 -1.27383,1.83633 -2.03125,2.59375 -0.98221,0.98222 -1.46112,1.37427 -1.15625,2.59375 0.36305,1.4523 -0.28125,2.89736 -0.28125,4.34375 0,1.65538 2.95315,-0.10549 3.1875,-0.28125 1.15972,-0.86978 1.37221,-1.27986 2.875,-2.03125 1.46972,-0.73485 2.625,-1.34825 2.625,-3.1875 10e-6,-1.04878 1.4375,1.48528 1.4375,2.625 -10e-6,1.65354 -0.17287,0.88647 2.03125,1.4375 1.88172,0.47042 2.3125,0.2234 2.3125,2.3125 0,1.23449 -1.10605,1.9498 -1.75,2.59375 -0.76743,0.76742 -2.41107,1.63142 -3.15625,2.625 -0.51764,0.6902 -0.80167,1.54084 -1.1875,2.3125 -0.62213,1.24428 2.34375,2.07761 2.34375,3.46875 0,0.87246 -1.11369,1.35772 -0.875,2.3125 0.1426,0.57039 -1.00745,2.01637 -0.28125,3.46875 0.27688,0.55374 2.96464,0.74898 3.46875,0.875 1.37609,0.34403 1.88609,0.95766 3.15625,-0.3125 0.80247,-0.80248 2.63746,-0.8703 3.78125,-1.15625 1.09533,-0.27383 -0.14642,-2.65134 -1.15625,-3.15625 -1.04367,-0.52184 -1.83782,-1.6444 -2.03125,-2.03125 -0.49184,-0.98369 1.53941,-1.64132 2.03125,-2.625 0.9488,-1.89763 2.011,3.10649 2.03125,3.1875 0.66437,2.65743 0.60295,0.7757 0,3.1875 -0.54094,2.16377 2.5547,-0.32228 2.875,-0.5625 1.48044,-1.11035 -0.19851,-2.1305 2.3125,-0.875 1.30156,0.6508 1.25163,1.54728 3.1875,2.03125 2.40611,0.60152 1.87567,-0.0612 2.90625,2 0.78165,1.56332 -1.18653,2.93653 -1.75,3.5 -0.91629,0.91629 -0.875,1.51867 -0.875,3.46875 -10e-6,2.01907 0.23929,2.86965 -1.4375,2.03125 -0.96253,-0.48127 -1.89487,-1.64486 -2.59375,-2.34375 -0.28616,-0.28616 -3.26481,-0.74178 -3.46875,-0.84375 -0.96302,-0.48151 -1.96266,-1.96266 -2.625,-2.625 -0.48498,-0.48498 -2.69304,1.2868 -2.875,1.46875 -0.58674,0.58673 1.4375,1.17024 1.4375,2 0,1.70409 -0.0575,2.77114 -0.5625,3.78125 -0.25882,0.51762 -1.89133,1.12641 -2.34375,2.03125 -0.94032,1.88063 -1.53561,1.62065 -2.59375,0.5625 -0.96653,-0.9665 -0.52949,-2.75704 -0.28125,-3.75 0.38121,-1.52483 0.66417,-1.85916 0,-3.1875 -0.15132,-0.30266 -2.80289,-1.46153 -3.1875,-1.75 -1.28981,-0.96734 -1.58152,-1.66882 -2.90625,-2 -1.25987,-0.31497 -2.69397,-1.08135 -3.46875,-1.46875 -1.30305,-0.65153 -1.73144,-1.73144 -2.59375,-2.59375 -1.07694,-1.07694 -1.28479,-1.22053 -2.90625,-2.03125 -1.31958,-0.65979 -1.15944,-2.07527 -1.4375,-3.1875 -0.27445,-1.09775 1.25385,-0.97261 2.3125,-2.03125 0.46222,-0.46225 -1.84929,-2.13055 -2.03125,-2.3125 -1.46451,-1.46451 -1.11447,-1.40007 0.875,-2.59375 1.83024,-1.09815 -0.28175,-1.96862 -1.15625,-1.75 -1.2728,0.3182 -1.84879,1.22127 -2.90625,1.75 -1.15394,0.57698 -2.42211,0.59375 -3.75,0.59375 -0.98636,0 -3.06972,3.35098 -3.75,4.03125 -0.85189,0.85189 -2.67129,1.75752 -3.78125,2.3125 -1.29845,0.64921 -1.72759,0.875 -3.46875,0.875 -1.04005,1e-5 -1.86225,-1.41869 -3.1875,-1.75 -0.54297,-0.13576 -3.46964,0.59375 -4.625,0.59375 -1.73626,1e-5 -3.48251,0 -5.21875,0 -1.53816,1e-5 -1.84177,-0.875 -3.75,-0.875 -2.23859,0 -2.18992,-0.43992 -3.46875,-1.71875 -1.27741,-1.27742 -1.34023,-1.46875 -3.46875,-1.46875 -1.6398,0 -3.29771,0 -4.9375,0 -1.78354,0 -2.59971,-0.28721 -3.46875,-1.15625 -1.09272,-1.09271 -1.38192,-1.4375 -3.1875,-1.4375 -1.54333,0 -3.08167,0 -4.625,0 -1.70374,0 -1.30959,0.39461 -1.71875,2.03125 -0.3974,1.58959 -3.14004,-0.82754 -3.1875,-0.875 -1.10636,-1.10636 -1.75,-0.51385 -1.75,-2.59375 -10e-6,-2.23284 -0.70542,-2.05917 -1.71875,-2.3125 -1.09529,-0.27383 -2.0922,0.88242 -3.1875,1.15625 -1.13072,0.28268 1.4375,2.02199 1.4375,3.1875 -10e-6,1.42221 -0.0312,3.03106 -0.28125,4.03125 -0.18273,0.73087 1.53603,0.70663 1.71875,1.4375 0.52531,2.10121 -1.13074,1.16757 1.1875,2.90625 1.0504,0.7878 0.84375,2.07365 0.84375,3.75 -10e-6,0.75708 2.70684,-1.45287 2.90625,-1.71875 1.0498,-1.39972 4.24795,1.95462 4.34375,2.03125 0.33317,0.26655 0.28125,3.93594 0.28125,4.34375 0,0.72014 2.43585,-1.1184 2.59375,-1.75 0.13088,-0.5235 2.28323,-1.57911 2.625,-1.75 1.74962,-0.8748 2.875,1.04679 2.875,2.625 -10e-6,1.87417 -0.0523,2.3125 -2,2.3125 -2.31318,0 0.12531,2.57836 0.5625,2.90625 0.98996,0.74246 3.37752,-0.4225 4.0625,-0.59375 0.62942,-0.15735 1.47569,0.6927 1.71875,0.875 2.28204,-0.57052 2.59155,3.08494 2.90625,4.34375 0.3536,1.41444 10e-4,3.22434 0.28125,4.34375 0.20044,0.80179 2.26126,1.15625 3.1875,1.15625 1.64485,0 1.51251,1.27502 2.03125,2.3125 0.5779,1.15578 4.33431,0.84375 5.5,0.84375 0.90378,0 1.32419,1.1875 3.1875,1.1875 2.03069,0 2.80823,0.99144 3.46875,2.3125 0.84715,1.69429 -0.16451,2.99174 1.15625,4.3125 0.85409,0.8541 2.51924,1.1875 4.03125,1.1875 1.00851,1e-5 2.07362,2.991 2.3125,3.46875 0.47661,0.95319 0,3.51904 0,4.625 10e-6,1.63979 0,3.26645 0,4.90625 10e-6,1.44686 0,2.89687 0,4.34375 10e-6,1.81892 -1.04588,0.67287 0.59375,2.3125 1.16486,1.16487 2.38651,-0.61019 2.90625,1.46875 0.29812,1.19248 3.10455,3.46875 0.28125,3.46875 -3.03412,0 0.97887,1.94256 1.71875,2.3125 0.51748,0.25874 0.92948,-1.04487 2.625,-1.46875 1.76646,-0.44163 2.37189,0.93438 3.1875,1.75 0.76962,0.76961 1.93583,1.37332 2.875,2.3125 1.299,1.29901 0.27989,1.75 3.1875,1.75 1.25395,-10e-6 0.87672,-2.37843 1.4375,-3.5 0.9027,-1.80542 2.05973,-0.25278 2.90625,0.59375 1.48867,1.48867 1.89439,1.97844 3.75,2.90625 1.24828,0.62412 3.30451,0.46476 4.0625,0.84375 1.89666,0.94835 3.24908,3.10087 4.90625,4.34375 1.05444,0.79083 2.69019,1.70515 3.5,2.3125 0.3731,0.27983 0,3.77039 0,4.34375 -2e-5,0.89637 2.00951,1.44701 2.59375,2.03125 0.93391,0.93388 1.56508,1.15625 3.1875,1.15625 2.18586,-10e-6 2.0608,-0.71195 2.3125,-1.71875 0.11347,-0.45385 3.95808,0.5625 4.34375,0.5625 1.51735,-10e-6 3.20668,1.63026 4.34375,2.3125 1.7905,1.07429 2.83308,0.83307 4.03125,2.03125 0.45058,0.45056 0.45777,0.45777 0.875,0.875 1.48586,1.48585 2.21617,1.80734 2.90625,3.1875 0.63679,1.27361 0.25933,2.25934 1.15625,3.15625 1.01461,1.01463 1.38781,1.11937 2,2.34375 0.72696,1.4539 1.1875,2.27462 1.1875,4.03125 10e-6,2.20682 0.38151,2.14226 2.3125,2.625 2.18944,0.54735 2.4222,-0.37435 3.46875,1.71875 0.54133,1.08266 1.08232,2.19589 1.71875,3.46875 0.43289,0.86576 2.68554,1.83544 3.46875,2.03125 1.77553,0.44388 1.59137,1.23319 3.1875,2.03125 1.5148,0.75742 2.15959,-1.28459 2.625,-1.75 1.69379,-1.69379 0.99534,-1.35705 3.46875,-2.59375 0.15359,-0.0768 0.21711,-3.80593 0.28125,-4.0625 0.53061,-2.12244 -0.0933,-2.875 2.59375,-2.875 2.06299,10e-6 1.66077,-1.06702 2.625,-2.03125 1.34458,-1.34459 3.40725,1.40725 4.03125,2.03125 1.32599,1.32601 0.54418,2.03125 3.1875,2.03125 1.63621,-10e-6 1.97141,1.7919 2.3125,3.15625 0.0849,0.33972 3.38164,1.11269 3.46875,1.15625 1.36957,0.68479 2.10033,0.54358 3.1875,0 1.2201,-0.61005 -0.5625,-2.66712 -0.5625,-4.03125 10e-6,-1.47713 1.29649,-1.57774 2.03125,-2.3125 1.23196,-1.23195 -0.17999,-1.75 2.59375,-1.75 2.10501,-10e-6 2.03125,-0.26053 2.03125,-2.3125 -10e-6,-1.45667 1.15625,-2.02545 1.15625,-4.0625 -10e-6,-1.38231 0.0451,-3.08684 0.28125,-4.03125 0.23921,-0.95683 0.94661,-2.48696 1.4375,-3.46875 0.77977,-1.55951 2.3125,0.17521 2.3125,-2.625 0,-1.59666 0.90223,3.21474 2.03125,4.34375 0.66511,0.6651 -0.5625,3.38036 -0.5625,4.34375 10e-6,1.38622 1.15625,1.1744 1.15625,3.1875 10e-6,1.70594 -1.15625,1.02032 -1.15625,3.1875 10e-6,1.52249 -1.48751,1.48751 -2.3125,2.3125 -1.07987,1.07989 -0.67413,1.77456 -2.3125,2.59375 -1.37794,0.68895 -2.34769,0.62895 -3.1875,1.46875 -1.0231,1.02309 -2.10601,1.62193 -0.59375,2 2.53251,0.63314 1.81395,2.8423 3.78125,0.875 1.11816,-1.11817 0.62667,-1.90708 2,-2.59375 1.313,-0.6565 1.80048,-0.9405 3.1875,-0.59375 0.36532,0.0913 -0.28125,3.76687 -0.28125,4.0625 10e-6,1.50285 0.68758,2.71907 0.875,3.46875 0.36474,1.45891 2.12678,2.09464 3.75,2.90625 1.47362,0.73681 1.11143,2.16445 1.4375,3.46875 0.67743,2.70967 -0.92706,1.09897 -2,0.5625 -1.63491,-0.81746 -2.67114,0.26636 -3.78125,-0.84375 -1.07801,-1.07802 -1.39604,-1.89666 -1.71875,-3.1875 -0.11908,-0.47632 -2.00705,-1.72579 -2.3125,-2.03125 -0.88353,-0.88352 -1.63242,-1.25371 -2.625,-1.75 -1.36938,-0.68469 -2.00772,-0.55477 -2.875,0.3125 -0.88413,0.88413 -2.16103,0.69229 -2.90625,1.4375 -1.39166,1.39169 2.43093,1.52961 3.1875,1.71875 1.69925,0.4248 2.49196,-0.10179 3.75,1.15625 0.96471,0.96469 1.54721,1.82846 2.625,2.90625 0.83881,0.83881 1.59374,1.59374 2.3125,2.3125 1.00404,1.00403 1.88319,1.09784 3.1875,1.75 1.24179,0.62089 1.49661,1.22465 2.3125,2.3125 0.8275,1.10335 1.74223,1.46098 2.59375,2.3125 0.91041,0.91042 1.14162,1.70412 2.03125,2.59375 1.07074,1.07076 3.20968,2.03125 4.90625,2.03125 2.25172,10e-6 2.93624,0.48343 4.625,1.75 0.43885,0.32912 0.57619,0.75784 0.875,1.15625 1.42524,1.06891 2.62987,2.91112 3.46875,3.75 1.06688,1.06688 2.37521,1.47662 3.46875,1.75 0.80593,0.20149 1.74453,2.02031 2.03125,2.59375 0.62426,1.24854 1.44901,1.51282 2.5625,1.78125 0.35303,-0.35304 0.9375,-0.68822 0.9375,-1.1875 0,-1.05601 0.0939,-1.58341 -0.0312,-1.90625 -0.12514,-0.32284 -0.47203,-0.4305 -1.375,-0.65625 -0.3622,-0.0906 -0.84729,-0.41592 -1.125,-0.84375 -0.13885,-0.21391 -0.238,-0.46322 -0.21875,-0.71875 0.0192,-0.25553 0.13758,-0.51257 0.40625,-0.78125 0.37329,-0.37329 0.84423,-0.76108 1.21875,-1.21875 0.37452,-0.45767 0.65625,-0.99068 0.65625,-1.59375 0,-1.40352 0,-2.81522 0,-4.21875 0,-0.52882 -0.12254,-1.43602 -0.0625,-2.0625 0.03,-0.31324 0.12832,-0.55353 0.28125,-0.625 0.15293,-0.0715 0.37099,0.0272 0.71875,0.375 0.8407,0.8407 1.06511,1.28387 1.875,2.09375 0.72744,0.72745 0.90264,1.62142 1.625,2.34375 0.71118,0.71118 0.84635,0.79213 0.96875,0.65625 0.1224,-0.13588 0.23567,-0.4886 0.90625,-0.65625 0.83832,-0.20958 1.22448,-0.0403 1.5625,0.1875 0.33802,0.22784 0.63338,0.50001 1.25,0.5 0.37195,0 0.82436,0.0429 1.21875,-0.0937 0.39439,-0.13663 0.71923,-0.43941 0.875,-1.0625 0.11558,-0.46231 0.26003,-0.7476 0.40625,-0.90625 0.14622,-0.15865 0.31613,-0.2064 0.46875,-0.125 0.30524,0.16279 0.59593,0.75872 0.78125,1.5 0.075,0.29978 0.30106,0.88015 0.625,1.28125 0.16197,0.20055 0.35183,0.36845 0.5625,0.40625 0.21067,0.0378 0.43717,-0.0309 0.6875,-0.28125 0.43354,-0.43354 0.51229,-0.75526 0.53125,-1.15625 0.019,-0.40099 -0.0361,-0.88671 0.15625,-1.65625 0.0905,-0.36209 0.22645,-0.56083 0.375,-0.6875 0.14855,-0.12667 0.31594,-0.18824 0.46875,-0.25 0.15281,-0.0618 0.30296,-0.14513 0.40625,-0.3125 0.10329,-0.16737 0.15625,-0.40025 0.15625,-0.84375 0,-0.37369 -0.0805,-1.1432 -0.0625,-1.84375 0.009,-0.35028 0.044,-0.71084 0.125,-0.96875 0.081,-0.25791 0.20828,-0.41926 0.40625,-0.46875 1.1497,-0.28742 2.46191,-0.25002 3.75,-0.25 1.32555,0 2.6432,-2e-5 3.96875,0 1.24758,0 2.50243,-2e-5 3.75,0 1.20932,0 2.42824,-0.0179 3.5,0.25 0.50099,0.12525 2.98781,0.95922 3.03125,0.9375 0.47591,-0.23795 0.94428,-0.33788 1.3125,-0.53125 0.36822,-0.19337 0.65599,-0.49899 0.8125,-1.125 0.11353,-0.45411 0.23451,-0.67417 0.375,-0.78125 0.14049,-0.10708 0.28481,-0.0843 0.46875,0 0.36788,0.16858 0.85937,0.5625 1.5,0.5625 0.55105,0 1.25528,-0.0598 1.90625,-0.0312 0.65097,0.0285 1.2399,0.14614 1.59375,0.5 0.76851,0.76851 2.00464,1.48537 2.8125,2.5625 0.2572,0.34293 0.48872,0.53869 0.75,0.65625 0.26128,0.11756 0.55047,0.15259 0.84375,0.15625 0.58655,0.007 1.27415,-0.0955 2.15625,0.125 0.45514,0.11379 1.13823,0.69365 1.71875,1.25 0.58052,0.55635 1.03268,1.09375 1.0625,1.09375 1.32555,0 2.67443,-10e-6 4,0 1.1696,0 2.33038,-10e-6 3.5,0 0.74446,0 1.15898,0.14567 1.53125,0.34375 0.37227,0.19808 0.70773,0.45037 1.28125,0.59375 0.16137,0.0403 0.80331,0.35502 1.40625,0.53125 0.30147,0.0881 0.59649,0.12606 0.8125,0.0937 0.21601,-0.0323 0.34376,-0.15058 0.34375,-0.40625 0,-1.09187 0.006,-1.40153 0.15625,-1.375 0.15039,0.0265 0.43198,0.40349 1,0.6875 0.1727,0.0863 0.70911,0.61076 1.25,1 0.27045,0.19462 0.5448,0.3545 0.78125,0.40625 0.23645,0.0518 0.44408,-0.0131 0.5625,-0.25 0.31349,-0.627 0.41803,-1.34212 0.59375,-1.75 0.0879,-0.20394 0.181,-0.31518 0.34375,-0.3125 0.16275,0.003 0.37696,0.12696 0.6875,0.4375 0.14531,0.14532 0.58521,0.72655 1.0625,1.125 0.23864,0.19922 0.49546,0.34145 0.71875,0.375 0.22329,0.0335 0.42013,-0.059 0.5625,-0.34375 0.20657,-0.41315 0.31905,-1.16807 0.5,-1.59375 0.0905,-0.21284 0.20009,-0.35612 0.34375,-0.3125 0.14366,0.0436 0.32593,0.27686 0.5625,0.75 0.31906,0.63813 0.22696,1.89137 0.6875,2.8125 0.17685,0.35371 0.45737,0.82128 0.84375,1.0625 0.19319,0.12061 0.43801,0.20356 0.6875,0.15625 0.24949,-0.0473 0.50408,-0.22283 0.8125,-0.53125 0.66528,-0.66528 1.19101,-0.92451 2.125,-1.625 1.07427,-0.8057 1.47699,-0.75411 2.78125,-1.40625 0.81843,-0.40921 1.95786,-1.02033 2.59375,-1.65625 0.82505,-0.82504 0.99168,-0.92721 1.1875,-0.78125 0.19582,0.14596 0.41019,0.54005 1.375,0.78125 0.60231,0.15058 0.93546,0.11661 1.21875,-0.0625 0.28329,-0.17911 0.53645,-0.47394 0.90625,-0.84375 0.56553,-0.56554 0.70245,-0.61889 0.875,-0.4375 0.17255,0.18139 0.35313,0.59845 0.96875,0.90625 0.42969,0.21484 0.94262,0.2693 1.46875,0.25 0.43393,-0.0159 0.88482,-0.11542 1.3125,-0.21875 -0.28473,-0.29113 -0.68911,-0.65786 -0.84375,-0.8125 -1.21032,-1.21028 -1.15625,-1.89955 -1.15625,-3.75 0,-1.77548 -1.32818,-2.06259 -2.03125,-3.46875 -0.28281,-0.56566 -2.44401,-1.25326 -2.875,-1.46875 -1.44805,-0.72401 -1.13867,-1.50392 -0.59375,-2.59375 0.82177,-1.64355 -0.88193,-2.63193 -1.4375,-3.1875 -1.05733,-1.05736 -1.63292,-1.88292 -2.625,-2.875 -1.34303,-1.34303 0.37117,-1.83992 1.15625,-2.625 1.17792,-1.17795 2.03125,0.15856 2.03125,-2.59375 2e-5,-1.73214 0.33368,-3.29028 0,-4.625 -0.25715,-1.0287 -1.64343,-1.84934 -2.03125,-2.625 -0.66348,-1.32692 -1.54628,-1.06014 -2,-2.875 -0.17572,-0.70284 -2.18811,-1.53156 -2.625,-1.75 -1.46567,-0.73282 -0.0779,-2.10541 -2.03125,-2.59375 -1.14537,-0.28634 -2.28528,-1.72278 -2.875,-2.3125 -1.13511,-1.13509 -0.7756,-2.53991 -1.15625,-4.0625 -0.37066,-1.4827 0.0859,-3.07796 0.5625,-4.03125 0.79968,-1.59931 1.96769,-0.62923 1.46875,-2.625 -0.26969,-1.07876 1.16823,-1.30287 2,-1.71875 1.71627,-0.85814 -0.5307,-2.2807 -1.15625,-2.90625 -1.04826,-1.0483 -1.52818,-1.52819 -2.3125,-2.3125 -0.89355,-0.89359 -2.27615,-0.875 -3.75,-0.875 -1.92099,0 -2.94435,-0.31593 -4.0625,-0.875 -0.93735,-0.46868 -1.82081,-2.08436 -2.875,-2.875 -1.1739,-0.88043 -1.90841,-1.35991 -3.46875,-1.75 -1.4588,-0.36468 -2.68965,-1.17294 -3.78125,-1.71875 -1.29293,-0.64646 -1.67038,-1.46279 -2.03125,-2.90625 -0.13732,-0.54931 3.09963,-2.52785 3.1875,-2.59375 0.52085,-0.39065 -1.85258,-1.85258 -2.3125,-2.3125 -0.99273,-0.99272 -1.79571,-1.82696 -2.59375,-2.625 -1.49841,-1.49843 0.21061,-2.34782 -2.03125,-3.46875 -0.80011,-0.40006 -2.13192,-2.41318 -2.59375,-2.875 -1.41665,-1.41662 -2.23046,-2.1927 -3.1875,-3.46875 -0.48898,-0.65201 2.09646,-1.65353 0.5625,-3.1875 -1.16974,-1.1697 -1.71875,-0.97516 -1.71875,-3.1875 -10e-6,-1.4262 0.28728,-2.91339 0,-4.0625 -0.40091,-1.60359 -0.875,-2.09514 -0.875,-4.03125 -3e-5,-1.50256 -1.00169,-2.11022 -2.03125,-2.625 -1.19455,-0.59727 -1.78562,-1.17407 -2.875,-1.71875 -1.32096,-0.66048 -1.74631,-1.15257 -2.90625,-2.3125 -0.83694,-0.83696 -2.38468,-0.59375 -3.75,-0.59375 -1.35417,0 -2.27321,-0.76517 -2.90625,-2.03125 -0.77584,-1.55166 -1.59415,-2.3125 -3.1875,-2.3125 -1.79625,-10e-6 -2.37165,-0.32645 -3.46875,-0.875 -1.46603,-0.73301 -1.82152,-1.45763 -2.90625,-2 -1.10402,-0.55201 -1.35512,-1.72443 -2.59375,-2.34375 -1.40445,-0.70222 -2.65335,-1.32384 -4.34375,-2 -1.64876,-0.6595 -0.44894,-1.63644 -1.71875,-2.90625 -1.16436,-1.16436 -2.07213,-1.80052 -2.625,-2.90625 -0.57186,-1.1437 2.15238,-2.80477 2.625,-3.75 0.54051,-1.08102 -2.33287,-0.89538 -3.1875,-1.75 -0.88411,-0.88413 -1.56728,-1.25479 -2.3125,-2 -0.99727,-0.99729 -1.58878,-1.66004 -2.3125,-2.625 -0.89269,-1.19027 0.22948,-3.1987 0.5625,-4.03125 0.59496,-1.48738 2.12717,-0.46658 0.28125,-2.3125 -1.3026,-1.30261 -0.48292,-1.23583 0.59375,-2.3125 1.12793,-1.12793 0.77204,-2.51843 0.28125,-3.5 -0.52363,-1.04726 -1.48603,-1.20477 -2.59375,-2.3125 L 358.53125,189.625 c -0.38583,0.19292 -0.77042,0.40083 -1.15625,0.59375 -1.13977,0.56988 -1.73608,0.87841 -2.3125,2.03125 -0.8342,1.66838 0.24354,2.35022 -0.875,3.46875 -1.24316,1.24316 -2.68686,-0.80123 -3.1875,-1.46875 -0.36012,-0.48016 -0.42229,-2.03207 -0.84375,-2.875 -0.59311,-1.18622 -1.29675,-1.60925 -2.3125,-2.625 -0.79541,-0.79542 1.44592,-1.7837 1.71875,-2.875 0.22516,-0.90071 1.28772,-1.9817 1.75,-2.90625 0.90676,-1.81353 -0.3581,-2.59734 -1.46875,-2.875 z"
           style="fill:#f9f9f9;fill-rule:evenodd;stroke:#000000;stroke-width:0.108546;stroke-linecap:butt;stroke-linejoin:miter;stroke-miterlimit:4;stroke-dasharray:none;stroke-opacity:1" />
      </g>
      <g
         id="g7870">
        <path
           id="path6837"
           d="m 607.77375,612.70529 c -1.73593,1.36386 -4.39252,4.39225 -5.70055,5.70019 -0.35971,0.35971 -0.82045,0.41602 -1.26679,0.28789 -0.44633,-0.12813 -0.8819,-0.39781 -1.38195,-0.74851 -1.00011,-0.7014 -2.0919,-1.61218 -3.10939,-1.61218 -1.03331,0 -1.68087,0.1173 -2.01534,0.28789 -0.33447,0.1706 -0.38149,0.37193 -0.28791,0.69094 0.18719,0.63801 0.99208,1.54984 1.26679,2.64857 0.59177,2.36702 1.03646,6.25331 1.03646,7.31237 0,0.65194 -0.33399,0.97174 -0.86372,1.09397 -0.52973,0.12223 -1.25796,0.0478 -2.07292,-0.11515 -1.62993,-0.32597 -3.59046,-0.97882 -4.89441,-0.97882 -0.60467,0 -1.00673,0.28221 -1.26679,0.69093 -0.26006,0.40872 -0.35864,0.97226 -0.40307,1.61218 -0.0888,1.27981 0.11516,2.83357 0.11516,3.97286 -10e-6,1.8065 -0.0598,2.92318 0.23033,3.68497 0.29015,0.76179 0.91352,1.19279 2.36083,1.5546 0.52783,0.13194 0.71688,0.56188 0.69098,1.15155 -0.0259,0.58967 -0.26571,1.34093 -0.57582,2.0728 -0.6202,1.46376 -1.53026,2.85445 -1.66985,2.99404 -1.08489,1.08484 -1.99103,1.50032 -2.87907,1.49702 -0.88804,-0.003 -1.77877,-0.42871 -2.87906,-0.97882 -1.76925,-0.88458 -3.37056,-1.68518 -5.18232,-2.591 -1.93171,-0.96581 -5.04163,-0.93725 -6.27636,-1.5546 -1.46862,-0.73425 -1.87879,-1.78905 -2.36083,-2.64857 -0.24101,-0.42976 -0.49126,-0.81755 -0.9213,-1.09398 -0.43005,-0.27642 -1.04826,-0.46062 -1.95777,-0.46062 -0.94027,0 -1.69019,0.58952 -2.41841,1.26671 -0.72821,0.67719 -1.40465,1.47959 -2.24567,1.90007 -0.48086,0.24042 -0.63234,0.63016 -0.57581,1.09397 0.0565,0.46381 0.31759,0.96679 0.63339,1.5546 0.63161,1.17563 1.49712,2.49463 1.49712,3.56982 -4e-5,2.06472 0.51823,4.60863 0.51823,7.31237 2e-5,0.67495 -0.3302,1.02281 -0.86372,1.15155 -0.53353,0.12873 -1.24407,0.0518 -1.95777,-0.11516 -1.42739,-0.334 -2.85127,-1.0225 -2.87906,-1.03639 -1.43491,-0.71741 -2.22511,-1.66178 -2.64874,-1.84249 -0.42363,-0.18071 -0.51823,0.39556 -0.51823,2.87888 -2e-5,1.63742 0.25789,2.9632 0.0576,3.85771 -0.10016,0.44724 -0.33471,0.80331 -0.74856,1.0364 -0.41385,0.23309 -0.99688,0.34546 -1.90018,0.34546 -1.99239,0 -3.0454,-0.12035 -3.91553,-0.57577 -0.87013,-0.45543 -1.57144,-1.22588 -2.87906,-2.53342 -0.89503,-0.89497 -2.00167,-1.22927 -3.10939,-1.5546 -1.10772,-0.32533 -2.23393,-0.6792 -3.16697,-1.61217 -0.0394,-0.0394 -0.90942,0.61249 -2.07293,1.20913 -1.16351,0.59663 -2.58375,1.18219 -3.62762,0.92124 -0.51902,-0.12975 -0.99957,-0.0883 -1.38195,0.11516 -0.38238,0.2035 -0.69803,0.524 -0.97888,0.92124 -0.5617,0.79448 -0.95817,1.85864 -1.32437,2.591 -0.60183,1.20356 -0.96849,2.03942 -1.20921,2.99404 -0.24072,0.95461 -0.34549,2.04204 -0.34549,3.80012 -10e-6,1.77605 -0.20784,2.65722 -0.51823,3.45467 -0.31038,0.79744 -0.71327,1.47104 -1.03646,2.76373 -0.41335,1.65339 -0.60878,2.35241 -1.38195,2.59099 -0.77318,0.23859 -2.14151,0.0576 -4.89441,0.0576 -1.78574,-2e-5 -2.74911,-0.39072 -3.62762,-0.57578 -0.87852,-0.18506 -1.62871,-0.16451 -3.10939,0.57578 -1.12216,0.561 -1.87057,1.16097 -2.59116,1.72733 -0.72059,0.56636 -1.43749,1.07907 -2.64874,1.38187 -2.82012,0.70499 -5.20435,1.91659 -6.79459,3.10919 -1.81073,1.35795 -3.58305,2.88537 -5.18232,3.68497 -1.33387,0.66689 -1.85844,1.60986 -2.30325,1.84249 -0.4448,0.23263 -0.84061,-0.2417 -1.90018,-2.36069 -0.41392,-0.82779 -0.89219,-1.23892 -1.38195,-1.32428 -0.48977,-0.0854 -0.98401,0.15104 -1.49712,0.5182 -1.0262,0.73428 -2.01681,2.07427 -2.82148,2.87888 -1.17926,1.17919 -2.2069,1.33463 -2.47599,1.49702 -0.2691,0.1624 0.22369,0.31171 1.95776,1.61218 0.61617,0.46209 0.85725,1.04397 0.9213,1.66975 0.064,0.62578 -0.072,1.32893 -0.34549,1.95764 -0.54694,1.25743 -1.57879,2.34394 -2.18809,2.64858 -2.23544,1.11769 -4.88269,1.14569 -6.73701,2.07279 -1.15914,0.57956 -1.96883,1.36322 -2.64874,2.18796 -0.6799,0.82473 -1.25744,1.71799 -2.07292,2.53342 -0.55466,0.55462 -1.09399,0.83129 -1.61228,0.97882 -0.51829,0.14752 -0.98597,0.1516 -1.43953,0.23031 -0.45356,0.0787 -0.90632,0.2276 -1.26679,0.57577 -0.36047,0.34818 -0.68231,0.88657 -0.9213,1.84249 -0.23587,0.94341 -1.1404,1.5333 -2.18809,1.90006 -1.04768,0.36677 -2.20508,0.49368 -2.99423,0.69094 -0.8433,0.21083 -1.0331,1.43498 -1.55469,2.13037 l 0.0576,0.28789 c 0.11069,-0.19698 0.22714,-0.57259 0.34549,-0.69093 0.90201,-0.90199 2.51294,6.11954 2.64874,6.39112 1.90178,3.80321 4.20211,-3.79482 4.31859,-4.26075 0.93559,-3.74183 0.39067,-3.22435 4.77925,-3.22435 0.82602,4e-5 2.79069,5.4391 3.74279,6.39113 1.67755,1.6774 1.0095,4.23379 2.64873,5.87292 1.7684,1.76831 0,-0.26629 0,0.5182 0.62839,0.62836 1.07909,1.41949 1.61228,2.13038 2.8871,3.84917 -2.71625,3.85573 4.77925,5.35472 1.96884,0.39372 -0.58801,4.14897 -1.03647,6.39113 -0.61653,3.08261 5.25042,0.0471 5.29748,0 1.88471,-1.88452 1.73347,-5.27303 2.64874,-1.61218 0.98926,3.95674 0.73852,4.48104 3.22455,6.9669 2.48311,2.48305 4.09417,3.51814 5.8733,5.29715 2.05052,2.05036 3.7971,4.69176 0,3.74255 -2.18485,-0.54622 -4.27957,-0.95466 -6.90976,-1.61217 -2.553,-0.6382 -4.09723,-1.76059 -5.87329,-2.64858 -1.82659,-0.91328 -6.27481,0.21554 -7.48557,0.5182 -2.2416,0.56032 -1.7602,-1.50942 -4.77924,0 -3.32507,1.6624 -4.83683,-1.96523 -4.83683,3.22435 3e-5,2.57267 6.19867,2.84005 8.0038,3.74255 2.46711,1.23351 6.8291,-0.50666 8.0038,-1.09397 1.34436,-0.67214 6.43399,3.21679 7.48556,3.74255 3.55602,1.77785 5.58463,2.17336 9.5585,3.16677 3.14526,0.78623 5.61156,0.12826 8.57961,1.61218 3.23415,1.61698 4.97887,3.50457 8.0038,4.26075 2.08002,0.51995 4.06415,1.83041 5.81571,2.70615 2.48185,1.24091 2.70084,1.85551 5.87329,2.64857 1.64227,0.41055 4.38443,2.19621 5.35506,3.16678 1.66379,1.66363 2.98105,2.52024 4.77924,4.31832 1.09086,1.09072 3.94595,2.68497 5.8733,3.16678 2.08234,0.52061 5.20262,3.06683 7.48556,4.77895 2.17051,1.6277 4.23227,1.73457 6.90976,3.74255 2.33426,1.75065 5.01123,3.88731 6.90975,4.83652 2.44101,1.22047 5.35956,3.17127 6.96734,4.77895 2.00609,2.00603 3.94777,3.42933 5.29748,4.77895 1.64023,1.64018 4.3593,2.69771 6.4491,3.74255 1.61976,0.80983 3.65878,3.65857 4.77925,4.77895 2.41224,2.41218 3.84051,3.9598 6.39152,5.87293 1.97166,1.47863 3.44957,3.96755 5.35506,5.87292 2.77359,2.77342 4.88805,5.1522 6.90976,8.5215 1.30601,2.17664 3.16424,3.22164 4.77924,4.83653 2.30589,2.30578 2.87756,3.54026 5.35506,4.77895 1.96794,0.98392 2.91511,2.60549 3.74279,4.26075 1.43393,2.86773 5.1693,4.58888 6.90975,6.90932 1.77057,2.36052 5.54166,5.02312 7.48557,6.9669 1.43597,1.43589 3.36308,3.36289 4.77924,4.77895 2.10871,2.10858 3.41374,3.4135 5.8733,5.87293 1.9456,1.94539 3.69017,3.16926 5.87329,4.26075 2.90386,1.45178 4.41763,3.27386 6.39152,4.26075 1.58152,0.79064 3.18693,3.06659 4.77925,4.26075 2.33059,1.74787 3.66933,2.91809 6.96733,3.74255 2.48713,0.62176 4.53925,0.5182 7.42799,0.5182 3.00821,3e-5 4.68044,2.1522 5.87329,3.74255 1.62593,2.16781 5.62275,5.45976 7.48557,6.39112 0.35551,0.17769 0.68099,0.39805 1.03646,0.57578 2.25617,1.12799 3.59482,4.5734 4.83683,5.81535 2.03593,2.03585 2.6517,3.28788 3.6852,5.35472 0.96206,1.92411 2.79705,3.25748 4.3186,4.77895 2.08625,2.08608 3.3391,3.91466 5.29748,5.87293 1.56593,1.56582 3.18654,3.70454 4.83682,5.35472 1.48877,1.48868 2.23628,3.43587 3.16697,5.29715 1.35172,2.70339 2.68991,5.21221 3.74279,6.9669 1.34705,2.24483 3.10935,5.12434 4.26101,7.42753 1.49043,2.98062 2.13051,4.55958 2.13051,8.0033 -4e-5,2.22758 0.51823,5.08882 0.51823,8.0033 -2e-5,2.78206 -0.0472,5.5113 0.57582,8.0033 0.79031,3.16097 2.55716,5.56423 3.16697,8.0033 0.57773,2.31095 1.42849,4.67724 2.1305,7.4851 0.15821,0.63278 0.12259,1.177 0.17275,1.78491 l 0.11516,-0.17274 c 0.93842,0 4.47135,-10e-6 6.67943,0 0.79593,0 1.30189,-0.59523 1.72744,-1.32428 0.42555,-0.72906 0.77982,-1.58589 1.20921,-2.01522 0.31248,-0.31247 1.62823,-0.30843 2.99422,-0.23031 1.366,0.0781 2.78528,0.23031 3.28214,0.23031 0.4211,0 0.64885,-0.26095 0.80613,-0.63336 0.15729,-0.3724 0.22596,-0.85393 0.28791,-1.38186 0.12388,-1.05586 0.22557,-2.21436 0.97888,-2.591 0.50335,-0.25165 1.08259,-0.20118 1.61228,0.0576 0.52969,0.25876 1.02377,0.71328 1.49711,1.20913 0.94671,0.99172 1.73264,2.17566 1.95777,2.47584 0.52199,0.69596 1.28422,1.25978 2.1305,1.66976 0.84629,0.40997 1.72519,0.69036 2.41842,0.86366 1.06294,0.26572 2.20402,0.24437 3.22455,0.0576 1.02052,-0.18679 1.93871,-0.56629 2.64874,-0.92124 0.61381,-0.30689 0.98868,-0.61628 1.15162,-0.97883 0.16295,-0.36254 0.13608,-0.77517 0,-1.15155 -0.27217,-0.75277 -0.99754,-1.45811 -1.55469,-2.01522 -0.82976,-0.82969 -3.36452,-1.50944 -4.6065,-2.13037 -1.3641,-0.682 -1.95839,-1.33004 -2.13051,-2.01522 -0.17212,-0.68519 0.081,-1.37118 0.46065,-2.13038 0.3374,-0.67475 0.75993,-0.98223 1.15163,-1.09397 0.3917,-0.11175 0.75865,-0.0551 0.97888,0 0.44043,0.11008 0.27578,0.16059 -1.32437,-1.43945 -1.51234,-1.51224 -2.52678,-2.98053 -3.33972,-4.60621 -1.06056,-2.121 -1.9348,-3.24777 -2.47599,-5.41231 -0.12307,-0.49225 0.0766,-0.68454 0.46065,-0.69093 0.384,-0.006 0.96309,0.18519 1.61227,0.46062 1.29837,0.55087 2.83505,1.44621 3.74279,1.90007 0.75419,0.37706 1.31156,0.49365 1.72744,0.40304 0.41587,-0.0906 0.68633,-0.4155 0.86372,-0.80609 0.35479,-0.78119 0.34548,-1.96155 0.34548,-2.93646 0,-2.11475 -0.0329,-4.79557 -0.40307,-6.27597 -0.22295,-0.89182 -0.45645,-1.61125 -0.57581,-2.36069 -0.11936,-0.74943 -0.10943,-1.51983 0.17275,-2.64857 0.0296,-0.11838 -3.22006,-3.21982 -3.33972,-3.33951 -0.41597,-0.41594 -0.65151,-0.98667 -0.69098,-1.61217 -0.0395,-0.62551 0.11126,-1.34664 0.28791,-2.01522 0.35328,-1.33717 0.95397,-2.5987 1.20921,-3.1092 0.35494,-0.70983 0.30246,-1.18626 0,-1.55459 -0.30246,-0.36834 -0.86225,-0.61232 -1.49712,-0.74851 -1.26973,-0.27238 -2.86294,-0.17276 -3.51245,-0.17274 -1.2513,0 -2.04737,-0.17378 -2.70632,-0.5182 -0.65896,-0.34441 -1.18688,-0.84131 -1.90019,-1.5546 -0.31213,-0.31211 -0.28131,-0.68188 -0.0576,-1.03639 0.22373,-0.35452 0.65958,-0.71036 1.15163,-1.0364 0.98409,-0.65208 2.19682,-1.21133 2.64874,-1.32429 0.40144,-0.10036 0.72521,-1.20008 0.9213,-2.36069 0.19609,-1.1606 0.27663,-2.37301 0.34549,-2.64857 0.20635,-0.8254 0.94147,-1.23708 1.78502,-1.61217 0.84354,-0.3751 1.81676,-0.72268 2.41841,-1.32429 0.59918,-0.59914 1.38374,-0.87255 2.24567,-1.0364 0.86193,-0.16385 1.79219,-0.17273 2.7639,-0.17273 1.41903,0 2.40815,0.17172 3.28213,0.5182 0.87399,0.34648 1.65105,0.84953 2.59116,1.55459 1.81157,1.3586 2.84128,3.30178 4.14586,4.60622 0.88339,0.88332 1.72187,1.29965 2.64873,1.49702 0.92687,0.19737 1.96037,0.17275 3.22456,0.17273 0.52278,0 0.76569,-0.2662 0.86372,-0.69093 0.098,-0.42473 0.0731,-1.01633 -0.0576,-1.66975 -0.26139,-1.30686 -0.80615,-2.86982 -0.80613,-3.91529 0,-0.49804 -0.16457,-0.88614 -0.46065,-1.15155 -0.29609,-0.26541 -0.70565,-0.40054 -1.15163,-0.5182 -0.89197,-0.23532 -1.97685,-0.24947 -2.59116,-0.40304 -1.06462,-0.26613 -1.37145,-0.93626 -1.78502,-1.49702 -0.41357,-0.56076 -0.89755,-1.0364 -2.36083,-1.0364 -2.52556,0 -3.76396,-0.37948 -5.47022,-0.80609 -0.45745,-0.11435 -0.71792,-0.40133 -0.9213,-0.74851 -0.20339,-0.34718 -0.30302,-0.78379 -0.34549,-1.26671 -0.0849,-0.96583 0.0576,-2.12536 0.0576,-3.05162 0,-2.09094 4e-5,-4.18495 0,-6.27597 0,-1.10947 -0.53351,-2.14307 -1.09404,-3.16677 -0.56054,-1.0237 -1.17236,-1.983 -1.43954,-3.05162 -0.57924,-2.31683 -1.26677,-2.85169 -1.26678,-5.46988 0,-0.73836 0.12264,-1.26356 0.34548,-1.66975 0.22285,-0.4062 0.55483,-0.70861 0.9213,-0.86367 0.73295,-0.31013 1.70141,-0.15048 2.53358,0.0576 0.18058,0.0451 3.72497,3.72462 4.14585,4.14559 0.85141,0.85136 1.47088,1.3151 2.18809,1.49702 0.71722,0.18193 1.52313,0.0942 2.82149,-0.23031 0.33924,-0.0848 2.84906,-2.19479 4.20343,-2.53342 0.42921,-0.10728 0.69626,-0.40157 0.86372,-0.80608 0.16745,-0.40452 0.23685,-0.87117 0.34549,-1.38187 0.10864,-0.5107 0.2654,-1.07117 0.51823,-1.49702 0.25282,-0.42585 0.60925,-0.77128 1.20921,-0.92124 0.9871,-0.24675 1.96049,-0.55264 2.87906,-0.74851 0.91857,-0.19588 1.75812,-0.25143 2.53358,-0.0576 0.36039,0.0901 0.53039,0.43085 0.57581,0.86367 0.0454,0.43281 0.003,0.93589 0,1.49702 -0.003,0.56112 0.016,1.13712 0.23032,1.61217 0.21434,0.47505 0.62616,0.86186 1.32437,1.0364 0.99665,0.24914 1.66247,-0.25043 2.18809,-0.92124 0.52562,-0.67082 0.90501,-1.52203 1.15163,-2.01522 0.25271,-0.50538 1.55899,-0.59758 2.93664,-0.57578 1.37766,0.0218 2.82976,0.17273 3.33972,0.17273 0.62899,0 1.00092,-0.11469 1.26679,-0.34546 0.26587,-0.23077 0.38985,-0.56935 0.51823,-0.92125 0.25677,-0.70379 0.49396,-1.54243 1.55469,-2.07279 1.28236,-0.64115 2.05601,-0.69066 2.59116,-0.92125 0.53515,-0.23058 0.81062,-0.65135 1.15163,-2.01522 0.21177,-0.84701 0.36244,-1.55271 0.74855,-2.07279 0.38612,-0.52008 1.01679,-0.86369 2.18809,-0.86367 l 0.23033,-0.11515 c -1.09836,-0.76202 -2.12146,-1.60313 -3.05181,-2.53342 -2.73317,-2.73302 1.00691,-3.96984 1.61228,-6.39113 0.57994,-2.31961 -3.66426,-3.08824 -5.35506,-4.77895 -1.94279,-1.94264 0.10528,-6.14106 0.51823,-6.9669 1.19201,-2.38386 1.07464,-5.43233 0.57581,-7.42752 -0.70518,-2.82059 -3.47094,-6.1193 -5.35506,-8.0033 -1.91509,-1.91497 -3.64536,-2.91655 -5.29748,-3.74255 -2.67918,-1.33947 -2.70632,-1.33691 -2.70632,-5.35473 0,-2.27597 -3.68804,-2.65139 -5.29748,-4.26075 -1.69248,-1.69234 -2.81512,-2.92377 -3.74278,-4.77895 -1.2573,-2.51444 0.80647,-5.58538 1.61228,-6.39112 0.79489,-0.79487 2.07642,-0.82136 3.16697,-1.09398 3.3132,-3.31294 2.03263,-3.76269 -1.03647,-5.29715 -2.06113,-1.03046 -1.61227,-4.59273 -1.61227,-6.9669 5e-5,-2.92977 -6.68947,-1.2354 -7.48557,-1.0364 -2.9489,0.7372 -3.38532,3.02767 -4.26102,4.77895 -1.16848,2.33681 -3.16697,-0.14318 -3.16697,5.35473 2e-5,2.95783 -4.52747,-4.83653 -7.48556,-4.83653 -4.18398,4e-5 -4.50789,0.0821 -5.87329,-2.64857 -1.39133,-2.78254 1.32998,-4.76769 0,-7.42753 -1.62411,-3.24801 -1.03647,-3.36572 -1.03647,-6.9669 0,-3.24797 -0.41525,-5.13659 -2.18809,-6.90932 -1.75537,-1.7553 -3.26606,-2.71653 -5.29748,-3.22435 -2.91691,-0.72915 -3.58115,-1.89568 -5.35506,-4.26075 -1.40338,-1.87103 -3.64448,-3.26603 -4.77924,-4.77895 -0.9918,-1.32228 -4.69097,-2.04212 -5.87329,-3.22435 -1.7734,-1.77329 -4.04219,-3.98438 -5.35506,-5.29715 -1.33296,-1.33288 -3.44624,-1.89142 -4.77925,-3.22435 -1.17458,-1.17459 -3.8714,-2.09727 -5.29748,-3.16678 -1.99264,-1.49442 -2.18545,-3.79484 -3.22455,-5.87292 -1.2453,-2.49038 -3.75019,-3.45839 -5.35506,-4.26075 -1.02163,-0.51083 -10.87527,0 -1.55469,0 2.68958,-2e-5 -1.09405,5.25628 -1.09405,7.94572 -4e-5,4.21062 -1.5534,3.22435 -5.35506,3.22435 -3.60792,4e-5 -4.77925,0.0739 -4.77925,3.74255 6e-5,1.32127 2.64874,1.87755 2.64874,5.29715 2e-5,2.91806 1.09405,4.21812 1.09405,7.4851 3e-5,2.79223 -3.5181,0.54637 -4.26102,4.26075 -0.3373,1.68663 4.28027,3.74255 -1.09404,3.74255 -3.29174,-2e-5 0.85474,2.98507 1.61227,3.74255 1.04518,1.04501 -0.39372,6.9295 -0.51823,7.42753 -0.50868,2.03486 -6.66894,1.09397 -8.52203,1.09397 -4.31028,6e-5 -2.87704,3.92339 -4.26101,-1.61217 -0.78709,-3.14787 -1.7136,-4.92403 -2.70632,-6.90933 -0.7935,-1.58693 5.74541,-1.09397 6.96733,-1.09397 3.08837,3e-5 0.19447,-3.80909 -1.61227,-4.26075 -2.32511,-0.58122 -5.59294,0 -8.0038,0 -2.84373,3e-5 -5.67829,0 -8.52203,0 -2.15406,3e-5 -4.51012,-2.48524 -5.8733,-3.16678 -2.01372,-1.00684 -3.11711,-2.10544 -5.35505,-3.22435 -2.30998,-1.15491 -3.02148,-2.50309 -4.77925,-4.26075 -1.78806,-1.78793 -3.24036,-3.24016 -4.77925,-4.77895 -1.87641,-1.87626 -2.70632,-1.95274 -2.70632,-5.35472 2e-5,-3.84697 -0.72805,-3.95234 -2.64874,-5.87293 -1.91636,-1.91615 -2.41493,-2.93298 -4.26101,-4.77895 -1.71583,-1.71565 -1.61228,-4.05059 -1.61228,-6.9669 2e-5,-2.97897 0.62693,-5.43815 0,-7.94572 -0.52934,-2.11735 1.74146,-4.37742 1.09404,-6.9669 -0.50076,-2.00321 -2.45065,-3.23126 -3.22455,-4.77895 -0.97151,-1.94279 -3.27782,-2.75942 -4.77924,-4.26075 -1.39594,-1.39578 -2.09819,-3.71024 -3.74279,-5.35473 -1.63676,-1.63662 1.40242,-4.05091 2.13051,-4.77895 1.58974,-1.58958 -2.13051,-4.14309 -2.13051,-6.39112 -2e-5,-3.2142 1.03335,-4.65138 1.61228,-6.9669 0.5361,-2.14416 1.53754,-5.05581 2.13051,-7.42753 0.82069,-3.28276 5.18826,-4.09596 6.90975,-6.39112 1.64839,-2.19766 1.09404,-5.29862 1.09404,-8.0033 6e-5,-2.4625 1.02761,-4.62837 1.61228,-6.9669 0.73376,-2.93499 2.19507,-3.03767 0.51823,-6.39113 -1.09524,-2.19033 -2.80904,-2.91157 -3.74278,-4.77895 -0.91251,-1.82491 -0.65862,-5.4556 -1.03646,-6.9669 -0.12193,-0.48771 -0.73859,-0.68095 -1.09405,-1.0364 0.1777,-0.88856 0.34051,-1.75996 0.51823,-2.64857 0.67567,-3.37829 -0.86657,-4.4637 -2.64874,-5.35473 -1.7131,-0.85653 -4.322,-2.57915 -5.87329,-3.74255 -2.18589,-1.63931 -1.61227,-4.09076 -1.61227,-6.90932 -6e-5,-3.07167 -1.1344,-4.35868 -2.64874,-5.87293 -1.63002,-1.6299 -2.1136,-3.18709 -4.26102,-4.26075 -0.21918,-0.10957 -0.02,4.75894 -3.74278,1.0364 -2.18332,-2.18324 -3.72429,-3.72405 -5.29748,-5.29715 -1.83274,-1.83261 -2.98,-2.9798 -4.83683,-4.83652 -0.42944,-0.4294 -0.35147,-1.07263 -0.51823,-1.61218 z"
           style="fill:#f9f9f9;fill-rule:evenodd;stroke:#000000;stroke-width:0.2;stroke-linecap:butt;stroke-linejoin:miter;stroke-miterlimit:4;stroke-dasharray:none;stroke-opacity:1" />
        <path
           id="path6815"
           d="m 783.19255,790.82444 c -0.0276,-0.11063 7.74477,0.9397 9.06444,1.5995 2.51605,1.25794 2.16771,1.87482 5.33203,2.66585 0.70481,0.17618 -1.06641,-5.91139 -1.06641,-6.93121 0,-1.65241 -2.3912,-4.37812 -3.19921,-6.39803 -1.27632,-3.1906 -1.25964,-3.27893 -3.19922,-5.86486 -1.39549,-1.86056 -1.82683,-3.42623 -3.19922,-4.79853 -1.67752,-1.67742 -1.55998,-3.69257 -3.19921,-5.3317 -1.95747,-1.95734 -2.81518,-3.34816 -4.26562,-4.79851 -1.67968,-1.67958 -1.5996,-4.27876 -1.5996,-6.93122 0,-3.29668 -1.62459,-3.78211 -2.66603,-5.86485 -2.20491,-4.40957 -2.99327,0.24262 -3.73241,3.19901 -0.6859,2.74347 0.45328,5.70504 1.06641,6.9312 0.74891,1.49772 2.48165,2.99481 3.19922,5.86487 0.47647,1.9058 -4.4308,2.74842 -5.33203,3.19902 -0.45251,0.22624 4.64914,4.64885 5.33203,5.33169 2.27524,2.27511 2.666,3.69119 2.666,6.9312 0,2.54849 1.37694,4.04269 2.66602,5.33169 0.87286,0.87281 1.45798,4.74022 2.13281,5.86488 z"
           style="fill:#f9f9f9;fill-rule:evenodd;stroke:#000000;stroke-width:0.2;stroke-linecap:butt;stroke-linejoin:miter;stroke-miterlimit:4;stroke-dasharray:none;stroke-opacity:1" />
        <path
           id="path6817"
           d="m 702.14576,743.90552 c 1.6338,1.6337 0.42444,-5.83768 2.666,-6.39803 2.54513,-0.63625 3.06248,-4.27908 2.66603,-5.86486 -0.78405,-3.13595 -4.00042,-1.59675 -1.59962,-6.39803 1.5265,-3.05282 -0.78926,-1.32239 -3.19922,-3.7322 -1.92137,-1.92123 -2.79559,-3.45816 -3.73241,-5.33169 -1.20324,-2.40629 -3.15814,-3.52682 -3.73243,-6.39804 -0.53079,-2.65382 -3.54982,-3.24465 -5.86522,-2.66583 -1.49402,0.37347 -1.35247,5.4095 -1.59961,6.39803 -0.5027,2.0107 3.19921,3.2591 3.19921,5.33169 0,2.9155 -0.53319,4.37455 -0.53319,7.46438 0,4.12162 1.96088,3.90845 4.79881,3.19901 2.9379,-0.73443 1.47193,3.17658 1.06641,4.79852 -0.59612,2.38433 -5.5082,-1.41868 -3.19922,3.19902 1.2234,2.44662 2.66603,2.0564 2.66603,5.86487 0,2.88616 4.89439,1.13473 6.39843,0.53316 z"
           style="fill:#f9f9f9;fill-rule:evenodd;stroke:#000000;stroke-width:0.2;stroke-linecap:butt;stroke-linejoin:miter;stroke-miterlimit:4;stroke-dasharray:none;stroke-opacity:1" />
        <path
           id="path6823"
           d="m 656.29032,651.66723 c -0.79484,-1.58961 -1.72427,4.90064 0,5.33169 3.19183,0.79791 3.56767,-1.96794 4.79884,-3.19902 1.29002,-1.28996 5.61787,-0.53318 7.46482,-0.53318 1.82988,0 -1.2021,-3.70065 -2.66601,-4.79851 -2.20747,-1.65551 -2.61937,-2.9658 -3.19921,-5.86488 -0.46146,-2.30712 -3.19922,-2.06535 -3.19922,-5.86485 0,-2.66586 0,-5.3317 0,-7.99755 0,-2.60209 -2.4314,-3.80682 -4.26562,-4.26536 -2.28433,-0.57104 -2.61158,-2.66584 -6.39843,-2.66584 -3.06617,0 -3.3043,-2.02564 -5.86523,-2.66583 -1.11869,-0.27968 -3.50584,-4.03881 -4.26562,-4.79854 -1.18564,-1.18557 -1.91615,-2.76572 -2.66602,-4.26536 -1.03329,-2.06647 0,4.62081 0,6.93122 0,2.66584 0,5.33169 0,7.99753 0,1.36795 5.3757,1.10999 6.93164,2.66584 1.4123,1.41223 1.06641,4.05844 1.06641,6.93121 0,3.83683 0.36154,4.09369 2.13281,5.86486 1.57327,1.57319 2.33314,3.06647 3.19922,4.79853 1.23143,2.46271 4.79881,0.0459 4.79881,4.26536 0,1.00535 1.42188,1.42177 2.13281,2.13268 z"
           style="fill:#f9f9f9;fill-rule:evenodd;stroke:#000000;stroke-width:0.2;stroke-linecap:butt;stroke-linejoin:miter;stroke-miterlimit:4;stroke-dasharray:none;stroke-opacity:1" />
      </g>
      <g
         id="g7862">
        <path
           id="path6819"
           d="m 465.937,762.56645 c 0,2.49446 0.58243,-5.23326 -0.53321,-7.46438 -1.24921,-2.49824 -2.13281,-2.89139 -2.13281,-6.39801 0,-3.35571 -1.64869,-3.83035 -2.66601,-5.86488 -1.36802,-2.73587 -2.92399,-1.28977 -3.73243,-5.33169 -0.47471,-2.37346 -1.80683,-3.6507 -4.26562,-4.26536 -3.5082,-0.87699 -4.422,0.37679 -6.39841,-1.5995 -1.72188,-1.72176 -3.7649,-3.62325 -5.33203,-4.79853 -1.56851,-1.1763 -2.55175,-3.08475 -3.73243,-4.26536 -2.23161,-2.23147 -2.2779,-3.19902 -5.86522,-3.19902 -2.66602,0 -5.33203,0 -7.99805,0 -3.52849,0 -5.14067,0.18114 -7.99803,-0.53316 -3.59984,-0.8999 -4.51955,0.78708 -5.86524,2.13268 -1.05719,1.05715 5.91383,2.95673 6.39843,3.19902 3.16589,1.58284 5.20845,2.17152 5.86524,4.79852 0.32063,1.28244 5.31016,2.38286 6.39843,3.19901 2.18212,1.6365 5.4171,2.19649 7.46484,3.7322 1.94665,1.45989 3.62847,2.88045 5.33203,3.73218 1.77424,0.88706 3.93067,5.24058 4.79881,6.39803 1.53754,2.04993 3.25647,3.76081 5.33203,4.79853 1.5289,0.7644 4.22258,3.56662 5.86522,4.79852 2.28789,1.7158 4.54738,2.41439 5.86524,3.73218 1.92718,1.92707 -1.52855,0.36254 3.19922,3.19902 z"
           style="fill:#f9f9f9;fill-rule:evenodd;stroke:#000000;stroke-width:0.2;stroke-linecap:butt;stroke-linejoin:miter;stroke-miterlimit:4;stroke-dasharray:none;stroke-opacity:1" />
        <g
           style="fill:#f9f9f9;stroke-width:0.11839;stroke-miterlimit:4;stroke-dasharray:none"
           transform="matrix(1.8426012,0,0,1.8424864,-180.89529,-281.08554)"
           id="g6872">
          <g
             style="fill:#f9f9f9;stroke-width:0.11839;stroke-miterlimit:4;stroke-dasharray:none"
             id="g6868">
            <path
               transform="translate(-220.76186,-6.6183848)"
               id="path6866"
               d="m 566.28125,340.625 c -0.42768,0.10333 -0.87857,0.20284 -1.3125,0.21875 -0.52613,0.0193 -1.03906,-0.0352 -1.46875,-0.25 -0.61562,-0.3078 -0.7962,-0.72486 -0.96875,-0.90625 -0.17255,-0.18139 -0.30947,-0.12804 -0.875,0.4375 -0.3698,0.36981 -0.62296,0.66464 -0.90625,0.84375 -0.28329,0.17911 -0.61644,0.21308 -1.21875,0.0625 -0.96481,-0.2412 -1.17918,-0.63529 -1.375,-0.78125 -0.19582,-0.14596 -0.36245,-0.0438 -1.1875,0.78125 -0.63589,0.63592 -1.77532,1.24704 -2.59375,1.65625 -1.30426,0.65214 -1.70698,0.60055 -2.78125,1.40625 -0.93399,0.70049 -1.45972,0.95972 -2.125,1.625 -0.30842,0.30842 -0.56301,0.48394 -0.8125,0.53125 -0.24949,0.0473 -0.49431,-0.0356 -0.6875,-0.15625 -0.38638,-0.24122 -0.6669,-0.70879 -0.84375,-1.0625 -0.46054,-0.92113 -0.36844,-2.17437 -0.6875,-2.8125 -0.23657,-0.47314 -0.41884,-0.70638 -0.5625,-0.75 -0.14366,-0.0436 -0.25328,0.0997 -0.34375,0.3125 -0.18095,0.42568 -0.29343,1.1806 -0.5,1.59375 -0.14237,0.28476 -0.33921,0.3773 -0.5625,0.34375 -0.22329,-0.0335 -0.48011,-0.17578 -0.71875,-0.375 -0.47729,-0.39845 -0.91719,-0.97968 -1.0625,-1.125 -0.31054,-0.31054 -0.52475,-0.43482 -0.6875,-0.4375 -0.16275,-0.003 -0.25589,0.10856 -0.34375,0.3125 -0.17572,0.40788 -0.28026,1.123 -0.59375,1.75 -0.11842,0.23686 -0.32605,0.30175 -0.5625,0.25 -0.23645,-0.0518 -0.5108,-0.21163 -0.78125,-0.40625 -0.54089,-0.38924 -1.0773,-0.91365 -1.25,-1 -0.56802,-0.28401 -0.84961,-0.66097 -1,-0.6875 -0.15039,-0.0265 -0.15625,0.28313 -0.15625,1.375 10e-6,0.25567 -0.12774,0.37394 -0.34375,0.40625 -0.21601,0.0323 -0.51103,-0.006 -0.8125,-0.0937 -0.60294,-0.17623 -1.24488,-0.4909 -1.40625,-0.53125 -0.57352,-0.14338 -0.90898,-0.39567 -1.28125,-0.59375 -0.37227,-0.19808 -0.78679,-0.34375 -1.53125,-0.34375 -1.16962,-10e-6 -2.3304,0 -3.5,0 -1.32557,-10e-6 -2.67445,0 -4,0 -0.0298,0 -0.48198,-0.5374 -1.0625,-1.09375 -0.58052,-0.55635 -1.26361,-1.13621 -1.71875,-1.25 -0.8821,-0.22053 -1.5697,-0.11768 -2.15625,-0.125 -0.29328,-0.004 -0.58247,-0.0387 -0.84375,-0.15625 -0.26128,-0.11756 -0.4928,-0.31332 -0.75,-0.65625 -0.80786,-1.07713 -2.04399,-1.79399 -2.8125,-2.5625 -0.35385,-0.35386 -0.94278,-0.4715 -1.59375,-0.5 -0.65097,-0.0285 -1.3552,0.0312 -1.90625,0.0312 -0.64063,0 -1.13212,-0.39392 -1.5,-0.5625 -0.18394,-0.0843 -0.32826,-0.10708 -0.46875,0 -0.14049,0.10708 -0.26147,0.32714 -0.375,0.78125 -0.15651,0.62601 -0.44428,0.93163 -0.8125,1.125 -0.36822,0.19337 -0.83659,0.2933 -1.3125,0.53125 -0.0434,0.0217 -2.53026,-0.81225 -3.03125,-0.9375 -1.07176,-0.26795 -2.29068,-0.25 -3.5,-0.25 -1.24757,-2e-5 -2.50242,0 -3.75,0 -1.32555,-2e-5 -2.6432,0 -3.96875,0 -1.28809,-2e-5 -2.6003,-0.0374 -3.75,0.25 -0.19797,0.0495 -0.32527,0.21084 -0.40625,0.46875 -0.081,0.25791 -0.11601,0.61847 -0.125,0.96875 -0.018,0.70055 0.0625,1.47006 0.0625,1.84375 0,0.4435 -0.053,0.67638 -0.15625,0.84375 -0.10329,0.16737 -0.25344,0.25074 -0.40625,0.3125 -0.15281,0.0618 -0.3202,0.12333 -0.46875,0.25 -0.14855,0.12667 -0.28448,0.32541 -0.375,0.6875 -0.19239,0.76954 -0.13729,1.25526 -0.15625,1.65625 -0.019,0.40099 -0.0977,0.72271 -0.53125,1.15625 -0.25033,0.25033 -0.47683,0.31905 -0.6875,0.28125 -0.21067,-0.0378 -0.40053,-0.2057 -0.5625,-0.40625 -0.32394,-0.4011 -0.55005,-0.98147 -0.625,-1.28125 -0.18532,-0.74128 -0.47601,-1.33721 -0.78125,-1.5 -0.15262,-0.0814 -0.32253,-0.0337 -0.46875,0.125 -0.14622,0.15865 -0.29067,0.44394 -0.40625,0.90625 -0.15577,0.62309 -0.48061,0.92587 -0.875,1.0625 -0.39439,0.13663 -0.8468,0.0937 -1.21875,0.0937 -0.61662,10e-6 -0.91198,-0.27216 -1.25,-0.5 -0.33802,-0.22784 -0.72418,-0.39708 -1.5625,-0.1875 -0.67058,0.16765 -0.78385,0.52037 -0.90625,0.65625 -0.1224,0.13588 -0.25757,0.0549 -0.96875,-0.65625 -0.72236,-0.72233 -0.89756,-1.6163 -1.625,-2.34375 -0.80989,-0.80988 -1.0343,-1.25305 -1.875,-2.09375 -0.34776,-0.34776 -0.56582,-0.44647 -0.71875,-0.375 -0.15293,0.0715 -0.25123,0.31176 -0.28125,0.625 -0.06,0.62648 0.0625,1.53368 0.0625,2.0625 0,1.40353 0,2.81523 0,4.21875 0,0.60307 -0.28173,1.13608 -0.65625,1.59375 -0.37452,0.45767 -0.84546,0.84546 -1.21875,1.21875 -0.26867,0.26868 -0.387,0.52572 -0.40625,0.78125 -0.0192,0.25553 0.0799,0.50484 0.21875,0.71875 0.27771,0.42783 0.7628,0.7532 1.125,0.84375 0.90297,0.22575 1.24986,0.33341 1.375,0.65625 0.12514,0.32284 0.0312,0.85024 0.0312,1.90625 0,0.49928 -0.58447,0.83446 -0.9375,1.1875 0.30674,0.074 0.53223,0.1565 0.90625,0.25 1.85379,0.46345 2.48588,0.91226 2.90625,2.59375 0.31779,1.27121 2.26988,1.85369 3.1875,2.3125 1.10404,0.55201 2.03125,2.30774 2.03125,3.78125 0,2.10721 1.33225,2.03412 2.59375,1.71875 1.49677,-0.37418 0.17146,-2.03125 2.59375,-2.03125 1.16041,-1e-5 1.85569,2.48525 2.03125,3.1875 0.0401,0.1606 3.53549,0.76775 3.75,0.875 0.51502,0.25751 0.94475,3.26448 1.1875,3.75 0.61764,1.23528 2.69142,0.54004 4.03125,0.875 1.68722,0.4218 -0.0341,2.03125 2.3125,2.03125 1.29547,-1e-5 0.86525,-2.30474 1.15625,-3.46875 0.47034,-1.88138 3.23248,0.28468 4.34375,0.5625 1.50751,0.37688 1.73783,0.86282 2.625,1.75 1.23652,1.2365 1.67393,2.16447 2,3.46875 0.328,1.31204 1.90254,1.78032 2.90625,2.03125 0.4768,0.1192 0.75816,3.75954 0.875,4.34375 0.41849,0.10461 0.77042,0.36959 1.15625,0.5625 0.68583,0.34291 0.28125,3.32801 0.28125,4.0625 -3e-5,1.01094 1.4375,1.69533 1.4375,3.46875 0,1.23528 2.35382,-1.20764 2.90625,-2.3125 0.46661,-0.93319 -1.2834,-1.66055 -1.75,-2.59375 -0.0782,-0.15639 3.3746,0.7496 3.46875,0.84375 0.65132,0.65133 2.06711,1.04918 2.90625,1.46875 1.95835,0.97918 -1.6479,2 -2.3125,2 -1.89365,-1e-5 -0.16329,2.57967 0,2.90625 0.50498,1.00995 2.01905,1.7378 2.59375,2.3125 0.87072,0.87071 1.40945,1.63522 2.3125,2.3125 1.13085,0.84813 1.52933,1.90242 2.03125,2.90625 0.62011,1.24023 0.53818,2.51386 1.15625,3.75 0.59249,1.18507 1.37987,2.30074 1.75,3.78125 0.36814,1.47247 1.02613,2.64602 1.71875,4.03125 0.65795,1.31591 1.39495,2.64233 1.75,4.0625 0.54188,2.16761 1.4375,2.18957 1.4375,4.625 10e-6,1.53616 0.0288,2.92535 0.3125,4.34375 0.29325,1.4661 -0.0166,2.87098 0.28125,4.0625 0.40606,1.62412 1.4375,2.17219 1.4375,4.03125 10e-6,1.12423 1.4375,2.62121 1.4375,4.34375 -2e-5,1.87466 0.0122,3.69797 0.3125,5.5 0.22891,1.37355 -0.0851,3.43405 -0.3125,4.34375 -0.10804,0.43207 -1.7298,1.81526 -2.59375,2.03125 -1.81113,0.45277 0.29857,2.29857 0.59375,2.59375 0.98942,0.98943 1.15625,1.41773 1.15625,3.1875 2e-5,1.95208 0.53026,2.62599 -0.59375,3.75 -1.02796,1.02795 -0.91062,1.79503 -0.5625,3.1875 0.44619,1.78483 1.15625,1.95785 1.15625,4.0625 2e-5,1.77322 -0.0775,2.99882 -0.59375,4.03125 -0.63092,1.26184 -0.28125,3.2365 -0.28125,4.65625 0,2.02985 0.67906,2.41617 -1.15625,2.875 -2.20605,0.55152 -0.81343,1.96852 0.5625,2.3125 1.86169,0.46543 -0.15209,2.4198 -0.5625,2.625 -1.63444,0.81724 -2.28649,-0.026 -3.46875,1.15625 -1.01388,1.01388 -1.15625,1.3529 -1.15625,3.1875 -3e-5,1.83022 -0.0773,3.33395 -0.59375,4.625 -0.75882,1.89709 -1.96963,0.90536 -0.5625,2.3125 1.05114,1.05115 1.82643,0.18412 2.59375,1.71875 0.35573,0.71144 -0.23803,1.60106 -0.59375,2.3125 0.74572,1.49141 -0.74013,3.51149 -1.15625,4.34375 -0.65286,1.30566 -2.3125,0.51957 -2.3125,2.90625 -3e-5,2.23528 -0.81753,1.77623 0.59375,3.1875 1.38541,1.38543 -0.7259,2.75714 -1.15625,3.1875 -0.69732,0.69734 0.41572,2.6373 0,3.46875 -0.69611,1.39229 0.22655,1.15625 2.03125,1.15625 0.0391,-10e-6 1.14681,-3.74349 1.15625,-3.78125 0.31038,-1.24159 0.28125,-2.62281 0.28125,-4.03125 -10e-6,-1.57724 0.683,-2.4195 0.875,-3.1875 0.32958,-1.31835 -1.44126,-1.46499 0.5625,-3.46875 1.82022,-1.82021 2.03125,0.17186 2.03125,1.71875 10e-6,1.44709 -1.46344,0.88563 -0.59375,2.625 0.85193,1.70388 2.04644,0.87673 1.46875,3.1875 -0.22888,0.91566 -2.16449,-0.16449 -0.28125,1.71875 1.33735,1.33733 -0.7154,2.3577 -1.1875,2.59375 -1.18046,0.59021 1.6621,2.34375 -1.71875,2.34375 -0.1825,-2e-5 1.9701,1.46195 2.3125,1.71875 0.90322,0.67744 -0.35792,2.38917 -1.15625,3.1875 -0.009,0.009 3.93096,1.34702 1.4375,2.59375 -1.58202,0.791 -0.0765,2.51728 0.3125,2.90625 1.38366,1.38363 -0.50287,2.03125 2.3125,2.03125 1.21559,-10e-6 0.84375,-2.791 0.84375,-3.78125 -2e-5,-1.66804 0.3125,-3.04645 0.3125,-4.625 -2e-5,-0.98333 0.3915,-3.06598 0.5625,-3.75 0.51718,-2.06873 2.03125,2.16693 2.03125,2.875 -10e-6,2.00344 1.05672,1.84953 -0.28125,3.1875 -1.03961,1.03962 0.0122,1.60763 -0.3125,2.90625 -0.30721,1.22872 4.47274,2.3125 5.5,2.3125 1.00705,3e-5 -0.39338,-2.00551 -0.84375,-2.90625 -0.66883,-1.33758 -1.13247,-2.68616 -1.46875,-4.03125 -0.5038,-2.01521 0.875,-2.20294 0.875,-4.0625 2e-5,-1.77546 -2.8449,-1.88253 0,-2.59375 0.84067,-0.21017 0.74316,3.5527 0.875,4.34375 0.28166,1.69005 1.71875,2.00972 1.71875,4.34375 2e-5,2.09019 0.24009,2.54726 1.46875,3.46875 0.88564,0.66422 1.05541,1.93042 1.71875,2.59375 1.10293,1.10296 2.32532,1.45032 3.46875,2.59375 1.36293,1.36293 1.50161,2.37661 2.90625,3.78125 0.87898,0.87894 1.90797,1.56379 2.90625,2.3125 1.37832,1.03373 -1.32425,1.99318 -1.75,2.3125 -1.27627,0.95716 1.88783,2.93931 2.59375,3.46875 1.2923,0.96923 2.47977,1.77069 0.3125,2.3125 -0.81651,0.20412 1.79951,2.6595 -0.3125,3.1875 -1.88004,0.47002 -1.84628,0.65119 -1.15625,2.03125 0.2781,0.55615 3.55546,0.5625 4.0625,0.5625 2.98953,10e-6 1.96473,0.0665 2.59375,-0.5625 0.72505,-0.72504 -1.58745,-1.30621 -2.3125,-2.03125 -1.45611,-1.4561 1.60632,-1.15625 2.625,-1.15625 0.76538,-2e-5 1.11466,-1.47728 1.53125,-2.21875 l -0.0312,-0.15625 c 0.28307,-0.37742 0.38608,-1.04182 0.84375,-1.15625 0.42828,-0.10706 1.05641,-0.17594 1.625,-0.375 0.56859,-0.19906 1.05949,-0.51922 1.1875,-1.03125 0.1297,-0.51882 0.30437,-0.81103 0.5,-1 0.19563,-0.18897 0.44135,-0.26978 0.6875,-0.3125 0.24615,-0.0427 0.49997,-0.0449 0.78125,-0.125 0.28128,-0.0801 0.57398,-0.23023 0.875,-0.53125 0.44257,-0.44257 0.75601,-0.92738 1.125,-1.375 0.36899,-0.44762 0.80842,-0.87295 1.4375,-1.1875 1.00636,-0.50318 2.44305,-0.51838 3.65625,-1.125 0.33067,-0.16534 0.89067,-0.75504 1.1875,-1.4375 0.14841,-0.34123 0.22226,-0.72286 0.1875,-1.0625 -0.0348,-0.33964 -0.1656,-0.65545 -0.5,-0.90625 -0.9411,-0.70582 -1.20854,-0.78686 -1.0625,-0.875 0.14604,-0.0881 0.70375,-0.1725 1.34375,-0.8125 0.4367,-0.4367 0.97432,-1.16397 1.53125,-1.5625 0.27847,-0.19927 0.5467,-0.32758 0.8125,-0.28125 0.2658,0.0463 0.52536,0.26947 0.75,0.71875 0.57504,1.15007 0.78985,1.40751 1.03125,1.28125 0.2414,-0.12626 0.52609,-0.63805 1.25,-1 0.86794,-0.43398 1.8298,-1.26298 2.8125,-2 0.86304,-0.64728 2.15699,-1.30487 3.6875,-1.6875 0.65736,-0.16434 1.04643,-0.44261 1.4375,-0.75 0.39107,-0.30739 0.79724,-0.63302 1.40625,-0.9375 0.80358,-0.40179 1.21072,-0.41294 1.6875,-0.3125 0.47678,0.10044 0.99961,0.31249 1.96875,0.3125 1.49403,0 2.23664,0.0982 2.65625,-0.0312 0.41961,-0.12949 0.52567,-0.50888 0.75,-1.40625 0.1754,-0.7016 0.39405,-1.06719 0.5625,-1.5 0.16845,-0.43281 0.28124,-0.91106 0.28125,-1.875 0,-0.95419 0.0569,-1.54439 0.1875,-2.0625 0.13064,-0.51811 0.32963,-0.97177 0.65625,-1.625 0.19874,-0.39748 0.41391,-0.97505 0.71875,-1.40625 0.15242,-0.2156 0.32373,-0.38955 0.53125,-0.5 0.20752,-0.11045 0.46832,-0.13292 0.75,-0.0625 0.56652,0.14163 1.3373,-0.17618 1.96875,-0.5 0.63145,-0.32382 1.10361,-0.67765 1.125,-0.65625 0.50637,0.50637 1.11758,0.69843 1.71875,0.875 0.60117,0.17657 1.20176,0.35801 1.6875,0.84375 0.70966,0.70966 1.09027,1.12782 1.5625,1.375 0.47223,0.24718 1.04371,0.3125 2.125,0.3125 0.49023,0 0.80665,-0.061 1.03125,-0.1875 0.2246,-0.12651 0.35189,-0.31976 0.40625,-0.5625 0.10871,-0.48549 -0.0313,-1.20505 -0.0312,-2.09375 0,-1.34781 0.0513,-1.66058 0.28125,-1.5625 0.22991,0.0981 0.65876,0.61063 1.4375,1 0.0151,0.008 0.78784,0.38122 1.5625,0.5625 0.38733,0.0906 0.77295,0.13237 1.0625,0.0625 0.28955,-0.0699 0.46876,-0.25867 0.46875,-0.625 0,-1.46744 -0.28127,-2.84813 -0.28125,-3.96875 0,-0.58355 -0.46972,-1.29943 -0.8125,-1.9375 -0.17139,-0.31903 -0.31307,-0.59202 -0.34375,-0.84375 -0.0307,-0.25173 0.0515,-0.46326 0.3125,-0.59375 0.45643,-0.22821 0.82354,-0.66371 1.21875,-1.03125 0.39521,-0.36754 0.8022,-0.6875 1.3125,-0.6875 0.4936,0 0.82911,0.1 1.0625,0.25 0.23339,0.15003 0.3692,0.3605 0.5,0.59375 0.26161,0.4665 0.48421,1.03899 1.28125,1.4375 0.6701,0.33506 2.35789,0.31956 3.40625,0.84375 0.98326,0.49163 1.85231,0.92615 2.8125,1.40625 0.59714,0.29857 1.08055,0.52946 1.5625,0.53125 0.48195,0.002 0.97372,-0.22371 1.5625,-0.8125 0.0758,-0.0758 0.56966,-0.83055 0.90625,-1.625 0.1683,-0.39722 0.29844,-0.80496 0.3125,-1.125 0.0141,-0.32004 -0.0885,-0.55339 -0.375,-0.625 -0.78547,-0.19637 -1.12378,-0.43029 -1.28125,-0.84375 -0.15747,-0.41346 -0.12501,-1.01953 -0.125,-2 0,-0.61834 -0.11072,-1.46164 -0.0625,-2.15625 0.0241,-0.34731 0.0776,-0.65317 0.21875,-0.875 0.14114,-0.22183 0.35934,-0.375 0.6875,-0.375 0.70767,0 1.77167,0.35433 2.65625,0.53125 0.44229,0.0885 0.83751,0.12884 1.125,0.0625 0.28749,-0.0663 0.46875,-0.23991 0.46875,-0.59375 0,-0.5748 -0.24134,-2.68406 -0.5625,-3.96875 -0.14909,-0.59633 -0.58591,-1.09122 -0.6875,-1.4375 -0.0508,-0.17314 -0.0253,-0.28241 0.15625,-0.375 0.18152,-0.0926 0.53296,-0.15625 1.09375,-0.15625 0.5522,0 1.14473,0.49432 1.6875,0.875 0.27138,0.19034 0.50777,0.33671 0.75,0.40625 0.24223,0.0695 0.49228,0.039 0.6875,-0.15625 0.70988,-0.70988 2.15164,-2.35352 3.09375,-3.09375 -0.29874,-0.96669 -0.19899,-2.08548 -0.59375,-2.875 -0.69062,-1.38118 -2.09276,-1.81151 -2.875,-2.59375 -0.41184,-0.41187 0.12572,-3.84087 0,-4.34375 -0.13666,-0.54667 -0.48011,-0.89232 -0.8125,-1.25 h -0.0312 c -0.87129,10e-6 -3.6377,0 -5.4375,0 -0.53703,0 -0.91384,-0.0808 -1.15625,-0.25 -0.24241,-0.1692 -0.36748,-0.40064 -0.4375,-0.6875 -0.14004,-0.57371 -0.035,-1.35861 -0.21875,-2.09375 -0.0889,-0.35567 -2.52462,-1.86838 -2.75,-2.09375 -0.41183,-0.41184 -0.44759,-1.30691 -0.375,-2.21875 0.0726,-0.91184 0.25355,-1.85793 0.375,-2.34375 0.0767,-0.30693 0.0383,-0.6009 -0.0937,-0.875 -0.13207,-0.2741 -0.33525,-0.51809 -0.5625,-0.78125 -0.4545,-0.52632 -1.00279,-1.07363 -1.15625,-1.6875 -0.24333,-0.97331 -0.37089,-1.62408 -0.21875,-2.0625 0.0761,-0.21921 0.23772,-0.39642 0.46875,-0.5 0.23103,-0.10358 0.54537,-0.15625 0.96875,-0.15625 0.70702,0 1.418,0 2.125,0 0.34343,0 0.38683,-0.10415 0.25,-0.3125 -0.13683,-0.20835 -0.44447,-0.51042 -0.8125,-0.84375 -0.73607,-0.66666 -1.70841,-1.48989 -1.875,-2.15625 -0.45411,-1.81645 -0.82774,-1.90468 -1.1875,-3.34375 -0.16226,-0.64902 -0.53661,-1.29259 -0.90625,-1.875 -0.36964,-0.58241 -0.76034,-1.11443 -0.9375,-1.46875 -0.30349,-0.60694 -0.73078,-1.03709 -1.25,-1.375 -0.51922,-0.33791 -1.13162,-0.58759 -1.78125,-0.75 -0.70897,-0.17724 -1.55435,-0.16931 -2.40625,-0.125 -0.8519,0.0443 -1.70607,0.125 -2.4375,0.125 -0.6644,0 -1.4086,0.23221 -2,0.6875 -0.2957,0.22765 -0.56975,0.53442 -0.75,0.875 -0.18025,0.34058 -0.28125,0.73458 -0.28125,1.1875 0,0.78593 -0.0325,1.42791 -0.28125,1.9375 -0.24877,0.50959 -0.70833,0.88802 -1.53125,1.09375 -0.94707,0.23676 -1.62294,0.14037 -2.21875,0.15625 -0.59581,0.0159 -1.11005,0.1413 -1.71875,0.75 -0.22259,0.22259 -0.56006,0.20153 -0.9375,0.0625 -0.37744,-0.13903 -0.79373,-0.39729 -1.21875,-0.71875 -0.85004,-0.64292 -1.69709,-1.48375 -2.09375,-1.78125 -1.02245,-0.76686 -1.69715,-2.00965 -2.40625,-2.71875 -0.92577,-0.92576 -1.3447,-1.6572 -2.125,-2.4375 -0.45458,-0.45459 -1.09099,-0.68848 -1.75,-0.84375 -0.65901,-0.15527 -1.32963,-0.2074 -1.875,-0.34375 -0.0816,-0.0204 -0.35907,0.3332 -0.8125,0.59375 -0.22672,0.13028 -0.49164,0.22898 -0.8125,0.25 -0.32086,0.021 -0.7092,-0.0421 -1.125,-0.25 -0.42315,-0.21158 -1.73948,-2.95822 -2.40625,-3.625 -0.65563,-0.65564 -1.11566,-0.84767 -1.40625,-1.1875 -0.29059,-0.33983 -0.40625,-0.83821 -0.40625,-2.15625 0,-0.84646 -0.21718,-1.34266 -0.625,-1.6875 -0.40782,-0.34484 -1.01976,-0.55182 -1.8125,-0.75 -1.02117,-0.25529 -1.64996,-0.12291 -2.125,-0.15625 -0.23752,-0.0167 -0.43349,-0.0678 -0.625,-0.21875 -0.19151,-0.15092 -0.38792,-0.40083 -0.59375,-0.8125 -0.1868,-0.37361 -0.39593,-0.62118 -0.65625,-0.75 -0.26032,-0.12882 -0.57481,-0.15529 -0.875,-0.0937 -0.60038,0.12308 -1.22336,0.5671 -1.78125,1.125 -0.31038,0.31039 -0.57391,0.40664 -0.8125,0.34375 -0.23859,-0.0629 -0.46928,-0.28198 -0.6875,-0.5625 -0.43644,-0.56104 -0.86775,-1.40863 -1.53125,-1.90625 -0.61828,-0.4637 -0.80526,-1.09336 -0.96875,-1.75 -0.16349,-0.65664 -0.298,-1.32925 -0.84375,-1.875 -0.66227,-0.66227 -1.40215,-0.75172 -1.90625,-0.9375 -0.25205,-0.0929 -0.4626,-0.21824 -0.5625,-0.4375 -0.0999,-0.21926 -0.0961,-0.5532 0.0312,-1.0625 0.24893,-0.99569 0.52679,-1.30336 0.53125,-1.59375 0.004,-0.29039 -0.25224,-0.56474 -1.125,-1.4375 -0.92578,-0.92574 -1.3447,-1.62596 -2.125,-2.40625 -0.30437,-0.30437 -0.47407,-0.58647 -0.5,-0.84375 -0.0259,-0.25728 0.0733,-0.49833 0.25,-0.71875 0.3535,-0.44085 1.04027,-0.80139 1.75,-1.15625 0.88651,-0.44325 1.28331,-0.70819 1.375,-1.03125 0.0917,-0.32306 -0.12449,-0.71773 -0.46875,-1.40625 -0.30255,-0.6051 -0.85876,-1.01634 -1.4375,-1.34375 -0.57874,-0.32741 -1.18125,-0.575 -1.59375,-0.78125 -0.3063,-0.15316 -0.37582,-0.7049 -0.375,-1.40625 8.2e-4,-0.70135 0.0937,-1.54129 0.0937,-2.21875 0,-0.64237 0.39623,-1.14217 0.75,-1.6875 0.17689,-0.27266 0.34291,-0.55834 0.4375,-0.875 0.0946,-0.31666 0.10154,-0.65634 0,-1.0625 -0.34641,-1.38571 -0.28125,-2.99588 -0.28125,-4.5625 0,-1.36602 -0.35636,-2.86293 -0.625,-3.9375 -0.12228,-0.48915 -0.60859,-1.06205 -1.125,-1.5625 -0.51641,-0.50045 -1.04518,-0.92018 -1.28125,-1.15625 -0.47211,-0.47209 -0.60544,-1.14388 -0.59375,-1.8125 0.0117,-0.66862 0.15889,-1.35431 0.28125,-1.84375 0.21108,-0.84429 0.70026,-1.08733 0.96875,-1.3125 0.13424,-0.11259 0.22733,-0.21601 0.1875,-0.375 -0.0398,-0.15899 -0.22299,-0.37924 -0.5625,-0.71875 -0.62546,-0.62545 -0.76032,-0.99831 -0.5625,-1.25 0.19782,-0.25169 0.75681,-0.3767 1.5,-0.5625 0.77072,-0.19268 1.20693,-0.39277 1.46875,-0.78125 0.26182,-0.38848 0.34375,-0.98838 0.34375,-1.96875 0,-0.84468 -0.15495,-1.42471 -0.34375,-1.96875 -0.1888,-0.54404 -0.40871,-1.04107 -0.5625,-1.65625 -0.10068,-0.40272 -2.0556,-1.36121 -2.4375,-2.125 -0.68767,-1.37535 -1.20222,-2.40443 -1.8125,-3.625 -0.23874,-0.47747 -0.24718,-1.33885 -0.1875,-2.21875 0.0597,-0.8799 0.1875,-1.79584 0.1875,-2.34375 0,-0.51606 -0.4724,-0.99653 -0.96875,-1.53125 -0.49635,-0.53472 -1.02064,-1.10318 -1.15625,-1.78125 -0.0877,-0.43845 0.0303,-0.71647 0.21875,-0.90625 0.18846,-0.18978 0.44011,-0.29346 0.65625,-0.40625 0.21614,-0.11279 0.37963,-0.23001 0.375,-0.4375 -0.005,-0.20749 -0.18237,-0.52613 -0.65625,-1 -0.61667,-0.61668 -1.01742,-0.99966 -1.21875,-1.46875 -0.20133,-0.46909 -0.17874,-1.00379 0.0312,-1.84375 0.0804,-0.32169 0.58756,-0.75488 1.125,-1.15625 0.53744,-0.40137 1.08744,-0.77494 1.28125,-0.96875 0.37895,-0.37895 0.61489,-0.66916 0.71875,-0.90625 0.10386,-0.23709 0.0675,-0.41931 -0.0312,-0.59375 -0.19758,-0.34888 -0.70769,-0.64519 -1.28125,-1.21875 -0.96628,-0.96629 -1.65327,-1.96577 -2.4375,-2.75 -0.79716,-0.79716 -1.9831,-1.42539 -2.71875,-2.40625 -0.38488,-0.51318 -0.61897,-0.91369 -0.75,-1.4375 -0.13103,-0.52381 -0.15625,-1.19119 -0.15625,-2.21875 0,-0.44793 0.45175,-0.93259 0.90625,-1.5625 0.22725,-0.31496 0.45456,-0.67214 0.625,-1.0625 0.17044,-0.39036 0.28125,-0.82678 0.28125,-1.3125 0,-1.77306 0.21338,-3.00974 0.59375,-4.53125 0.39827,-1.59311 0.63423,-2.17469 1.21875,-3.34375 0.0452,-0.0903 0.2115,0 0.3125,0 l 0.28125,-0.375 c -0.46305,-0.37729 -0.80512,-0.76458 -1.21875,-1.1875 z"
               style="fill:#f9f9f9;fill-rule:evenodd;stroke:#000000;stroke-width:0.108546;stroke-linecap:butt;stroke-linejoin:miter;stroke-miterlimit:4;stroke-dasharray:none;stroke-opacity:1" />
            <path
               sodipodi:nodetypes="cssssssssssssssssssssssssss"
               transform="translate(-220.76186,-6.6183848)"
               id="path6821"
               d="m 534.76489,453.83265 c 0.21042,0.21042 -0.35493,3.73471 -0.57875,4.63 -0.31935,1.27738 -0.2259,2.63983 -0.57875,4.05125 -0.31685,1.26737 -0.49897,2.86398 -0.86813,4.34062 -0.33037,1.3215 -0.53055,2.70095 -0.86812,4.05125 -0.35345,1.41379 -0.65322,2.46393 -1.1575,3.4725 -0.73642,1.47283 -1.1575,2.08713 -1.1575,3.76187 0,1.51197 0.0524,2.9736 -0.28938,4.34063 -0.39708,1.58833 -0.84071,3.65223 -1.1575,4.91937 -0.23464,0.93859 -1.11522,1.98335 -1.73625,2.60438 -0.74595,0.74595 -0.93271,2.28397 -1.1575,3.18312 -0.34813,1.39255 -0.30061,2.9387 -0.57875,4.05125 -0.29352,1.17409 -0.28937,2.52978 -0.28937,4.05125 0,1.6817 -1.54246,2.2181 -2.315,2.60437 -0.27869,0.13935 0,3.87243 0,4.34063 0,1.56748 -2.79842,2.94226 -3.76188,3.18312 -0.83626,0.20907 -0.57875,3.61265 -0.57875,4.34063 0,1.54155 -1.11391,1.56192 -1.44687,2.89375 -0.0625,0.24987 -2.46367,0.0159 -2.89375,1.73625 -0.35775,1.43098 0.80724,3.48778 1.44688,4.34062 0.84095,1.12127 1.83513,1.54576 2.89374,2.60437 0.47045,0.47045 0.57875,-3.0075 0.57875,-3.18312 0,-0.8893 1.97555,0.0501 2.60438,-0.57875 1.17128,-1.17129 1.61197,-0.9924 2.60437,0 1.07419,1.07419 1.92757,1.1575 3.76188,1.1575 0.76894,0 1.63375,2.68876 2.02562,3.4725 0.5954,1.19079 0.57875,2.31606 0.57875,3.76187 0.28938,0.38583 0.57875,0.77167 0.86813,1.1575 0.59765,0.79688 -2.88252,1.08235 -3.18313,1.1575 -1.75607,0.43902 -1.59901,1.14259 -0.86812,2.60438 0.99859,1.99719 2.89375,0.33967 2.89375,3.18312 0,0.3791 2.58112,2.00237 2.89375,2.315 0.86869,0.86869 0.0433,1.56318 -0.28938,2.89375 -0.10211,0.40843 2.35592,2.39684 2.60438,2.89375 0.44999,0.89999 3.23708,0.86812 4.05125,0.86812 1.19312,0 -0.0245,-2.62883 -0.86813,-3.4725 -1.01358,-1.01357 -1.73625,-1.44646 -1.73625,-3.18312 0,-1.00643 -1.69751,-1.98688 -2.315,-2.60437 -1.09017,-1.09017 -1.54355,-1.80876 -2.60437,-2.60438 -1.30632,-0.97974 -1.32804,-1.36161 0,-2.02562 1.33692,-0.66847 1.96981,-1.04588 2.60437,-2.315 0.45856,-0.91712 -1.58996,-1.30058 -2.315,-2.02563 -0.49405,-0.49405 0.23314,-3.00622 0,-3.4725 -0.48681,-0.97362 -1.58211,-1.87149 -2.315,-2.60437 -0.78383,-0.78383 -0.88564,-3.21815 -1.1575,-3.76188 -0.28894,-0.57789 -3.48478,-0.59102 -4.05125,-1.15749 -1.05225,-1.05226 -1.68927,-1.42339 -2.89375,-2.02563 -0.047,-0.0235 2.49992,-1.1575 3.18313,-1.1575 1.32937,0 1.1575,-1.98589 1.1575,-3.18312 0,-1.44688 0,-2.89375 0,-4.34063 0,-1.60509 0.28937,-2.72264 0.28937,-4.05125 0,-1.40721 1.33654,-1.58429 1.73625,-3.18312 0.0106,-0.0425 -0.57875,-1.77116 -0.57875,-3.18313 0,-1.09382 0.42599,-2.8776 0.86813,-3.76187 0.81487,-1.62975 -0.22872,-2.37566 0.86812,-3.4725 0.54395,-0.54395 0.38305,-2.97905 0.57875,-3.76187 0.2374,-0.94959 1.10008,-1.50658 1.44688,-2.89375 0.37132,-1.48528 0.28044,-2.56865 0.57875,-3.76188 0.46384,-1.85536 0.14362,-2.41004 1.1575,-3.76187 0.77676,-1.03569 1.49314,-1.48158 2.60437,-2.315 0.37312,-0.27984 0,-3.76726 0,-4.34062 0,-1.44688 0,-2.89375 0,-4.34063 0,-1.44687 0,-2.89375 0,-4.34062 0,-1.20506 0.86813,-1.66246 0.86813,-3.4725 0,-2.27529 -0.0249,-2.74228 -1.1575,-4.63 z"
               style="fill:#f9f9f9;fill-rule:evenodd;stroke:#000000;stroke-width:0.108546;stroke-linecap:butt;stroke-linejoin:miter;stroke-miterlimit:4;stroke-dasharray:none;stroke-opacity:1" />
          </g>
          <path
             style="fill:#f9f9f9;fill-rule:evenodd;stroke:#000000;stroke-width:0.108546;stroke-linecap:butt;stroke-linejoin:miter;stroke-miterlimit:4;stroke-dasharray:none;stroke-opacity:1"
             d="m 662.66861,476.11452 c 0,0.97405 2.02562,-1.10293 2.02562,-2.89375 0,-1.83657 0.23556,-2.3891 0.57875,-3.76187 0.46121,-1.84485 -2.76253,-0.39453 -3.18312,-0.28938 -0.95063,0.23766 -0.57875,2.81589 -0.57875,3.76188 0,2.30214 0.0576,0.43334 1.1575,3.18312 z"
             id="path6825"
             transform="translate(-220.76186,-6.6183848)" />
        </g>
      </g>
      <g
         id="g6878"
         transform="matrix(1.8426012,0,0,1.8424864,-180.89529,-281.08554)"
         style="fill:#f9f9f9;stroke-width:0.11839;stroke-miterlimit:4;stroke-dasharray:none">
        <path
           transform="translate(-220.76186,-6.6183848)"
           id="path6859"
           d="m 567.5,341.8125 -0.28125,0.375 c -0.101,0 -0.26732,-0.0903 -0.3125,0 -0.58452,1.16906 -0.82048,1.75064 -1.21875,3.34375 -0.38037,1.52151 -0.59375,2.75819 -0.59375,4.53125 0,0.48572 -0.11081,0.92214 -0.28125,1.3125 -0.17044,0.39036 -0.39775,0.74754 -0.625,1.0625 -0.4545,0.62991 -0.90625,1.11457 -0.90625,1.5625 0,1.02756 0.0252,1.69494 0.15625,2.21875 0.13103,0.52381 0.36512,0.92432 0.75,1.4375 0.73565,0.98086 1.92159,1.60909 2.71875,2.40625 0.78423,0.78423 1.47122,1.78371 2.4375,2.75 0.57356,0.57356 1.08367,0.86987 1.28125,1.21875 0.0988,0.17444 0.13511,0.35666 0.0312,0.59375 -0.10386,0.23709 -0.3398,0.5273 -0.71875,0.90625 -0.19381,0.19381 -0.74381,0.56738 -1.28125,0.96875 -0.53744,0.40137 -1.04458,0.83456 -1.125,1.15625 -0.20999,0.83996 -0.23258,1.37466 -0.0312,1.84375 0.20133,0.46909 0.60208,0.85207 1.21875,1.46875 0.47388,0.47387 0.65162,0.79251 0.65625,1 0.005,0.20749 -0.15886,0.32471 -0.375,0.4375 -0.21614,0.11279 -0.46779,0.21647 -0.65625,0.40625 -0.18846,0.18978 -0.30645,0.4678 -0.21875,0.90625 0.13561,0.67807 0.6599,1.24653 1.15625,1.78125 0.49635,0.53472 0.96875,1.01519 0.96875,1.53125 0,0.54791 -0.12782,1.46385 -0.1875,2.34375 -0.0597,0.8799 -0.0512,1.74128 0.1875,2.21875 0.61028,1.22057 1.12483,2.24965 1.8125,3.625 0.3819,0.76379 2.33682,1.72228 2.4375,2.125 0.15379,0.61518 0.3737,1.11221 0.5625,1.65625 0.1888,0.54404 0.34375,1.12407 0.34375,1.96875 0,0.98037 -0.0819,1.58027 -0.34375,1.96875 -0.26182,0.38848 -0.69803,0.58857 -1.46875,0.78125 -0.74319,0.1858 -1.30218,0.31081 -1.5,0.5625 -0.19782,0.25169 -0.063,0.62455 0.5625,1.25 0.33951,0.33951 0.52267,0.55976 0.5625,0.71875 0.0398,0.15899 -0.0533,0.26241 -0.1875,0.375 -0.26849,0.22517 -0.75767,0.46821 -0.96875,1.3125 -0.12236,0.48944 -0.26956,1.17513 -0.28125,1.84375 -0.0117,0.66862 0.12164,1.34041 0.59375,1.8125 0.23607,0.23607 0.76484,0.6558 1.28125,1.15625 0.51641,0.50045 1.00272,1.07335 1.125,1.5625 0.26864,1.07457 0.625,2.57148 0.625,3.9375 0,1.56662 -0.0652,3.17679 0.28125,4.5625 0.10154,0.40616 0.0946,0.74584 0,1.0625 -0.0946,0.31666 -0.26061,0.60234 -0.4375,0.875 -0.35377,0.54533 -0.75,1.04513 -0.75,1.6875 0,0.67746 -0.0929,1.5174 -0.0937,2.21875 -8.2e-4,0.70135 0.0687,1.25309 0.375,1.40625 0.4125,0.20625 1.01501,0.45384 1.59375,0.78125 0.57874,0.32741 1.13495,0.73865 1.4375,1.34375 0.34426,0.68852 0.56044,1.08319 0.46875,1.40625 -0.0917,0.32306 -0.48849,0.588 -1.375,1.03125 -0.70973,0.35486 -1.3965,0.7154 -1.75,1.15625 -0.17675,0.22042 -0.27593,0.46147 -0.25,0.71875 0.0259,0.25728 0.19563,0.53938 0.5,0.84375 0.7803,0.78029 1.19922,1.48051 2.125,2.40625 0.87276,0.87276 1.12946,1.14711 1.125,1.4375 -0.004,0.29039 -0.28232,0.59806 -0.53125,1.59375 -0.12732,0.5093 -0.13115,0.84324 -0.0312,1.0625 0.0999,0.21926 0.31045,0.34461 0.5625,0.4375 0.5041,0.18578 1.24398,0.27523 1.90625,0.9375 0.54575,0.54575 0.68026,1.21836 0.84375,1.875 0.16349,0.65664 0.35047,1.2863 0.96875,1.75 0.6635,0.49762 1.09481,1.34521 1.53125,1.90625 0.21822,0.28052 0.44891,0.49961 0.6875,0.5625 0.23859,0.0629 0.50212,-0.0334 0.8125,-0.34375 0.55789,-0.5579 1.18087,-1.00192 1.78125,-1.125 0.30019,-0.0615 0.61468,-0.0351 0.875,0.0937 0.26032,0.12882 0.46945,0.37639 0.65625,0.75 0.20583,0.41167 0.40224,0.66158 0.59375,0.8125 0.19151,0.15092 0.38748,0.20208 0.625,0.21875 0.47504,0.0333 1.10383,-0.099 2.125,0.15625 0.79274,0.19818 1.40468,0.40516 1.8125,0.75 0.40782,0.34484 0.625,0.84104 0.625,1.6875 0,1.31804 0.11566,1.81642 0.40625,2.15625 0.29059,0.33983 0.75062,0.53186 1.40625,1.1875 0.66677,0.66678 1.9831,3.41342 2.40625,3.625 0.4158,0.2079 0.80414,0.27102 1.125,0.25 0.32086,-0.021 0.58578,-0.11972 0.8125,-0.25 0.45343,-0.26055 0.73085,-0.61416 0.8125,-0.59375 0.54537,0.13635 1.21599,0.18848 1.875,0.34375 0.65901,0.15527 1.29542,0.38916 1.75,0.84375 0.7803,0.7803 1.19923,1.51174 2.125,2.4375 0.7091,0.7091 1.3838,1.95189 2.40625,2.71875 0.39666,0.2975 1.24371,1.13833 2.09375,1.78125 0.42502,0.32146 0.84131,0.57972 1.21875,0.71875 0.37744,0.13903 0.71491,0.16009 0.9375,-0.0625 0.6087,-0.6087 1.12294,-0.73412 1.71875,-0.75 0.59581,-0.0159 1.27168,0.0805 2.21875,-0.15625 0.82292,-0.20573 1.28248,-0.58416 1.53125,-1.09375 0.24877,-0.50959 0.28125,-1.15157 0.28125,-1.9375 0,-0.45292 0.101,-0.84692 0.28125,-1.1875 0.18025,-0.34058 0.4543,-0.64735 0.75,-0.875 0.5914,-0.45529 1.3356,-0.6875 2,-0.6875 0.73143,0 1.5856,-0.0807 2.4375,-0.125 0.8519,-0.0443 1.69728,-0.0522 2.40625,0.125 0.64963,0.16241 1.26203,0.41209 1.78125,0.75 0.51922,0.33791 0.94651,0.76806 1.25,1.375 0.17716,0.35432 0.56786,0.88634 0.9375,1.46875 0.36964,0.58241 0.74399,1.22598 0.90625,1.875 0.35976,1.43907 0.73339,1.5273 1.1875,3.34375 0.16659,0.66636 1.13893,1.48959 1.875,2.15625 0.36803,0.33333 0.67567,0.6354 0.8125,0.84375 0.13683,0.20835 0.0934,0.3125 -0.25,0.3125 -0.707,0 -1.41798,0 -2.125,0 -0.42338,0 -0.73772,0.0527 -0.96875,0.15625 -0.23103,0.10358 -0.39268,0.28079 -0.46875,0.5 -0.15214,0.43842 -0.0246,1.08919 0.21875,2.0625 0.15346,0.61387 0.70175,1.16118 1.15625,1.6875 0.22725,0.26316 0.43043,0.50715 0.5625,0.78125 0.13207,0.2741 0.17049,0.56807 0.0937,0.875 -0.12145,0.48582 -0.30241,1.43191 -0.375,2.34375 -0.0726,0.91184 -0.0368,1.80691 0.375,2.21875 0.22538,0.22537 2.6611,1.73808 2.75,2.09375 0.18378,0.73514 0.0787,1.52004 0.21875,2.09375 0.07,0.28686 0.19509,0.5183 0.4375,0.6875 0.24241,0.1692 0.61922,0.25 1.15625,0.25 1.7998,0 4.56621,10e-6 5.4375,0 H 644.5 c -0.48311,-0.51987 -0.99212,-1.03098 -1.21875,-1.9375 -0.34987,-1.39937 -1.10703,-2.41016 -1.4375,-4.0625 -0.16436,-0.82176 1.7104,-3.17081 2,-3.75 0.89255,-1.78512 -1.13368,-2.47309 -2,-2.90625 -1.46932,-0.73466 -1.71891,-1.38564 -2.625,-2.59375 -1.08441,-1.44587 -1.55577,-2.14952 -2.59375,-3.1875 -0.60037,-0.60035 0.15461,-4.00656 0,-4.625 -0.44171,-1.76675 -2.23205,-0.75465 -0.875,-3.46875 0.80955,-1.61903 1.88278,-1.03889 2.3125,-3.1875 0.13746,-0.68719 -2.11768,-1.67421 -2.59375,-2.03125 -1.0012,-0.7509 -1.75608,-0.88108 -2.59375,-1.71875 -1.28723,-1.28725 -1.8513,-0.82435 -3.5,0 -1.56701,0.7835 -2.79392,0.053 -4.03125,-0.875 -1.31853,-0.9889 -1.5221,-2.39709 -2.59375,-3.46875 -1.07082,-1.07083 -2.26598,-1.90695 -2.90625,-3.1875 -0.6691,-1.33819 0.49648,-3.30546 0.875,-4.0625 0.19621,-0.39239 -2.21805,-2.46805 -2.625,-2.875 -0.90299,-0.903 0.3125,-3.39698 0.3125,-4.625 10e-6,-0.75034 -2.15133,-2.15134 -2.625,-2.625 -0.72343,-0.72344 -1.87031,-0.99532 -2.59375,-1.71875 -0.73125,-0.73127 -2.50669,-1.69084 -3.1875,-2.03125 -1.11746,-0.55873 -1.9899,-2.10291 -1.71875,-3.1875 0.35785,-1.43135 3.99378,-1.48749 1.15625,-2.90625 -1.0626,-0.53129 -1.94518,-1.03892 -2.625,-1.71875 -0.97423,-0.97419 -0.875,-1.73939 -0.875,-3.46875 10e-6,-1.46309 -0.0251,-3.31931 -0.28125,-4.34375 -0.26852,-1.0741 -0.94265,-1.91656 -1.4375,-2.90625 -0.57784,-1.15576 -0.2237,-2.85519 0,-3.75 0.26944,-1.07763 1.57075,-1.98526 2.03125,-2.90625 0.67563,-1.35122 0.66682,-2.41682 1.4375,-3.1875 0.0965,-0.38584 0.18479,-0.77042 0.28125,-1.15625 0.40419,-1.61679 -0.57832,-2.84454 -0.875,-4.03125 -0.4051,-1.62031 0.92042,-2.31677 -1.4375,-2.90625 -1.16254,-0.29064 -1.4375,-2.09836 -1.4375,-3.1875 3e-5,-1.89436 0.0159,-2.57785 -0.875,-3.46875 -1.13894,-1.13896 -2.13784,-0.63058 -1.15625,-2.59375 0.93761,-1.87526 0.45326,-2.17174 -0.5625,-3.1875 -1.21857,-1.21861 -1.46875,-1.50315 -1.46875,-3.46875 -2e-5,-0.83717 1.65083,-2.70791 2.03125,-3.46875 0.76326,-1.52656 -0.68865,-2.71989 -1.15625,-3.1875 -0.6816,-0.68159 -2.55199,-0.83849 -3.1875,-1.15625 -1.49361,-0.74679 -1.75393,-1.43357 -0.5625,-2.625 0.91907,-0.91908 -1.56805,-2.4118 -1.75,-2.59375 -1.03592,-1.03591 -1.40767,-1.34659 -2.03125,-2.59375 -0.51893,-1.03786 0,-3.70352 0,-4.9375 0,-1.16431 1.80997,-1.80998 2.3125,-2.3125 0.96557,-0.96558 0.875,-1.76227 0.875,-3.46875 2e-5,-1.74321 -1.99335,-1.93916 -2.875,-1.71875 -1.21768,0.30441 -2.09318,1.88465 -2.625,2.59375 -0.25818,0.34425 -2.49422,-1.93172 -2.59375,-2.03125 -1.00585,-1.00585 -1.73247,-0.18979 -2.46875,-0.90625 L 586,341 c -0.303,0.303 -0.47773,0.90626 -0.90625,0.90625 -0.59109,0 -1.14538,0.34866 -1.6875,0.6875 -0.54212,0.33884 -1.0828,0.64336 -1.65625,0.5 -0.70254,-0.17563 -2.27842,-1.05965 -3.03125,-1.8125 -0.51128,-0.51127 -1.31765,-1.29289 -2.09375,-1.78125 -0.38805,-0.24418 -0.77404,-0.40758 -1.09375,-0.4375 -0.31971,-0.0299 -0.58832,0.0829 -0.75,0.40625 l -0.1875,-0.0312 c -0.23198,1.2145 -1.23642,0.96875 -2.78125,0.96875 -1.37603,0 -1.43133,2.03125 -3.46875,2.03125 -0.19549,0 -0.54526,-0.38179 -0.84375,-0.625 z"
           style="fill:#f9f9f9;fill-rule:evenodd;stroke:#000000;stroke-width:0.108546;stroke-linecap:butt;stroke-linejoin:miter;stroke-miterlimit:4;stroke-dasharray:none;stroke-opacity:1" />
        <path
           transform="translate(-220.76186,-6.6183848)"
           id="path6827"
           d="m 620.13049,419.39703 c 0,1.29413 -0.95977,-2.4372 -1.73625,-3.4725 -1.29264,-1.72352 0.74407,-1.73625 2.02563,-1.73625 2.25738,0 -0.48948,-2.22572 -0.86813,-2.60437 -1.48395,-1.48395 1.85626,-2.66438 2.315,-2.89375 1.2031,-0.60155 0.21583,-1.54173 1.44688,-3.18313 1.15152,-1.53536 1.73625,-0.33101 1.73625,-2.89374 0,-1.88739 -0.50849,-2.76663 1.1575,-3.18313 1.46473,-0.36618 1.65944,2.58652 2.02562,4.05125 0.44541,1.78164 1.9975,0.60687 2.89375,-0.28937 1.42043,-1.42044 0.22936,-2.95377 -0.57875,-3.76188 -1.34682,-1.34682 -0.31586,-1.74949 -2.02562,-2.60437 -1.19707,-0.59854 0.35075,-3.16851 0.57875,-3.4725 0.99607,-1.3281 2.77937,-0.51813 1.73625,-2.60438 -0.78987,-1.57972 -3.24423,0.31993 -3.76188,0.57875 -1.58918,0.79459 -0.44063,2.06016 -2.89375,1.44688 -1.70025,-0.42507 -2.09006,1.02892 -3.76187,1.44687 -1.3394,0.33485 0,2.5732 0,3.4725 0,2.20798 0.12051,2.54412 -1.73625,3.4725 -1.29751,0.64875 -0.86813,3.00247 -0.86813,3.76187 0,1.57104 -1.44687,2.43475 -1.44687,4.34063 0,1.91948 1.02868,2.60437 -1.44688,2.60437 -1.68634,0 -0.63245,2.49697 -0.28937,3.18313 0.24555,0.4911 1.71907,1.72766 2.315,2.02562 1.93754,0.96877 1.00106,2.75141 3.18312,2.315 z"
           style="fill:#f9f9f9;fill-rule:evenodd;stroke:#000000;stroke-width:0.108546;stroke-linecap:butt;stroke-linejoin:miter;stroke-miterlimit:4;stroke-dasharray:none;stroke-opacity:1" />
      </g>
    </g>
  </g>
</svg>
