<?xml version="1.0" encoding="UTF-8" standalone="no"?>
<!-- Created with Inkscape (http://www.inkscape.org/) -->

<svg
   width="210mm"
   height="273mm"
   viewBox="0 0 210 273"
   version="1.1"
   id="svg31325"
   inkscape:version="1.1.1 (3bf5ae0d25, 2021-09-20)"
   sodipodi:docname="sinaloa.svg"
   xmlns:inkscape="http://www.inkscape.org/namespaces/inkscape"
   xmlns:sodipodi="http://sodipodi.sourceforge.net/DTD/sodipodi-0.dtd"
   xmlns="http://www.w3.org/2000/svg"
   xmlns:svg="http://www.w3.org/2000/svg">
  <sodipodi:namedview
     id="namedview31327"
     pagecolor="#ffffff"
     bordercolor="#666666"
     borderopacity="1.0"
     inkscape:pageshadow="2"
     inkscape:pageopacity="0.0"
     inkscape:pagecheckerboard="0"
     inkscape:document-units="mm"
     showgrid="false"
     inkscape:zoom="0.41799165"
     inkscape:cx="398.33332"
     inkscape:cy="570.58556"
     inkscape:window-width="1366"
     inkscape:window-height="705"
     inkscape:window-x="-8"
     inkscape:window-y="-8"
     inkscape:window-maximized="1"
     inkscape:current-layer="layer1" />
  <defs
     id="defs31322">
    <inkscape:perspective
       sodipodi:type="inkscape:persp3d"
       inkscape:vp_x="0 : 403.7467 : 1"
       inkscape:vp_y="0 : 999.99992 : 0"
       inkscape:vp_z="682.69409 : 403.7467 : 1"
       inkscape:persp3d-origin="341.34705 : 261.16432 : 1"
       id="perspective25" />
    <inkscape:perspective
       id="perspective2473"
       inkscape:persp3d-origin="499.86618 : 202.64708 : 1"
       inkscape:vp_z="999.73236 : 315.97061 : 1"
       inkscape:vp_y="0 : 999.99992 : 0"
       inkscape:vp_x="0 : 315.97061 : 1"
       sodipodi:type="inkscape:persp3d" />
  </defs>
  <g
     inkscape:label="Capa 1"
     inkscape:groupmode="layer"
     id="layer1">
    <g
       inkscape:label="Capa 1"
       id="layer1-9"
       transform="matrix(0.31778255,0,0,0.32946771,-11.389798,-33.413011)">
      <path
         style="fill:#cddae0;fill-opacity:1;fill-rule:evenodd;stroke:#ffffff;stroke-width:2.5;stroke-linecap:butt;stroke-linejoin:miter;stroke-miterlimit:4;stroke-dasharray:none;stroke-opacity:1"
         d="m 272.51021,219.35661 c 0.20137,-4.32076 2.37126,-4.06262 6.30983,-5.04713 2.02911,-0.50719 -2.07519,-2.4256 -1.26196,-5.67798 0.23505,-0.9401 5.1546,-3.89207 5.67882,-4.41623 0.0985,-0.0985 -4.23763,-4.8679 -4.41686,-5.04711 -1.62476,-1.62452 -2.97057,-4.04759 -3.78589,-5.678 -1.29075,-2.58111 -2.83362,-3.46407 -5.04788,-5.678 -2.64015,-2.63978 -0.3056,-3.23084 -5.04785,-4.41622 -2.99785,-0.74936 3.00323,-5.04712 5.67885,-5.04712 1.98423,0 1.38016,-4.15987 3.1549,-5.0471 4.19665,-2.09802 0.41466,-4.00163 -1.26196,-5.67801 -0.58854,-0.58844 2.85329,-6.36434 3.15491,-7.57066 0.36639,-1.46533 -3.98997,-2.33828 -3.15491,-5.678 0.78106,-3.12381 -2.58872,-5.74278 -3.7859,-6.93978 -2.19504,-2.19472 -3.82285,-2.59747 -5.04785,-5.04711 -1.39041,-2.78041 -4.92345,-1.89266 -8.20277,-1.89266 -2.5893,0 -1.26197,-3.6054 -1.26197,-6.93977 0,-2.4397 -5.12681,1.59695 -6.30981,1.89265 -2.77536,0.69373 -5.39756,-1.96259 -8.20278,-2.52355 -1.86761,-0.37346 1.09291,-3.83054 0.63097,-5.67801 -0.78205,-3.12781 2.33017,-5.26568 4.41688,-6.30888 3.4958,-1.74763 3.78473,-1.26646 2.52393,-6.30889 -0.78721,-3.14839 -2.33313,-4.46391 -5.04785,-3.78533 -3.95558,0.98874 -2.69828,-0.85917 -5.67884,0.63088 -2.97972,1.48964 -4.66657,1.4524 -7.57179,0 -0.91691,-0.45838 -3.42486,2.34307 -5.04785,3.15445 -1.8944,0.94706 -5.17185,-1.89267 -8.20277,-1.89267 -4.20816,0 -5.25321,-1.46708 -7.5718,-3.78533 -2.28992,-2.28958 -4.55033,-0.59753 -6.9408,0 -2.67088,0.66762 -2.06257,3.87014 -4.41688,5.04711 -2.10327,1.05148 4.64705,1.49192 6.30982,3.15445 2.46377,2.4634 1.79086,4.91491 -1.26196,5.678 -2.64316,0.66069 -2.62068,4.51295 -4.41688,6.30889 -2.41772,2.41735 -3.87691,4.59825 -5.04786,6.93978 -1.22817,2.456 -0.5587,6.01985 -1.26196,8.83244 -0.90176,3.60648 -5.93542,-0.25654 -1.89294,3.78532 2.6466,2.64623 -0.40037,6.07831 -1.26198,6.93979 -1.78468,1.78443 -5.3143,-1.12856 -7.57178,0 -2.43991,1.21977 -1.89294,5.87229 -1.89294,8.83245 0,4.48205 -2.52394,2.47287 -2.52394,6.93976 0,2.58211 -5.40529,0.9044 -1.26196,5.04713 2.53658,2.53621 6.56602,-1.51793 1.89295,3.15443 -2.79134,2.79093 1.53064,6.35264 3.15492,7.57068 1.66269,1.24684 1.48562,5.94166 1.89294,7.57066 0.62798,2.51158 6.69307,-4.16854 6.94081,-4.41623 2.80256,-2.80215 4.41006,-0.0272 3.15491,-5.04711 -0.73996,-2.95935 -3.15491,-2.60183 -3.15491,-5.678 0,-0.88997 8.24175,2.6795 8.83374,5.04712 0.93098,3.72339 3.29368,2.64659 6.30983,1.89266 1.64509,-0.41122 0.87885,-4.00502 2.52393,-4.41623 2.8961,-0.72391 -0.51688,-4.54541 5.04786,-3.15443 1.81627,0.45399 2.81754,5.59049 3.15491,6.93978 0.59708,2.38795 -5.20004,0.78303 -6.94081,2.52355 -1.53294,1.53271 -1.78977,5.47168 -2.52392,6.93978 -0.2266,0.45313 -9.32412,1.29693 -1.89296,3.15444 4.48878,1.12203 5.08225,1.91844 7.5718,3.78533 2.20554,1.65392 1.34854,3.82862 5.04786,5.678 2.65275,1.32618 2.38887,-0.49587 4.41686,-2.52355 2.12633,-2.12602 4.77263,3.31537 5.04787,4.41622 0.90365,3.61408 1.35434,3.8777 3.78589,6.30889 1.27937,1.27917 -3.15491,2.60719 -3.15491,4.41622 0,3.40845 2.00468,4.00879 3.15491,6.30889 0.44132,0.88249 5.54526,-0.0334 5.67885,0 6.33495,1.5835 6.13574,7.11381 9.46473,3.78533 0.3027,-0.30265 -4.41688,3.28785 -4.41688,6.3089 0,2.7815 3.06982,3.78533 6.30982,3.78533 2.85357,0 1.60679,2.46492 3.7859,-1.89268 0.60237,-1.20458 7.45811,4.07237 8.83375,4.41623 2.36544,0.59126 -0.67245,-5.68837 4.41687,-4.41623 3.68894,0.9221 5.01155,-1.55907 6.9408,-2.52355 3.7806,-1.89001 0.44914,-3.33628 -1.26196,-5.04711 -2.66323,-2.66285 -2.285,-3.78533 1.89296,-3.78533 5.47473,0 4.51991,-3.82392 1.89294,-8.20155 z"
         id="path2206" />
      <path
         style="fill:#cddae0;fill-opacity:1;fill-rule:evenodd;stroke:#ffffff;stroke-width:2.5;stroke-linecap:butt;stroke-linejoin:miter;stroke-miterlimit:4;stroke-dasharray:none;stroke-opacity:1"
         d="m 126.75329,221.88016 c 2.97448,0 -5.94808,-1.98309 -8.83374,-1.26178 -0.068,0.017 -6.44184,-1.26177 -8.20277,-1.26177 -4.34844,0 -5.41865,1.54577 -7.5718,4.41621 -1.43566,1.91393 -0.63098,6.35648 -0.63098,8.83245 0,1.68578 -3.154913,3.7982 -3.154913,7.57066 0,2.95741 7.538133,0.0337 3.154913,4.41623 -2.717447,2.71704 -5.226499,-1.34536 -3.785887,4.41623 0.769045,3.0757 1.820822,4.75865 2.523927,7.57065 0.43882,1.75503 -2.661598,2.7157 -4.41688,3.15446 -2.523928,0.63087 -0.729469,-5.24408 -1.892938,-7.57068 -1.392905,-2.7854 -2.218173,-3.55604 -5.047871,-5.67801 -2.782791,-2.08678 0.02795,-4.44415 1.261964,-5.67798 2.3906,-2.39025 -2.127177,-6.54309 -2.523927,-6.93978 -1.249906,-1.24973 -2.372383,-5.37498 -3.154902,-6.93978 -1.431249,-2.86207 -3.331009,1.33515 -3.785891,3.15445 -0.687875,2.75109 0,6.61078 0,9.46333 0,3.10067 -0.08576,6.65184 -0.63099,8.83244 -0.583836,2.335 -2.967614,4.29802 -3.785891,7.57066 -0.616375,2.46515 -5.415977,1.12163 -6.940808,3.15445 -0.524965,0.69986 -2.523927,9.12279 -2.523927,2.52355 0,-3.62166 0.640121,-5.71455 1.261963,-8.20156 0.698316,-2.79285 2.431408,-4.04616 3.154917,-6.93978 0.909888,-3.63902 1.271527,-4.43533 2.523927,-6.93976 1.25428,-2.50819 3.154902,-1.14376 3.154902,-6.3089 0,-3.61571 -5.88187,0.41695 -6.309819,0.6309 -1.745827,0.87278 -2.710259,5.16143 -3.154916,6.93978 -0.751075,3.00384 -0.992875,6.40168 -1.892939,8.20156 -1.018653,2.03698 -2.786748,3.67998 -3.785891,5.67798 -1.188278,2.3762 -0.912906,5.61085 -1.892953,7.57068 -1.531345,3.06223 -1.773978,3.4104 -5.047855,5.0471 -1.876646,0.93818 -3.454235,4.38388 -4.41688,6.30889 -1.152706,2.30507 -2.017504,4.66529 -3.154918,6.93978 -1.229117,2.45787 -3.237257,4.58091 -4.416865,6.93978 -1.404192,2.80795 -3.154917,4.35823 -3.154917,8.20156 0,0.8058 4.215534,4.2149 5.047855,5.0471 0.942935,0.94279 0,7.96429 0,9.46334 0,4.03996 0.04823,6.26067 -2.523927,8.83243 -2.624578,2.62419 0.852648,4.08084 2.523927,6.3089 1.559218,2.07864 0.202702,5.85775 0.630989,7.57066 0.931847,3.72685 5.490372,-4.29335 5.678845,-5.0471 0.993645,-3.97403 0.133035,-5.14591 1.261964,-0.6309 0.98459,3.93777 4.622432,1.05625 5.678828,0 1.734418,-1.73415 1.333079,6.30888 3.785907,6.30888 4.27031,0 4.764876,1.13178 3.785891,5.04713 -0.798503,3.19349 0.756772,5.17492 0,8.20155 -0.936806,3.74664 3.302335,4.45307 5.678845,5.04711 3.107949,0.77688 1.520596,6.56747 3.785891,8.83244 1.570429,1.57021 5.269868,1.89267 7.571782,1.89267 0.376238,0 -3.626368,-6.67394 -3.785891,-6.93978 -1.272142,-2.11993 -2.494145,-3.66623 -3.154916,-6.30888 -0.672584,-2.68999 -1.892939,-3.54662 -1.892939,-7.57068 0,-4.95997 2.979688,-0.98129 3.785892,0.6309 2.145857,4.29105 5.047854,1.89462 5.047854,6.93978 0,4.29939 1.738052,6.7849 4.416881,9.46333 2.714002,2.71359 3.478905,5.35405 6.940809,1.89266 3.234193,-3.23373 5.360292,6.32112 6.940788,0 1.01897,-4.0752 1.35794,-2.07438 5.67885,-3.15444 0.80596,-0.20148 2.71519,-4.32829 6.30981,-5.04712 2.82841,-0.5656 4.09564,-3.07414 6.94081,-3.78533 3.43675,-0.85905 4.50879,3.52201 5.04788,5.678 0.64524,2.58063 -5.69057,0.64262 -7.5718,2.52356 -2.91895,2.91853 -3.78589,1.15526 -3.78589,6.93978 0,4.29449 -0.51976,4.93589 -2.52393,6.93978 -1.66278,1.66253 -2.10328,-4.20594 -3.15492,-6.3089 -2.32193,-4.64317 -3.78589,2.82239 -3.78589,4.41622 0,2.12821 -6.49287,1.26178 -8.20277,1.26178 0,4.44274 -1.663749,3.89991 3.154916,6.30888 2.663404,1.33152 2.856984,3.22471 3.785894,6.93978 0.9071,3.62787 5.1757,1.51333 6.94081,0.6309 1.68261,-0.84119 -2.06768,-3.22232 -2.52393,-5.04711 -0.14285,-0.57126 7.88359,-1.26177 8.83375,-1.26177 4.83988,0 5.67884,1.14174 5.67884,5.67798 0,2.26921 -1.07229,2.74418 3.15492,0.6309 2.90504,-1.45231 2.83993,-3.07547 7.57178,-1.89267 3.37735,0.8442 7.27458,-0.48231 8.83375,-1.26178 3.22381,-1.61166 -6.01892,-2.52355 -6.94081,-2.52355 -4.11543,0 -6.03264,1.10859 -6.94079,-2.52356 -0.56503,-2.25971 -1.14922,-3.96526 -1.89296,-6.93978 -0.61427,-2.4567 5.11473,-1.24506 7.57178,-0.63088 3.98033,0.99493 5.29009,0.19435 6.94081,-0.63089 0.39462,-0.19729 -4.89172,-6.10075 -5.04785,-6.30889 -0.79875,-1.06484 -0.42427,-8.00572 -0.63099,-8.83245 -0.69471,-2.77844 -2.38965,-3.87921 -3.15491,-6.93976 -0.48669,-1.94654 1.98897,-6.50093 2.52393,-7.57068 1.86788,-3.7352 5.04786,-0.99681 5.04786,-5.67801 0,-3.96138 -1.2162,-6.30888 3.15491,-6.30888 4.20382,0 2.35177,1.07544 6.30982,-1.89265 2.58193,-1.93616 3.15492,-1.74644 3.15492,-6.30891 0,-4.18965 -3.34983,-3.15443 -6.94081,-3.15443 -1.97911,0 -4.75071,3.00588 -6.30982,3.78533 -3.243,1.62125 -2.04845,1.1063 -5.04787,-1.89267 -1.99451,-1.99422 -2.63415,-3.86798 -5.04785,-5.67801 -3.00975,-2.25696 -4.65548,0.47716 -5.67884,2.52358 -1.94466,3.88872 -3.83738,-0.0515 -5.04786,-1.2618 -1.99596,-1.99566 0,-6.14054 0,-8.20154 0,-1.39306 -5.26717,-3.52472 -6.30982,-3.78535 -2.1008,-0.52512 3.57805,-2.62931 5.67884,-3.15443 0.56981,-0.14244 -1.83618,-6.02504 -1.89295,-6.30888 -0.55461,-2.77266 1.57953,-3.07403 -1.89296,-5.678 -2.40085,-1.80039 0.58769,-3.74204 2.52395,-5.67801 2.613,-2.61263 3.65439,-2.8915 5.04786,-5.678 0.74952,-1.49883 -3.73964,-4.36997 -4.41688,-5.04711 -2.2853,-2.28496 -3.7859,-2.40118 -3.7859,-6.30888 0,-2.08012 0.89271,-6.72475 1.26197,-8.20156 0.87471,-3.49838 5.04232,-1.26732 1.26196,-5.0471 -2.84576,-2.84535 -5.38966,-1.20917 -3.15491,-5.67801 1.78099,-3.56146 2.85646,-3.15445 7.57179,-3.15445 2.29521,0 6.39781,-0.81061 8.20278,-1.26178 2.05064,-0.51258 -1.57631,-4.41855 -0.631,-6.30888 1.28656,-2.57274 0.65542,-7.44851 0,-10.72511 z"
         id="path2208" />
      <path
         style="fill:#cddae0;fill-opacity:1;fill-rule:evenodd;stroke:#ffffff;stroke-width:2.5;stroke-linecap:butt;stroke-linejoin:miter;stroke-miterlimit:4;stroke-dasharray:none;stroke-opacity:1"
         d="m 152.62358,317.14438 c 1.05163,0.21029 2.08243,0.63087 3.15489,0.63087 2.76644,0 7.53183,3.94521 8.20278,1.26178 0.63317,-2.53228 1.07746,-4.84327 4.41688,-5.67798 5.10228,-1.27539 -0.52442,-0.20473 -1.26197,-3.15445 -0.89664,-3.58609 -0.14472,-3.64064 2.52393,-6.30889 0.51677,-0.51671 5.46142,-4.61234 5.67885,-5.04712 0.96946,-1.93865 0.44961,-4.95262 1.26196,-8.20154 1.22302,-4.89134 -3.15492,-0.0371 -3.15492,-5.04713 0,-5.49493 2.26294,-2.63252 3.7859,-5.67798 0.33553,-0.67098 1.4553,-6.93978 2.52394,-6.93978 2.59832,0 6.30769,-1.89374 8.83375,-0.6309 0.99875,0.49931 7.09361,3.91839 6.30981,0 -0.13892,-0.69453 -3.10813,-7.24353 -1.89293,-6.93978 0.98469,0.24613 6.30981,2.84708 6.30981,1.89267 0,-4.92653 1.145,-0.74782 3.15492,1.26178 1.66278,1.66253 6.37048,3.54276 6.94079,1.26178 0.61633,-2.46492 -0.80175,-4.99499 0,-8.20156 0.60469,-2.4184 6.30984,-2.74363 6.30984,-3.15443 0,-4.93729 0.63979,-2.52357 5.04785,-2.52357 4.60689,0 3.84595,1.65251 5.04786,-3.15444 0.57033,-2.28099 8.41309,-2.10296 6.30983,-3.15445 -0.3521,-0.17602 -3.15492,-1.79115 -3.15492,-5.0471 0,-3.15445 0,-6.30888 0,-9.46334 0,-2.86033 3.8033,-10.75992 2.52393,-8.20155 -1.05164,0 -2.10328,0 -3.15492,0 -1.96253,0 -2.52392,-6.56135 -2.52392,-6.93978 0,-1.62486 4.03374,-0.76617 1.89295,-5.04711 -1.41232,-2.82423 -3.15492,-1.83038 -3.15492,-6.30888 0,-3.31792 -3.96132,-3.58378 -5.67884,-3.15445 -4.01402,1.00335 -0.29726,4.03559 -5.67884,0 -3.12425,-2.34285 -2.61724,-3.49322 -6.30982,-4.41623 -1.46404,-0.36595 -4.1834,-3.03772 -5.67884,-3.78533 -1.73441,-0.86708 3.94658,-1.90439 4.41687,-3.78533 1.07143,-4.28505 1.05393,-3.57734 3.78589,-6.30888 2.67792,-2.67753 4.93204,1.49339 6.94081,-2.52356 1.05164,-2.10296 -2.10326,-4.20593 -3.15491,-6.3089 -1.72503,-3.44955 -6.04641,1.99684 -6.30982,2.52356 -1.1345,2.2687 -2.70127,3.50907 -3.7859,5.678 -1.34151,2.68265 -5.50084,-4.23825 -5.67884,-4.41623 -1.70547,-1.70521 -5.3906,-3.01035 -6.9408,-3.78533 -3.57633,-1.7879 0.90965,4.06397 1.26197,4.41623 2.72549,2.7251 0.2342,5.77717 -1.89296,6.30888 -2.76667,0.69157 -3.98782,2.09456 -5.67883,3.78533 -2.70962,2.70923 -2.69471,2.81293 -4.41687,-0.63088 -1.87778,-3.75497 0.67379,-5.17271 -2.52394,-7.57066 -2.3634,-1.7723 0.43137,-6.10931 1.26197,-6.93978 1.13577,-1.13562 -5.11547,-3.99376 -5.67884,-4.41622 -2.18508,-1.63856 -5.07765,3.18423 -5.67885,3.78533 -0.94293,0.94279 0,7.96428 0,9.46333 0,4.53639 -2.49348,0.96154 -4.41688,0 -2.37692,-1.18829 -6.01042,-0.63088 -8.83375,-0.63088 -1.11606,0 -3.20932,3.16805 -5.67884,3.78533 -2.51695,0.62914 -2.66552,1.89266 -6.30982,1.89266 -4.50394,0 -5.04785,-0.14256 -5.04785,4.41622 0,3.87191 -0.89196,4.86214 -3.78591,6.30889 -2.36406,1.18186 -7.08707,1.89267 -1.26196,1.89267 3.69704,0 6.91858,-0.0111 9.46474,1.26178 2.54972,1.27466 -3.52215,2.89073 -4.41687,3.78533 -1.06003,1.05987 -1.57693,6.93871 -1.89295,7.57067 -1.1443,2.28827 -5.76248,-0.54726 -7.57178,1.26178 -0.37668,0.37659 -1.02495,2.04959 -1.26197,2.52355 -1.08777,1.08761 1.05325,7.77449 0.63097,9.46334 -0.67135,2.68503 1.26197,4.75788 1.26197,8.20156 0,2.17968 -6.05393,1.26177 -8.20278,1.26177 -4.00448,0 -6.07477,-0.94002 -6.94081,2.52355 -0.95716,3.8281 -0.49977,6.30889 3.15493,6.30889 2.76641,0 -0.59102,5.51811 -1.26197,8.20155 -0.67584,2.70296 -1.89296,4.50571 -1.89296,7.57066 0,4.15907 1.37745,4.28737 4.41689,5.04713 3.29436,0.82347 2.52392,3.51151 2.52392,6.93976 0,2.35118 -4.64703,1.49192 -6.30981,3.15445 -2.18091,2.18058 -2.13691,3.29747 -0.631,6.30888 1.11201,2.22367 1.89296,4.64634 1.89296,7.57068 0,2.20828 4.72398,2.44679 -0.63097,3.78533 -1.63534,0.40878 -4.01742,3.44951 -4.41688,5.04711 -0.57034,2.28098 4.64703,1.4919 6.30982,3.15445 0.78283,0.78269 0.63098,7.75111 0.63098,8.83244 0,2.60121 5.73218,-0.0533 7.57178,-1.89268 2.68974,-2.68933 4.85711,1.21777 6.30982,3.15445 1.33825,1.78406 4.36493,3.1025 5.67885,4.41623 1.7731,1.77283 6.54406,-2.12686 6.94081,-2.52355 2.51166,-2.51128 3.96796,-1.80166 6.30981,-0.6309 3.55672,1.7781 3.15493,7.35952 3.15493,0.6309 z"
         id="path2210" />
      <path
         style="fill:#cddae0;fill-opacity:1;fill-rule:evenodd;stroke:#ffffff;stroke-width:2.5;stroke-linecap:butt;stroke-linejoin:miter;stroke-miterlimit:4;stroke-dasharray:none;stroke-opacity:1"
         d="m 136.84902,368.24637 c 0.66148,3.86218 2.61341,4.41621 7.57178,4.41621 4.21015,0 3.8696,-0.54718 6.30982,1.89268 1.83519,1.83491 -3.38914,5.28131 -3.78589,5.678 -3.33246,3.33196 2.81434,5.43514 3.78589,5.67799 4.50799,1.12683 0.57337,3.15445 -2.52393,3.15445 -4.67908,0 -5.04785,-0.33801 -5.04785,4.41622 0,4.36967 -3.32853,1.84927 -5.67885,1.26178 -2.05099,-0.51268 -4.97384,-3.41438 -6.30982,-4.41623 -2.05989,-1.54468 -6.95637,-0.63088 -9.46473,-0.63088 -3.15492,0 -6.30982,0 -9.46474,0 -4.03505,0 -6.87226,0.63088 -1.26196,0.63088 2.59815,0 5.29898,1.26178 8.83374,1.26178 2.35649,0 5.45149,1.46355 7.57181,2.52355 2.60703,1.30334 4.00825,2.7459 5.67882,4.41623 1.59513,1.59489 5.65818,1.56689 7.5718,2.52355 2.61947,1.30954 5.64002,0.6212 8.20277,1.26178 3.65095,0.9126 5.70838,2.52355 10.09572,2.52355 3.79686,0 5.49271,0.85329 8.83375,2.52356 2.51709,1.25835 4.91189,3.12046 7.57179,3.78534 2.78093,0.69512 5.60632,2.97859 8.83375,3.78533 2.80147,0.70027 4.18656,2.29328 5.67883,3.78533 2.53042,2.53004 3.95313,3.32166 5.67885,5.04711 2.02332,2.02304 4.01531,3.49856 6.30982,4.41623 3.91209,1.56461 4.69906,0.49766 5.67884,4.41623 0.7309,2.92318 3.05176,6.52721 1.89294,1.89265 -0.87291,-3.49119 1.26198,-5.39299 1.26198,-8.83244 0,-2.6931 4.40522,-3.14279 6.30982,-5.0471 1.13539,-1.13525 -4.66093,-2.76757 -5.67884,-3.78535 -1.78616,-1.78588 2.72966,-5.45851 3.15491,-6.30888 0.99455,-1.98882 2.31822,-4.63578 3.1549,-6.30889 0.0208,-0.0416 6.5207,-2.1035 6.94081,-2.52355 1.68263,-1.68238 1.47229,-5.25742 3.15492,-6.93978 1.29492,-1.29474 0.63097,-6.41509 0.63097,-8.83245 0,-4.67839 -0.33805,-5.04711 4.41688,-5.04711 0.89873,0 5.10374,4.11475 6.30982,4.41623 2.67992,0.66988 0.60084,-4.47651 0,-5.67801 -1.6481,-3.29571 -0.0743,-3.11729 2.52393,-4.41622 0.95226,-0.47605 -3.00682,-6.01275 -3.1549,-6.30889 -1.83882,-3.67708 2.75871,-5.28185 3.78589,-6.30888 2.92149,-2.92106 0.18992,-3.73787 -2.52393,-4.41623 -2.66882,-0.66709 -6.90025,-0.14758 -8.83376,-0.63088 -2.26848,-0.56704 -4.28038,-4.91065 -5.67883,-6.3089 -2.63979,-2.63938 -3.4878,-2.67257 0,-4.41621 2.32694,-1.16331 -0.0533,-5.73133 -1.89295,-7.57067 -2.73857,-2.73815 -2.5984,-3.48851 -6.30982,-4.41621 -4.03168,-1.00778 -2.19669,2.29576 -6.94081,-1.2618 -4.14802,-3.11055 -4.32203,2.27197 -5.67884,-3.15443 -0.77323,-3.09249 -3.78589,3.94096 -3.78589,5.678 0,3.86439 -3.52914,2.52356 -6.94081,2.52356 -3.23738,0 -5.72777,0.64312 -8.20278,1.26177 -1.59141,0.3978 -2.5151,4.88718 -5.67882,5.67801 -1.74603,0.43643 -8.03794,-1.2618 -10.7267,-1.2618 -4.13007,0 -4.67669,-0.89064 -6.94081,-3.15443 -2.64631,-2.64592 -2.04122,-4.75064 -0.63099,-7.57068 1.8242,-3.64783 -2.70265,-4.61861 -4.41686,-5.04711 -2.18543,-0.54627 -3.88001,-3.87941 -5.04787,-5.0471 -0.53946,-0.5394 -1.0843,-1.6262 -1.26197,-1.89268 -0.63097,0.8412 -1.14932,1.78006 -1.89294,2.52358 -1.78261,1.78234 -3.51985,1.66842 -6.94081,2.52355 -3.88975,0.97229 -1.55292,3.05629 -2.52392,6.93976 -0.95221,3.80823 -3.24002,2.60866 -5.67885,5.04713 -0.63248,0.63238 -3.58793,5.20797 -3.15492,6.93978 0.84307,3.37177 3.23076,3.45774 3.7859,5.67798 0.54523,2.1806 0.63099,5.73179 0.63099,8.83246 0,2.8057 1.21236,10.92348 1.89295,8.20155 z"
         id="path2212" />
      <path
         style="fill:#cddae0;fill-opacity:1;fill-rule:evenodd;stroke:#ffffff;stroke-width:2.5;stroke-linecap:butt;stroke-linejoin:miter;stroke-miterlimit:4;stroke-dasharray:none;stroke-opacity:1"
         d="m 273.1412,220.61838 c 2.34807,-2.34774 5.75128,3.85776 8.20276,6.30889 1.98295,1.98266 3.15491,3.90051 3.15491,7.57066 0,0.82585 3.66652,4.17751 4.41688,5.678 1.71871,3.4369 0.75707,5.17318 3.15491,7.57068 1.96437,1.96407 2.67031,3.44713 3.7859,5.67798 1.18944,2.37855 0.45008,6.57802 1.26196,8.20156 1.27939,2.55837 6.17991,0.50099 8.20277,2.52355 1.57745,1.57724 1.57745,4.73167 3.15492,6.30891 2.64067,2.64027 5.07879,-1.92361 6.30982,-3.15446 2.12214,-2.12183 5.98709,-1.65066 8.83374,-3.78532 1.99635,-1.49705 2.89562,1.19695 5.67884,1.89265 3.78018,0.9449 1.59107,3.93625 5.67885,1.89267 2.64908,-1.32435 6.7564,-0.74253 8.83375,-1.26177 2.32651,-0.58155 2.09038,5.09645 4.41688,5.678 0.76724,0.19177 1.17585,7.85717 1.26196,8.20156 0.83072,3.3224 -1.64656,3.97759 -3.78588,5.04711 -3.93961,1.9695 3.45159,4.33264 3.78588,4.4162 2.47711,0.61919 1.51491,7.18999 1.26197,8.20156 -0.67095,2.68343 -5.51894,0.59093 -8.20278,1.26178 -1.59885,0.39966 -3.48825,4.11862 -4.41688,5.04712 -1.40077,1.40056 -1.49879,6.62516 -1.89293,8.20154 -0.68788,2.75109 0,6.6108 0,9.46333 0,2.19528 -3.39435,5.52592 -4.41688,7.57068 -1.73798,3.47545 -2.82402,3.31986 -5.67885,1.89266 -4.17526,-2.08732 -5.17961,1.78872 -5.67882,3.78535 -0.716,2.8635 -5.96982,-0.085 -8.83377,0.63088 -2.0191,0.5047 -3.89344,2.55043 -6.30982,3.15445 -3.10114,0.77516 -1.92715,3.15443 -6.30982,3.15443 -2.73535,0 -4.88939,1.73422 -6.30983,3.15445 -1.57745,1.57722 -1.57745,4.73167 -3.1549,6.30888 -1.5775,1.57727 -5.05103,-1.26337 -6.30984,-1.89265 -3.69917,-1.84932 -4.56225,2.47408 -5.04785,4.4162 -0.50045,2.0015 -3.45472,3.78535 -5.67884,3.78535 -3.43214,0 -2.26608,-0.88871 -5.04786,1.89266 -1.57745,1.57723 -2.20844,4.10079 -3.78589,5.678 -0.29746,0.29741 -0.84132,0 -1.26197,0 -2.08745,2.08714 -5.96981,-0.085 -8.83374,0.63088 -2.58103,0.64517 -4.91134,-2.52355 -7.5718,-2.52355 -3.06363,0 -2.24726,-3.23208 -3.15491,-5.04711 -0.30383,-0.60759 -8.44383,0 -9.46473,0 -3.67295,0 -3.90751,-2.01426 -5.67884,-3.78533 -1.8642,-1.86391 -3.32451,-3.32401 -5.04785,-5.0471 -1.6087,-1.60846 3.78588,-3.4033 3.78588,-5.67801 0,-1.49593 -3.75872,-5.43147 -4.41688,-6.30888 -2.07953,-2.77229 -2.78235,-2.93213 -6.94081,-1.89267 -3.31324,0.82819 -4.9831,-1.82791 -6.30982,-3.15446 -1.82488,-1.82461 -3.67438,-2.55142 -6.30981,-1.89265 -2.38833,0.59699 -0.78317,5.19925 -2.52392,6.93978 -0.94294,0.94279 -7.96548,0 -9.46475,0 -4.61333,0 -4.20805,1.68838 -5.04787,5.04711 -0.69015,2.7602 -4.77665,1.89265 -7.57178,1.89265 -2.8538,0 -5.09208,-1.89265 -8.83374,-1.89265 -3.90638,0 -5.71311,-0.0343 -7.5718,-1.89268 -1.9115,-1.91121 -1.89294,-4.36457 -1.89294,-7.57066 0,-3.21836 -0.24202,-2.76554 -3.15492,-5.678 -2.47061,-2.47025 -3.11748,-3.07959 -4.41687,-5.67801 -1.50058,-3.00071 0.99539,-4.00967 4.41687,-3.15443 3.39234,0.84795 6.12526,0.53862 8.83375,1.89266 1.68263,0.84119 1.19371,-3.71708 2.52394,-5.04711 2.56574,-2.56536 2.97884,-1.43781 0.63098,-3.78533 -2.60251,-2.60212 -0.83891,-5.47009 0.63099,-6.93978 1.95131,-1.95103 2.29423,-3.03961 5.04785,-4.41623 2.17519,-1.08744 1.26197,-5.67641 1.26197,-8.20153 0,-3.72765 -1.03958,-4.1577 -1.89296,-7.57068 -0.45467,-1.81843 2.97399,-4.05443 3.7859,-5.67801 1.39921,-2.79802 1.72816,-3.70293 4.41688,-5.0471 2.88536,-1.44247 5.5607,-1.29132 8.20276,-0.63088 3.94169,0.98527 4.41689,2.20939 4.41689,-3.15445 0,-1.0723 -0.42067,-2.10297 -0.63099,-3.15445 -0.43064,-2.15292 4.7571,-0.34017 6.30984,-1.89266 0.92985,-0.92972 4.8686,4.23701 5.04785,4.41623 2.81945,2.81904 4.41686,1.23946 4.41686,-2.52357 0,-4.34931 -0.13174,-5.54627 1.89296,-7.57066 2.90105,-2.90064 4.35712,1.50073 5.67884,-3.78533 0.66512,-2.66007 5.54232,0.0341 8.20277,-0.6309 3.46551,-0.86624 2.50144,-3.15443 6.94081,-3.15443 1.08482,0 -2.28214,-5.19449 -2.52394,-5.67801 -1.01838,-2.03646 -0.63098,-5.85991 -0.63098,-8.83243 0,-3.43019 1.89294,-3.7904 1.89294,-7.57068 0,-3.81807 3.30389,-2.3286 5.04787,-1.89266 0.94679,0.23665 1.65842,3.15444 6.30982,3.15444 2.82416,0 -0.92135,4.31574 -1.26196,5.678 -1.10887,4.4348 3.19706,3.15445 6.30981,3.15445 2.58388,0 1.24364,-2.53273 5.04786,-0.6309 1.28257,0.6412 4.93418,2.40989 6.30983,3.78533 0.91362,0.9135 1.62426,-2.25489 3.15491,-3.78533 0.58402,-0.58392 8.38355,-0.51836 8.83376,-0.63087 2.43626,-0.60899 -0.95045,-7.1554 -1.26197,-7.57068 -2.57966,-3.43903 -0.71416,-2.52356 3.7859,-2.52356 4.57791,0 0.99666,-5.07935 0,-7.57066 z"
         id="path2214" />
      <path
         style="fill:#cddae0;fill-opacity:1;fill-rule:evenodd;stroke:#ffffff;stroke-width:2.5;stroke-linecap:butt;stroke-linejoin:miter;stroke-miterlimit:4;stroke-dasharray:none;stroke-opacity:1"
         d="m 330.56058,332.28569 c 3.3718,0 -0.63097,6.72293 -0.63097,10.09424 0,2.79999 1.51752,4.02504 0.63097,7.57066 -0.68057,2.72192 5.48044,1.21217 8.20278,1.89267 3.01915,0.75467 -0.631,4.71704 -0.631,6.93978 0,3.54745 -0.2791,2.37802 -1.26196,6.30888 -1.06187,4.24692 0.49084,5.18723 -1.89294,7.57066 -2.18039,2.18007 -3.82765,1.34527 -5.67885,5.04713 -2.25282,4.50495 1.26197,1.99248 1.26197,6.30888 0,2.6519 -3.65851,3.02707 -5.04785,4.41623 -1.05914,1.05896 4.61272,3.15443 -2.52393,3.15443 -2.26462,0 -2.49225,4.98375 -3.15492,6.30888 -0.39565,0.7912 3.6627,3.64714 3.15492,5.67801 -0.68059,2.72192 -5.6929,0.63792 -8.20277,1.89267 -2.42553,1.21258 -3.3097,3.92826 -3.7859,6.30888 -0.29343,1.46692 -4.86433,3.60185 -5.67884,4.41623 -2.67086,2.67047 -3.2592,4.41623 0.63097,4.41623 3.35588,0 5.75049,-0.29755 6.94081,0 1.81744,0.45427 3.56647,5.45859 4.41688,6.30888 2.81909,2.81867 0.57763,4.71833 4.41689,5.67801 3.40198,0.85035 4.57959,2.52355 8.83374,2.52355 1.93913,0 2.41474,-3.04527 3.7859,-4.41623 1.93341,-1.93312 4.83752,3.15445 7.57179,3.15445 2.24273,0 2.51261,5.02449 3.1549,6.30888 1.69055,3.38059 2.52394,3.29912 2.52394,8.20156 0,3.85337 -2.52796,3.79337 -3.7859,6.30888 -0.97665,1.95302 -4.41376,1.25554 -5.67885,3.78533 -1.24179,2.48323 -1.99602,3.99147 -3.1549,6.30891 -1.09947,2.1986 -0.63098,5.86243 -0.63098,8.83243 0,0.68898 -4.37692,0.47111 -5.04787,3.15445 -0.7432,2.97238 -2.95969,3.63552 -3.78588,6.93976 -0.54326,2.17276 -5.64731,1.2618 -8.20278,1.2618 -1.09708,0 -3.19527,-0.67125 -5.67884,-3.15445 -2.00138,-2.00109 -6.37633,-1.26178 -9.46473,-1.26178 -2.35154,0 -1.05165,-5.25742 -3.15491,-6.30888 -1.97566,-0.9877 -2.6864,-4.43512 -3.15491,-6.3089 -0.67095,-2.68343 -5.51894,-0.59091 -8.20278,-1.26178 -2.60329,-0.65073 -3.15491,-3.4603 -3.15491,-6.30888 0,-1.99389 -4.41687,-1.96376 -4.41687,-5.67801 0,-3.5065 0.4413,-4.41622 -4.41688,-4.41622 -2.50135,0 -4.93988,-3.67738 -5.04785,-3.78533 -1.60182,-1.60156 4.70802,-4.12512 6.30981,-2.52356 2.71087,2.71046 3.3814,-0.45289 4.41688,-2.52355 1.98129,-3.96199 -2.47759,-5.68959 2.52393,-6.93978 4.33484,-1.08354 5.14719,0.53159 7.57179,-1.89265 2.37965,-2.3793 -4.17356,-4.19769 -5.04786,-4.41623 -0.13897,-0.0347 -2.91053,-6.06455 -3.15492,-6.30889 -1.48722,-1.48702 3.27579,-3.00694 3.78591,-5.04712 0.57033,-2.28097 -4.20656,-2.10295 -6.30983,-3.15443 -3.92361,-1.96153 2.74812,-5.47464 3.15491,-5.67801 1.34377,-0.67178 -2.94663,-5.4759 -3.15491,-6.30888 -0.52429,-2.09684 4.2312,-7.05109 -1.26196,-5.678 -3.39631,0.84895 -1.84485,3.17848 -5.67885,1.26177 -2.92259,-1.46108 -1.78367,-4.63473 -0.63097,-6.93978 0.95924,-1.9182 -1.78219,-4.2283 -1.26197,-6.30888 0.38917,-1.55646 -1.88935,-5.03272 -2.52393,-7.57068 -0.87963,-3.51797 0.67525,-5.85502 1.26197,-8.20154 0.62032,-2.48093 -5.45463,-2.15206 -6.94081,-2.52357 -2.28132,-0.57023 2.10328,-4.20591 3.15492,-6.30888 1.41442,-2.82842 3.26954,-2.52355 6.94079,-2.52355 3.03044,0 4.01596,-2.35273 5.04787,-4.41623 1.59476,-3.18907 2.32465,-4.20039 5.67883,-2.52355 5.65764,2.82839 4.79315,-0.24309 5.67884,-3.78533 0.43593,-1.74343 5.40066,-3.96171 6.30984,-4.41623 2.23898,-1.11933 6.77691,-0.54896 8.20276,-1.26178 2.26874,-1.13419 3.97508,-2.71271 5.67884,-4.41621 1.85948,-1.8592 5.13423,-1.26177 8.20277,-1.26177 2.38285,0 0.57629,-4.41623 5.04785,-4.41623 3.6369,0 3.419,0.48414 6.94081,1.89265 z"
         id="path2216" />
      <path
         style="fill:#cddae0;fill-opacity:1;fill-rule:evenodd;stroke:#ffffff;stroke-width:2.5;stroke-linecap:butt;stroke-linejoin:miter;stroke-miterlimit:4;stroke-dasharray:none;stroke-opacity:1"
         d="m 346.96612,450.8928 c 3.00191,0 5.37667,-0.60426 6.94081,2.52356 0.98421,1.96813 5.33458,2.036 7.57179,3.15445 3.01047,1.50501 3.17213,3.47418 6.94081,4.41621 5.27645,1.31893 2.52392,-1.88416 2.52392,-5.04711 0,-5.30322 1.43765,-3.42597 5.04786,-2.52355 4.6324,1.15792 5.10058,-1.05092 4.41688,-3.78533 -0.35349,-1.41376 -5.16942,-2.6451 -6.30982,-3.78533 -2.67762,-2.67722 -4.20107,-1.46113 -5.67884,-4.41623 -2.34135,-4.68201 2.49027,-3.78533 5.67884,-3.78533 1.79703,0 3.44053,-1.08913 5.04785,-1.89267 2.10329,-1.05149 2.10329,4.20593 3.15492,6.3089 0.95372,1.90716 5.92176,1.89265 8.83375,1.89265 4.51494,0 5.44159,0.31289 4.41688,-3.78533 -0.6002,-2.40037 -1.25351,-5.01331 -1.89295,-7.57065 -0.59018,-2.36036 -3.3435,-4.79334 -4.41688,-6.93979 -1.04088,-2.08144 -3.87758,-3.87702 -5.04786,-5.0471 -1.83961,-1.83936 5.24485,0.72936 7.57178,1.89265 2.39742,1.19853 4.75759,1.74756 7.5718,3.15445 4.8661,2.4327 5.90925,-0.32372 3.78589,-3.15445 -1.66421,-2.21861 -2.80969,-4.35678 -3.78589,-6.30888 -1.19652,-2.39268 -3.66647,-6.24919 1.26197,-3.78533 3.72601,1.86273 5.83008,3.45686 3.15491,-1.89267 -1.44611,-2.89177 -0.96693,-4.18476 -4.41688,-5.04711 -3.94613,-0.98638 0.40866,-6.71749 0.63098,-6.93978 2.35168,-2.35132 2.5667,-2.52355 6.94081,-2.52355 3.23228,0 2.52392,-3.76157 2.52392,-6.93978 0,-4.91062 0.2579,-4.6672 -3.78589,-5.67801 -2.83147,-0.70776 -1.89294,-4.28463 -1.89294,-7.57066 0,-2.12822 6.49286,-1.26177 8.20276,-1.26177 3.69994,0 6.15388,0.078 8.83376,-1.26178 2.52345,-1.26155 4.88105,-2.98767 6.30981,-4.41623 1.9349,-1.9346 3.79501,-2.52811 6.30982,-3.78533 2.74676,-1.37318 3.13207,-3.24585 2.52395,-5.678 -0.78674,-3.14647 -2.83984,-3.6274 1.26196,-5.67801 4.09869,-2.04902 -2.21295,-4.81163 -3.15492,-5.0471 -1.29147,-0.32282 -5.15657,2.70846 -6.94081,3.15445 -0.743,0.18572 -3.79828,-5.0595 -4.41687,-5.678 -1.99352,-1.99322 0.0111,-3.741 -0.63098,-6.30889 -0.50071,-2.00251 -4.24714,-3.06959 -5.67884,-3.78533 -2.26101,-1.13035 -4.94482,-4.81213 -6.94081,-6.3089 -2.48355,-1.86239 -3.61199,-3.69838 -6.30982,-5.0471 -2.35985,-1.17976 -4.54975,-3.91818 -6.30982,-5.67801 -2.15206,-2.15173 0.0794,-3.43022 -4.41688,-5.67798 -4.71854,-2.35893 -4.09498,-4.10718 -1.26196,-6.93978 2.43588,-2.43552 -0.38722,-6.69606 -1.26197,-7.57068 -2.48627,-2.48589 -3.13414,-1.85112 -3.78589,-3.15443 -1.30049,-2.6006 -0.0448,-3.83011 -2.52393,-6.30891 -1.9115,-1.91121 -1.89295,-4.36457 -1.89295,-7.57066 0,-2.17471 -6.72988,-0.63087 -8.20277,-0.63087 -5.45149,0 -2.15093,-0.40088 -3.15491,-4.41623 -0.57631,-2.30492 -3.78816,-3.15671 -5.04786,-4.41623 -2.32067,-2.32033 -5.15956,-0.89049 -6.94081,0 -2.82463,1.41212 -1.83064,3.15445 -6.30982,3.15445 -0.84131,0 -1.68261,0 -2.52393,0 0.0522,0.26089 0.89036,3.37885 0.631,4.41623 -0.5518,2.20677 -4.80333,3.64342 -3.78591,5.67798 0.44537,0.89062 0.61345,1.24424 3.15491,3.78533 1.94591,1.94563 1.89296,3.43185 1.89296,7.57068 0,4.37046 -2.34785,3.15443 -6.30984,3.15443 -5.97936,0 -3.33912,0.8151 -6.30981,3.78535 -1.94557,1.94526 -2.52393,2.80189 -2.52393,6.93976 0,2.28166 0.99432,7.47498 0,9.46334 -0.90227,1.80426 -3.22614,4.07022 -3.78589,6.3089 -0.50244,2.00939 -2.63313,5.24129 -2.52393,5.67798 0.58931,2.3569 0.64585,5.61853 0,8.20156 -0.8686,3.47387 1.89294,4.9305 1.89294,6.93978 0,6.34308 0.55527,1.18608 3.78588,4.41623 2.18054,2.18021 1.6572,2.20469 0.631,6.30888 -0.69858,2.79388 -1.26197,5.31054 -1.26197,8.20156 0,3.0471 0.5219,6.36341 -1.89295,7.57066 -1.44708,0.72344 -5.14909,2.74957 -4.41687,5.678 0.75852,3.03363 3.0944,3.84584 0,6.93978 -1.89649,1.8962 -2.77969,4.04107 -4.41688,5.67801 -0.171,0.17096 -5.20795,5.35788 -5.04785,5.67798 0.42157,0.84304 4.59054,4.98341 4.41686,5.67801 -0.70461,2.81808 -1.00984,2.52355 -6.30982,2.52355 -1.72288,0 -6.86262,1.10543 -7.57178,2.52355 -0.32865,0.6572 -1.77773,6.1937 -2.52392,6.93978 -0.79003,0.78991 -6.03979,4.41623 -0.631,4.41623 3.53281,0 5.5373,-0.14153 7.57179,1.89267 1.86507,1.86479 2.4781,3.06278 3.7859,5.67799 1.1866,2.37286 2.63836,4.47344 5.04786,5.678 0.51263,0.25628 6.50077,2.96353 8.20277,1.26178 0.39674,-0.39669 4.1883,-5.27565 5.04786,-4.41623 0.72426,0.72416 5.45242,3.51072 5.67884,4.41623 0.57121,2.2845 3.75054,4.90573 4.41687,7.57068 0.71599,2.8635 -2.32111,8.83243 0.63098,8.83243 z"
         id="path2218" />
      <path
         style="fill:#cddae0;fill-opacity:1;fill-rule:evenodd;stroke:#ffffff;stroke-width:2.5;stroke-linecap:butt;stroke-linejoin:miter;stroke-miterlimit:4;stroke-dasharray:none;stroke-opacity:1"
         d="m 273.77217,443.32215 c 1.4368,-5.74628 2.10682,-1.46501 -0.63097,-6.93979 -1.97822,-3.95587 0.90712,-4.41622 -5.04786,-4.41622 -1.64272,0 -3.05125,-1.68538 -3.78589,-3.15445 -0.9999,-1.99947 4.95914,-2.87836 4.41686,-5.04711 -0.95856,-3.83372 -0.85702,-4.64222 -3.1549,-6.93978 -2.07434,-2.07403 -2.42721,-3.39851 -3.15492,-6.30888 -0.58162,-2.32615 3.34441,-3.53339 4.41689,-5.67801 1.79869,-3.59687 -2.43672,-5.0471 -5.04787,-5.0471 -3.65914,0 -4.88052,-1.22341 -5.67884,-4.41623 -0.63959,-2.55797 -4.28248,-3.90947 -6.30982,-4.41621 -0.22341,-0.0558 -1.21571,8.01659 -1.26197,8.20156 -0.67095,2.68341 -5.43634,-1.2618 -8.20278,-1.2618 -0.23163,0 -5.17075,3.53134 -5.67882,3.78535 -3.07865,1.5391 -3.29467,3.29417 -5.04787,5.04711 -1.98614,1.98583 -4.17656,2.42591 -6.30982,1.89265 -1.99621,-0.49897 -0.63097,-5.78207 -0.63097,-8.20154 0,-1.98393 4.5666,-1.22974 5.04785,-3.15445 0.68788,-2.75109 0,-6.61079 0,-9.46333 0,-4.39227 -0.88316,-5.678 3.78589,-5.678 4.3841,0 4.90333,0.48639 6.94081,2.52355 3.79365,3.79311 1.96964,-5.52462 1.89293,-5.67799 -1.48692,-2.97344 -3.35473,-2.00043 1.26197,-3.15445 4.49562,-1.12374 -1.76864,-6.1846 -1.89294,-6.30888 -3.23863,-3.23815 -1.25215,-3.79516 0.63097,-5.678 2.65974,-2.65933 2.5106,-3.79867 5.67885,-0.6309 0.96297,0.96284 5.32949,2.75167 6.94081,3.15445 2.97011,0.74241 7.01502,0 10.09571,0 3.01415,0 6.77448,0.11613 8.83376,0.6309 0.53704,0.13423 -3.03343,6.69683 -3.15492,6.93976 -1.44347,2.88652 2.00816,6.13876 2.52393,8.20156 0.59499,2.37955 1.1992,4.79608 1.89296,7.57067 0.67019,2.68039 1.14922,6.08343 1.89295,7.57066 0.94529,1.89033 4.4192,-1.57604 6.30981,-0.63089 0.85879,0.42933 -0.27155,5.40649 0.63098,6.3089 2.87129,2.87085 2.68702,3.62227 0.63099,5.67798 -2.35915,2.35883 -1.26197,4.91168 -1.26197,5.67801 0,1.78443 3.35306,2.05419 3.7859,3.78533 0.39233,1.5691 -2.15541,3.8914 -0.63099,6.93978 1.52959,3.05872 2.51706,3.14758 4.41688,5.0471 1.50521,1.50499 7.2693,2.28374 1.26196,3.78535 -2.6688,0.66709 -6.90023,0.14758 -8.83375,0.63088 -0.3275,0.0819 0,8.60868 0,9.46333 0,3.28243 -6.93196,-0.50295 -7.57179,-0.63087 z"
         id="path2220" />
      <path
         style="fill:#cddae0;fill-opacity:1;fill-rule:evenodd;stroke:#ffffff;stroke-width:2.5;stroke-linecap:butt;stroke-linejoin:miter;stroke-miterlimit:4;stroke-dasharray:none;stroke-opacity:1"
         d="m 269.98627,478.02103 c 0,2.54101 4.39943,-3.15445 6.94081,-3.15445 3.01416,0 6.77448,-0.11615 8.83376,-0.63088 2.06843,-0.51703 -1.26932,-5.04713 4.41687,-5.04713 0.91462,0 -3.6325,-4.63232 -4.41687,-5.67798 -1.93908,-2.58507 -1.04653,-4.30854 -3.7859,-5.678 -2.22504,-1.11237 -2.08811,-5.82769 -2.52392,-7.57068 -0.63098,-2.52356 -5.73218,-0.0533 -7.57179,-1.89266 -2.96677,-2.96633 -2.67845,-3.15445 1.89294,-3.15445 2.95209,0 -0.085,-5.96892 0.63098,-8.83244 0.41445,-1.65752 -3.55482,-4.18518 -4.41688,-5.0471 -1.57745,-1.57724 -4.73236,-1.57724 -6.30981,-3.15445 -1.69572,-1.69547 5.09721,-2.09006 5.67884,-4.41623 0.12144,-0.48571 -3.43181,-4.96993 -3.78589,-5.678 -1.59446,-3.18844 -1.46027,-4.6145 -3.7859,-6.93977 -1.48869,-1.48849 3.29937,-5.33598 3.7859,-6.3089 1.60556,-3.21063 2.52185,-3.31268 -1.89295,-4.41621 -3.06506,-0.76616 -5.77752,-1.36045 -7.57179,-3.15445 -2.34595,-2.34561 -3.88606,-4.49134 -6.30982,-6.30888 -2.08128,-1.56075 -0.72947,5.24405 -1.89294,7.57066 -0.0105,0.0209 -8.82639,0.62905 -8.83377,0.6309 -0.89464,0.22363 -5.98699,2.04672 -6.94079,2.52355 -1.68521,0.84247 -2.69424,5.21738 -3.78591,6.30888 -2.56958,2.56921 -6.5905,-1.12257 -6.94079,-2.52355 -0.9093,-3.63667 -3.6617,-0.75507 -5.04787,0.63088 -1.44522,1.44501 -1.86733,5.62678 -2.52392,6.93978 -1.39762,2.79482 -4.94438,-0.21704 -3.7859,4.41623 0.51438,2.05725 5.36367,2.12932 6.94081,2.52355 3.41282,0.85307 -5.54833,2.49092 -5.67884,2.52355 -2.86395,0.71589 0.085,5.96893 -0.63098,8.83246 -0.3103,1.24098 -0.3207,2.54433 -0.63099,3.78533 -0.58162,2.32614 2.72116,-3.98254 4.41688,-5.67801 2.82987,-2.82945 2.53711,-4.40962 6.30982,-2.52355 3.27259,1.63605 3.26077,3.99281 2.52393,6.93978 -0.57714,2.30819 3.1442,3.61957 5.04785,5.04711 3.69202,2.76859 6.06625,4.17267 8.83377,6.93978 2.16142,2.1611 4.65684,6.54883 6.30982,8.20156 2.63007,2.62968 3.27295,-0.74893 5.67884,-3.15446 2.5102,-2.50983 0.2168,-3.56857 5.67885,1.89268 1.96183,1.96154 4.41661,3.62741 6.30981,5.04711 0.82343,0.61746 0,8.94577 0,10.09421 0,2.25323 4.80703,2.28275 6.30982,3.78533 1.79004,1.78978 1.35268,4.55229 2.52392,6.3089"
         id="path2222"
         sodipodi:nodetypes="csssssssssssssssssssssssssssssssssssssssssc" />
      <path
         style="fill:#cddae0;fill-opacity:1;fill-rule:evenodd;stroke:#ffffff;stroke-width:2.5;stroke-linecap:butt;stroke-linejoin:miter;stroke-miterlimit:4;stroke-dasharray:none;stroke-opacity:1"
         d="m 403.75454,424.39548 c 0.63097,1.47207 1.26197,2.94414 1.89294,4.41621 0.756,1.76372 8.51049,1.65413 9.46473,1.89267 2.28133,0.57024 -5.25817,1.05148 -6.30982,3.15445 -1.12387,2.24741 1.91938,5.73086 2.52394,6.93976 1.18845,2.37658 0.63097,6.00955 0.63097,8.83246 0,3.17531 0.63099,5.75426 0.63099,9.46333 0,4.75978 0.92359,4.17392 4.41688,5.04711 2.97947,0.74475 2.60591,4.4982 4.41686,6.30888 2.2858,2.28546 1.44473,5.22985 3.15492,6.93978 2.00979,2.00949 1.26196,6.00113 1.26196,8.83246 0,4.20068 4.41083,1.26328 6.94081,0.63087 1.0319,-0.25792 4.9836,4.68348 6.30982,5.67801 1.44745,1.08542 3.3313,1.70721 4.41688,3.15445 2.483,3.31015 -4.76303,3.5564 -5.67885,3.78533 -2.5567,0.63907 3.14673,4.38344 3.7859,6.93978 0.11231,0.44916 -3.02087,3.51729 -3.7859,5.04711 -1.06303,2.12575 -0.63097,5.84018 -0.63097,8.83243 0,4.60806 -2.21297,2.36358 -4.41688,1.26178 -3.3866,-1.69305 -3.76638,-2.54306 -6.30982,0 -0.73667,0.73657 -7.2417,1.26177 -8.20276,1.26177 -1.67232,0 3.10302,6.88792 3.15489,6.93979 1.92784,1.92754 4.6849,1.52974 6.30984,3.15445 2.73237,2.73196 5.69565,3.14604 1.89294,5.0471 -3.63696,1.81822 -6.30982,-2.57693 -6.30982,3.15445 0,4.34931 -0.13176,5.54627 1.89295,7.57066 2.69014,2.68977 3.83323,4.5109 5.04786,6.93978 1.81098,3.62145 5.35439,-1.22598 3.78588,5.04711 -0.88184,3.52687 -5.02348,2.52355 -8.20277,2.52355 -2.85048,0 -5.04785,5.70103 -5.04785,7.57068 0,4.7724 1.88878,6.93768 5.67884,8.83244 1.03128,0.51557 6.25571,7.46244 6.94079,8.83243 1.20833,2.4163 0.93411,2.82665 3.15493,5.04713 2.87818,2.87774 1.04113,4.41621 6.30981,4.41621 3.1316,0 4.52398,2.32102 5.04788,4.41622 2.08212,0 -4.41689,2.33441 -4.41689,4.41623 0,2.59936 -3.64458,2.45779 -2.52392,6.93978 0.41885,1.67521 -1.26197,5.1246 -1.26197,8.20154 0,0.34242 -5.97847,3.45403 -6.30984,3.78535 -1.04923,1.04908 -6.86579,-1.85519 -8.20275,-2.52357 -4.3244,-2.16186 -4.57455,2.52321 -5.04788,4.41622 -0.65582,2.62294 4.23105,4.23042 5.67885,5.67801 2.98271,2.98227 4.90947,5.0471 -0.63097,5.0471 -3.03044,0 -4.01596,2.35273 -5.04788,4.41623 -1.88893,3.77729 -4.34567,-3.01207 -5.04785,-4.41623 -1.80888,-3.61722 -4.41688,2.64409 -4.41688,4.41623 0,0.84119 0,1.68236 0,2.52355 0,0.92113 -4.22089,-2.42558 -8.20277,-4.41622 -2.57985,-1.28974 -3.98941,-3.93795 -6.30982,-5.67799 -2.75707,-2.06751 -3.86182,-3.86126 -5.67885,-5.678 -2.27297,-2.27266 -3.42061,-3.28728 -5.67882,-4.41623 -2.55289,-1.27625 -3.54331,-3.9795 -5.67885,-5.04711 -2.59997,-1.29979 -3.93317,-3.3017 -5.67884,-5.0471 -1.95985,-1.95958 -4.2782,-4.03146 -6.30982,-5.04713 -3.16494,-1.58223 -6.53779,-3.95628 -8.83376,-5.67798 -2.52918,-1.89661 -5.81615,-3.53855 -7.57178,-4.41623 -3.49706,-1.74828 -4.07873,-3.30084 -7.57178,-5.04711 -4.58254,-2.29093 -3.68615,-2.86394 -2.52394,-3.15445 2.49072,-0.62258 -4.01349,-3.26823 -6.30982,-4.41622 -2.04858,-1.02414 -4.60991,-3.14148 -6.30982,-4.41621 -2.1479,-1.61069 -4.19314,-2.46763 -6.94081,-3.15445 -1.79102,-0.44769 -3.93873,-3.23085 -6.30982,-4.41623 -2.51359,-1.2566 -5.03438,-4.40274 -6.30982,-5.678 -1.86694,-1.86666 -4.46271,-2.8619 -6.30983,-3.78533 -2.5845,-1.29205 -3.78589,-2.89461 -3.78589,-6.30889 0,-2.35118 6.30982,0.80327 6.30982,3.15445 0,0.73209 5.97745,2.98827 6.30982,3.15444 1.9656,0.98265 4.41077,2.5205 6.94081,3.78533 1.23536,0.61759 3.7804,4.09804 5.67883,5.04712 2.26714,1.1334 3.95951,2.69712 5.67884,4.41621 2.33473,2.33437 1.98073,3.15445 6.30982,3.15445 4.41573,0 4.26052,1.10543 6.30984,3.15445 1.76109,1.76083 4.36637,3.44464 6.30982,4.41621 1.51881,0.7593 0.20383,-0.40758 1.89296,-3.78533 1.18844,-2.37657 0.63097,-6.00953 0.63097,-8.83244 0,-4.04169 -0.84144,-5.32769 -2.52393,-7.57067 -1.42309,-1.89715 -2.69882,-3.50415 -3.78589,-5.67799 -1.65196,-3.30343 -0.79484,-3.76094 0,-6.93978 0.82696,-3.30736 -2.0321,-3.85971 -1.26196,-6.93978 0.48124,-1.9247 2.26752,-3.27262 3.1549,-5.04711 1.27381,-2.54721 -6.07693,-2.32452 0.63098,-5.678 3.87613,-1.93777 4.64854,-3.48969 3.7859,-6.93978 -0.54226,-2.16873 3.87461,-2.87838 4.41688,-5.04711 0.81196,-3.24737 -0.46893,-6.61572 -1.26197,-8.20155 -0.95576,-1.91125 -4.59787,-2.72652 -6.30982,-3.15446 -1.47484,-0.36865 -3.43906,-3.69862 -6.30983,-4.4162 -2.45706,-0.61418 -2.78256,-4.54552 -5.04785,-5.67801 -2.54103,-1.27032 -3.94919,-2.85008 -5.04786,-5.0471 -0.86071,-1.72117 -4.01914,-4.01855 -5.67884,-5.67801 -1.85587,-1.8556 -3.00728,-3.00683 -5.67885,-5.678 -3.66347,-3.66292 -1.04867,-3.58097 -0.63097,-4.41621 1.24513,-2.48992 5.64203,2.03985 6.94079,-3.15445 0.58044,-2.32135 2.52311,-3.78206 3.15491,-6.30888 0.5949,-2.37925 5.2129,-1.5918 6.30982,-3.78535 0.94531,-1.89032 -1.14363,-4.25853 -0.63097,-6.30889 0.62582,-2.50292 2.23988,-4.76309 3.7859,-6.30888 1.93292,-1.93264 2.87224,-3.32858 5.04785,-4.41623 2.69993,-1.34975 3.19068,-2.54143 5.67884,-3.78533 1.80152,-0.90061 5.2064,5.00828 6.94081,6.30889 2.20958,1.65694 5.52177,1.89267 8.83375,1.89267 1.92774,0 6.59063,2.03305 7.5718,2.52355 2.50986,1.25474 -0.63802,-5.69205 -1.89296,-8.20155 -1.41092,-2.82142 6.30983,0 9.46474,0 4.8499,0 -1.00786,-4.79304 -1.89296,-5.67801 -1.47136,-1.47115 -4.95037,-2.47481 -6.30982,-3.15443 -2.27245,-1.13606 -3.33445,-2.8826 -4.41688,-5.04712 -0.93898,-1.87772 6.75679,-1.26178 8.20278,-1.26178 3.43227,0 5.67884,-2.3779 5.67884,2.52355 0,2.15052 7.19016,1.2618 8.83374,1.2618 4.67911,0 5.04788,0.33799 5.04788,-4.41623 0,-2.54074 -1.80718,-4.96135 -3.15492,-6.30888 -1.26395,-1.26377 -2.59579,-5.35323 -3.78589,-6.93978 -1.74721,-2.32929 -3.36529,-3.57514 -4.41688,-5.67801 -1.12457,-2.24881 4.48017,1.95596 5.04786,2.52356 2.07757,2.07727 2.61647,3.20071 5.04786,4.41622 2.75413,1.37685 6.73576,0.78465 9.46474,-1.26177 z"
         id="path2224" />
      <path
         style="fill:#cddae0;fill-opacity:1;fill-rule:evenodd;stroke:#ffffff;stroke-width:2.5;stroke-linecap:butt;stroke-linejoin:miter;stroke-miterlimit:4;stroke-dasharray:none;stroke-opacity:1"
         d="m 343.81121,561.92924 c 2.97448,1.48702 -4.97649,-4.87156 -8.20278,-5.67801 -3.96655,-0.99148 -5.83776,0.31783 -6.94079,2.52356 -0.71728,1.43435 5.15906,3.52549 5.67884,3.78534 2.14492,1.07231 -3.35235,3.83468 -5.67884,4.41621 -2.59961,0.64981 -4.51817,-3.25572 -5.67884,-4.41621 -2.96637,-2.96592 -3.84695,0.3867 -5.04786,-4.41622 -1.13827,-4.55242 -0.21971,-5.30764 -3.7859,-4.41623 -1.90825,0.477 -3.37236,6.11284 -3.78589,6.93978 -0.90414,1.80804 -4.41689,-5.29494 -4.41689,-6.93978 0,-2.98719 -4.17842,-0.93902 -5.04785,-4.41621 -0.48094,-1.92347 -6.11742,-4.95094 -7.57178,-5.678 -3.12969,-1.56463 -4.97585,-2.50555 -7.57179,-3.15445 -2.31404,-0.57843 -4.33238,-2.48131 -6.9408,-3.78533 -1.8528,-0.92626 2.02152,3.66866 2.52392,5.678 0.19448,0.77782 6.55611,3.49685 6.94081,3.78533 2.25614,1.69185 1.89294,4.79525 1.89294,5.678 0,2.635 -4.58362,-2.60693 -6.94081,-3.78535 -2.71537,-1.35748 -3.75776,-1.86453 -5.67882,-3.78532 -2.01519,-2.01487 -3.25637,-2.72642 -4.41688,-5.04711 -1.48198,-2.96351 -3.55109,-4.18145 -5.67885,-6.30888 -1.86477,-1.86451 -3.41104,-4.04143 -5.04786,-5.67801 -1.74078,-1.74051 1.92685,-4.55181 2.52393,-6.93978 0.17047,-0.6818 -4.80649,-6.06755 -5.04785,-6.30888 -2.64206,-2.64166 -0.87788,-4.05973 -0.63099,-5.04711 0.54227,-2.16874 4.2175,2.34063 5.04787,4.41621 1.58316,3.95737 5.52471,4.85087 8.83375,5.67801 2.81343,0.70325 3.972,2.79247 7.57178,1.89267 4.13641,-1.03395 -0.58226,-5.04713 -3.1549,-5.04713 -4.5245,0 -3.98758,-4.64381 -3.15493,-6.30888 1.05164,-2.10297 4.83754,-0.21029 6.94081,-1.26177 0.23776,-0.11885 -5.35517,-3.62353 -5.67884,-3.78533 -2.33636,-1.16802 -4.08339,-2.0414 -6.30982,-3.15446 -3.39064,-1.69506 -3.4228,-2.25569 -1.26196,-4.4162 1.69336,-1.69313 6.56647,-0.88751 8.83374,-3.15445 1.43018,-1.42995 5.3351,0 8.83376,0 4.79437,0 -0.16322,-3.35297 -1.89295,-3.78533 -2.75149,-0.68778 -6.61176,0 -9.46474,0 -4.68357,0 -4.79124,-0.37433 -6.9408,-2.52356 -1.88122,-1.88095 1.33414,-5.19143 2.52392,-7.57068 0.44294,-0.8857 4.0999,-2.99598 5.67885,-3.78533 2.60077,-1.30019 3.74437,-1.89265 8.20277,-1.89265 4.1843,0 3.86768,-1.58888 4.41688,-3.78535 0.15583,-0.62324 2.6921,-3.8694 3.78589,-4.41621 3.65969,-1.82957 4.41689,1.19987 4.41689,4.41621 0,2.39487 2.99587,2.51841 3.78589,5.678 1.03143,4.12518 1.59505,3.15446 6.30981,3.15446 1.62717,0 3.85073,2.53975 6.30982,3.15443 2.42303,0.60567 3.83187,2.70736 4.41688,5.04712 0.87959,3.51781 1.95764,3.85 3.7859,5.67799 2.48127,2.48092 4.09075,3.30687 6.30982,4.41622 2.03949,1.0196 4.81204,3.54955 6.30983,5.04711 2.23508,2.23477 3.51206,2.7894 5.67885,5.67801 1.5774,2.1029 3.20719,3.83762 5.04785,5.678 1.32272,1.32254 4.3176,2.65646 6.30982,3.15445 2.41303,0.60316 3.29952,3.73278 3.78589,5.67798 0.78452,3.13762 0.56398,5.81199 -0.63098,8.20156 -1.25644,2.5125 -3.15491,0.86047 -3.15491,6.30888 0,0.21635 -5.93794,3.41351 -6.30982,3.78535 -0.73635,0.73623 0.0798,4.88754 -0.63099,6.30889 -1.19071,2.38107 -1.26197,4.7063 -1.26197,8.20155 0,1.07576 1.06937,5.346 1.26197,6.30889 z"
         id="path2226" />
      <path
         style="fill:#cddae0;fill-opacity:1;fill-rule:evenodd;stroke:#ffffff;stroke-width:2.5;stroke-linecap:butt;stroke-linejoin:miter;stroke-miterlimit:4;stroke-dasharray:none;stroke-opacity:1"
         d="m 442.24446,506.41103 c 0,3.05252 6.0569,-3.53247 6.30982,-3.78535 0.24017,-0.24012 6.09522,6.09433 6.30982,6.3089 1.92783,1.92753 3.42292,2.79152 5.04787,4.41621 2.07791,2.07763 2.89809,3.44298 5.04785,6.3089 1.61421,2.15197 3.79106,3.15961 5.67885,5.04711 1.92782,1.92753 2.16094,4.0533 3.78588,5.678 2.5739,2.57352 4.41688,2.33439 4.41688,6.93976 0,2.5152 1.72936,5.35087 2.52393,6.93979 1.34922,2.69805 1.62744,5.87792 2.52393,9.46333 0.6544,2.61721 3.04438,4.60506 3.78589,7.57068 0.90414,3.61602 2.71283,3.78533 6.94081,3.78533 2.63234,0 5.10918,3.39967 5.67885,5.678 0.74716,2.98824 -1.55808,5.04711 -4.41688,5.04711 -5.00698,0 -1.26773,5.04135 0,6.30888 1.91145,1.91118 2.13826,4.6615 3.78588,6.30888 1.32893,1.32873 2.24891,6.38981 3.15493,8.20156 1.77369,3.54689 0.86505,4.41623 5.67882,4.41623 4.12015,0 6.08462,1.03661 8.20277,3.15445 3.39632,3.39579 2.40924,4.15811 -0.63097,5.67798 -2.47265,1.23614 -4.67441,1.26178 -8.20277,1.26178 -3.15492,0 -6.30982,0 -9.46474,0 -4.43192,0 -3.47223,1.73587 -6.30982,3.15445 -3.21036,1.60495 -5.6661,-1.57404 -9.46473,-2.52355 -3.85046,-0.96247 -3.05426,-3.20477 -6.94081,-1.26178 -3.00528,1.50242 -2.30756,3.86349 -5.67885,-0.6309 -1.26202,-1.68246 -3.21307,-4.64884 -3.78588,-6.93976 -0.3826,-1.53015 -4.61586,-3.25393 -5.67885,-3.78535 -2.23093,-1.11529 -3.48542,0 -7.57178,0 -4.3501,0 -4.71811,1.83563 -5.04785,3.15445 -0.5518,2.2068 -3.40381,-3.78533 -5.67885,-3.78533 -1.94957,0 -4.46878,-3.20634 -5.67884,-4.41622 -1.89106,-1.89078 -2.52444,-3.78736 -3.15493,-6.30889 -0.68071,-2.72248 -3.72927,-4.18981 -4.41686,-6.93978 -0.33913,-1.35629 -4.8197,-3.35582 -5.67884,-3.78533 -3.22597,-1.61275 -3.31158,-1.89698 -2.52393,-5.0471 0.98905,-3.95567 -0.35456,-5.32351 1.89294,-7.57068 1.52661,-1.52637 6.64809,-0.63088 8.83375,-0.63088 3.84099,0 1.908,-6.24865 1.89294,-6.3089 -0.3706,-1.48219 -4.33775,-4.8889 -5.04785,-6.30888 -0.99078,-1.98129 -3.12314,-3.75357 -4.41688,-5.04711 -1.99189,-1.99161 -1.16329,-5.44175 -0.63097,-7.57066 0.67095,-2.68344 5.72839,-0.0248 8.20276,-1.2618 0.26064,-0.13028 -3.65552,-5.54763 -3.78588,-5.67798 -1.47101,-1.4708 -5.40935,-1.62321 -6.94081,-3.15445 -1.73634,-1.73608 -1.74743,-4.27073 -3.78589,-6.30888 -2.79248,-2.79207 0.61729,-0.6309 3.78589,-0.6309 3.29683,0 6.48394,0.1142 9.46474,-0.63088 1.8198,-0.45489 3.78857,3.15511 6.30982,3.78533 3.40355,0.85076 1.89294,-3.00353 1.89294,-6.30888 0,-3.67128 -0.63099,-5.37704 -0.63099,-8.83246 0,-1.80903 3.00406,-2.02435 4.41689,-3.15443 z"
         id="path2246" />
      <path
         style="fill:#cddae0;fill-opacity:1;fill-rule:evenodd;stroke:#ffffff;stroke-width:2.5;stroke-linecap:butt;stroke-linejoin:miter;stroke-miterlimit:4;stroke-dasharray:none;stroke-opacity:1"
         d="m 452.97116,693.78501 c 0,-3.29087 5.85994,-3.15445 9.46473,-3.15445 3.36525,0 6.73047,0 10.09571,0 1.99514,0 -0.59816,-7.4394 -0.63097,-7.57066 -1.09199,-4.36728 1.69963,-4.99879 4.41686,-5.678 1.21679,-0.30416 0.47931,-6.51059 1.89296,-7.57066 1.81222,-1.35898 -3.07335,-4.11157 -2.52393,-6.30891 0.82568,-3.30227 9.29823,-1.34501 3.15491,-4.4162 -3.52026,-1.75987 -1.42851,-1.55967 0,-4.41623 1.3037,-2.60702 2.63576,-5.78982 4.41687,-7.57066 1.79957,-1.79932 2.67401,-6.2782 3.15492,-8.20156 0.58162,-2.32616 -3.98313,-2.72076 -5.67885,-4.41623 -2.10344,-2.10313 -3.95973,-2.69737 -5.67884,-4.41622 -2.08213,-2.08183 5.88916,0 8.83376,0 2.28312,0 4.88065,-2.98725 6.30982,-4.41621 1.70163,-1.7014 1.26197,-5.55204 1.26197,-8.20156 0,-4.27069 -2.70731,-3.04256 -5.67885,-3.78533 -3.27776,-0.81933 -3.00151,-3.15445 -6.9408,-3.15445 -3.48006,0 -6.68049,0.81619 -7.57179,1.26178 -2.19385,1.09677 -2.05149,-4.57474 -3.7859,-6.30889 -2.46396,-2.46361 -2.98437,-4.33097 -5.67883,-5.678 -2.90048,-1.45002 -3.59525,-2.52355 -7.57179,-2.52355 -2.17041,0 -6.59723,0.86045 -8.20277,1.26177 -0.74724,0.18679 0.55706,6.16965 -2.52393,6.93978 -1.32202,0.33046 -2.87714,5.19796 -3.15492,6.30889 -0.68787,2.75109 0,6.61079 0,9.46333 0,2.635 -5.76221,1.42852 -6.94081,3.78533 -0.72975,1.45933 -5.75183,-1.43775 -7.57178,-1.89267 -2.91142,-0.72774 -3.44038,1.40449 -5.67885,2.52357 -3.68739,1.84342 3.16537,4.10599 3.7859,4.41621 2.58514,1.29238 4.43673,3.82502 5.67885,6.3089 1.2341,2.46784 -6.02052,2.2935 -6.94081,2.52355 -1.55966,0.38985 -3.50663,4.137 -4.41686,5.04711 -1.73443,1.73414 -2.0515,-4.57474 -3.7859,-6.30888 -1.54776,-1.54754 -3.43046,3.6255 -3.78591,5.0471 -0.2667,1.06667 0,2.66266 0,3.78533 -0.67701,2.70766 7.01617,8.27691 8.20278,9.46333 2.97088,2.97044 4.07711,4.07653 6.30983,6.30889 2.21688,2.21657 5.088,3.18455 7.57178,5.04712 2.0113,1.50824 3.97116,2.7088 5.67884,4.41621 2.5333,2.53291 3.79606,5.05981 6.30982,8.20156 1.37149,1.7141 1.26197,5.99633 1.26197,8.83245 0,1.91782 5.26557,4.62835 6.94081,5.04711 z"
         id="path2248" />
      <path
         style="fill:#cddae0;fill-opacity:1;fill-rule:evenodd;stroke:#ffffff;stroke-width:2.5;stroke-linecap:butt;stroke-linejoin:miter;stroke-miterlimit:4;stroke-dasharray:none;stroke-opacity:1"
         d="m 490.19911,744.25611 c 0,3.18237 0.49001,-6.37599 1.26197,-9.46333 0.71844,-2.87334 0.88789,-5.44373 1.26195,-6.93978 0.30567,-1.22243 -1.20767,-5.26423 -0.63097,-7.57066 0.0913,-0.36516 9.02154,0 10.09571,0 5.68219,0 4.5891,-1.43398 5.04786,-1.89268 1.74077,-1.7405 -2.52393,-4.47832 -2.52393,-6.93976 0,-4.61448 0.52456,-5.04713 5.04786,-5.04713 3.69994,0 6.15388,-0.0779 8.83376,1.26178 2.53509,1.26737 7.09179,0.6309 10.09571,0.6309 1.69571,0 -3.28227,2.89975 -2.52393,4.41623 1.2963,2.5922 4.6678,1.51266 6.94081,3.78533 1.37116,1.37095 3.0457,2.41437 4.41688,3.78533 1.43134,1.43113 4.63975,3.78533 6.94081,3.78533 3.11126,0 4.74869,-1.59356 6.30982,-3.15444 1.92781,-1.92754 1.52997,-4.68419 3.15491,-6.3089 2.89262,-2.89218 1.30964,-4.56201 6.94079,-3.15443 0.19337,0.0483 1.24356,-8.12789 1.26197,-8.20156 0.35417,-1.41642 8.14667,-0.63089 9.46473,-0.63089 4.91182,0 3.75106,-1.96233 2.52393,-4.41623 -1.77462,-3.54872 -2.75312,-1.60689 -1.89294,-5.04711 0.24613,-0.98438 7.04867,-3.89319 7.57179,-4.41621 1.57746,-1.57723 2.20844,-4.10078 3.78588,-5.678 1.77241,-1.77214 1.89296,-3.90763 1.89296,-7.57068 0,-1.1299 6.71812,4.19358 7.57178,5.04713 2.03534,2.03502 5.67885,7.32461 5.67885,1.26177 0,-3.15445 0,-6.3089 0,-9.46333 0,-5.11733 1.1293,-3.41975 2.52392,-0.6309 1.20912,2.41787 7.25568,2.08181 9.46474,2.52355 4.6592,0.93171 5.04785,-0.35934 5.04785,-4.4162 0,-2.04883 -3.46929,-4.09968 -4.41686,-5.04713 -1.55181,-1.55156 -5.1388,-2.0731 -6.94081,-2.52355 -4.5363,-1.13391 -5.37729,-0.3015 -1.89295,-3.78533 2.59317,-2.59279 3.3479,-2.13764 1.89295,-5.04711 -1.19037,-2.38037 -4.77724,-0.72061 -6.30981,-3.78533 -1.33498,-2.66953 -3.80419,-3.15902 -6.30984,-3.78533 -3.57378,-0.89333 -1.88473,-5.06353 -1.26197,-6.3089 1.7873,-3.57403 3.15493,-3.13074 3.15493,-8.20156 0,-2.4826 -2.22302,-6.00798 -3.15493,-6.93976 -2.17187,-2.17157 -4.26048,-2.3672 -6.30981,-4.41623 -2.44018,-2.43981 -0.71332,-4.14194 -3.78589,-5.678 -1.69154,-0.84564 -1.43486,-6.36941 -1.89296,-8.20156 -0.32659,-1.30615 -4.69373,-4.06215 -5.67884,-5.0471 -2.1754,-2.17509 -2.84287,-1.90647 -3.78589,-5.67801 -0.82299,-3.2915 -2.77956,-3.78533 -6.30982,-3.78533 -4.15274,0 -6.96426,-3.17789 -8.83375,-5.0471 -1.85671,-1.85643 -7.43468,-0.34972 -8.83376,0 -3.36352,0.84074 -2.14121,3.15443 -6.94081,3.15443 -3.64871,0 -2.52393,3.6054 -2.52393,6.93978 0,3.61845 -4.07119,3.15445 -7.57178,3.15445 -3.15492,0 -6.30982,0 -9.46473,0 -1.80931,0 -3.15492,2.60719 -3.15492,4.41623 0,1.78441 3.35305,2.05418 3.78589,3.78533 0.65492,2.61926 -5.38208,1.89265 -7.57178,1.89265 -3.15492,0 -6.30982,0 -9.46474,0 -4.15541,0 -5.19932,0.70663 -7.57178,1.89268 -2.76833,1.38395 -3.15491,2.53207 -3.15491,6.30888 0,3.61203 -0.19597,6.06986 -1.26197,8.20156 -1.42189,2.84335 -2.02674,3.66106 -5.04785,4.41622 -2.72146,0.68026 -7.04012,-0.18254 -8.83377,-0.63089 -3.21241,-0.80298 1.19719,2.80662 3.15492,3.78533 2.65885,1.32923 5.4828,2.84971 7.57178,4.41622 0.78559,0.58911 -1.90027,4.43089 -2.52392,5.67801 -1.36513,2.72986 -0.84771,5.4805 -1.89294,7.57066 -1.06362,2.12693 -3.04121,3.67165 -4.41688,5.04712 -1.46476,1.46454 2.52392,3.60682 2.52392,5.67799 0,1.79678 -3.77716,0.62217 -5.04785,1.89267 -0.15196,0.15194 2.34266,6.5773 2.52393,6.93978 1.25649,2.5126 -1.65695,6.07293 -2.52393,6.93978 -2.66536,2.66495 -3.78589,0.47263 -3.78589,5.67799 0,4.34932 0.13174,5.54628 -1.89296,7.57068 -0.94293,0.94279 -7.96546,0 -9.46473,0 -4.2497,0 -5.5846,-0.0942 -7.57178,1.89265 -2.51309,2.51272 1.0373,6.08428 2.52392,7.57068 3.28536,3.28486 5.04786,-0.57311 5.04786,5.67798 0,3.7723 2.94621,4.41623 -3.1549,4.41623 -2.10328,0 2.29865,3.56009 3.78588,5.04711 1.87105,1.87076 3.38379,2.98125 4.41687,5.04712 1.25672,2.51304 4.65689,2.13262 6.94081,4.41621 2.05594,2.05564 4.06142,3.42992 5.67885,5.04711 1.48956,1.48935 2.40235,6.06578 3.15491,7.57068 1.31062,2.62085 5.96857,5.16298 8.83375,6.30888 z"
         id="path2250" />
      <path
         style="fill:#cddae0;fill-opacity:1;fill-rule:evenodd;stroke:#ffffff;stroke-width:2.5;stroke-linecap:butt;stroke-linejoin:miter;stroke-miterlimit:4;stroke-dasharray:none;stroke-opacity:1"
         d="m 598.72807,685.58345 c 1.04769,2.09508 3.78589,1.83579 3.78589,8.20156 0,4.82489 -2.03403,2.52355 -5.67883,2.52355 -3.22623,0 -5.13999,-1.52423 -6.30984,3.15445 -1.30137,5.20473 0.45959,3.87102 -4.41686,6.30889 -1.49542,0.74758 -0.63099,7.23112 -0.63099,8.83243 0,1.84912 -4.67532,2.78197 -6.30982,4.41623 -2.32689,2.32655 -1.90159,5.05144 -4.41688,6.30888 -3.69026,1.84487 0.79413,7.7338 -4.41688,2.52356 -2.71648,-2.71607 -5.43778,-2.85676 -6.30981,0.63089 -0.77823,3.11245 2.04349,2.48592 -3.15493,3.78533 -3.04595,0.76138 -1.26196,4.12385 -1.26196,6.93978 0,2.2826 -4.4211,2.50662 -3.1549,7.57066 1.36247,5.44915 -4.22158,2.08795 -0.63099,5.67801 2.26595,2.26562 1.89295,4.9066 1.89295,6.93978 0,3.5767 1.60625,8.20155 -1.89295,8.20155 -5.38849,0 -1.00627,2.96683 0.63099,3.78533 4.61294,2.30614 3.92373,1.53744 6.30982,6.30889 1.18846,2.37657 0.63097,6.00954 0.63097,8.83245 0,3.35531 -1.9571,4.4483 -4.41687,5.67799 -4.02769,2.01356 -0.83963,3.73318 1.89294,4.41622 3.94862,0.98701 5.32787,-0.35092 7.57181,1.89268 2.98185,2.98141 4.41686,-0.03 4.41686,5.67798 0,1.1397 -2.71198,4.53744 -3.15491,6.3089 -1.05728,4.22853 -1.7479,4.56124 -5.04785,1.26178 -1.9963,-1.99598 -4.00232,-3.37083 -5.67885,-5.0471 -1.95237,-1.95211 -5.87771,3.35327 -6.30982,3.78532 -2.18854,2.18821 -4.48428,2.48985 -6.9408,1.26178 -1.61435,-0.80705 0.17408,-6.87443 0,-7.57068 -0.83781,-3.35072 -5.21486,1.89268 -7.5718,1.89268 -3.52865,0 -4.61219,-3.34974 -6.30982,-5.04711 -2.21301,-2.21268 -3.99287,-3.99228 -5.67884,-5.678 -1.49502,-1.49482 -2.71037,-4.60262 -4.41687,-6.30889 -2.14054,-2.14022 -3.81676,-3.81618 -5.67884,-5.678 -1.89211,-1.89182 -3.80298,-3.17152 -5.67885,-5.04711 -2.68628,-2.68588 -0.63098,-3.14844 -0.63098,-7.57067 0,-3.38821 -1.81183,-4.96601 -3.7859,-6.93977 -2.31995,-2.31962 -4.04341,-4.04283 -6.30982,-6.3089 -1.98514,-1.98485 -2.47703,-3.73844 -4.41688,-5.678 -1.97384,-1.97355 -3.59142,-4.22177 -5.04785,-5.67799 -1.29492,-1.29474 -0.63097,-6.41509 -0.63097,-8.83245 0,-2.16235 1.89294,-5.64327 1.89294,-8.83244 0,-1.00446 1.91512,-4.95837 1.26195,-7.57066 -0.0521,-0.20858 9.85124,0.63088 10.72671,0.63088 4.79012,0 4.41688,-0.40245 4.41688,-5.0471 0,-2.95185 -2.02747,-4.05432 -3.15492,-6.30889 -2.50514,-5.00955 3.31652,-3.15445 5.67884,-3.15445 3.15492,0 6.30982,0 9.46474,0 3.67218,0 7.25947,-1.24912 8.20277,2.52356 0.3885,1.55375 -0.7603,3.28374 -1.89295,4.41622 -2.02287,2.02257 5.64402,1.24436 8.20277,2.52356 3.37207,1.68578 4.01824,4.31658 6.94081,5.0471 2.77231,0.69298 2.96932,2.52356 6.94081,2.52356 2.95494,0 2.91367,-3.9338 3.78588,-5.67801 1.65438,-3.30823 3.15493,-1.92766 3.15493,-6.93976 0,-0.71744 5.06334,-2.55455 5.67882,-3.78535 1.39418,-2.7879 0.62818,-4.88866 3.78591,-5.67798 2.91418,-0.72844 7.06476,0 10.09571,0 4.11491,0 -0.23861,-4.02391 -1.26196,-5.04713 -2.47481,-2.47441 -0.67022,-4.8902 -0.63099,-5.04711 0.69384,-2.77492 6.17991,-0.50098 8.20277,-2.52355 1.80712,-1.80685 2.26417,-5.15856 3.15492,-6.93978 1.03861,-2.07691 1.84341,-6.84071 1.89295,-6.93978 1.33685,-2.67332 4.82703,3.56456 6.94079,5.678 2.07308,2.07276 2.68119,2.6179 5.67885,4.41623 z"
         id="path2252" />
      <path
         style="fill:#cddae0;fill-opacity:1;fill-rule:evenodd;stroke:#ffffff;stroke-width:2.5;stroke-linecap:butt;stroke-linejoin:miter;stroke-miterlimit:4;stroke-dasharray:none;stroke-opacity:1"
         d="m 569.0719,814.28477 c 2.12941,2.12909 5.19134,-3.78533 8.20276,-3.78533 2.68652,0 4.863,-0.0462 7.57179,0.63088 3.99524,0.99868 5.04787,1.18837 5.04787,-3.15443 0,-2.58959 3.7859,1.28238 3.7859,4.41621 0,2.967 5.04785,8.98424 5.04785,2.52355 0,-4.57071 1.67831,-3.57072 3.78589,-5.67798 2.45646,-2.4561 5.9335,-0.37628 2.52393,-3.78535 -1.80301,-1.80273 -1.46886,-6.0917 -2.52393,-8.20154 -1.44617,-2.89192 -4.41686,-1.70009 -4.41686,-5.678 0,-3.35252 3.05267,-2.0971 1.26196,-5.67801 -2.01774,-4.03483 0.49283,-3.64719 3.78589,-6.93978 2.51357,-2.5132 -1.81163,-5.678 3.78589,-5.678 4.08205,0 4.78491,2.30011 8.20277,3.15445 1.95569,0.48886 -0.68185,-5.21755 5.04785,-3.78533 5.01149,1.25268 5.15841,-0.22105 6.94081,-3.78533 1.16246,-2.32457 5.36529,-1.89267 8.20278,-1.89267 4.80528,0 2.82446,-0.0598 1.89294,-3.78533 -0.9519,-3.80707 0.47498,-5.35908 -0.63098,-7.57066 -1.43379,-2.86714 -1.89295,-4.14998 -1.89295,-8.20156 0,-4.05013 -1.52049,-4.93319 -3.15491,-8.20156 -2.14969,-4.29874 0.31994,-4.25628 -3.7859,-6.30888 -2.17791,-1.08881 -4.37738,-5.00762 -6.30982,-6.93978 -2.98758,-2.98713 -3.65704,-3.28328 -6.94081,0 -1.72639,1.72614 -3.1549,-3.03117 -3.1549,4.41621 0,3.37115 -5.04787,2.81694 -5.04787,-1.26178 0,-3.95327 0.66013,-5.61972 -0.63097,-8.20154 -1.4815,-2.96257 -2.34401,-3.69664 -3.15492,-6.93978 -0.81169,-3.24629 0.5364,-6.75066 1.26196,-8.20155 1.31519,-2.62998 2.35785,-3.75198 3.15492,-6.93978 0.56139,-2.24522 -4.51838,-2.70664 -6.30982,-3.15446 -2.7993,-0.6997 -6.88462,0.14369 -8.83376,0.6309 -2.24986,0.56238 -1.89294,5.14211 -1.89294,7.57066 0,2.3825 -4.41688,0.57621 -4.41688,5.04711 0,3.57946 -0.31513,6.30819 -1.26196,8.20155 -1.10096,2.2016 -5.20004,0.78306 -6.94082,2.52356 -2.56924,2.56889 -2.32426,3.61772 -3.15491,6.93978 -1.15019,4.6001 -0.16143,3.70463 -3.78589,1.89267 -3.15003,-1.57478 -3.93393,-2.80199 -7.57178,-1.89267 -2.28133,0.57025 -0.69163,4.6588 -1.26196,6.93978 -1.03456,4.13761 -0.5428,4.05669 -3.7859,5.678 -0.692,0.34595 -1.73873,6.15469 -2.52392,6.93978 -2.56409,2.56372 2.30149,6.71737 3.1549,7.57066 0.94294,0.9428 0,7.96429 0,9.46334 0,4.62826 -1.77583,3.59833 -5.04786,4.41622 -0.50442,0.12609 2.60736,3.95216 3.15492,5.04711 0.75503,1.50986 4.75228,1.34143 5.67883,5.04711 0.47242,1.88937 2.17647,3.28229 1.26196,6.93978 -0.81019,3.24029 -0.61112,5.02726 -2.52393,6.93978 -2.64838,2.64799 -4.41686,-0.11326 -4.41686,5.0471 0,1.07527 8.49589,0.6309 9.46473,0.6309 1.93992,0 3.26615,3.18225 5.67883,3.78533 2.8385,0.70952 0.51196,5.52315 0,7.57066 -0.7949,3.17917 -2.52392,-0.032 -2.52392,5.678 z"
         id="path2254" />
      <path
         style="fill:#cddae0;fill-opacity:1;fill-rule:evenodd;stroke:#ffffff;stroke-width:2.5;stroke-linecap:butt;stroke-linejoin:miter;stroke-miterlimit:4;stroke-dasharray:none;stroke-opacity:1"
         d="m 637.21799,766.33723 c -0.61638,2.46515 3.15491,4.39875 3.15491,6.93976 0,4.15987 2.91407,4.80632 5.04785,6.93978 1.92783,1.92755 3.42293,2.79153 5.04788,4.41623 0.94291,0.9428 0,7.96428 0,9.46333 0,3.70716 -0.0832,5.84431 -1.26198,8.20156 -2.09307,4.18552 2.82064,7.05844 5.67885,8.20155 3.38262,1.35285 6.26218,-0.72615 8.83375,4.41621 1.13265,2.26497 4.54619,-2.78214 5.67883,-5.0471 2.17557,-4.35047 1.08098,-3.96629 4.41688,-0.63088 2.35397,2.35361 6.94081,0.94948 6.94081,-1.89268 0,-2.66005 4.91132,2.52356 7.57178,2.52356 5.51898,0 2.24905,2.43455 -0.63097,3.15445 -3.92101,0.98011 -0.99569,4.68246 0,5.678 3.83152,3.83095 0.0429,3.15443 -3.78589,3.15443 -2.82296,0 -2.52395,4.73722 -2.52395,7.57068 0,2.68991 -2.6885,3.78533 -5.67882,3.78533 -2.75246,0 -4.0965,2.51376 -5.04787,4.41622 -2.1419,4.28319 2.18898,5.19512 4.41687,6.30889 3.0428,1.52117 2.93021,3.68378 0,4.41622 -0.3275,0.0819 0,8.60868 0,9.46333 0,4.78942 -0.4025,4.41622 -5.04785,4.41622 -2.66754,0 -3.29809,-4.50107 -3.78589,-6.93978 -0.80921,-4.04543 -3.59215,-3.78533 -6.30983,-3.78533 -2.62309,0 -4.45218,-5.71331 -6.30982,-7.57066 -2.47921,-2.47885 -5.37965,3.18704 -5.67884,3.78533 -1.22607,2.4518 -7.98077,-1.67069 -8.20276,-1.89267 -1.95015,-1.94984 -3.28905,-4.59501 -5.04787,-6.93976 -1.26679,-1.68881 -5.3651,-1.65566 -6.94081,-1.26179 -1.53184,0.38291 -4.90737,1.26179 -8.20276,1.26179 -3.1004,0 -1.66427,5.33079 -1.26197,6.93976 0.70535,2.82098 -3.74671,3.76574 -5.04787,4.41622 -1.99976,0.99974 4.41689,2.81164 4.41689,5.04711 0,3.19543 -1.6207,4.41623 -5.04786,4.41623 -4.22081,0 -5.4029,-1.61677 -7.57179,-3.78533 -0.97909,-0.97895 -5.2821,3.38864 -5.67883,3.78533 -2.59634,2.59593 -3.41073,1.65402 -4.41689,5.678 -0.0721,0.28853 -0.42065,0.42059 -0.63098,0.63088 -1.00317,4.01204 -3.84992,-3.02641 -1.89294,-6.93977 1.25976,-2.51916 4.56073,-3.8141 -1.89296,-2.52356 -1.79432,0.35882 -0.61341,-3.15882 -5.67884,-1.89266 -2.16905,0.54218 2.83592,-3.46639 4.41688,-5.0471 2.01668,-2.01639 3.97954,-4.80347 5.04786,-6.93978 0.93117,-1.86205 -3.91188,-2.39656 -4.41687,-4.41623 -0.90473,-3.61835 -1.16525,-4.05242 -4.41688,-5.67801 -2.94085,-1.4702 -4.47924,-3.0123 -7.57178,-3.78533 -1.29321,-0.32324 -6.05911,-3.02909 -7.5718,-3.78533 -2.08786,-1.04378 -2.17065,-4.69388 -3.78589,-6.30888 -1.33023,-1.33003 1.19369,-3.71709 2.52393,-5.04712 0.97373,-0.97357 6.8411,-1.21192 8.20276,-1.89266 2.37694,-1.18828 6.01045,-0.6309 8.83377,-0.6309 1.98421,0 3.64478,-1.75158 5.04786,-3.15443 2.22789,-2.22757 3.00994,5.72911 3.1549,6.30888 0.99699,3.9873 2.39534,3.21874 5.04787,1.89266 2.10325,-1.05146 1.49212,-4.64633 3.1549,-6.30888 2.74936,-2.74894 4.44757,-1.20039 2.52393,-5.04711 -1.53433,-3.06823 -0.61877,-5.03489 -2.52393,-6.93978 -2.24844,-2.24809 -3.78589,-2.19177 -3.78589,-6.30888 0,-3.59162 3.46632,-3.47397 0,-6.93978 -1.69572,-1.69547 3.83524,-3.35184 4.41688,-5.67801 0.74805,-2.99177 0.8452,-4.94292 3.78589,-5.678 3.7468,-0.93656 5.49239,1.07537 6.94081,2.52357 1.66278,1.66253 3.95829,-3.15445 6.30981,-3.15445 4.32378,0 4.92494,-0.38509 6.30982,-3.15445 1.42952,-2.85859 3.72797,-3.15443 6.94081,-3.15443 1.26197,0 2.52393,0 3.7859,0 z"
         id="path2256" />
      <path
         style="fill:#cddae0;fill-opacity:1;fill-rule:evenodd;stroke:#ffffff;stroke-width:2.5;stroke-linecap:butt;stroke-linejoin:miter;stroke-miterlimit:4;stroke-dasharray:none;stroke-opacity:1"
         d="m 671.92201,862.23232 c 2.25228,0 -1.84421,6.21146 -2.52393,7.57067 -1.13826,2.27619 -4.60297,-0.18606 -0.63097,3.78534 3.56714,3.56661 -1.51444,5.7726 3.1549,6.93977 2.28132,0.57024 0.40083,5.27724 -1.26196,6.93977 -1.27937,1.2792 1.39963,3.97748 3.15491,4.41623 2.0144,0.50351 4.91337,-4.50926 3.15492,2.52355 -0.91441,3.6571 0.63373,3.78809 2.52392,5.67801 0.8885,0.88836 0.97322,4.19969 3.7859,6.30888 2.67182,2.00358 -0.51982,6.71748 -1.26196,8.20156 -1.9773,3.95399 -2.46868,4.47147 -5.04786,1.89267 -2.44254,-2.44218 -2.79742,-3.40152 -6.30983,-2.52356 -1.28565,0.32136 -5.54768,-1.76773 -7.57179,-1.26178 -1.98496,0.49617 -5.42367,-4.79544 -9.46473,-3.78533 -0.45941,0.11484 -5.8034,-5.80254 -6.30982,-6.30889 -2.3157,-2.31535 -2.30307,-3.53289 -3.15492,-6.93978 -0.34792,-1.39146 4.89028,-3.78533 -2.52392,-3.78533 -4.6902,0 -5.27769,0.80219 -3.15493,5.04711 1.93117,3.86173 -0.68947,5.61951 1.89296,8.20155 1.79087,1.79062 -1.24524,5.11398 -0.63097,7.57067 0.73638,2.94511 0.63097,6.13258 0.63097,8.83245 0,5.08187 -1.15498,3.52337 -4.41688,1.89266 -3.09871,-1.54912 -2.53747,-5.10126 -3.1549,-7.57067 -0.27009,-1.08017 -3.49848,-5.08453 -4.41688,-6.30888 -1.24947,-1.66572 -2.31158,-4.62247 -3.15491,-6.30889 -1.26691,-2.53344 -2.2681,-4.79131 -3.7859,-6.30889 -1.67349,-1.67325 -2.67028,-5.00155 -3.15491,-6.93978 -0.37304,-1.49194 -4.43392,-5.06416 -5.04787,-5.67799 -2.17024,-2.16993 -4.30026,-3.66874 -6.30981,-5.678 -1.99639,-1.9961 -3.28495,-3.91534 -5.04786,-5.67801 -2.35367,-2.35331 -3.01078,-3.64121 -5.04785,-5.678 -2.64832,-2.64791 -1.58498,-0.93881 1.26197,-3.78533 2.10342,-2.10313 2.69775,-3.95914 4.41686,-5.678 2.60902,-2.60864 5.36614,-0.39221 7.5718,1.26178 2.83471,2.12573 3.63831,1.96644 6.30982,0.63089 3.89973,-1.94957 1.1594,-4.96629 -0.631,-6.30888 -2.719,-2.03896 -4.91859,-2.08271 -0.63097,-3.15446 2.8827,-0.72056 2.62943,-4.83814 3.15491,-6.93978 1.0508,-4.20259 -0.0175,-4.4162 5.04787,-4.4162 3.47478,0 7.58284,-0.003 10.0957,-0.6309 0.0914,-0.0229 4.91236,4.34848 6.30984,5.0471 3.35244,1.676 4.95432,2.33654 6.30982,5.04712 1.09973,2.19915 3.01742,-4.77219 3.1549,-5.04712 1.41716,-2.83389 7.27029,4.82104 7.57179,5.04712 3.23809,2.42821 2.24414,2.61134 6.94081,3.78534 0.30639,0.0766 2.83205,5.98608 3.15491,6.30888 2.28593,2.28558 2.34752,2.43537 7.57179,5.04711"
         id="path2258" />
    </g>
  </g>
</svg>
