<?xml version="1.0" encoding="UTF-8" standalone="no"?>
<!-- Created with Inkscape (http://www.inkscape.org/) -->

<svg
   width="314.37637mm"
   height="281.10141mm"
   viewBox="0 0 314.37637 281.10141"
   version="1.1"
   id="svg1739"
   inkscape:version="1.1.1 (3bf5ae0d25, 2021-09-20)"
   sodipodi:docname="bajaCaliforniaNorte.svg"
   xmlns:inkscape="http://www.inkscape.org/namespaces/inkscape"
   xmlns:sodipodi="http://sodipodi.sourceforge.net/DTD/sodipodi-0.dtd"
   xmlns="http://www.w3.org/2000/svg"
   xmlns:svg="http://www.w3.org/2000/svg">
  <sodipodi:namedview
     id="namedview1741"
     pagecolor="#ffffff"
     bordercolor="#666666"
     borderopacity="1.0"
     inkscape:pageshadow="2"
     inkscape:pageopacity="0.0"
     inkscape:pagecheckerboard="0"
     inkscape:document-units="mm"
     showgrid="false"
     fit-margin-top="0"
     fit-margin-left="0"
     fit-margin-right="0"
     fit-margin-bottom="0"
     inkscape:zoom="0.47584683"
     inkscape:cx="610.49057"
     inkscape:cy="566.35872"
     inkscape:window-width="1366"
     inkscape:window-height="705"
     inkscape:window-x="-8"
     inkscape:window-y="-8"
     inkscape:window-maximized="1"
     inkscape:current-layer="layer1-2" />
  <defs
     id="defs1736" />
  <g
     inkscape:label="Capa 1"
     inkscape:groupmode="layer"
     id="layer1"
     transform="translate(68.362995,-96.733506)">
    <g
       inkscape:label="Capa 1"
       id="layer1-2"
       transform="matrix(0.26458333,0,0,0.26458333,-7.1626451,100.98674)">
      <path
         style="fill:#f9f9f9;fill-rule:evenodd;stroke:#000000;stroke-width:0.2;stroke-linecap:butt;stroke-linejoin:miter;stroke-miterlimit:4;stroke-dasharray:none;stroke-opacity:1"
         d="M -4.5057339,146.93726 -2.5394044,146.54704 29.972182,128.81409 18.771709,117.55802 18.955418,113.81273 8.725994,102.60429 -0.7934171,101.02496 -9.545196,82.380406 -33.61864,81.199583 -34.453216,82.61866 c 0.508317,2.230791 0.846318,5.466191 2.296073,7.065008 4.36976,4.819215 2.557021,3.103417 3.507499,7.889214 0.713821,3.594828 1.030579,5.230828 3.437931,7.885778 1.934237,2.13321 4.153368,5.50878 7.360609,7.31346 2.135706,1.20176 4.720095,2.72007 6.713031,4.91785 3.018945,3.32963 3.6979525,2.58471 3.4005077,8.64871 -0.1766867,3.60212 1.2741112,5.36066 2.7069618,8.61471 1.5181388,3.44815 2.4360306,4.09378 0.3853969,7.73607 -1.5328573,2.72265 -0.9389992,3.47317 0.1394727,4.2478 z"
         id="path2248" />
      <path
         style="fill:#f9f9f9;fill-rule:evenodd;stroke:#000000;stroke-width:0.2;stroke-linecap:butt;stroke-linejoin:miter;stroke-miterlimit:4;stroke-dasharray:none;stroke-opacity:1"
         d="m 120.89518,153.03552 c -0.0338,0.5023 0.25495,0.87298 0.55568,1.04161 0.31651,0.1775 0.64947,0.10877 0.41675,-0.27776 -0.082,-0.13639 -0.74238,-0.54044 -0.97243,-0.76385 z"
         id="path2260" />
      <path
         style="fill:#f9f9f9;fill-rule:evenodd;stroke:#000000;stroke-width:0.2;stroke-linecap:butt;stroke-linejoin:miter;stroke-miterlimit:4;stroke-dasharray:none;stroke-opacity:1"
         d="m 43.389738,126.06556 1.211347,0.82419 c 1.256898,-0.032 2.123715,0.16218 2.754611,0.55226 0.630886,0.39009 1.030076,0.97629 1.309266,1.66327 0.558156,1.37397 0.626348,3.1959 1.423473,5.00603 0.177995,0.40434 0.647019,0.45617 1.169067,0.26592 0.522058,-0.19026 1.110731,-0.60884 1.653586,-1.10081 0.542864,-0.49197 1.020508,-1.10595 1.26092,-1.60671 0.240432,-0.50077 0.231469,-0.90324 -0.153578,-1.11993 -0.796293,-0.44806 -1.247576,-0.9067 -1.531111,-1.39605 -0.283538,-0.48936 -0.35344,-0.99252 -0.275322,-1.47351 0.156008,-0.96202 0.886777,-1.86401 1.582653,-2.49475 0.377047,-0.34176 0.804656,-0.35311 1.262367,-0.21619 0.457712,0.13691 0.917193,0.42414 1.422978,0.76504 1.011372,0.68181 2.126661,1.48603 3.133449,1.33562 0.360705,-0.054 1.589743,-6.74954 1.96295,-7.4123 0.60724,-1.07856 1.181517,-1.40347 1.733049,-1.30548 0.551762,0.098 1.03646,0.58771 1.46503,1.32328 0.857374,1.47115 1.416666,3.72945 1.37803,4.51713 -0.04119,0.83971 0.221101,1.27236 0.622314,1.49054 0.400993,0.21816 0.948114,0.22439 1.526254,0.0749 1.156282,-0.2991 2.365763,-1.08369 2.638237,-1.3306 0.423623,-0.38381 0.926466,-0.0736 1.36711,0.48421 0.440622,0.55775 0.849169,1.37513 1.233195,1.79858 0.59955,0.66129 1.567,0.47377 2.559979,0.26462 0.99321,-0.20915 2.00396,-0.44036 2.781837,-0.003 0.861241,0.48464 2.484104,0.47313 4.016979,0.33607 1.532874,-0.13704 2.979423,-0.41956 3.50281,-0.52341 0.774612,-0.15376 1.319493,-0.63682 1.858194,-1.02125 0.53892,-0.38441 1.072549,-0.66076 1.966342,-0.39022 0.528459,0.15996 0.819405,0.50736 0.92362,1.01864 0.104205,0.5113 0.04461,1.13679 -0.01897,1.80669 -0.127141,1.33982 -0.363538,2.81587 0.378097,3.63379 0.818507,0.90264 5.710776,4.03252 5.713126,4.03454 0.42488,0.35244 0.64149,0.24178 0.77345,-0.17064 0.13171,-0.41241 0.19908,-1.07795 0.2306,-1.86582 0.06282,-1.57581 0.08654,-3.52466 0.90468,-4.26612 0.62321,-0.56496 1.212173,-0.77169 1.778513,-0.81657 0.56632,-0.0449 1.14073,0.0903 1.59573,0.0783 0.45502,-0.012 0.85479,-0.17264 1.14404,-0.63912 0.28926,-0.4665 0.47986,-1.27631 0.54894,-2.68451 0.0984,-2.00526 0.62736,-3.4397 1.51194,-3.88871 0.44227,-0.22449 0.95671,-0.16861 1.52286,0.14422 0.56635,0.31284 1.21572,0.8802 1.85747,1.82922 1.4468,2.13935 3.24228,3.12294 4.25974,3.8937 0.50872,0.3854 0.77792,0.73163 0.77808,1.15056 3.6e-4,0.41894 -0.27718,0.91396 -1.05292,1.61693 -0.8738,0.79192 -1.61642,1.54992 -1.56564,2.14797 0.0508,0.59803 0.88657,1.01681 3.0049,1.12072 1.2814,0.0629 1.9212,-0.22772 2.32332,-0.58128 0.40209,-0.35355 0.56462,-0.78607 0.74817,-1.07568 0.18357,-0.2896 0.42477,-0.4117 1.05096,-0.15702 0.62596,0.25466 1.64056,0.90223 3.37011,2.1815 1.05783,0.78248 1.26242,1.04427 1.66624,1.47222 0.10428,-0.53779 0.65867,-1.20588 2.10726,-1.84332 1.48524,-0.65361 3.45269,-0.60865 4.48769,-0.7532 0.51738,-0.0723 0.78115,-0.20056 0.64808,-0.45488 -0.13285,-0.25433 -0.6735,-0.62846 -1.81519,-1.27095 -0.35776,-0.20133 -0.35209,-0.44402 -0.17422,-0.70379 0.17786,-0.25976 0.5618,-0.57413 1.01549,-0.854 0.90758,-0.55974 2.05717,-1.13526 2.5099,-1.54547 0.37845,-0.34296 1.18584,0.78161 2.28733,1.57222 0.55075,0.39529 1.15628,0.66718 1.84242,0.71607 0.68634,0.0489 1.47606,-0.14472 2.26764,-0.8621 0.60691,-0.55008 2.19102,-0.70646 3.7905,-0.71788 1.59972,-0.0114 3.2192,0.0823 3.7565,-0.0243 0.57598,-0.11425 0.86866,-0.41481 1.01888,-0.92334 0.15025,-0.50853 0.13156,-1.16649 0.0919,-1.87264 -0.0791,-1.41232 -0.30582,-3.06565 0.2702,-4.08866 0.26427,-0.46968 0.90017,-0.43117 1.67523,-0.12641 0.77484,0.30476 1.70254,0.92261 2.63409,1.58922 1.86334,1.33324 3.71433,2.9541 4.08234,3.25928 2.30475,1.91144 4.7328,4.01739 6.70283,5.12594 0.9195,0.51742 1.39151,0.62623 1.57852,0.42505 0.187,-0.20119 0.0629,-0.71939 -0.14338,-1.32799 -0.41273,-1.21718 -1.24846,-2.90287 -1.2004,-3.88271 0.0838,-1.70879 -0.30172,-2.66391 -0.65901,-3.57803 -0.3575,-0.91414 -0.67829,-1.76924 -0.59653,-3.43594 0.0283,-0.57688 1.415,-0.92365 2.90914,-1.17824 1.49392,-0.25464 3.05803,-0.42962 3.57889,-0.65876 0.56882,-0.2503 1.01617,-0.23314 1.39431,-0.0707 0.37835,0.1625 0.73656,0.44042 1.07258,0.81738 0.67202,0.75392 1.35255,1.72916 2.74585,2.15088 0.22235,0.0673 0.66584,-0.49014 1.50101,-0.8302 0.41758,-0.17001 0.97004,-0.25874 1.60936,-0.19914 0.6391,0.0596 1.41802,0.29907 2.32475,0.80927 0.76748,0.43196 1.33255,0.52611 1.78676,0.43526 0.45398,-0.0909 0.78816,-0.40246 1.01549,-0.854 0.45419,-0.90309 0.53261,-2.35179 0.59996,-3.72486 0.0418,-0.85249 0.78737,-1.78843 1.65894,-2.63007 0.87134,-0.84164 1.86842,-1.56076 2.32209,-1.97181 0.85516,-0.77507 0.2221,-0.75328 0.56716,-1.64075 l -6.88653,-1.38066 0.62937,-12.831047 10.20153,-32.17588 -9.83457,-19.253863 -0.18101,-0.565071 -152.56623,8.298433 0.02866,0.835695 c -0.03008,0.613294 -0.216819,1.589217 -0.105462,2.15007 0.106699,0.53762 0.4483,1.934976 0.530458,3.363168 0.08194,1.428182 -0.09491,2.869568 -0.870661,3.572538 -0.814641,0.738135 -1.137191,1.788172 -1.46113,2.848345 -0.323939,1.060161 -0.610779,2.144121 -1.464312,2.917695 -0.98418,0.891759 -1.374995,1.291933 -1.271357,1.814792 0.103869,0.52286 0.651881,1.187164 1.545947,2.509168 1.0777,1.593423 2.07301,3.96777 3.48433,5.524256 0.450101,0.496397 1.416948,1.187386 2.263516,2.057706 0.84656,0.870308 1.595314,1.892809 1.803033,2.938913 0.136345,0.686624 0.01557,1.325053 -0.299875,1.862444 -0.315645,0.537372 -0.811446,0.949996 -1.313397,1.256533 -0.50216,0.306526 -1.060797,0.489317 -1.484215,0.483386 -0.423417,-0.0059 -0.725883,-0.195698 -0.805293,-0.595689 -0.139343,-0.702429 -0.600988,-1.911589 -1.40039,-2.641079 -0.39958,-0.364724 -0.884453,-0.560684 -1.432964,-0.556962 -0.548501,0.0037 -1.164835,0.260184 -1.851389,0.882526 -0.0061,0.0054 -0.893632,0.560883 -1.733059,1.305471 -0.839656,0.744589 -1.681849,1.676988 -1.71142,2.279862 -0.08144,1.660264 -0.636579,2.611122 -1.065073,3.284919 -0.428726,0.673793 -0.699667,1.043771 -0.210195,1.449686 0.782214,0.648755 1.650256,1.589557 2.662767,2.424904 1.012281,0.835333 2.200745,1.567941 3.605355,1.636842 1.298051,0.06367 2.222163,0.400802 3.015098,0.912663 0.793166,0.511875 1.449045,1.159294 2.197663,1.984939 0.469928,0.518373 1.145331,1.525667 1.965599,2.460227 0.820268,0.93458 1.75641,1.8162 2.610281,2.07471 0.933479,0.28253 1.869778,0.19915 2.722776,-0.21407 0.852779,-0.41322 1.592381,-1.11892 2.193535,-2.18668 0.470972,-0.83659 0.986731,-1.946579 1.603066,-2.9109 0.616554,-0.964323 1.33777,-1.844062 2.408578,-2.315204 0.824719,-0.362897 2.099618,-0.689226 3.450334,-0.873626 1.350714,-0.18438 2.778031,-0.197306 4.093268,0.200775 1.116581,0.33801 2.055746,0.912861 2.422682,1.648376 0.366717,0.735501 0.220534,1.655802 -0.96859,2.733449 -0.65674,0.59504 -1.068991,1.66348 -1.527005,2.77558 -0.457993,1.1121 -1.012739,2.27717 -2.022937,2.95983 -2.196257,1.48453 -3.423853,2.10323 -4.994338,3.99599 -0.532634,0.64184 -2.097425,1.55223 -3.313747,2.34032 -0.608154,0.39405 -1.119965,0.7381 -1.372686,1.04504 -0.252502,0.30695 -0.279685,0.56639 0.174229,0.70378 0.995086,0.30126 1.539672,0.55003 1.835606,0.85482 0.295923,0.30477 0.336587,0.66004 0.295952,1.05737 -0.08148,0.79465 -0.435827,1.86222 0.312013,3.56103 0.318766,0.72412 1.307126,1.72505 2.021487,2.74107 0.357171,0.50799 0.656154,1.03187 0.761068,1.49732 0.104672,0.46544 -0.02654,0.88556 -0.408231,1.23142 -0.123426,0.11181 -0.980249,1.07471 -1.829541,1.85691 z"
         id="path2258" />
      <g
         id="g6213"
         style="fill:#f9f9f9">
        <path
           id="path2235"
           d="m 186.93724,110.23336 5.3458,11.52509 7.62573,8.99503 -3.22569,21.81135 c -0.89162,-0.0437 -1.7446,-0.0856 -2.63627,-0.12932 -2.50141,-0.12267 -3.46908,0.0704 -3.84288,0.3677 -0.3738,0.29727 -0.17447,0.68831 -0.53666,1.01654 -1.10699,1.00319 -1.46993,1.95297 -1.46783,2.98705 0.002,1.03409 0.34769,2.18329 0.59644,3.43593 0.24645,1.24094 1.52396,2.55127 2.80284,3.82225 1.27889,1.27098 2.57177,2.48565 2.75389,3.40271 0.25168,1.26731 0.9796,2.36188 1.852,3.35847 0.87239,0.99659 1.86052,1.90569 2.64575,2.77169 1.04595,1.15354 0.91623,1.56826 1.08072,2.0692 0.1645,0.50095 0.64677,1.04104 3.01304,2.37256 0.8079,0.45461 1.30242,0.96781 1.5276,1.46541 0.22519,0.4976 0.22345,0.97965 0.0673,1.46331 -0.31226,0.96731 -1.23114,1.91097 -1.86026,2.48113 -0.84183,0.76288 -2.0452,1.1791 -2.44383,1.61823 -0.39862,0.43913 0.008,0.88238 2.28733,1.5722 0.87017,0.2634 1.33354,0.62806 1.47864,1.04586 0.14509,0.41781 -0.0318,0.89647 -0.27957,1.44629 -0.49547,1.09963 -1.43881,2.39558 -1.51205,3.8887 -0.0323,0.65893 0.2524,1.19227 0.68828,1.56329 0.43589,0.37103 1.04972,0.62399 1.70038,0.77865 1.30128,0.30931 2.76315,0.22432 3.40281,0.0974 1.06521,-0.2114 2.13972,-0.27252 3.21849,-0.39832 l 16.77225,19.59417 11.62291,13.98823 -1.42252,17.65884 -4.21577,9.38752 8.19348,18.6867 -1.99234,9.42706 v 0 c -0.37853,-0.28143 -1.11483,-0.604 -1.9051,-0.85821 -0.79026,-0.25421 -1.66546,-0.45043 -2.41114,-0.46589 -0.74567,-0.0155 -1.31548,0.18391 -1.56028,0.61871 -0.77957,1.38472 -1.08838,2.24014 -1.39845,2.99045 -0.31008,0.75032 -0.65167,1.38586 -1.56916,2.21733 -0.65914,0.59736 -1.30965,0.72539 -1.97994,0.66764 -0.6703,-0.0577 -1.36799,-0.27698 -1.99488,-0.44547 -0.6269,-0.16848 -1.20884,-0.28086 -1.7378,-0.0157 -0.52895,0.26514 -0.97775,0.84564 -1.35422,2.08881 -0.49458,1.63302 -0.19157,2.69917 0.3849,3.49508 0.57647,0.79591 1.38465,1.38087 1.98601,2.04409 0.33975,0.37469 0.33318,0.88852 0.13669,1.46671 -0.19649,0.57819 -0.54907,1.15875 -0.99034,1.75904 -0.88256,1.20058 -1.95545,2.2703 -2.06839,2.47093 -0.32134,0.57071 -0.28921,0.95855 0.0673,1.46331 0.35651,0.50475 1.048,1.12812 1.89962,2.38747 0.78441,1.15989 1.39572,1.86391 1.81665,2.66149 0.42093,0.79758 0.61211,1.6986 0.53046,3.36317 -0.10118,2.06218 -0.20807,3.2378 -0.5476,4.07505 -0.33953,0.83726 -0.92386,1.36744 -1.91944,2.26967 -0.70297,0.63704 -1.16304,1.54977 -1.45081,2.64027 -0.28778,1.0905 -0.39205,2.32167 -0.45781,3.66231 -0.0936,1.90751 -0.005,2.95507 0.39511,3.28701 0.39981,0.33195 1.14068,-0.0396 2.20508,-1.00422 1.99734,-1.81012 3.06631,-3.309 4.46665,-4.57806 1.1389,-1.03209 2.2857,-1.14755 3.26613,-1.36932 0.49021,-0.11089 0.96355,-0.24794 1.34875,-0.55956 0.38521,-0.31162 0.67418,-0.77316 0.91076,-1.55438 0.17908,-0.59139 0.59474,-1.05006 1.0393,-1.3395 0.44456,-0.28944 0.984,-0.45629 1.4807,-0.41404 0.4967,0.0423 0.952,0.28522 1.28752,0.68887 0.33553,0.40366 0.50894,0.96633 0.46996,1.76115 -0.0213,0.43486 0.33477,0.77505 0.92703,0.94929 0.59226,0.17424 1.45381,0.24175 2.28259,0.25101 1.65757,0.0185 3.35942,-0.23741 3.70073,-0.30515 0.89352,-0.17733 1.68614,-0.0384 2.35197,0.25442 0.66582,0.29278 1.21992,0.78433 1.8153,1.27095 0.59539,0.48661 1.19908,0.93955 1.88129,1.34371 0.68221,0.40415 1.47118,0.69788 2.39753,0.74331 1.33534,0.0655 2.39951,0.70464 3.26539,1.48113 0.86588,0.77649 1.52519,1.69115 1.89283,2.52618 0.40058,0.90978 0.63997,1.94114 0.68622,3.02319 0.0462,1.08206 -0.0822,2.24762 -0.44761,3.45425 -0.003,0.008 -4.56313,-1.20528 -4.80526,-1.27856 l 7.26171,16.41622 0.26583,5.92258 -5.60388,5.07847 -16.12238,-0.23462 -15.84207,-4.53137 17.77461,30.35003 c -0.21988,0.72608 0.0503,1.12768 0.62911,1.35181 0.57884,0.22413 1.48833,0.28069 2.49413,0.19186 2.01158,-0.17764 4.54571,-0.79906 6.03434,-1.09449 0.19347,-0.0384 0.31389,-0.81753 0.89715,-1.27695 0.29162,-0.2297 0.72391,-0.37556 1.26918,-0.35489 0.54526,0.0207 1.21697,0.22155 2.12002,0.72971 0.87945,0.49488 1.3366,1.25893 1.63914,2.02707 0.30253,0.76815 0.47278,1.54204 0.72704,2.19091 0.25427,0.64886 0.59165,1.1794 1.32628,1.31648 0.73463,0.13709 1.84557,-0.0996 3.58919,-0.8668 1.47885,-0.65074 3.72569,-2.2667 5.52564,-3.48326 1.26292,-0.85359 2.46896,-1.06636 3.86329,-0.78384 1.39433,0.28253 2.97138,1.03061 5.17389,2.26998 l 5.76813,14.25725 5.86972,0.84411 7.96545,-9.27312 15.06339,-0.86018 c 1.0943,0.61576 2.7777,0.83798 4.54478,0.91816 1.76708,0.0802 3.63323,-0.0303 5.07463,0.0403 0.53505,0.0262 1.06061,0.052 1.59564,0.0783 l 1.43187,-7.92502 c 2.65112,0.13004 3.70399,-0.47833 4.48086,-0.61449 0.77688,-0.13616 1.28166,0.17063 2.96068,2.02237 0.60983,0.67256 1.19002,0.90438 1.69357,0.91736 0.50354,0.013 0.95,-0.21132 1.13042,-0.3617 0.36082,-0.30073 -0.14156,-0.40188 -2.37445,1.62163 -0.66839,0.60572 -0.9258,1.19011 -0.85158,1.76585 0.0742,0.57574 0.46021,1.17808 0.96239,1.64626 1.00435,0.93635 2.57243,1.51666 3.40074,1.55729 1.82193,0.0894 2.73173,-0.10315 3.56537,-0.38131 0.83365,-0.27816 1.55312,-0.63445 2.89544,-0.90083 0.96211,-0.19093 1.69981,-0.10288 2.22002,0.10889 0.5202,0.21177 0.85221,0.59913 1.05898,1.0948 0.41351,0.99135 0.2985,2.42104 0.22914,3.83506 -0.10945,2.23086 -0.0637,3.52602 0.55221,4.33757 0.61589,0.81155 1.84347,1.13329 4.04213,1.24113 0.4052,0.0199 4.86667,-0.87367 6.992,-0.76942 0.90939,0.0446 1.72614,0.46215 2.60906,0.68417 l 0.76313,0.0374 c 0.78114,-0.98067 1.54736,-1.77279 1.62359,-3.32703 0.17809,-3.63065 0.46486,-8.43358 -2.56263,-10.13715 -3.98893,-2.24463 -5.89505,-1.36208 -10.71034,-2.81965 -4.47273,-1.35386 -4.62435,-1.8833 -7.47277,-5.02465 -0.53834,-0.5937 -6.46579,-7.67323 -2.60006,-9.37422 2.62968,-1.15713 6.94322,-6.67908 4.19329,-7.51148 -0.56327,-0.1705 -9.83192,-3.58543 -9.83701,-3.61109 -0.80897,-4.0738 -3.59257,-4.73385 -3.40061,-8.64872 0.1899,-3.87148 -1.97166,-7.84582 -1.06833,-10.82862 0.84277,-2.78292 3.44262,-6.38475 3.57438,-9.07136 0.31942,-6.51218 -3.58035,-5.51119 -4.99626,-8.727 -1.82042,-4.1347 0.19062,-3.88617 0.41505,-8.46156 0.0503,-1.02642 0.10276,-2.09463 0.15309,-3.12107 5.27364,-1.04655 6.17826,-1.66745 5.02579,-7.47064 -0.75785,-3.81632 -1.22165,-6.97831 2.01616,-9.91256 2.63481,-2.38777 2.51363,-4.4601 2.77929,-9.87512 0.0448,-0.91439 0.17418,-12.25998 0.60556,-12.34557 4.20788,-0.83505 2.93937,-4.41701 4.33751,-9.03393 1.60808,-5.31017 4.59489,-5.62215 8.15317,-8.84676 4.06882,-3.68736 -0.57956,-3.78006 -0.30727,-9.33129 0.25785,-5.25662 -1.66084,-6.20171 -2.59459,-10.90348 -0.62702,-3.15753 -7.32208,-8.05938 -4.16374,-8.68616 0.61569,-0.12219 9.32313,-2.65816 7.13355,-5.07296 -1.92969,-2.12818 -9.57285,-2.25985 -7.44422,-4.18896 1.38611,-1.25615 3.04817,-3.94922 1.79163,-5.33499 -1.73457,-1.913 -6.21668,0.99836 -7.66328,-1.14066 -1.22227,-1.80737 -1.4995,-8.55545 -4.99626,-8.72699 -3.03135,-0.14869 -12.90476,-0.51368 -11.251,-5.97474 -3.22976,-1.81743 -5.71239,-3.80485 -4.23313,-8.68956 1.27788,-4.2198 5.31319,-4.26906 -1.22348,-6.24765 -1.56152,-0.47267 -5.60329,-7.09554 -1.98115,-7.81434 1.33234,-0.2644 8.27614,-1.4816 7.88781,-3.43691 -0.99353,-5.0032 -2.04869,-5.02036 -1.7995,-10.09972 0.0806,-1.64309 4.57369,-1.375 4.03813,-2.9305 -0.76399,-2.219 -6.57137,-7.80512 -6.52252,-8.80186 0.0981,-2.0004 3.04796,-8.65986 0.52731,-10.75035 -3.80547,-3.15608 -7.11938,-5.06986 -8.81192,-8.91416 -2.43278,-5.52549 0.64223,-3.45778 1.90389,-7.62377 1.0499,-3.46693 3.70606,-3.35864 6.47722,-5.86992 2.68646,-2.43459 6.36583,-5.01547 6.55753,-8.92504 0.15208,-3.10058 -5.96961,-6.979437 -3.39722,-8.718081 2.6661,-1.801992 6.33807,-3.033115 6.55206,-7.395776 0.34484,-7.030235 0.89458,-4.522009 4.19329,-7.511476 3.96696,-3.59504 2.60259,-0.127209 6.89674,1.172579 5.04389,1.52676 4.05256,-0.174089 7.85379,-2.743343 1.26698,-0.856326 8.62135,-1.847868 7.20293,-5.069559 -0.60369,-1.371146 3.08027,-2.331239 2.47651,-3.702344 -1.92162,-4.364519 -1.58298,-6.97874 -1.11122,-8.53643 1.21836,-4.023153 0.37791,-5.154269 -1.11122,-8.53643 -1.78072,-4.044494 0.0807,-2.342746 4.80673,-4.422331 5.43279,-2.390557 2.26201,-2.561437 5.0258,-7.470641 1.33991,-2.379962 5.67719,-3.238863 4.98837,-6.707712 -0.20631,-1.039008 -0.47651,-2.05354 -0.68282,-3.092548 L 180.866,44.026827 l 0.18091,0.565066 9.83468,19.253871 -10.20153,32.175869 -0.62938,12.831067 z"
           style="fill:#f9f9f9;fill-rule:evenodd;stroke:#000000;stroke-width:0.2;stroke-linecap:butt;stroke-linejoin:miter;stroke-miterlimit:4;stroke-dasharray:none;stroke-opacity:1" />
        <path
           id="path2237"
           d="m 354.66698,235.81254 c 0.76978,3.87637 3.85937,9.56666 9.4817,11.26849 4.86652,1.47307 2.30542,-1.80665 3.34443,-5.23764 0.69069,-2.28075 9.31425,8.50534 9.55722,9.72885 0.70236,3.53696 1.12199,-7.13806 1.29866,-10.73971 0.14924,-3.04272 -3.4242,-5.48664 -5.08809,-6.42294 -3.2845,-1.84824 -4.88601,-2.14275 -7.47369,-4.99662 -2.09803,-2.31384 -3.20474,-4.7121 -4.28034,-7.15501 -1.38296,-3.14111 -2.93582,-4.02525 -5.89588,-5.69089 -4.46326,-2.51155 0.97954,5.1376 1.27573,5.46427 2.56069,2.82409 -0.80642,8.44884 -3.49547,8.31694 -1.86861,-0.0917 0.39293,3.81521 1.27573,5.46426 z"
           style="fill:#f9f9f9;fill-rule:evenodd;stroke:#000000;stroke-width:0.2;stroke-linecap:butt;stroke-linejoin:miter;stroke-miterlimit:4;stroke-dasharray:none;stroke-opacity:1" />
      </g>
      <path
         style="fill:#f9f9f9;fill-rule:evenodd;stroke:#000000;stroke-width:0.2;stroke-linecap:butt;stroke-linejoin:miter;stroke-miterlimit:4;stroke-dasharray:none;stroke-opacity:1"
         d="m 483.40823,985.13 h -9.2515 c -2.68279,-2.68227 2.71369,-7.33743 5.3967,-10.01969 2.23935,-2.23861 3.84058,-3.05455 5.39669,-6.16596 2.20935,-4.41746 3.08376,7.61724 3.08376,8.47818 0,2.99614 -2.82749,5.31056 -4.62565,7.70747 z"
         id="path2241" />
      <g
         id="g2267"
         transform="matrix(2.2200216,0.108894,-0.1088648,2.219427,-949.44234,-337.56742)"
         style="fill:#f9f9f9;stroke-width:0.0899931;stroke-miterlimit:4;stroke-dasharray:none">
        <path
           transform="translate(-220.76186,-6.6183848)"
           id="path2265"
           d="m 741.28125,182.84375 c -0.1355,0.40652 0.14852,0.38276 -0.21875,0.75 -0.19477,0.19477 -0.62696,0.53998 -1,0.9375 -0.37304,0.39752 -0.68749,0.83465 -0.6875,1.21875 0,0.61866 -0.003,1.27156 -0.1875,1.6875 -0.0921,0.20797 -0.23548,0.3554 -0.4375,0.40625 -0.20202,0.0508 -0.45802,0.021 -0.8125,-0.15625 -0.41869,-0.20934 -0.77392,-0.29981 -1.0625,-0.3125 -0.28858,-0.0127 -0.53487,0.0394 -0.71875,0.125 -0.36777,0.17126 -0.55478,0.43162 -0.65625,0.40625 -0.63535,-0.15884 -0.96265,-0.58219 -1.28125,-0.90625 -0.1593,-0.16203 -0.32645,-0.27905 -0.5,-0.34375 -0.17355,-0.0647 -0.3749,-0.0625 -0.625,0.0625 -0.22897,0.11448 -0.92801,0.22761 -1.59375,0.375 -0.66574,0.14739 -1.28126,0.33383 -1.28125,0.59375 0,0.75096 0.16301,1.12824 0.34375,1.53125 0.18074,0.40301 0.375,0.82382 0.375,1.59375 0,0.44148 0.4127,1.18074 0.625,1.71875 0.10615,0.26901 0.17336,0.4992 0.0937,0.59375 -0.0796,0.0945 -0.29416,0.056 -0.71875,-0.15625 -0.90969,-0.45484 -2.0472,-1.34791 -3.125,-2.15625 -0.17208,-0.12906 -1.03953,-0.81681 -1.90625,-1.375 -0.43336,-0.27909 -0.86381,-0.53635 -1.21875,-0.65625 -0.35494,-0.1199 -0.64153,-0.12319 -0.75,0.0937 -0.23626,0.47253 -0.0979,1.21068 -0.0312,1.84375 0.0334,0.31653 0.0563,0.61186 0,0.84375 -0.0563,0.23189 -0.18124,0.37344 -0.4375,0.4375 -0.23909,0.0598 -0.96895,0.0533 -1.6875,0.0937 -0.71855,0.0404 -1.42687,0.14562 -1.6875,0.40625 -0.3399,0.3399 -0.69054,0.44435 -1,0.4375 -0.30946,-0.007 -0.58755,-0.11571 -0.84375,-0.28125 -0.5124,-0.33108 -0.9,-0.81876 -1.0625,-0.65625 -0.19436,0.19436 -0.69825,0.4784 -1.09375,0.75 -0.19775,0.1358 -0.36329,0.28557 -0.4375,0.40625 -0.0742,0.12068 -0.0715,0.2299 0.0937,0.3125 0.52724,0.26362 0.77841,0.41987 0.84375,0.53125 0.0653,0.11138 -0.0503,0.17485 -0.28125,0.21875 -0.46185,0.0878 -1.34696,0.11097 -2,0.4375 -0.63691,0.31846 -0.87125,0.63098 -0.90625,0.875 -0.19092,-0.18345 -0.28866,-0.29661 -0.78125,-0.625 -0.80533,-0.53688 -1.27558,-0.80558 -1.5625,-0.90625 -0.28692,-0.10067 -0.39265,-0.0405 -0.46875,0.0937 -0.0761,0.13422 -0.13963,0.33222 -0.3125,0.5 -0.17287,0.16778 -0.45403,0.3125 -1.03125,0.3125 -0.9542,0 -1.339,-0.16981 -1.375,-0.4375 -0.036,-0.26769 0.28103,-0.62478 0.65625,-1 0.33307,-0.33307 0.44684,-0.5617 0.4375,-0.75 -0.009,-0.1883 -0.1379,-0.33799 -0.375,-0.5 -0.4742,-0.32402 -1.3027,-0.72654 -2,-1.65625 -0.30931,-0.41242 -0.61366,-0.65312 -0.875,-0.78125 -0.26134,-0.12813 -0.49371,-0.14191 -0.6875,-0.0312 -0.38758,0.22133 -0.59376,0.87775 -0.59375,1.78125 0,0.63449 -0.0678,1.00269 -0.1875,1.21875 -0.11969,0.21606 -0.2958,0.29705 -0.5,0.3125 -0.2042,0.0154 -0.46522,-0.0327 -0.71875,0 -0.25353,0.0327 -0.51358,0.13857 -0.78125,0.40625 -0.35131,0.35131 -0.31895,1.22782 -0.3125,1.9375 0.003,0.35484 -0.0123,0.65547 -0.0625,0.84375 -0.0502,0.18828 -0.14502,0.2428 -0.34375,0.0937 -10e-4,-8.5e-4 -2.26856,-1.29983 -2.65625,-1.6875 -0.3513,-0.3513 -0.27758,-1.01997 -0.25,-1.625 0.0138,-0.30252 0.0268,-0.58498 -0.0312,-0.8125 -0.0581,-0.22752 -0.1965,-0.37725 -0.4375,-0.4375 -0.4076,-0.1019 -0.64134,0.0341 -0.875,0.21875 -0.23366,0.18467 -0.46777,0.41381 -0.8125,0.5 -0.23291,0.0582 -0.87668,0.2171 -1.5625,0.3125 -0.68582,0.0954 -1.4148,0.13635 -1.8125,-0.0625 -0.35926,-0.17962 -0.80834,-0.0534 -1.25,0.0625 -0.44166,0.11591 -0.87222,0.22152 -1.15625,-0.0625 -0.18186,-0.18186 -0.38344,-0.54026 -0.59375,-0.78125 -0.21031,-0.24099 -0.44313,-0.36936 -0.625,-0.1875 -0.11698,0.11699 -0.64326,0.49632 -1.15625,0.65625 -0.25649,0.08 -0.50244,0.0892 -0.6875,0 -0.18506,-0.0892 -0.3125,-0.2779 -0.3125,-0.65625 0,-0.3549 -0.30106,-1.35765 -0.71875,-2 -0.20884,-0.32118 -0.43746,-0.53062 -0.6875,-0.5625 -0.25004,-0.0319 -0.5009,0.12682 -0.75,0.625 -0.15307,0.30613 -0.55781,3.34281 -0.71875,3.375 -0.44907,0.0898 -0.96799,-0.24709 -1.4375,-0.53125 -0.23475,-0.14208 -0.44753,-0.26105 -0.65625,-0.3125 -0.20872,-0.0514 -0.40058,-0.0369 -0.5625,0.125 -0.29885,0.29885 -0.60736,0.7204 -0.65625,1.15625 -0.0244,0.21792 0.018,0.44254 0.15625,0.65625 0.13823,0.21371 0.35106,0.40991 0.71875,0.59375 0.17782,0.0889 0.19077,0.26961 0.0937,0.5 -0.097,0.23039 -0.29815,0.5169 -0.53125,0.75 -0.2331,0.2331 -0.48836,0.43422 -0.71875,0.53125 -0.23039,0.097 -0.44233,0.0841 -0.53125,-0.0937 -0.39802,-0.79605 -0.46884,-1.61348 -0.75,-2.21875 -0.14058,-0.30263 -0.3329,-0.55732 -0.625,-0.71875 -0.2921,-0.16143 -0.68589,-0.22961 -1.25,-0.1875 L 677.125,193.125 c -0.53711,0.54576 -1.12501,1.08609 -1.125,1.3125 0,0.56376 0.20056,1.39121 0.28125,2.09375 0.0403,0.35127 0.0442,0.67803 -0.0312,0.90625 -0.0755,0.22822 -0.21812,0.375 -0.5,0.375 -1.30432,0 -1.64428,0.0592 -1.78125,0.28125 -0.13697,0.22205 -0.0673,0.59849 -0.625,1.15625 -0.43794,0.43793 -2.27022,0.67279 -2.65625,1.1875 -0.18747,0.24996 -0.44973,0.97486 -0.75,1.59375 -0.30027,0.61889 -0.6391,1.1371 -0.9375,1.0625 -0.20984,-0.0525 -0.31086,-0.21813 -0.375,-0.4375 -0.0641,-0.21937 -0.0782,-0.47499 -0.0937,-0.75 -0.0156,-0.27501 -0.0609,-0.56188 -0.125,-0.78125 -0.0641,-0.21937 -0.16516,-0.38504 -0.375,-0.4375 -0.49586,-0.12396 -0.75414,-0.0811 -0.90625,0.0312 -0.15211,0.11232 -0.19901,0.28826 -0.21875,0.5 -0.0197,0.21174 -0.0263,0.4507 -0.125,0.625 -0.0987,0.1743 -0.29834,0.28125 -0.6875,0.28125 -0.97038,0 -1.32112,0.259 -1.625,0.5 -0.30388,0.241 -0.54399,0.46875 -1.25,0.46875 -0.69841,0 -1.59561,-0.1195 -2.40625,-0.21875 -0.81064,-0.0993 -1.54056,-0.15602 -1.9375,0 l 0.5625,-1.0625 -2.5,1.53125 -0.875,0.21875 c 0.36913,0.23871 0.82926,0.43976 1.21875,1.21875 0.5659,1.1318 0.64982,1.78769 -0.6875,3.125 -1.25441,1.25441 -0.69794,1.57291 1.03125,2.4375 1.3713,0.68565 1.27579,1.61955 2.4375,2.78125 2.41219,2.41219 0.92298,10e-6 2.09375,0 0.91787,0 0.36325,0.3535 2.40625,1.375 1.82634,0.91317 0.75268,3.82949 2.09375,4.5 1.16233,0.58116 2.13339,1.08231 3.46875,1.75 1.57161,0.7858 2.30358,1.24108 3.46875,2.40625 1.24097,1.24096 2.62206,1.24708 3.8125,2.4375 0.47363,0.47363 2.47547,2.02454 1.375,3.125 -0.90301,0.90301 0.79849,3.24139 -0.34375,3.8125 -1.10432,0.55216 -2.76871,1.36883 -2.0625,2.78125 0.17035,0.34069 2.63707,3.35457 0.34375,2.78125 -1.72413,-0.43103 -1.86614,-1.17864 -3.125,-2.4375 -1.46038,-1.46037 -2.58227,-1.375 -4.84375,-1.375 -3.21903,0 -0.74176,0.97699 0,1.71875 0.88912,0.88911 1.96357,1.65108 3.09375,2.78125 0.33827,0.33827 2.62452,2.15443 2.78125,2.78125 0.48706,1.94826 -1.21462,3.07899 -1.03125,3.8125 0.22652,0.90608 0.99991,2.47929 0,3.8125 -1.01665,1.35554 -2.2075,1.94873 -0.6875,3.46875 0.94654,0.94654 1.64709,2.04229 3.125,2.78125 1.09353,0.54677 2.40626,1.14386 2.40625,2.78125 0,3.10383 1.8653,0.80279 3.46875,2.40625 0.87091,0.87091 2.18613,2.65559 3.125,3.125 1.2883,0.64415 3.12499,1.80632 3.125,3.46875 0,1.99512 0.79274,2.85524 2.09375,4.15625 1.02648,1.02648 1.64847,1.99221 2.78125,3.125 1.16516,1.16516 1.79424,1.48174 3.09375,2.78125 1.04251,1.04251 0.5063,3.25627 1.40625,4.15625 1.075,1.075 1.7289,1.72891 3.125,3.125 1.04702,1.04702 2.30281,1.47639 1.71875,3.8125 -0.44495,1.77981 -1.18968,2.38377 -1.71875,4.5 -0.30023,1.20092 -0.11036,3.23534 -1.0625,4.1875 -2.36223,2.36223 -0.68751,1.65329 -0.6875,3.8125 0,0.39477 -1.0163,4.50748 0.34375,5.1875 2.79474,1.39738 0.36716,-1.54492 2.4375,-2.0625 1.02792,-0.25698 2.10347,-0.33408 3.46875,1.03125 1.20709,1.20709 0.91062,3.73657 2.4375,4.5 1.64147,0.82074 1.99645,1.65268 3.46875,3.125 1.45419,1.45419 2.89307,1.17434 4.15625,2.4375 1.0147,1.0147 3.30712,1.21336 4.15625,2.0625 0.19335,0.19335 2.78127,2.34532 2.78125,2.78125 0,1.96891 -1.73601,4.51403 -0.34375,5.90625 0,0.27296 -0.13273,1.58605 0,1.71875 1.14798,1.14798 1.71874,1.28329 1.71875,3.8125 0,1.91221 -0.34375,3.72196 -0.34375,5.21875 0,1.20147 0.49544,4.00456 -0.34375,4.84375 -0.86714,0.86714 -0.16415,3.32035 -1.03125,4.1875 -2.05012,2.05012 0.68752,1.24513 0.6875,3.09375 0,1.60766 0.18546,3.80417 1.71875,4.1875 0.85423,0.21355 0.27494,-2.83127 1.0625,-2.4375 1.11378,0.55689 2.58822,2.25553 3.46875,1.375 1.60304,-1.60304 0.53199,-1.15552 -1.0625,-2.75 -0.91404,-0.91404 -2.97281,-3.78228 -1.71875,-3.46875 1.59472,0.39868 2.03792,0.91961 2.78125,2.40625 0.42581,0.85163 1.0666,2.47283 2.0625,3.46875 0.29959,0.29959 2.07866,3.12501 0,3.125 -1.51808,0 -3.89182,-0.0266 -4.15625,1.03125 -0.15268,0.6107 0.50946,4.19988 0.6875,3.84375 0.22505,-0.4501 0.76159,-3.6826 1.40625,-3.84375 1.0137,-0.25343 4.80573,-1.05067 5.875,0.375 0.51864,0.51864 1.18769,0.96898 1.75,1.71875 0.65322,0.87095 2.20999,2.55864 2.4375,3.46875 0.39733,1.58929 0.58354,2.33356 1.71875,3.46875 0.26253,0.26253 2.79371,2.30629 2.4375,2.78125 -0.46683,0.62244 -2.59598,2.27901 -1.40625,3.46875 0.58959,0.58959 3.27783,1.78813 2.78125,2.78125 -0.48293,0.96585 -2.40624,2.72031 -2.40625,3.46875 0,2.13767 1.37498,3.05565 1.375,4.15625 0,0.99582 0.56074,4.43982 0,5.1875 -0.94296,1.25728 -1.74998,2.88733 -1.75,4.53125 0,1.43012 -1.67084,2.87712 -1.03125,4.15625 1.17331,2.34662 0.99109,-0.27565 2.09375,0 0.27744,0.0694 3.82088,0.69586 4.15625,1.03125 0.79561,0.79561 2.53331,1.94161 3.125,3.125 0.59118,1.18237 2.32688,2.51688 0.6875,4.15625 -1.75014,1.75014 -1.0132,1.09862 0,3.125 0.73234,1.46469 1.36607,1.76783 0.34375,3.8125 -0.14408,0.28815 -2.48678,2.74097 -1.03125,3.46875 1.09256,0.54628 1.96329,1.34103 3.46875,2.09375 1.22398,0.61199 1.84326,1.49954 3.125,2.78125 1.62007,1.62007 1.84258,-0.93864 3.125,0.34375 0.91361,0.91361 2.43383,1.86038 2.75,3.125 0.25697,1.02787 1.56653,3.42288 3.125,3.8125 0.9277,0.23193 2.77001,-1.6725 3.125,-1.40625 1.21412,0.9106 2.02504,1.68128 3.46875,3.125 0.86704,0.86704 2.44222,3.47111 3.8125,4.15625 1.14929,0 3.88168,-0.49667 4.875,0 1.206,0.603 3.66911,2.01712 4.5,3.125 0.86361,1.15147 3.12501,1.61931 3.125,3.125 0,1.76539 -0.0768,3.39193 1.03125,4.5 1.26923,1.26922 1.76844,1.40625 4.15625,1.40625 1.73428,0 3.4845,0 5.21875,0 2.03581,0 2.81509,2.06251 4.15625,2.0625 1.65431,0 3.66352,-0.11774 4.5,0.71875 0.91739,0.91739 2.14741,1.77241 3.125,2.75 1.2175,1.2175 1.80481,2.14857 3.125,3.46875 0.77266,0.77266 2.40409,1.68322 3.125,3.125 0.67497,1.34993 1.18196,1.86946 2.4375,3.125 1.25986,1.25986 2.05548,1.36799 3.46875,2.78125 0.87473,0.87473 2.65285,2.88892 3.8125,3.46875 1.08124,0.54062 3.125,1.21245 3.125,2.78125 0,2.275 1.25865,2.65841 3.125,3.125 1.60055,0.40014 2.77482,0.68102 3.8125,1.71875 0.7663,0.7663 2.40973,2.76726 2.0625,4.15625 -0.32676,1.30705 -0.70043,3.13043 0,4.53125 0.77589,1.55178 0.70793,2.06521 2.09375,1.71875 0.6044,-0.15109 3.89601,0.0409 3.46875,1.75 -0.44071,1.76285 -1.19136,3.13378 1.71875,2.40625 1.32266,-0.33067 2.6514,-1.16108 3.8125,0 0.26258,0.26257 1.74374,3.03749 2.09375,3.125 1.69413,0.42353 2.78125,-1.03558 2.78125,1.75 0,1.46709 -1.33613,3.14443 0,3.8125 0.79867,0.39934 2.63088,1.07427 3.125,2.0625 0.25504,0.51007 2.58375,3.1025 2.40625,3.8125 -0.54266,2.17061 -0.58107,1.29075 1.40625,2.78125 0.96392,0.72294 2.59369,1.56244 3.46875,2.4375 0.69851,0.69851 0.33272,2.08275 1.03125,2.78125 0.98226,0.98227 1.8951,2.45976 2.78125,0.6875 0.77393,-1.54786 1.80645,-2.00607 3.46875,-0.34375 1.16892,1.16891 2.78127,1.52166 2.78125,3.46875 0,1.90004 -1.3216,3.32359 0.34375,4.15625 0.46247,0.23124 0.91252,0.45626 1.375,0.6875 0.3794,0.1897 1.04831,0.32953 1.40625,0.6875 0.86028,0.86028 2.07283,1.08311 2.75,2.4375 0.69769,1.39537 0.46497,2.45362 0.71875,3.46875 0.27783,1.11133 0.97444,1.29268 1.71875,2.78125 0.71514,1.43028 -3e-5,1.86174 0,4.15625 0,0.82416 0.5183,4.70043 0,5.21875 -0.6109,0.6109 -2.47582,2.59061 -2.78125,3.8125 -0.50689,2.02756 -1.22401,2.47932 -2.0625,4.15625 -0.71709,1.43418 -0.8852,1.82305 1.03125,2.78125 1.15575,0.57788 3.04505,-0.42366 3.125,-0.34375 0.57415,0.57415 3.01944,2.51592 2.78125,3.46875 -0.16878,0.67509 -2.71236,1.78692 -2.78125,2.0625 -0.51134,2.04533 -0.54983,2.91895 0.6875,4.15625 0.0985,0.0985 3.06258,2.1562 2.78125,2.4375 -0.84088,0.84088 -3.54698,2.4371 -4.15625,0 -0.44885,-1.79537 0.11498,-3.19813 -1.40625,-2.4375 -0.83467,0.41733 -3.0572,2.11201 -1.03125,3.125 2.21296,1.10648 1.03122,0.97857 1.03125,3.125 0,0.91884 0.22775,2.68299 2.09375,1.75 1.02088,-0.51044 2.64335,-1.3071 3.46875,0.34375 1.37406,2.74812 -0.95883,0.61654 -1.40625,2.40625 -0.11562,0.46248 -0.22813,0.94374 -0.34375,1.40625 l 99.90625,-4.875 c 0,-1.71982 0.68752,-3.38572 0.6875,-4.5 0,-2.26504 -1.41789,-2.60904 -1.71875,-3.8125 -0.61123,-2.44493 1.65723,-2.87887 2.0625,-4.5 0.56931,-2.27721 0.0989,-1.99485 -1.375,-3.46875 -0.81988,-0.81988 -0.87378,-3.50754 -2.09375,-3.8125 -1.08468,-0.27117 -2.28215,-1.93841 -3.125,-2.78125 -1.11198,-1.11198 -2.78155,-3.79671 -1.375,-4.5 2.29957,-1.14978 0.29857,-2.39231 1.71875,-3.8125 0.62159,-0.62158 1.76562,-2.40623 1.40625,-3.84375 -0.46294,-1.85175 -3.01892,-2.32572 -3.125,-2.75 -0.32702,-1.30807 -1.49077,-4.67471 -2.09375,-3.46875 -0.73413,1.46825 -3.87394,1.49791 -4.15625,2.0625 -0.53063,1.06126 -1.84612,2.0457 -3.8125,1.0625 -2.83349,-1.41675 -1.50538,-1.8491 -3.125,-3.46875 -1.03413,-1.03413 -4.15623,0.0562 -4.15625,-1.40625 0,-2.74438 -1.59718,-2.51379 -2.09375,-4.5 -0.47345,-1.89381 0.76445,-3.31722 0.375,-4.875 -0.54372,-2.17487 -1.6373,-2.55586 -2.4375,-4.15625 -0.62913,-1.25826 -2.73628,-2.25765 -3.125,-3.8125 -0.43775,-1.75098 -1.24643,-3.17314 -1.75,-5.1875 -0.4758,-1.9032 -1.28824,-3.4968 -1.71875,-5.21875 -0.93023,-3.72093 -1.55168,-1.47416 -2.4375,-1.03125 -1.37969,0.68984 -4.5,-0.51129 -4.5,1.03125 0,2.42979 -0.6883,5.21792 -3.8125,2.09375 -1.02827,-1.02827 -2.43125,-3.81879 -1.03125,-5.21875 2.01835,-2.01836 -0.71875,-1.58874 -0.71875,-2.78125 0,-1.18123 0.51089,-4.50001 -0.6875,-4.5 -1.39703,0 -3.81253,3.14704 -3.8125,1.75 0,-1.79977 0.093,-3.90546 -1.71875,-2.09375 -0.95691,0.95692 -4.80068,0.44933 -3.84375,1.40625 0.86714,0.86714 1.91409,1.53912 2.78125,2.40625 1.38969,1.38969 1.15222,1.75 -1.375,1.75 -1.02169,0 -5.27542,0.42952 -5.5625,-0.71875 -0.37412,-1.49649 2.15322,-3.40927 1.0625,-4.5 -1.20501,-1.20502 -0.14075,-2.89074 -0.71875,-3.46875 -0.75374,-0.75374 -3.01593,-1.92954 -2.0625,-2.40625 3.00071,-1.50035 1.71876,-2.31207 1.71875,-4.53125 0,-2.52525 -2.74999,-2.66348 -2.75,-4.84375 0,-1.86429 -4.58987,-4.42286 -2.78125,-4.875 2.36432,-0.59108 0.21962,-0.78036 -1.0625,-2.0625 -1.39969,-1.3997 -3.46887,-2.40613 -1.71875,-4.15625 0.48086,-0.48085 2.15704,-2.71796 0.6875,-4.1875 -0.8481,-0.84809 -3.33965,-1.66124 -4.15625,-2.75 -0.6115,-0.81533 -1.97165,-4.12642 -2.78125,-4.53125 -1.83174,-0.91587 -3.28838,-1.91339 -4.5,-3.125 -0.979,-0.97899 -2.02889,-1.65391 -3.46875,-3.09375 -1.07159,-1.07159 -3.50918,-0.72795 -4.875,-2.09375 -0.54887,-0.54887 -1.84359,-3.75776 -2.0625,-3.8125 -1.81382,-0.45345 -2.16434,-1.1331 -3.46875,-2.4375 -0.84985,-0.84984 -2.82374,-1.20129 -3.125,-2.40625 -0.68391,-2.73565 -2.28225,-0.21973 -3.8125,-1.75 -1.17055,-1.17054 -0.61315,-3.75967 -2.09375,-4.5 -0.97588,-0.48794 -3.7133,-0.52033 -4.15625,-1.40625 -1.37126,-2.74252 -0.34083,-1.90479 -2.78125,-3.125 -1.37214,-0.68607 -2.46956,-1.75083 -3.46875,-2.75 -0.7075,-0.7075 -3.46071,-1.03026 -3.8125,-2.4375 -0.40442,-1.61769 -5.33532,-3.96034 -4.15625,-2.78125 0.4483,0.4483 2.22774,3.81249 -0.34375,3.8125 -1.46861,0 -4.15626,0.24728 -4.15625,-1.375 0,-2.60394 -3.81248,-2.12745 -3.8125,-2.78125 0,-1.35328 -2.21823,-2.72989 -1.40625,-3.8125 1.70167,-2.26891 -0.34376,-1.86518 -0.34375,-3.46875 0,-2.86949 0.88061,-0.67626 -0.34375,-3.125 -1.17327,-2.34653 -2.48646,-0.71195 -4.5,-1.71875 -0.5579,-0.27895 -1.70889,-3.125 -2.09375,-3.125 -1.91134,0 -3.28323,-1.03516 -3.8125,-2.09375 -0.11562,-0.11562 -0.27064,-0.19751 -0.34375,-0.34375 -0.50371,-1.0074 -0.96836,-2.68714 -1.75,-3.46875 -1.43569,-1.43569 -0.9835,-3.27778 -1.375,-4.84375 -0.65691,-2.62767 -1.75134,-1.78395 -2.78125,-3.84375 -0.3979,-0.79582 -2.95678,-2.4209 -3.125,-3.09375 -0.275,-1.1 -1.03128,-3.36863 -1.03125,-4.53125 0,-1.22904 3.65028,-1.53719 2.78125,-2.40625 -2.54765,-2.54766 0.91384,-2.55487 0,-3.46875 -0.95297,-0.95297 -2.53097,-2.43851 -2.09375,-4.1875 0.22124,-0.88495 2.68423,-2.42108 2.4375,-2.75 -1.74661,-2.32881 -0.34378,-2.63372 -0.34375,-5.21875 0,-1.80676 0.0606,-3.57005 -0.34375,-5.1875 -0.72642,-2.90567 1.71562,-2.45004 1.375,-3.8125 -0.52368,-2.09472 -1.37502,-2.68842 -1.375,-5.21875 0,-1.74184 -1.48039,-3.19912 -2.78125,-4.5 -1.10202,-1.10202 -2.6677,-1.63954 -3.125,-3.46875 -0.3141,-1.25641 -0.94105,-4.54831 -0.6875,-5.5625 0.41467,-1.65866 0.76162,-2.58578 1.375,-3.8125 0.87779,-1.75558 0.23475,-1.62425 -0.6875,-3.46875 -0.57466,-1.14932 1.24836,-2.90785 1.03125,-3.125 -1.01419,-1.01418 -2.40623,-0.82184 -2.40625,-3.125 0,-1.18969 0.36176,-1.78487 0.71875,-2.28125 h -0.34375 c -0.40165,-0.0803 -0.77787,-0.25 -1.1875,-0.25 -0.95735,0 -2.94248,0.5 -3.125,0.5 -0.99038,0 -1.5491,-0.11755 -1.84375,-0.46875 -0.29465,-0.3512 -0.34376,-0.93235 -0.34375,-1.9375 0,-0.63711 0.0202,-1.28227 -0.1875,-1.71875 -0.10384,-0.21824 -0.26157,-0.38503 -0.5,-0.46875 -0.23843,-0.0837 -0.57187,-0.10703 -1,0 -0.59732,0.14933 -0.91277,0.32534 -1.28125,0.46875 -0.36848,0.14341 -0.77307,0.25 -1.59375,0.25 -0.37311,0 -1.09054,-0.22627 -1.5625,-0.625 -0.23598,-0.19937 -0.42271,-0.4616 -0.46875,-0.71875 -0.046,-0.25715 0.0567,-0.5255 0.34375,-0.8125 0.95878,-0.95877 1.18676,-0.92438 1.03125,-0.78125 -0.0778,0.0716 -0.27344,0.18223 -0.5,0.1875 -0.22656,0.005 -0.49239,-0.0861 -0.78125,-0.375 -0.79531,-0.79531 -1.0289,-0.92208 -1.375,-0.84375 -0.3461,0.0783 -0.80581,0.375 -2,0.375 l -0.46885,3.5938 c -0.241,0 -0.47774,-10e-6 -0.71875,0 -0.64927,0 -1.48542,0.0908 -2.28125,0.0937 -0.79583,0.003 -1.55719,-0.0598 -2.0625,-0.3125 l -6.75,0.71875 -3.375,4.34375 -2.65625,-0.25 L 789,305.75 c -1.01705,-0.50852 -1.74221,-0.81 -2.375,-0.90625 -0.63279,-0.0962 -1.17005,0.026 -1.71875,0.4375 -0.78202,0.58651 -1.75605,1.3624 -2.40625,1.6875 -0.76661,0.3833 -1.26061,0.51417 -1.59375,0.46875 -0.33314,-0.0454 -0.49644,-0.27645 -0.625,-0.5625 -0.12856,-0.28605 -0.22212,-0.63015 -0.375,-0.96875 -0.15288,-0.3386 -0.37515,-0.67195 -0.78125,-0.875 -0.417,-0.2085 -0.72327,-0.28398 -0.96875,-0.28125 -0.24548,0.003 -0.43652,0.0778 -0.5625,0.1875 -0.25197,0.21936 -0.28891,0.57223 -0.375,0.59375 -0.66243,0.16561 -1.78748,0.5008 -2.6875,0.625 -0.45001,0.0621 -0.85995,0.0567 -1.125,-0.0312 -0.26505,-0.088 -0.3953,-0.26254 -0.3125,-0.59375 l -8.65625,-13.25 7.21875,1.6875 7.25,-0.25 2.40625,-2.40625 -0.25,-2.65625 -3.625,-7.21875 c 0.11042,0.0276 2.18651,0.47263 2.1875,0.46875 0.13761,-0.55042 0.16963,-1.07715 0.125,-1.5625 -0.0446,-0.48535 -0.17494,-0.94365 -0.375,-1.34375 -0.18361,-0.36723 -0.50004,-0.76382 -0.90625,-1.09375 -0.40621,-0.32993 -0.8985,-0.59375 -1.5,-0.59375 -0.41727,0 -0.77828,-0.11463 -1.09375,-0.28125 -0.31547,-0.16662 -0.59673,-0.3569 -0.875,-0.5625 -0.27827,-0.2056 -0.5381,-0.41433 -0.84375,-0.53125 -0.30565,-0.11692 -0.66489,-0.16191 -1.0625,-0.0625 -0.15188,0.038 -0.91099,0.19053 -1.65625,0.21875 -0.37263,0.0141 -0.76127,0.003 -1.03125,-0.0625 -0.26998,-0.0653 -0.4375,-0.21032 -0.4375,-0.40625 0,-0.35812 -0.0903,-0.60721 -0.25,-0.78125 -0.15967,-0.17404 -0.36962,-0.27321 -0.59375,-0.28125 -0.22413,-0.008 -0.46286,0.0788 -0.65625,0.21875 -0.19339,0.1399 -0.37006,0.35523 -0.4375,0.625 -0.0891,0.35636 -0.20877,0.57019 -0.375,0.71875 -0.16623,0.14856 -0.37591,0.2206 -0.59375,0.28125 -0.43568,0.1213 -0.94847,0.19848 -1.4375,0.6875 -0.60129,0.6013 -1.04861,1.29859 -1.90625,2.15625 -0.45704,0.45704 -0.78177,0.64039 -0.96875,0.5 -0.18698,-0.14039 -0.25001,-0.60929 -0.25,-1.46875 0,-0.60405 0.0197,-1.15974 0.125,-1.65625 0.10528,-0.49651 0.2919,-0.91691 0.59375,-1.21875 0.42749,-0.42749 0.67838,-0.67868 0.8125,-1.0625 0.13412,-0.38382 0.15624,-0.9146 0.15625,-1.84375 0,-0.75 -0.10577,-1.15078 -0.3125,-1.5 -0.20673,-0.34922 -0.49695,-0.65219 -0.875,-1.15625 -0.41045,-0.54728 -0.73492,-0.81223 -0.90625,-1.03125 -0.17133,-0.21902 -0.19432,-0.39264 -0.0625,-0.65625 0.0463,-0.0927 0.50487,-0.59715 0.875,-1.15625 0.18506,-0.27955 0.3307,-0.54828 0.40625,-0.8125 0.0756,-0.26422 0.0672,-0.49532 -0.0937,-0.65625 -0.28485,-0.28485 -0.66091,-0.52996 -0.9375,-0.875 -0.27659,-0.34504 -0.43625,-0.81758 -0.25,-1.5625 0.14177,-0.56709 0.33065,-0.83791 0.5625,-0.96875 0.23185,-0.13084 0.49583,-0.0932 0.78125,-0.0312 0.28542,0.0619 0.60377,0.14507 0.90625,0.15625 0.30248,0.0112 0.59197,-0.0607 0.875,-0.34375 0.39396,-0.39396 0.53345,-0.68716 0.65625,-1.03125 0.1228,-0.34409 0.24271,-0.7354 0.5625,-1.375 0.10042,-0.20083 0.35208,-0.30301 0.6875,-0.3125 0.33542,-0.009 0.73303,0.0594 1.09375,0.15625 0.36072,0.0968 0.6987,0.2256 0.875,0.34375 l 0.6875,-4.28125 -4.09375,-8.21875 1.6875,-4.3125 0.25,-7.96875 -5.53125,-6.03125 -7.96875,-8.4375 c -0.48199,0.0803 -0.96349,0.13149 -1.4375,0.25 -0.28464,0.0712 -0.93968,0.14159 -1.53125,0.0312 -0.29579,-0.0552 -0.5772,-0.15534 -0.78125,-0.3125 -0.20405,-0.15716 -0.34375,-0.39061 -0.34375,-0.6875 0,-0.67275 0.39534,-1.27606 0.59375,-1.78125 0.0992,-0.2526 0.16816,-0.47165 0.0937,-0.65625 -0.0744,-0.1846 -0.29067,-0.33829 -0.6875,-0.4375 -1.03928,-0.25982 -1.23195,-0.45008 -1.0625,-0.65625 0.16945,-0.20617 0.70103,-0.41979 1.0625,-0.78125 0.27014,-0.27015 0.66225,-0.71457 0.78125,-1.15625 0.0595,-0.22084 0.0497,-0.43755 -0.0625,-0.65625 -0.11216,-0.2187 -0.34569,-0.43847 -0.71875,-0.625 -1.09267,-0.54633 -1.32129,-0.77846 -1.40625,-1 -0.085,-0.22154 -0.0358,-0.41081 -0.53125,-0.90625 -0.37194,-0.37194 -0.83601,-0.75878 -1.25,-1.1875 -0.41399,-0.42872 -0.76522,-0.90466 -0.90625,-1.46875 -0.10205,-0.40819 -0.7098,-0.92566 -1.3125,-1.46875 -0.6027,-0.54309 -1.20565,-1.1039 -1.34375,-1.65625 -0.13939,-0.55756 -0.32001,-1.06649 -0.34375,-1.53125 -0.0237,-0.46476 0.11842,-0.89967 0.59375,-1.375 0.15552,-0.15552 0.0573,-0.32689 0.21875,-0.46875 0.16142,-0.14186 0.592,-0.24999 1.71875,-0.25 0.40165,0 0.78587,0 1.1875,0 l 0.96875,-9.875 -3.625,-3.875 z m -27.875,12.71875 c 0.10344,0.10054 0.40057,0.28237 0.4375,0.34375 0.10466,0.17395 -0.0451,0.20488 -0.1875,0.125 -0.1353,-0.0759 -0.26524,-0.2427 -0.25,-0.46875 z"
           style="fill:#f9f9f9;fill-rule:evenodd;stroke:#000000;stroke-width:0.0899931;stroke-linecap:butt;stroke-linejoin:miter;stroke-miterlimit:4;stroke-dasharray:none;stroke-opacity:1" />
        <path
           transform="translate(-220.76186,-6.6183848)"
           id="path2239"
           d="m 955.23884,478.45666 c 0,1.50748 -0.71247,-3.04665 -0.34685,-4.50912 0.55216,-2.20862 2.44126,-1.02729 0.69371,-2.77484 -0.34301,-0.343 -3.91781,-0.91834 -4.16226,-1.04056 -0.56836,-0.28418 -0.43932,-2.86731 -1.04057,-3.46855 -1.10238,-1.10238 -0.64938,-2.95216 -0.34685,-4.16226 0.55249,-2.20997 0.76553,-2.97805 0,-4.50912 -0.73667,-1.47334 -0.72036,-2.66823 -0.34686,-4.16226 0.43659,-1.74637 1.22079,-2.42799 -1.73427,-2.42799 -0.90803,0 -2.90791,-0.69371 -4.50912,-0.69371 -0.61478,0 -2.30346,0.69371 -3.8154,0.69371 -2.15308,0 -2.84724,-0.38305 -4.16226,-1.04056 -1.07092,-0.53546 -0.46812,-4.02409 -0.34686,-4.50912 0.43946,-1.75782 1.29427,-1.57372 0.34686,-3.46855 -0.74821,-1.49642 -0.9672,-2.35461 -2.08114,-3.46855 -1.04548,-1.04548 -0.87191,-2.95304 -2.08113,-4.16226 -1.20374,-1.20374 -1.8197,-2.25198 -2.42798,-3.46855 -0.56911,-1.13822 -2.66028,-2.16864 -3.46855,-2.77484 -1.76712,-1.32534 -1.87358,-2.35834 -3.81541,-1.38742 -1.69814,0.84907 -0.30624,1.04056 -2.42798,1.04056 -1.41612,0 0,2.9222 0,3.81541 0,2.52412 -0.047,2.61315 -2.08113,3.1217 -1.73228,0.43306 -0.58964,2.49741 -0.34686,3.46855 0.43731,1.74923 2.20993,0.60444 3.1217,2.42798 0.70643,1.41288 0.61328,3.14685 1.04056,4.85597 0.0884,0.35372 2.10315,1.47549 2.42799,2.77484 0.57239,2.28955 -1.01752,3.21417 1.38742,3.81541 2.22073,0.55518 3.24071,-0.91134 3.8154,1.38742 0.49915,1.99659 0.43717,2.53728 2.77484,3.12169 1.25504,0.31376 3.11059,3.22251 3.81541,4.16227 0.97432,1.29909 2.50858,2.29485 3.46855,2.77484 1.05395,0.52697 1.38982,2.43038 2.08113,3.12169 1.03615,1.03615 2.99777,2.37837 3.81541,3.46855 1.14767,1.53024 1.58195,1.77648 2.42798,3.46855 0.30126,0.60251 3.70739,0.93255 4.50912,1.73428 1.12152,1.12152 2.19826,1.48113 3.8154,2.77484 z"
           style="fill:#f9f9f9;fill-rule:evenodd;stroke:#000000;stroke-width:0.0899931;stroke-linecap:butt;stroke-linejoin:miter;stroke-miterlimit:4;stroke-dasharray:none;stroke-opacity:1" />
        <path
           transform="translate(-220.76186,-6.6183848)"
           id="path2243"
           d="m 792.91067,569.67954 c 2.84918,-1.79746 0.95035,-1.7483 0.34686,-4.16226 -0.0549,-0.21944 3.1267,0.005 1.04056,-2.08113 -1.07307,-1.07308 0.0382,-3.54502 0.34686,-4.16226 0.71743,-1.43485 1.04056,-2.56083 1.04056,-4.16226 0,-1.10438 -1.91847,-2.44954 -2.42798,-3.46855 -0.75994,-1.51989 -0.69371,-3.00773 -0.69371,-4.85597 0,-1.51894 -0.42057,-3.76342 -0.69371,-4.85598 -0.43676,-1.74704 -1.73428,-1.12482 -1.73428,-3.8154 0,-2.15542 -3.20518,0.0417 -3.8154,0.34685 -1.54978,0.77489 -0.82739,2.77484 1.04056,2.77484 0.16595,0 -1.12257,2.42799 -2.77484,2.42799 -0.23186,0 1.0164,4.06557 1.04057,4.16226 0.12736,0.50945 1.38742,1.55867 1.38742,3.81541 0,0.65644 -1.80145,2.34982 -2.08113,3.46855 -0.30206,1.20824 -2.02576,1.51277 -2.42799,3.12169 -0.1274,0.50961 -3.6238,1.29162 -3.8154,1.38742 -1.23623,0.61812 -0.82203,3.81541 1.04056,3.81541 2.40135,0 2.663,-0.57904 4.50912,-1.04057 1.21939,-0.30484 1.35997,1.67937 2.08113,3.1217 0.83162,1.66324 0.4977,2.32998 2.08113,3.12169 1.70962,0.85481 2.77484,-3.05484 2.77484,0.69371 0,0.58955 1.15618,0.23124 1.73427,0.34686 z"
           style="fill:#f9f9f9;fill-rule:evenodd;stroke:#000000;stroke-width:0.0899931;stroke-linecap:butt;stroke-linejoin:miter;stroke-miterlimit:4;stroke-dasharray:none;stroke-opacity:1" />
      </g>
      <path
         style="fill:#f9f9f9;fill-rule:evenodd;stroke:#000000;stroke-width:0.2;stroke-linecap:butt;stroke-linejoin:miter;stroke-miterlimit:4;stroke-dasharray:none;stroke-opacity:1"
         d="m -166.39876,647.41238 c 0.11134,0.36036 -0.0476,1.3486 -0.22488,1.70743 -0.0802,0.16237 -0.8791,0.7761 -1.012,0.91063 -0.33797,0.34213 -0.33109,0.65293 -0.89954,0.79679 -0.26727,0.0676 -0.54414,1.11997 -0.67468,1.25211 -0.26554,0.26882 -0.44977,1.23023 -0.44977,1.5936 0,0.74242 0.19759,1.08827 -0.44978,1.25211 -0.56418,0.14278 -0.7095,0.49057 -1.012,0.79679 -0.34061,0.34481 -0.51518,0.7492 -0.78709,1.02446 -0.30244,0.30616 -0.49281,0.77009 -0.67467,1.13828 -0.26425,0.53502 -0.29758,1.09115 -0.44976,1.70742 -0.12867,0.52096 -0.33735,0.83179 -0.33735,1.36594 0,0.55101 0.19128,1.116 0.33735,1.70742 0.10877,0.44048 -0.22491,0.8605 -0.22491,1.47976 0,0.71772 0.21678,0.9916 0.33735,1.47977 0.15813,0.64031 0.43694,0.97248 0.56221,1.47977 0.10803,0.43742 0.22488,0.84973 0.22488,1.47977 0,0.56913 0,1.13828 0,1.70741 0,0.76326 0.25084,1.07262 0.78711,1.47977 0.58167,0.44163 0.48135,0.82877 0.89956,1.25211 0.36287,0.36734 0.79471,0.51608 1.12443,0.68297 0.75131,0.38028 0.92172,0.45531 1.79911,0.45531 0.49643,0 0.72681,0.32623 1.23687,0.45532 0.56124,0.14204 0.64915,0.42948 1.012,0.79679 0.34204,0.34625 0.68564,0.46642 1.01199,0.7968 0.39447,0.39933 0.71442,0.64963 1.012,1.25211 0.21229,0.42983 0.41366,0.95131 0.67465,1.47977 0.26376,0.53399 0.42503,1.00567 0.89955,1.36594 0.38222,0.29019 0.50437,0.6244 0.78711,0.91062 0.35735,0.36175 0.44995,0.8538 1.012,1.13828 0.18385,0.0931 0.70323,0.68481 0.78711,1.02445 0.14531,0.58841 0.52949,0.77196 1.01199,1.13828 0.34225,0.25985 0.57947,1.09432 0.67466,1.47977 0.14875,0.60231 0.22488,0.949 0.22488,1.5936 0,0.54904 0.33735,1.15102 0.33735,1.82124 0,0.70471 0.006,1.03064 0.33732,1.36594 0.56356,0.57051 0.30002,0.87236 0,1.47977 -0.23189,0.46951 -0.3468,1.17659 -0.44977,1.5936 -0.12738,0.51581 0.0179,1.21082 0.11245,1.59359 0.35383,1.4328 0.3429,2.40735 0.89954,4.09781 0.14683,0.44593 0.24287,0.83782 0.11245,1.36594 -0.10247,0.41487 -0.45038,0.45772 -0.56223,0.91063 -0.16613,0.67269 -0.50357,1.30657 -0.78711,1.59359 -0.36686,0.3714 -0.32508,0.86101 -0.44977,1.36594 -0.11032,0.44677 -0.44977,0.4765 -0.44977,1.25211 0,0.43074 0.51461,0.97627 0.7871,1.25211 0.49865,0.50479 0.48384,0.76233 0.11244,1.13828 -0.23253,0.2354 -0.18187,0.82355 -0.33733,1.13828 -0.22837,0.46237 -0.21738,0.87272 -0.33732,1.47976 -0.14908,0.75452 0.31207,0.91447 0.56221,1.25211 0.31416,0.42405 0.48698,0.72063 0.78711,1.02446 0.39463,0.39948 0.1024,0.7348 0.67467,1.02445 0.15899,0.0805 0.11244,1.31409 0.11244,1.59359 0,0.60703 -0.33733,0.57674 -0.33733,1.36594 0,0.28412 -0.36552,1.19534 -0.44978,1.36594 -0.17719,0.35875 0,1.29576 0,1.70743 0,0.7232 -0.34038,0.6845 -0.78711,0.91062 -0.40403,0.2045 -0.33733,0.8505 -0.33733,1.36594 0,0.68845 0.29456,1.15644 0.44977,1.36594 0.012,0.0162 0.0839,1.25043 0.11246,1.36593 0.20362,0.82452 0.58282,0.43445 0,1.02446 -0.34356,0.34777 -0.38509,0.73131 -0.67467,1.02445 -0.36729,0.37182 -0.57307,0.47727 -0.78711,0.91063 -0.25014,0.50646 -0.61111,0.55305 -1.12444,0.68296 -0.40653,0.10289 -0.26589,0.83832 -0.5622,1.13829 -0.14063,0.14235 -0.13057,1.4026 -0.22491,1.59359 -0.21126,0.42773 -0.40424,0.9445 -0.78709,1.13828 -0.46507,0.23539 -0.33735,0.69245 -0.33735,1.36594 0,0.43261 -0.68344,0.60475 -0.78709,1.02445 -0.0729,0.29518 0,0.71726 0,1.02445 -0.11853,0.47995 -0.89133,0.44699 -1.23689,0.79681 -0.26096,0.26417 -0.60427,0.57978 -1.012,0.68296 -0.28331,0.0717 -0.73481,0.63004 -0.89953,0.7968 -0.43172,0.43704 -0.42387,0.45531 -1.2369,0.45531 -0.26297,0 -0.80332,-0.57735 -1.01198,-0.68296 -0.37537,-0.19 -0.0249,-0.68928 -0.89955,-0.91063 -0.74392,-0.18827 -0.57848,0.63498 -0.67467,1.02445 -0.0146,0.0591 -1.53433,0 -1.68666,0 -0.84924,0 -1.06139,-0.14145 -1.23688,0.56914 -0.0968,0.39202 -1.00637,0.22766 -1.46176,0.22766 -0.8291,0 -0.079,0.68296 -1.012,0.68296 -0.6889,0 -1.07168,-0.38329 -0.33732,-0.56913 0.69147,-0.175 -0.25903,-0.83135 -0.33734,-0.91063 -0.61331,-0.62085 0.37237,-0.68297 0.7871,-0.68297 0.63115,0 0.93428,-0.26281 1.23688,-0.56914 0.36089,-0.36533 0.59525,-0.47202 1.012,-0.68297 0.53451,-0.27055 0.46358,-0.58312 0.89955,-1.02445 0.19623,-0.19864 -0.23894,-0.96753 -0.33732,-1.36594 -0.22615,-0.91568 0.38397,-0.74957 -0.33735,-1.47977 -0.44025,-0.44566 -0.61801,-0.68468 -0.44977,-1.36593 0.18171,-0.7358 0.16106,-0.63376 -0.33732,-1.13828 -0.27773,-0.28115 0.13108,-0.49363 0,-1.02446 -0.0199,-0.0804 -0.90414,-0.57378 -1.012,-0.68297 -0.32594,-0.32995 -0.62027,-0.62789 -0.89955,-0.91062 -0.52232,-0.52874 0.22304,-1.02259 0.44977,-1.25211 0.52179,-0.52822 -0.0667,-0.97819 -0.44977,-1.36594 -0.47163,-0.47742 0.46382,-0.73277 -0.33732,-1.13828 -0.76687,-0.38814 -0.40931,-0.3916 -0.33735,-0.68297 0.0221,-0.0894 0.65816,-0.38848 0.78711,-0.91062 0.14263,-0.57756 -0.36371,-0.57612 -0.22488,-1.13829 0.14646,-0.5931 0.22488,-0.92666 0.22488,-1.47977 0,-0.24286 -0.68551,-0.81874 -0.78711,-1.02445 -0.25641,-0.51912 0.88062,-0.55955 1.12444,-0.68296 0.38902,-0.19692 0.36574,-1.08197 0.56223,-1.47977 0.30358,-0.61465 -0.11245,-0.85583 -0.11245,-1.47977 0,-0.65487 -0.11244,-1.01403 -0.11244,-1.59359 0,-0.25807 0.77808,-0.78766 0.89953,-0.91063 0.4241,-0.4293 0.33735,-0.8189 0.33735,-1.47976 0,-0.84482 -0.4001,-0.6512 -1.01199,-0.34148 -0.49235,0.2492 -1.17998,0.0994 -1.68667,0.22765 -0.42973,0.10876 -0.90461,0.28714 -1.23687,0.45531 -0.63534,0.32158 -0.56447,0.11155 -1.012,-0.34148 -0.33178,-0.33587 -0.49203,-0.65467 -0.67467,-1.02446 -0.21168,-0.42858 -0.58884,-0.57588 -1.01198,-0.68296 -0.66119,-0.16734 0.14934,-0.49266 0.33733,-0.68298 0.40473,-0.40971 0.66039,-0.54026 0.89955,-1.02445 0.20224,-0.40947 0.33732,-0.80126 0.33732,-1.36594 0,-0.26649 -0.59978,-0.83509 -0.67466,-1.13828 -0.10804,-0.43748 -0.21214,-0.77099 -0.33733,-1.02445 -0.17818,-0.36075 0.61782,-0.5116 0.89955,-0.79679 0.45282,-0.45841 0.39037,-0.91706 0.11244,-1.47977 -0.21884,-0.4431 -0.23711,-1.07393 -0.33732,-1.47977 -0.12378,-0.50123 -0.72825,-0.79144 -0.89955,-1.13828 -0.2948,-0.59685 -0.21448,-0.62078 -0.78711,-0.91063 -0.40914,-0.20709 -0.44977,-0.7162 -0.44977,-1.25211 0,-0.67735 -0.45322,-0.676 -0.11244,-1.36593 0.24302,-0.49203 0.10438,-1.15457 -0.11246,-1.5936 -0.075,-0.15177 -0.14993,-0.30354 -0.22489,-0.45531 -0.21971,-0.44487 -0.46467,-0.53898 -0.11244,-1.25211 0.1618,-0.32758 -0.57411,-0.46735 -0.89955,-0.79679 -0.2907,-0.29429 -0.43048,-0.9854 -0.56221,-1.25211 -0.2738,-0.55434 -0.39689,-0.74326 -0.78711,-1.13829 -0.41944,-0.4246 -0.53654,-0.65696 -0.89955,-1.02445 -0.16905,-0.17113 -1.12885,-0.34372 -1.34932,-0.45531 -0.45622,-0.23092 -0.60133,-0.34149 -1.34932,-0.34149 -0.47412,0 -0.0705,-1.07797 -0.44979,-1.36594 -0.36489,-0.27704 -0.51572,-0.63591 -0.78711,-0.91062 -0.43607,-0.44145 -0.11244,-0.34212 -0.11244,-1.13828 0,-0.17794 -0.83642,-0.96055 -0.89954,-1.02445 -0.48097,-0.48689 -0.79525,0.19465 -1.01199,-0.68298 -0.0604,-0.24444 -1.34347,-0.11382 -1.57422,-0.11382 -0.36334,0 -0.87957,-0.4452 -1.12444,-0.56914 -0.50795,-0.25711 -0.57035,-0.53621 -0.44978,-1.02445 0.1311,-0.53087 0.2249,-0.96355 0.2249,-1.5936 0,-0.72371 0.16162,-0.8253 0,-1.47977 -0.086,-0.34818 0.79686,-0.92051 0.89954,-1.02445 0.33393,-0.33805 0.33734,-0.91841 0.33734,-1.47977 0,-0.41681 0.35864,-1.04009 0.44976,-1.59359 0.0762,-0.46245 0.54422,-0.49621 0.67467,-1.02445 0.13047,-0.52832 0.0964,-1.10578 0.33733,-1.5936 0.23326,-0.47227 0.11244,-1.17968 0.11244,-1.70742 0,-0.66317 -0.33733,-0.71182 -0.33733,-1.47977 0,-0.42509 0.25304,-0.79664 0.11245,-1.36593 -0.10453,-0.42329 0.44978,-0.63184 0.44978,-1.25211 0,-0.33941 -0.74191,-0.63721 -0.89955,-0.7968 -0.40692,-0.41192 -0.44979,-0.35069 -0.44979,-1.25211 0,-0.45176 -0.6187,-0.74016 -0.89954,-1.02446 -0.40369,-0.40865 -0.56222,-0.59627 -0.56222,-1.25211 0,-0.29016 -0.72158,-0.61662 -0.89955,-0.79679 -0.41894,-0.4241 -0.61463,-0.3569 -0.44978,-1.02445 0.21802,-0.8828 -0.5278,-0.7968 0.67466,-0.7968 0.53414,0 0.88811,0.54596 1.012,0.7968 0.18741,0.37942 0.26591,-0.83833 0.56222,-1.13828 0.20939,-0.21198 1.20214,-0.1335 1.57421,-0.22766 0.37728,-0.0955 0.82996,-0.72635 1.01199,-0.91063 0.34356,-0.34777 0.38509,-0.73132 0.67467,-1.02445 0.30224,-0.30597 0.77109,-0.32527 1.12444,-0.68297 0.34354,-0.34778 0.83486,-0.27601 1.12443,-0.56914 0.28577,-0.28929 0.40963,-0.86998 0.67467,-1.13828 0.52821,-0.53472 0.74217,-0.35286 1.23688,-0.22766 0.53291,0.13487 1.18215,-0.0138 1.68664,0.11383 0.65452,0.16564 1.12455,-4.1e-4 1.2369,-0.45531 0.14579,-0.59035 0.75053,-0.47382 1.23688,-0.22766 0.53059,0.26857 0.81112,0.34148 1.46177,0.34148 0.58549,0 0.9742,0.15162 1.34931,0.34149 0.391,0.1979 1.25032,0.22765 1.46178,0.22765 0.39843,0 0.54319,-0.61641 0.89956,-0.79679 0.7513,-0.38029 0.5793,-0.41065 0.78709,-1.25211 0.13562,-0.54917 0.4655,-0.54466 1.01199,-0.68297 0.55678,-0.1409 0.99186,-0.10873 1.46179,-0.22766 0.549,-0.13894 0.6085,-0.66288 0.78709,-1.02445 0.20734,-0.41978 1.02149,-0.01 1.34933,-0.34149 0.41112,-0.41617 0.7553,-0.34148 1.46177,-0.34148 0.56262,0 0.31162,-0.648 0.89955,-0.7968 0.4666,-0.11808 0.33751,0.0568 0.89955,-0.22766 z"
         id="path3265" />
      <rect
         style="opacity:1;fill:#ffffff;fill-opacity:1;stroke:none;stroke-width:0.2;stroke-linecap:round;stroke-miterlimit:4;stroke-dasharray:none;stroke-dashoffset:0;stroke-opacity:1"
         id="rect4236"
         width="118.77593"
         height="21.209988"
         x="-225.00386"
         y="755.53778" />
      <rect
         style="opacity:1;fill:#ffffff;fill-opacity:1;stroke:none;stroke-width:0.2;stroke-linecap:round;stroke-miterlimit:4;stroke-dasharray:none;stroke-dashoffset:0;stroke-opacity:1"
         id="rect4238"
         width="18.78599"
         height="155.13591"
         x="95.747948"
         y="623.98828"
         transform="translate(-220.76186,-6.6183848)" />
      <rect
         style="opacity:1;fill:#ffffff;fill-opacity:1;stroke:none;stroke-width:0.2;stroke-linecap:round;stroke-miterlimit:4;stroke-dasharray:none;stroke-dashoffset:0;stroke-opacity:1"
         id="rect4240"
         width="118.77593"
         height="20.603989"
         x="-225.00386"
         y="611.97589" />
      <g
         id="g7342"
         style="fill:#f9f9f9">
        <path
           id="path2253"
           d="m 3.177342,143.42079 -1.3644205,2.29687 c 0.8981013,-0.30304 2.5123173,-0.0976 4.3012845,0.21098 1.788753,0.30856 3.767544,0.67148 5.318005,0.74752 1.567345,0.0769 2.125157,-0.40244 2.826053,-0.90423 0.700916,-0.50179 1.507665,-1.03842 3.661975,-0.93276 0.864031,0.0424 1.318792,-0.17325 1.556883,-0.54934 0.238302,-0.3761 0.278759,-0.90575 0.345538,-1.37354 0.06701,-0.46779 0.190286,-0.85317 0.540168,-1.08588 0.349902,-0.23273 0.928001,-0.29979 2.015193,0.0293 0.460268,0.1393 0.666463,0.51799 0.784882,1.01183 0.118635,0.49388 0.187755,1.13549 0.192454,1.74754 0.0047,0.61207 0.0079,1.18093 0.126581,1.6748 0.118427,0.49386 0.324613,0.87254 0.784881,1.01182 0.654333,0.19807 1.462903,-0.91517 2.196937,-2.25605 0.733834,-1.34089 1.39506,-2.92118 1.838521,-3.45553 0.912974,-1.10033 5.006281,-1.42206 6.026096,-2.34634 1.299053,-1.17717 1.18508,-2.02024 1.513398,-2.49814 0.328307,-0.47791 1.089346,-0.57229 3.985134,-0.43025 0.625608,0.0307 0.958375,-0.27953 1.150839,-0.77783 0.192245,-0.49831 0.219368,-1.22395 0.167916,-2.00795 -0.102663,-1.56803 -0.457697,-3.42634 -0.396324,-4.67756 0.04115,-0.84347 4.164856,-4.37082 4.469943,-4.64741 0.381693,-0.34586 0.512903,-0.76598 0.408231,-1.23142 -0.104914,-0.46545 -0.403897,-0.98933 -0.761068,-1.49732 -0.714361,-1.01602 -1.702721,-2.01695 -2.021487,-2.74107 -0.74784,-1.69881 -0.393491,-2.76638 -0.312013,-3.56103 0.04064,-0.39733 -2.9e-5,-0.7526 -0.295952,-1.05737 -0.295934,-0.30479 -0.84052,-0.55356 -1.835606,-0.85482 -0.453914,-0.13739 -0.426731,-0.39683 -0.174229,-0.70378 0.252721,-0.30694 0.764532,-0.65099 1.372686,-1.04504 1.216322,-0.78809 2.781113,-1.69848 3.313747,-2.34032 1.570485,-1.89276 2.798081,-2.51146 4.994338,-3.99599 1.010198,-0.68266 1.564944,-1.84773 2.022937,-2.95983 0.458014,-1.1121 0.870265,-2.18054 1.527005,-2.77558 1.189124,-1.077647 1.335307,-1.997948 0.96859,-2.733449 -0.366936,-0.735515 -1.306101,-1.310366 -2.422682,-1.648376 -1.315237,-0.398081 -2.742554,-0.385155 -4.093268,-0.200775 -1.350716,0.1844 -2.625615,0.510729 -3.450334,0.873626 -1.070808,0.471142 -1.792024,1.350881 -2.408578,2.315204 -0.616335,0.964321 -1.132094,2.07431 -1.603066,2.9109 -0.601154,1.06776 -1.340756,1.77346 -2.193535,2.18668 -0.852998,0.41322 -1.789297,0.4966 -2.722776,0.21407 -0.853871,-0.25851 -1.790013,-1.14013 -2.610281,-2.07471 -0.820268,-0.93456 -1.495671,-1.941854 -1.965599,-2.460227 -0.748618,-0.825645 -1.404497,-1.473064 -2.197663,-1.984939 -0.792935,-0.511861 -1.717047,-0.848989 -3.015098,-0.912663 -1.40461,-0.0689 -2.593074,-0.801509 -3.605355,-1.636842 -1.012511,-0.835347 -1.880553,-1.776149 -2.662767,-2.424904 -0.489472,-0.405915 -0.218531,-0.775893 0.210195,-1.449686 0.428494,-0.673797 0.983636,-1.624655 1.065073,-3.284919 0.02957,-0.602874 0.871764,-1.535273 1.71142,-2.279862 0.839427,-0.744588 1.726998,-1.300091 1.733059,-1.305471 0.686554,-0.622342 1.302888,-0.878794 1.851389,-0.882526 0.548511,-0.0037 1.033384,0.192238 1.432964,0.556962 0.799402,0.72949 1.261047,1.93865 1.40039,2.641079 0.07941,0.399991 0.381876,0.589757 0.805293,0.595689 0.423418,0.0059 0.982055,-0.17686 1.484215,-0.483386 0.501951,-0.306537 0.997752,-0.719161 1.313397,-1.256533 0.315446,-0.537391 0.43622,-1.17582 0.299875,-1.862444 -0.207719,-1.046104 -0.956473,-2.068605 -1.803033,-2.938913 -0.846568,-0.87032 -1.813415,-1.561309 -2.263516,-2.057706 -1.41132,-1.556486 -2.40663,-3.930833 -3.48433,-5.524256 -0.894066,-1.322004 -1.442078,-1.986308 -1.545947,-2.509168 -0.103638,-0.522859 0.287177,-0.923033 1.271357,-1.814792 0.853533,-0.773574 1.140373,-1.857534 1.464312,-2.917695 0.323939,-1.060173 0.646489,-2.11021 1.46113,-2.848345 0.775752,-0.70297 0.9526,-2.144356 0.870661,-3.572538 -0.08216,-1.428192 -0.423759,-2.825548 -0.530458,-3.363168 -0.111357,-0.560853 0.07538,-1.536776 0.105462,-2.15007 l -0.02866,-0.835695 -68.820774,3.715728 c 0.829304,4.176188 -1.334179,9.627797 -0.642983,13.108485 0.425227,2.141287 1.464554,4.100896 4.238592,7.160309 2.948167,3.25143 0.765272,1.661086 2.130836,4.762632 0.146969,0.333801 0.227696,1.047194 0.34141,1.546274 l 0.834576,-1.419077 24.073444,1.180823 8.7517789,18.644554 9.5194111,1.57933 10.229424,11.20844 -0.183709,3.74529 11.200473,11.25607 z"
           style="fill:#f9f9f9;fill-rule:evenodd;stroke:#000000;stroke-width:0.2;stroke-linecap:butt;stroke-linejoin:miter;stroke-miterlimit:4;stroke-dasharray:none;stroke-opacity:1" />
        <path
           transform="translate(-220.76186,-6.6183848)"
           id="path6369"
           d="m 166.36053,111.89092 c 0.71802,-0.0504 0.35745,-0.45734 0.23589,-0.94355 -0.0908,-0.36307 0.34267,-0.24147 -0.11794,-0.47178 -0.0606,-0.0303 -0.16537,-0.68457 -0.17692,-0.70767 -0.188,-0.37599 -0.17691,-0.44095 -0.17691,-0.88458 0,-0.27753 -0.29487,-0.30899 -0.29487,-0.70767 0,-0.32424 0.20324,-0.36017 0.059,-0.64869 -0.1392,-0.27839 -0.19962,-0.38099 -0.11795,-0.70767 0.0557,-0.22281 -0.12965,-0.51859 -0.17691,-0.70766 -0.041,-0.16405 -0.26156,0.21924 -0.41281,0.29486 -0.20579,0.1029 -0.0732,-0.486 -0.23589,-0.6487 -0.14743,-0.14743 -0.2064,-0.38331 -0.35383,-0.53074 -0.19659,-0.19659 -0.31111,-0.31111 -0.47178,-0.47178 -0.19256,-0.19256 -0.43742,-0.46205 -0.23589,-0.059 0.10691,0.21381 0.19072,0.58595 0.23589,0.76663 0.044,0.17582 0.30988,0.23699 0.35383,0.41281 0.0643,0.25716 0,0.61794 0,0.88458 0,0.42192 -0.0873,0.44347 0.11795,0.6487 0.27618,0.27617 -0.0365,0.4128 0.53075,0.4128 0.27179,0 0.10857,0.37531 0.17691,0.6487 0.0213,0.0852 -0.0722,0.46578 -0.11794,0.64869 -0.0906,0.36255 0.29486,0.61171 0.29486,1.00253 0,0.36094 0.0503,0.49621 0.11795,0.76663 0.084,0.33615 0.18496,0.47983 0.35383,0.6487 0.21913,0.21913 -0.0712,0.16022 0.4128,0.35383 z"
           style="fill:#f9f9f9;fill-rule:evenodd;stroke:#000000;stroke-width:0.2;stroke-linecap:butt;stroke-linejoin:miter;stroke-miterlimit:4;stroke-dasharray:none;stroke-opacity:1" />
        <path
           transform="translate(-220.76186,-6.6183848)"
           id="path7340"
           d="m 156.86601,101.09901 c 0.22283,0.22283 -0.059,-0.62842 -0.059,-0.94355 0,-0.335236 -0.17761,-0.472479 -0.35383,-0.648697 -0.17604,-0.176041 -0.0991,-0.434098 -0.17692,-0.589722 -0.11779,-0.235581 -0.25709,-0.375039 -0.4128,-0.530749 -0.0541,-0.05405 -0.11795,0.467415 -0.11795,0.648694 0,0.454542 0.10348,0.293746 0,0.707666 -0.0391,0.156486 0.22173,0.502428 0.29486,0.648698 0.11639,0.23277 0.19966,0.43554 0.35384,0.58972 0.11462,0.11462 0.32127,0.0577 0.47177,0.11794 z"
           style="fill:#f9f9f9;fill-rule:evenodd;stroke:#000000;stroke-width:0.2;stroke-linecap:butt;stroke-linejoin:miter;stroke-miterlimit:4;stroke-dasharray:none;stroke-opacity:1" />
      </g>
    </g>
  </g>
</svg>
